<?xml version="1.0" encoding="utf-8"?>
<!-- Generator: Adobe Illustrator 27.8.1, SVG Export Plug-In . SVG Version: 6.00 Build 0)  -->
<svg version="1.1" id="Layer_1" xmlns="http://www.w3.org/2000/svg" xmlns:xlink="http://www.w3.org/1999/xlink" x="0px" y="0px"
	 viewBox="0 0 7360.7 4912" style="enable-background:new 0 0 7360.7 4912;" xml:space="preserve">
<style type="text/css">
	.st0{fill:#0D232D;}
	.st1{fill:#273A42;}
</style>
<g>
	<path class="st0" d="M0.7,4912c0-1637.3,0-3274.7,0-4912c2453.3,0,4906.7,0,7360,0c0,1637.3,0,3274.7,0,4912
		C4907.4,4912,2454.1,4912,0.7,4912z"/>
	<path class="st1" d="M5265.8,4231.4c1.3,28-26.3,33.8-43,27.3c-13.6-5.2-18.7-22.3-10.8-34.9c3.5-5.5,7.7-10.8,12.3-15.4
		c6.4-6.5,14.3-9.3,23.5-6.4c9.6,3.1,15.8,9.3,17.5,19.5C5265.7,4224.8,5265.6,4228.1,5265.8,4231.4z"/>
	<path class="st1" d="M3138.8,2875.3c-8.1,0.2-13.3-0.2-18.3-2.5c-9.5-4.4-15.6-14.2-14.7-23.9c0.9-10.3,7.8-18.8,17.8-21.7
		c7.2-2.1,14.4-2.2,21.7-0.4c11.3,2.8,18.7,11.4,19.3,22.4c0.6,10.9-6,20.7-16.8,24.3C3144,2874.8,3140,2875.1,3138.8,2875.3z"/>
	<path class="st1" d="M2824.1,4184c0.1,6.8-0.2,11.4-2,15.8c-4.3,10.6-14,16.9-24.9,15.9c-10.2-0.9-18.5-7.8-21.3-18.1
		c-1.8-6.5-1.9-13.1-0.6-19.7c2.5-12.1,11.7-20.4,23.2-21c11.9-0.5,22.7,8.5,25.1,21.2C2824.1,4180.8,2824,4183.5,2824.1,4184z"/>
	<path class="st1" d="M258.2,219.4c13.5,0,24,10.2,24.3,23.7c0.3,13.2-10.2,24.3-23.4,24.8c-13.7,0.5-25.9-11.4-25.5-24.9
		C234.1,229.8,245,219.4,258.2,219.4z"/>
	<path class="st1" d="M291.3,4300.2c12.9,0,24.1,11,24.4,23.9c0.3,12.9-10.5,24.1-23.5,24.6c-14.2,0.5-25.5-10.5-25.2-24.7
		C267.3,4310.7,278.1,4300.2,291.3,4300.2z"/>
	<path class="st1" d="M5870.5,3324c-0.2,13.3-11,24-24.2,23.9c-13.1-0.1-24.3-10.8-24.6-23.8c-0.4-13.8,11.4-25.2,25.5-24.8
		C5860.5,3299.8,5870.7,3310.5,5870.5,3324z"/>
	<path class="st1" d="M7036.6,4444.7c0.4,13.3-9.9,24.5-23.1,25.1c-13.5,0.6-24.6-9.3-25.4-22.6c-0.8-14.1,10.1-26.2,23.9-26.3
		C7024.9,4420.7,7036.3,4431.7,7036.6,4444.7z"/>
	<path class="st1" d="M1316.6,3663.9c0.3,13.2-10,24.2-23.2,24.8c-13.5,0.5-24.5-9.3-25.3-22.6c-0.9-14.1,10-25.9,24.1-25.9
		C1305.3,3640.1,1316.2,3650.7,1316.6,3663.9z"/>
	<path class="st1" d="M5089.4,1453.3c0.1,13.4-10.1,24.1-23.5,24.5c-13.2,0.4-24.4-10-25-23.2c-0.6-13.8,11.1-26,24.6-25.8
		C5078.6,1429.1,5089.3,1440,5089.4,1453.3z"/>
	<path class="st1" d="M3469.5,1528.1c13.3-0.4,24.3,9.9,25,23.1c0.6,13.4-9.3,24.6-22.6,25.3c-14.2,0.8-26.1-10.1-26.2-24
		C3445.5,1539.8,3456.5,1528.5,3469.5,1528.1z"/>
	<path class="st1" d="M3945.4,3753.2c-0.3,13.5-10.9,23.6-24.4,23.5c-13.4-0.1-24-10.6-24.1-23.9c-0.2-13.9,11.7-25.4,25.5-24.7
		C3935.7,3728.8,3945.7,3739.7,3945.4,3753.2z"/>
	<path class="st1" d="M6902.4,2628.1c13.2,0,24,10.8,24.2,24c0.2,13.5-10.1,24.2-23.6,24.5c-14.2,0.4-25.9-11.1-25.4-24.9
		C6878,2638.8,6889.2,2628.1,6902.4,2628.1z"/>
	<path class="st1" d="M5540.6,2630.7c-0.1,13.1-11,24.2-24,24.4c-13.8,0.3-25.1-11.5-24.6-25.7c0.5-13.3,11.4-23.5,24.8-23.2
		C5530.2,2606.6,5540.7,2617.4,5540.6,2630.7z"/>
	<path class="st1" d="M4484.6,2113.5c0,13.2-10.7,24.1-24,24.3c-13.5,0.2-24.3-10-24.7-23.4c-0.4-14.1,10.9-25.8,24.8-25.5
		C4473.7,2089.2,4484.7,2100.5,4484.6,2113.5z"/>
	<path class="st1" d="M788.6,2168.8c-0.1,13.2-10.8,23.8-24.1,23.9c-14.2,0.1-25-11.2-24.4-25.5c0.6-13.2,11.8-23.5,25-23
		C778.2,2144.6,788.7,2155.6,788.6,2168.8z"/>
	<path class="st1" d="M4726.5,805.4c-0.5,13.5-11.3,23.5-24.8,23.3c-13.2-0.2-24.1-11.2-24.1-24.2c0-13.7,12.2-25.1,26.1-24.4
		C4716.8,780.8,4727,792.2,4726.5,805.4z"/>
	<path class="st1" d="M6583.4,839.9c-13.3,0.1-24.2-10.4-24.5-23.7c-0.3-13.5,9.8-24.4,23.2-24.9c14.2-0.5,26,10.8,25.7,24.6
		C6607.7,828.9,6596.6,839.8,6583.4,839.9z"/>
	<path class="st1" d="M1896.4,2166.3c13.5-0.4,24.3,9.5,24.9,22.9c0.7,14.1-10.4,25.9-24.3,25.9c-12.8-0.1-24-11.2-24.1-24.2
		C1872.7,2177.6,1883.1,2166.7,1896.4,2166.3z"/>
	<path class="st1" d="M2624,879.4c13.2,0.4,23.9,11.4,23.8,24.4c-0.1,13.6-12.5,25-26.3,24c-13.1-0.9-23.3-12.4-22.5-25.5
		C2599.7,888.9,2610.6,878.9,2624,879.4z"/>
	<path class="st1" d="M807.5,1037.7c-13.5-0.4-23.5-11-23.4-24.5c0.1-13.1,10.9-24.1,24-24.2c13.6-0.2,25.2,12,24.5,25.8
		C831.9,1027.9,820.8,1038.1,807.5,1037.7z"/>
	<path class="st1" d="M6098.5,1697.8c-13.5-0.5-23.7-11-23.6-24.6c0.1-13.9,12.5-25.4,26.1-24.3c12.8,1,23.6,13.3,22.8,25.8
		C6122.9,1687.9,6111.7,1698.2,6098.5,1697.8z"/>
	<path class="st1" d="M6256.5,2174.7c-0.2-4.7,0.7-9.2,3.1-13.3c6.8-11.4,21.7-12.3,29.9-1.8c5.8,7.4,5.9,20.4,0.2,27.8
		c-4.8,6.2-12.5,9-19.3,7C6262.6,2191.8,6256.8,2183.7,6256.5,2174.7z"/>
	<path class="st1" d="M6243.1,3779.3c9.8,0.3,17.4,8.4,16.9,18.2c-0.5,9.3-9.4,17.4-18.5,16.9c-9.9-0.5-17.3-8.7-16.8-18.4
		C6225.2,3786.1,6233.1,3779,6243.1,3779.3z"/>
	<path class="st1" d="M4499.5,4259.3c-0.5,10-8.8,17.3-18.6,16.5c-10-0.9-16.8-9-16-19c0.7-8.7,8.5-15.7,17.5-15.7
		C4491.7,4241.1,4500,4250,4499.5,4259.3z"/>
	<path class="st1" d="M1463.6,1014.1c-0.2,8.3-8.3,16.6-16.6,16.8c-9.7,0.3-18.1-7.6-18.1-17.1c0-10,7.5-17.6,17.5-17.7
		C1456,996.1,1463.9,1004.3,1463.6,1014.1z"/>
	<path class="st1" d="M346.8,1909.2c8.4,0.2,16.4,8.1,16.7,16.5c0.3,9.8-7.3,17.9-16.9,18.1c-9.8,0.1-17.4-7.4-17.5-17.4
		C328.9,1916.8,337.1,1909,346.8,1909.2z"/>
	<path class="st1" d="M847.8,375.1c0.2,9.8-7.6,17.6-17.6,17.5c-9.9-0.1-17.6-8.2-17.3-17.9c0.3-8.5,8-16.3,16.7-16.8
		C838.9,357.3,847.6,365.5,847.8,375.1z"/>
	<path class="st1" d="M3953.8,4669.9c9.3-0.4,17.8,7.9,17.9,17.5c0.1,9-6.9,16.5-15.9,17.1c-10,0.7-18.3-6.3-18.9-16.1
		C3936.4,4679.1,3944.3,4670.3,3953.8,4669.9z"/>
	<path class="st1" d="M5214.9,2950.1c-0.1,9.4-8.9,17.5-18.5,17c-9-0.4-16.1-7.7-16.4-16.8c-0.3-10,7.3-18.1,17.1-18
		C5206.8,2932.3,5215,2940.5,5214.9,2950.1z"/>
	<path class="st1" d="M2359.6,2548.6c-10.1,0.3-17.9-7.4-17.7-17.5c0.2-9.1,7.4-16.1,16.8-16.3c9.2-0.2,17,6.6,17.8,15.4
		C2377.3,2539.9,2369.5,2548.3,2359.6,2548.6z"/>
	<path class="st1" d="M3113.4,1773.7c-0.3,8.9-7.5,16.1-16.5,16.3c-9.7,0.2-17.5-7.5-17.5-17.3c0-10.5,7.2-17.7,17.2-17.2
		C3106.5,1755.9,3113.6,1763.7,3113.4,1773.7z"/>
	<path class="st1" d="M5676.4,4380.5c-0.5,9.7-8.6,16.7-18.6,16.1c-9.6-0.6-17-9.2-16-18.7c0.9-8.6,8.7-15.3,17.7-15.1
		C5669.5,4363,5676.9,4370.7,5676.4,4380.5z"/>
	<path class="st1" d="M528.3,4555.1c0.3,9.8-7.5,17.4-17.6,17.3c-8.9-0.1-16-7.1-16.6-16.3c-0.6-8.7,6.5-16.5,15.6-17.2
		C519.6,4538.1,528,4545.4,528.3,4555.1z"/>
	<path class="st1" d="M3052.5,3867.5c9.9,0.4,17.2,8.3,16.7,18.4c-0.4,9.1-7.5,15.4-17.3,15.4c-10.2-0.1-17.2-7.8-16.5-18.1
		C3036.3,3873.4,3043.1,3867.2,3052.5,3867.5z"/>
	<path class="st1" d="M2568,1404.4c-9.3,0.2-16.2-6.6-16.5-16.1c-0.3-10.5,6.8-17.8,17-17.6c9.7,0.2,16.6,6.7,16.7,15.9
		C2585.4,1396.8,2578.1,1404.3,2568,1404.4z"/>
	<path class="st1" d="M2178,2960.9c-0.2,10.1-8,17.1-18.3,16.3c-9.4-0.6-15.9-7.9-15.5-17.2c0.4-9.7,8.7-17.1,18.6-16.6
		C2171.8,2943.9,2178.2,2951.3,2178,2960.9z"/>
	<path class="st1" d="M5961.3,497.1c-0.1,8.6-6.4,15-15,15.4c-9.4,0.3-16.7-6.3-17.1-15.6c-0.4-9.1,7-16.5,16.2-16.5
		C5954.5,480.4,5961.4,487.7,5961.3,497.1z"/>
	<path class="st1" d="M4231.2,4340.8c0.3,11.1-5.4,18.6-13.7,18c-7.5-0.6-12.3-7.4-12.3-17.5c0.1-9.9,5.2-16.7,12.8-16.9
		C4225.6,4324.1,4230.9,4330.7,4231.2,4340.8z"/>
	<path class="st1" d="M1947.7,1719.6c-2.6-0.2-4-0.2-5.3-0.4c-7.2-1.2-12.7-6.9-12.5-13c0.2-6.2,5.7-11.7,13.2-12.3
		c3.9-0.3,7.9,0.1,11.7,0.9c5.6,1.2,9.3,5.9,9.6,11.1c0.3,5-3.3,10.6-8.3,12.2C1953,1719.1,1949.7,1719.3,1947.7,1719.6z"/>
	<path class="st1" d="M3880.5,420.3c-0.3,7.5-6.8,14.1-13.8,14.2c-7.8,0.1-14.3-7.2-14.3-15.8c0-8.2,5.8-14.2,13.5-13.9
		C3874.1,405.1,3880.8,412.2,3880.5,420.3z"/>
	<path class="st1" d="M3672,1047c0.3,7.6-5.8,13.4-13.9,13.5c-8.6,0-15.9-6.6-15.9-14.4c0-6.9,6.9-13.5,14.3-13.8
		C3664.5,1031.9,3671.7,1038.8,3672,1047z"/>
	<path class="st1" d="M3209.1,882.6c-0.4,7.9-6.1,13.2-14.1,13.3c-8.8,0.1-14.7-6.2-14.3-15c0.4-8,6-13.3,14-13.4
		C3203.5,867.5,3209.5,873.8,3209.1,882.6z"/>
	<path class="st1" d="M7166.5,1808.5c-8.6,0-14.7-6.5-14.2-15.2c0.4-7.8,6.2-13.2,14.1-13.3c8,0,13.7,5.3,14.1,13.2
		C7181.1,1802.1,7175.2,1808.5,7166.5,1808.5z"/>
	<path class="st1" d="M2106.4,522.5c-7.1-0.1-13.6-6.9-13.9-14.4c-0.3-8.3,7.1-15.7,15.1-15c7.2,0.6,13.2,7.7,12.8,15.2
		C2120.1,516,2113.5,522.6,2106.4,522.5z"/>
	<path class="st1" d="M5937,3192.4c-0.4,8.2-7.9,15-15.6,14c-7-0.9-12.6-7.9-12.4-15.2c0.2-7.3,6.6-14,13.6-14.1
		C5930.3,3176.8,5937.3,3184.3,5937,3192.4z"/>
	<path class="st1" d="M456,2528.4c7.4-0.2,14.5,5.9,15.1,12.9c0.6,7.8-6.9,15.1-15.1,14.9c-7.4-0.2-14.1-6.8-14.1-13.9
		C441.8,2535.2,448.6,2528.6,456,2528.4z"/>
	<path class="st1" d="M5142.2,543.6c-7.5,0.4-13.5-5.6-13.7-13.5c-0.2-8,5-13.8,12.8-14.4c8-0.6,14.4,4.6,15,12.1
		C5156.8,535.7,5150.1,543.2,5142.2,543.6z"/>
	<path class="st1" d="M3857.4,2961.1c0,8.2-6,14.3-13.6,13.9c-7.5-0.4-13.7-6.7-14.1-14.2c-0.4-7.6,5.8-13.6,13.9-13.6
		C3851.6,2947.3,3857.5,2953.2,3857.4,2961.1z"/>
	<path class="st1" d="M5276.8,1915.7c0.1-12.1,7.8-19.7,19.8-19.7c11.3,0,19.8,8.9,19.5,20.3c-0.3,9.6-9.7,18.9-19.3,19.1
		C5285.3,1935.6,5276.7,1927.1,5276.8,1915.7z"/>
	<path class="st1" d="M6098.5,2319.6c8.1-0.2,13.9,5.1,14.5,13c0.6,8.1-4.6,14.6-12.2,15c-8.1,0.5-15.4-6-15.9-14.2
		C6084.6,2325.9,6090.6,2319.8,6098.5,2319.6z"/>
	<path class="st1" d="M995.2,2991.3c8,0.1,14,6.1,13.6,13.6c-0.4,7.4-6.9,13.9-14,13.9c-7,0-13.4-6.7-13.6-14.2
		C981.1,2997,987.1,2991.2,995.2,2991.3z"/>
	<path class="st1" d="M2164.3,3753.2c-0.5,7.6-7.2,14-14.2,13.6c-7.3-0.3-13.4-7-13.4-14.5c0-7.6,6.2-13.3,14.3-13.1
		C2158.9,3739.4,2164.8,3745.5,2164.3,3753.2z"/>
	<path class="st1" d="M2196.8,4468.1c-0.1,7.6-6.4,13.1-14.7,12.6c-7.3-0.4-12.7-5.5-13-12.3c-0.4-8.3,6.9-15.9,14.7-15.2
		C2191.1,4453.8,2197,4460.5,2196.8,4468.1z"/>
	<path class="st1" d="M697.7,615.3c8.1-0.4,14.4,5.1,14.5,12.8c0.1,7.5-6,14.4-13.1,14.8c-7,0.4-13.9-5.9-14.5-13.4
		C684,621.8,689.7,615.6,697.7,615.3z"/>
	<path class="st1" d="M4363.9,3070.2c0,7.1-6.6,13.6-14.1,13.7c-6.9,0.1-12.6-5.2-13-12.1c-0.4-8.2,6.8-15.6,14.7-14.8
		C4358,3057.5,4363.9,3063.9,4363.9,3070.2z"/>
	<path class="st1" d="M841.4,4074.3c-7.7-0.5-13.5-7.2-13-14.9c0.4-7,6.5-12.3,13.5-11.8c7.6,0.5,13.8,7.5,13.2,14.8
		C854.6,4068.9,847.9,4074.8,841.4,4074.3z"/>
	<path class="st1" d="M3909.7,2159.9c-6.9,0-12.6-5.3-12.8-12.2c-0.3-7.5,5.5-14.2,12.9-14.7c7-0.5,14.3,6.3,14.1,13.4
		C3923.8,2153.5,3917.1,2159.9,3909.7,2159.9z"/>
	<path class="st1" d="M1471.1,2432.6c0.4,6.3-5,12.9-11.4,13.7c-7.8,1.1-15.3-5.8-15.3-14.1c0-6.9,5.3-12.4,12.2-12.6
		C1464.2,2419.5,1470.6,2425.1,1471.1,2432.6z"/>
	<path class="st1" d="M2708.9,2806.2c0.5-7.4,7.2-13.6,14.4-13.3c7.2,0.4,13.5,7.8,12.4,14.8c-1.1,7.3-8.1,12.8-15.4,12
		C2713.4,2819.1,2708.4,2813.1,2708.9,2806.2z"/>
	<path class="st1" d="M2659.3,1826.9c-0.3,7.4-6.6,13.5-14.2,13.6c-7.7,0.1-13.7-6.5-12.8-14.2c0.8-7.5,7.7-13.3,14.9-12.7
		C2653.7,1814.1,2659.5,1820.5,2659.3,1826.9z"/>
	<path class="st1" d="M3571.8,4521.7c0.3,7.2-6,13.8-13.5,14.2c-6.9,0.3-12.8-4.7-13.4-11.6c-0.7-8.2,6.2-15.7,14.2-15.3
		C3565.6,4509.2,3571.5,4515.2,3571.8,4521.7z"/>
	<path class="st1" d="M1877.2,1256.6c-0.5,6.9-6.5,12.2-13.3,11.9c-7.4-0.3-13.9-7-13.9-14.2c0-7.2,7.6-13.8,14.6-12.9
		C1872.2,1242.4,1877.7,1249.1,1877.2,1256.6z"/>
	<path class="st1" d="M1688.8,2983.7c-6.6,0.3-12.5-5.3-12.5-12.1c0-6.3,4.4-11.3,10.5-12c6.8-0.8,13,4.2,13.6,11
		C1701,2977,1695.4,2983.4,1688.8,2983.7z"/>
	<path class="st1" d="M4878.2,1861.3c-7,0-12.6-5.7-12.2-12.4c0.3-6.5,6.8-12.3,13.1-11.8c5.8,0.4,10.7,5.7,10.9,11.7
		C4890.4,1856.2,4885.4,1861.4,4878.2,1861.3z"/>
	<path class="st1" d="M3515.5,2465.8c-0.2,6.5-6.3,11.9-13.1,11.5c-6.2-0.3-10.8-5.1-11-11.4c-0.2-6.9,5.2-12.8,11.8-12.8
		C3509.7,2453.2,3515.7,2459.4,3515.5,2465.8z"/>
	<path class="st1" d="M391.4,1178.7c-0.1,6.6-6.8,12.7-13.3,12.1c-5.9-0.5-10.8-6.1-10.7-12.4c0.1-7.3,5.7-12.4,13-11.7
		C386.6,1167.3,391.6,1172.7,391.4,1178.7z"/>
	<path class="st1" d="M4295.2,750.8c-6.6,0-12.1-6-11.9-12.8c0.2-6.2,4.9-11.1,11.1-11.4c6.7-0.4,13,5.2,13.1,11.6
		C4307.7,744.6,4301.6,750.8,4295.2,750.8z"/>
	<path class="st1" d="M5175.2,4094.8c-6.6,0-12.1-5.9-11.8-12.8c0.2-6.2,4.9-11.1,11.1-11.4c6.7-0.4,13,5.1,13.1,11.6
		C5187.7,4088.6,5181.6,4094.8,5175.2,4094.8z"/>
	<path class="st1" d="M6342.1,4445.5c0.1,7.2-5.2,12.2-12.4,11.9c-6-0.3-11.4-5.2-11.8-10.9c-0.5-6.3,5.3-12.8,11.8-13.2
		C6336.3,4432.8,6342,4438.5,6342.1,4445.5z"/>
	<path class="st1" d="M534,3476.6c0.5,6.6-3.7,11.8-10,12.6c-7,0.9-13.6-4.2-14.1-10.9c-0.5-6.4,5.8-13,12.4-13
		C528.3,3465.3,533.5,3470.4,534,3476.6z"/>
	<path class="st1" d="M6802.7,376.3c-6.8-0.5-11.9-6.9-10.9-13.7c0.9-6.2,6.6-10.7,12.4-10c6.8,0.9,11.9,7.2,11.1,13.8
		C6814.7,372.2,6808.8,376.8,6802.7,376.3z"/>
	<path class="st1" d="M5526.9,1100.6c6.9,0,12.3,5.5,12.4,12.5c0.1,5.9-4.9,10.9-11.3,11.2c-7,0.3-12.5-5.3-12.3-12.3
		C5516,1105.7,5521,1100.6,5526.9,1100.6z"/>
	<path class="st1" d="M1401.3,4334.7c6.5-0.5,11.8,3.7,12.7,10c0.9,7-4.2,13.5-10.9,14c-6.4,0.5-13-5.8-13-12.3
		C1390.1,4340.5,1395.1,4335.2,1401.3,4334.7z"/>
	<path class="st1" d="M6023.4,4466.1c0.5,6.5-4.8,12.6-11.6,13.2c-6,0.5-11.3-4-11.9-10.3c-0.7-6.8,4.5-12.9,11.3-13.1
		C6017.3,4455.6,6022.9,4460.4,6023.4,4466.1z"/>
	<path class="st1" d="M5110.1,3631.3c0.2,6.9-5.4,12.6-12.1,12.4c-5.8-0.2-11.4-5.2-12-10.8c-0.7-6.3,4.9-12.8,11.4-13.2
		C5104.5,3619.1,5109.9,3624,5110.1,3631.3z"/>
	<path class="st1" d="M5847.5,728.1c-0.3,6.4-6.8,12.1-13.3,11.7c-6-0.4-10.8-5.5-10.9-11.7c-0.2-7.2,5-12.6,12-12.5
		C5842.2,715.6,5847.8,721.4,5847.5,728.1z"/>
	<path class="st1" d="M522,1815.6c6.3-0.1,11.4,4.4,12.1,10.8c0.7,7-4.9,13.2-11.7,13.2c-6,0-11.7-5.1-12.3-10.9
		C509.3,1822.1,515.1,1815.7,522,1815.6z"/>
	<path class="st1" d="M1436.3,529.6c0,6.8-5.8,12.2-12.7,11.8c-6.3-0.4-11.1-5-11.5-11.1c-0.4-6.7,5-12.7,11.7-13.1
		C1430.2,516.9,1436.3,522.9,1436.3,529.6z"/>
	<path class="st1" d="M6672.4,2146.1c0.1,6.7-5.8,12.9-12.2,12.7c-6.8-0.2-12.2-5.9-12-12.8c0.1-6.2,4.8-10.9,11.2-11.4
		C6666.3,2134,6672.3,2139.4,6672.4,2146.1z"/>
	<path class="st1" d="M2690.1,452.2c0,7.2-5.2,12.4-12.2,12.2c-6.7-0.2-12.3-6.2-11.9-12.8c0.4-5.7,5.6-10.8,11.5-11.3
		C2684.2,439.8,2690.1,445.3,2690.1,452.2z"/>
	<path class="st1" d="M609.1,2938.9c-0.2-6.1,4.6-11.6,10.7-12.2c7.3-0.7,13.2,4.4,13.3,11.5c0.1,6.1-4.6,11.7-10.6,12.5
		C616.1,2951.6,609.4,2945.6,609.1,2938.9z"/>
	<path class="st1" d="M3647.5,4028c-0.2,6.7-6.9,12.4-13.6,11.6c-6-0.7-10.8-6.3-10.5-12.5c0.3-6.6,5.1-11.4,11.3-11.6
		C3641.8,4015.3,3647.7,4021.1,3647.5,4028z"/>
	<path class="st1" d="M1260.3,1717c0.4,6.8-5.2,12.4-12.1,12.3c-6.4-0.1-11.3-4.4-11.9-10.5c-0.7-6.7,4.3-12.9,11-13.6
		C1253.6,1704.6,1259.9,1710.3,1260.3,1717z"/>
	<path class="st1" d="M4516.4,2994c-0.2,6.7-6.3,12-13.1,11.4c-6.3-0.5-10.9-5.3-11-11.5c-0.2-6.9,5.3-12.6,12.1-12.7
		C4510.7,2981.1,4516.5,2987.3,4516.4,2994z"/>
	<path class="st1" d="M6243.5,3147.5c0.2,6.3-6,12.3-12.7,12.2c-5.9-0.1-11.1-5.1-11.5-11.1c-0.5-7.1,4.5-12.9,11.4-13.1
		C6237.6,3135.3,6243.3,3140.7,6243.5,3147.5z"/>
	<path class="st1" d="M2888.3,3389.2c0.2,6.7-5.5,12.4-12.3,12.2c-6.3-0.2-11.3-4.8-11.8-10.7c-0.5-6.7,4.6-12.9,11.3-13.4
		C2881.8,3376.7,2888.1,3382.6,2888.3,3389.2z"/>
	<path class="st1" d="M6837.2,3642.9c-0.2,6.7-6.3,12.4-12.8,11.9c-6.4-0.4-12-7-11.4-13.5c0.6-5.9,5.8-10.7,11.9-10.7
		C6832.1,3630.5,6837.4,3635.8,6837.2,3642.9z"/>
	<path class="st1" d="M5309.2,1915.4c0.1,7.1-5.1,12.7-12.2,13c-7.8,0.3-14.3-5.3-14.8-12.9c-0.5-7.3,5.7-13.8,13.5-14.2
		C5303,1901,5309.1,1907.3,5309.2,1915.4z"/>
</g>
</svg>
