<?xml version="1.0" encoding="utf-8"?>
<!-- Generator: Adobe Illustrator 27.8.1, SVG Export Plug-In . SVG Version: 6.00 Build 0)  -->
<svg version="1.1" id="Layer_1" xmlns="http://www.w3.org/2000/svg" xmlns:xlink="http://www.w3.org/1999/xlink" x="0px" y="0px"
	 viewBox="0 0 143.4 43.7" style="enable-background:new 0 0 143.4 43.7;" xml:space="preserve">
<style type="text/css">
	.st0{fill:#1BB896;stroke:#000000;stroke-width:2;stroke-miterlimit:10;}
</style>
<g>
	<path class="st0" d="M33.8,36.5l-10.9,1.4l-1.3-5h-5l-1.1,5L4.3,36.8l8.7-29.3L25.3,7L33.8,36.5z M20.8,26.2l-1.7-7.6l-1.6,7.6
		H20.8z"/>
	<path class="st0" d="M59.9,30.6c0,1.2-0.2,2.3-0.7,3.1s-1,1.6-1.8,2.2s-1.6,1.1-2.6,1.5c-1,0.4-2,0.7-3,0.9s-2.1,0.4-3.2,0.4
		s-2.1,0.1-3,0.1c-0.9,0-1.8,0-2.8-0.1c-1-0.1-1.9-0.2-2.9-0.3S38,38.1,37,37.9c-0.9-0.3-1.8-0.6-2.7-1l0-28.3
		C35.2,8.2,36,7.9,37,7.6c0.9-0.3,1.9-0.5,2.8-0.7s1.9-0.3,2.9-0.4c1-0.1,1.9-0.1,2.8-0.1c1,0,2.1,0.1,3.2,0.2s2.1,0.4,3.1,0.7
		s1.9,0.7,2.7,1.2s1.6,1.1,2.2,1.8c0.6,0.7,1.1,1.6,1.5,2.5s0.5,2.1,0.5,3.3c0,0.8-0.1,1.6-0.4,2.3s-0.6,1.4-1,1.9s-1,1.1-1.6,1.5
		s-1.3,0.7-2.1,0.9c1,0.2,1.8,0.6,2.6,1.1c0.8,0.5,1.5,1.1,2,1.8c0.5,0.7,1,1.5,1.3,2.3S59.9,29.6,59.9,30.6z M45.6,25.2
		c-0.4,0-0.8,0-1.2,0.1l-0.1,5c0.2,0,0.4,0.1,0.6,0.1s0.4,0.1,0.6,0.1c0.3,0,0.6,0,1-0.1c0.4-0.1,0.7-0.2,1-0.4
		c0.3-0.2,0.6-0.5,0.8-0.8s0.3-0.8,0.3-1.3s-0.1-1-0.3-1.4s-0.5-0.6-0.8-0.8c-0.3-0.2-0.6-0.3-1-0.4C46.2,25.3,45.9,25.2,45.6,25.2z
		 M48.7,18.1c0-0.4-0.1-0.8-0.3-1.1c-0.2-0.3-0.4-0.5-0.6-0.7c-0.3-0.2-0.5-0.3-0.8-0.4c-0.3-0.1-0.6-0.1-0.8-0.1
		c-0.3,0-0.6,0-0.9,0.1s-0.5,0.2-0.8,0.3L44.4,21c0.3,0,0.8,0,1.3-0.1s1-0.2,1.4-0.4c0.5-0.2,0.9-0.5,1.2-0.9
		C48.6,19.3,48.7,18.7,48.7,18.1z"/>
	<path class="st0" d="M87.7,21.6c0,1.3-0.2,2.6-0.5,3.9s-0.8,2.4-1.3,3.5c-0.6,1.1-1.3,2.1-2.1,3C83,32.8,82,33.6,81,34.2
		c-1,0.6-2.2,1.1-3.4,1.5s-2.5,0.5-3.9,0.5c-1.3,0-2.6-0.2-3.8-0.5c-1.2-0.3-2.3-0.8-3.4-1.4c-1-0.6-2-1.3-2.8-2.2
		c-0.8-0.9-1.6-1.8-2.2-2.9c-0.6-1-1.1-2.2-1.4-3.4c-0.3-1.2-0.5-2.5-0.5-3.8c0-1.3,0.2-2.5,0.5-3.7s0.8-2.4,1.3-3.5s1.3-2.1,2.1-3
		s1.7-1.7,2.8-2.4c1-0.7,2.1-1.2,3.3-1.5c1.2-0.4,2.4-0.5,3.8-0.5c2.1,0,4.1,0.3,5.8,1c1.8,0.7,3.2,1.6,4.5,2.8
		c1.2,1.2,2.2,2.7,2.9,4.4C87.4,17.5,87.7,19.4,87.7,21.6z M77.9,22.2c0-0.6-0.1-1.2-0.3-1.8c-0.2-0.6-0.5-1.1-0.8-1.6
		c-0.4-0.5-0.8-0.8-1.3-1.1c-0.5-0.3-1.1-0.4-1.8-0.4c-0.7,0-1.3,0.1-1.8,0.4s-1,0.6-1.4,1c-0.4,0.4-0.7,0.9-0.9,1.5
		c-0.2,0.6-0.3,1.2-0.3,1.8c0,0.6,0.1,1.2,0.3,1.8s0.4,1.2,0.8,1.7s0.8,0.9,1.3,1.2s1.1,0.5,1.8,0.5s1.3-0.1,1.9-0.4
		c0.5-0.3,1-0.6,1.4-1.1c0.4-0.5,0.7-1,0.9-1.6S77.9,22.8,77.9,22.2z"/>
	<path class="st0" d="M115.4,7.5c-0.7,5.2-1.2,10.3-1.7,15.4c-0.5,5.1-0.9,10.2-1.3,15.4l-9,0.7l0.4-3.4c-0.3,0.3-0.6,0.6-1,0.9
		c-0.4,0.2-0.8,0.5-1.2,0.6c-0.4,0.2-0.9,0.3-1.4,0.3c-0.5,0.1-0.9,0.1-1.3,0.1c-1,0-1.9-0.2-2.8-0.6c-0.9-0.4-1.7-0.9-2.4-1.5
		s-1.4-1.3-2-2.2c-0.6-0.8-1.1-1.7-1.5-2.6c-0.4-0.9-0.7-1.8-0.9-2.8c-0.2-1-0.3-1.9-0.3-2.8c0-1.3,0-2.7,0.1-4.1s0.1-2.8,0.3-4.3
		s0.3-2.8,0.5-4.2s0.5-2.7,0.8-4c1.8,0.1,3.6,0.2,5.4,0.2c1.8,0.1,3.6,0.1,5.4,0.1c-0.3,1.3-0.7,2.6-1,3.8c-0.3,1.3-0.6,2.6-0.9,3.9
		c-0.3,1.3-0.5,2.6-0.6,3.9c-0.2,1.3-0.2,2.6-0.2,4c0,0.3,0,0.7,0,1.3s0.1,1.1,0.2,1.7s0.3,1,0.6,1.5c0.3,0.4,0.6,0.6,1.1,0.6
		c0.6,0,1.1-0.2,1.5-0.7s0.8-1.1,1.2-1.9c0.3-0.8,0.6-1.7,0.9-2.8s0.4-2.2,0.6-3.3c0.2-1.1,0.3-2.3,0.4-3.5c0.1-1.2,0.2-2.3,0.2-3.3
		c0.1-1,0.1-2,0.1-2.8c0-0.8,0-1.5,0-1.9c0-0.3,0-0.6,0-0.9c0-0.3,0-0.6-0.1-0.9c1,0,1.9,0.1,2.8,0.1s1.9,0,2.8,0c0.7,0,1.5,0,2.2,0
		C113.9,7.5,114.7,7.5,115.4,7.5z"/>
	<path class="st0" d="M140,7.4l-0.2,9.3l-6.5,0.3l-0.8,20.4l-9.3,0.5l-0.8-20.4l-6.5,0.4l0.3-10.4L140,7.4z"/>
</g>
</svg>
