<?xml version="1.0" encoding="utf-8"?>
<!-- Generator: Adobe Illustrator 27.8.1, SVG Export Plug-In . SVG Version: 6.00 Build 0)  -->
<svg version="1.1" id="Layer_1" xmlns="http://www.w3.org/2000/svg" xmlns:xlink="http://www.w3.org/1999/xlink" x="0px" y="0px"
	 viewBox="0 0 200 550" style="enable-background:new 0 0 200 550;" xml:space="preserve">
<style type="text/css">
	.st0{fill:#FFFFFF;}
	.st1{fill:#E2F3F5;}
	.st2{fill:#E3F3F5;}
</style>
<g>
	<path class="st0" d="M147.2,226.9c0,33.9,0,67.8,0,101.7c0,27.7,0,55.5-0.3,83.2c0,0.7-3.2,1.4-5,1.9c-3.8,0.9-7.7,1.7-11.5,2.5
		c-0.3,0.1-0.6,0.3-0.9,0.5c0.3,0.1,0.7,0.1,1,0.2c21,1.9,40.4,6.8,52.9,26.1c15.9,24.4,3.4,64.6-23.6,73
		c-21.3,6.6-38.9-2.3-54.4-16.5c-4.9-4.5-9.3-9.7-13.9-14.6c-0.3-0.3-0.6-0.5-0.9-0.8c0.1,0.4,0.1,0.9,0.2,1.3
		c0.5,1.5,0.8,3.2,1.6,4.5c6.8,10.3-2.2,14.8-8,19.4c-21.8,17.4-63.3,9.3-70.5-31.8c-5.6-31.7,5.5-50.7,35.8-57.9
		c6.6-1.6,13.7-0.8,20.6-1.1c0.4,0,0.8,0,1.3,0c-0.3-0.3-0.6-0.7-0.9-0.8c-4.5-1.6-9.1-2.9-13.5-4.7c-1.3-0.6-3.1-2.3-3.1-3.6
		c-0.3-55.4-0.5-110.7-0.6-166.1c-0.1-34.1-0.2-68.1-0.3-102.2c0-0.5,0.9-1.4,1.5-1.5c3.4-0.5,6.9-0.7,10.3-1.1
		c1.3-0.2,2.6-0.7,3.9-1c-1.3-0.2-2.6-0.4-3.9-0.7c-24.7-6-45-17.8-53.2-43.4c-6.7-20.7,6.5-46.8,27.6-56.8
		c18.8-8.9,42.9-2,55.3,15.9c0.3,0.4,0.1,1.2-0.1,1.8C93.4,60,92,65.6,90.6,71.3c-0.1,0.5,0.1,1.1,0.1,1.7c0.3-0.5,0.6-1,0.9-1.5
		c9.4-19.2,23.3-34,45.1-37.2c27-4,51.4,17.7,53.3,45.5c1.6,22.9-12,42.2-36.9,51.7c-7.3,2.8-15.1,4.4-22.6,6.6
		c-0.3,0.1-0.7,0.2-1,0.3c0.3,0.2,0.6,0.5,1,0.6c4.6,0.5,9.3,0.8,13.9,1.5c1.1,0.2,2.8,1.5,2.8,2.3
		C147.3,170.8,147.3,198.8,147.2,226.9C147.2,226.9,147.2,226.9,147.2,226.9z"/>
	<g>
		<g>
			<path class="st1" d="M126.8,39.5c9.7-1.5,20.5,1.1,29.5,4.6c10.6,4.1,20.6,11,24.6,22c4.5,12.5,2,26.6-5.1,37.6
				c-7.5,11.6-19.2,19.9-30.5,27.5c-5.9,3.9-0.4,13.4,5.6,9.5c13.4-8.8,26.9-18.7,35.3-32.7c8.1-13.6,10.7-31.2,4.8-46.1
				c-9.6-24.5-42.4-36.8-67.2-32.9C116.9,30,119.9,40.6,126.8,39.5L126.8,39.5z"/>
		</g>
	</g>
	<g>
		<g>
			<path class="st1" d="M97.8,63.7c1.5-21.4-16.5-39.4-37.9-37.8c-7,0.5-7.1,11.5,0,11c15.8-1.2,28,10.9,26.9,26.8
				C86.3,70.8,97.3,70.7,97.8,63.7L97.8,63.7z"/>
		</g>
	</g>
	<g>
		<g>
			<path class="st1" d="M95.7,502c7.2,6.6,14.9,12.9,24,16.7c9,3.7,18.6,4.6,28.3,4.6c7.2,0,7.2-11.2,0-11.2
				c-8.1,0-16.3-0.5-23.9-3.7c-7.8-3.2-14.3-8.7-20.4-14.3C98.4,489.1,90.4,497.1,95.7,502L95.7,502z"/>
		</g>
	</g>
	<g>
		<g>
			<path class="st1" d="M89.4,492.4c-2.6,7.9-12.4,13.3-19.6,16.4c-8.1,3.5-16.8,4.8-25.6,4.4c-7.2-0.4-7.2,10.9,0,11.2
				c11.3,0.6,22.5-1.7,32.7-6.6c9.7-4.6,19.8-11.9,23.3-22.5C102.5,488.5,91.6,485.5,89.4,492.4L89.4,492.4z"/>
		</g>
	</g>
	<g>
		<path class="st2" d="M129.1,516.5c16.7,3.5,39-0.3,49.2-13.4c10.5-13.4,14-32,9.6-48.4c-4.4-16.5-17.8-30.2-34.1-35.1
			c7.5,8.3,16.2,16.6,21.3,26.5c5.1,9.9,9.6,17.9,6.3,32.9c-3.2,14.6-11.4,19.6-23.4,27.2c-11.6,7.3-17.7,8-28.8,10.4"/>
		<g>
			<path class="st1" d="M128.7,517.8c12.5,2.5,26.3,1.5,37.9-4c12.1-5.8,19.4-17.6,22.6-30.3c7-27.6-7.6-56.6-35.1-65.2
				c-1.4-0.4-2.2,1.3-1.3,2.3c15.7,17.1,34.5,37.2,26.2,62.3c-3.2,9.7-10.9,15.4-19.2,20.6c-5.1,3.3-10.3,6.3-16.1,8.3
				c-4.8,1.6-9.9,2.5-14.8,3.6c-1.7,0.4-1,3,0.7,2.7c5.8-1.3,11.8-2.3,17.3-4.5c5.7-2.2,10.9-5.4,16-8.7
				c8.3-5.4,15.5-11.5,18.7-21.2c8.6-26.2-10.5-47.1-26.9-65c-0.4,0.8-0.9,1.5-1.3,2.3c26.1,8.2,39.8,35.7,33.2,61.8
				c-3.1,12.1-9.9,23.2-21.4,28.7c-10.9,5.2-24,6.1-35.8,3.8C127.7,514.8,126.9,517.4,128.7,517.8L128.7,517.8z"/>
		</g>
	</g>
	<g>
		<g>
			<path class="st1" d="M135.7,140.3c0,71.1,0,142.3,0,213.4c0,19.8,0,39.6,0,59.5c0,11.6,18,11.6,18,0c0-71.1,0-142.3,0-213.4
				c0-19.8,0-39.6,0-59.5C153.7,128.7,135.7,128.7,135.7,140.3L135.7,140.3z"/>
		</g>
	</g>
	<path d="M56.3,525.2c-16-1.4-29.8-7.6-39.1-21c-15.9-22.9-21.1-69.8,15-87c2.7-1.3,5.4-2.8,8.3-3.1c5.7-0.6,6.5-3.4,6.4-8.6
		c-0.5-88.5-0.8-177-1.2-265.4c0-0.6-0.3-1.6-0.8-1.9c-22-10.8-38.6-26-42.1-51.8c0-2.6,0-5.2,0-7.8c0.7-3.7,0.9-7.5,2.2-11
		c8.1-23,22.9-38.5,47.8-42.5c2.9,0,5.8,0,8.8,0c15.3,2.1,27.6,9.5,37.7,21c0.1,0.2,1.1-0.1,1.4-0.4c15.8-16.8,34.9-24.2,57.4-17.2
		c23.5,7.3,35.7,25.4,39,48.9c3.4,24.1-10.9,47.4-33.6,57.1c-6.1,2.6-8.6,5.5-8.5,12.9c0.5,53.8,0.3,107.7,0.3,161.5
		c0,34.2,0,68.5,0.1,102.7c0,0.8,0.8,2,1.6,2.2c25.8,8.5,41.9,29.6,41.1,55.8c-0.7,22.3-14.3,52.1-45.9,55.2c-0.1,0-0.2,0.2-0.4,0.2
		c-3,0-6,0-9.1,0c-16.5-1.9-30.4-9.1-42-20.9c-0.2-0.2-0.8-0.2-0.9,0c-9.3,12.9-22.1,19.4-37.7,20.9C60,525.2,58.1,525.2,56.3,525.2
		z M147.2,226.9C147.2,226.9,147.2,226.9,147.2,226.9c0.1-28.1,0.1-56.1-0.1-84.2c0-0.8-1.7-2.2-2.8-2.3c-4.6-0.7-9.2-1-13.9-1.5
		c-0.3,0-0.6-0.4-1-0.6c0.3-0.1,0.6-0.2,1-0.3c7.6-2.2,15.3-3.8,22.6-6.6c24.9-9.6,38.5-28.9,36.9-51.7
		c-1.9-27.8-26.3-49.4-53.3-45.5c-21.8,3.2-35.7,18-45.1,37.2c-0.3,0.5-0.6,1-0.9,1.5c0-0.6-0.2-1.2-0.1-1.7
		c1.4-5.7,2.8-11.3,4.2-16.9c0.1-0.6,0.3-1.4,0.1-1.8c-12.5-18-36.5-24.8-55.3-15.9c-21.1,10-34.3,36.1-27.6,56.8
		c8.3,25.7,28.6,37.4,53.2,43.4c1.3,0.3,2.6,0.5,3.9,0.7c-1.3,0.4-2.6,0.9-3.9,1c-3.4,0.4-6.9,0.6-10.3,1.1c-0.6,0.1-1.5,1-1.5,1.5
		c0,34.1,0.2,68.1,0.3,102.2c0.2,55.4,0.3,110.7,0.6,166.1c0,1.2,1.8,3,3.1,3.6c4.4,1.8,9,3.2,13.5,4.7c0.4,0.1,0.6,0.5,0.9,0.8
		c-0.4,0-0.8,0-1.3,0c-6.9,0.3-14-0.5-20.6,1.1c-30.3,7.2-41.4,26.2-35.8,57.9c7.2,41.1,48.8,49.1,70.5,31.8
		c5.8-4.6,14.7-9.1,8-19.4c-0.9-1.3-1.1-3-1.6-4.5c-0.1-0.4-0.1-0.9-0.2-1.3c0.3,0.3,0.6,0.5,0.9,0.8c4.6,4.9,9,10,13.9,14.6
		c15.4,14.2,33.1,23.1,54.4,16.5c27-8.4,39.5-48.5,23.6-73c-12.5-19.3-31.9-24.2-52.9-26.1c-0.3,0-0.7-0.1-1-0.2
		c0.3-0.2,0.6-0.4,0.9-0.5c3.8-0.8,7.7-1.6,11.5-2.5c1.8-0.4,5-1.2,5-1.9c0.3-27.7,0.3-55.5,0.3-83.2
		C147.2,294.7,147.2,260.8,147.2,226.9z"/>
</g>
</svg>
