<?xml version="1.0" encoding="utf-8"?>
<!-- Generator: Adobe Illustrator 27.8.1, SVG Export Plug-In . SVG Version: 6.00 Build 0)  -->
<svg version="1.1" id="Layer_1" xmlns="http://www.w3.org/2000/svg" xmlns:xlink="http://www.w3.org/1999/xlink" x="0px" y="0px"
	 viewBox="0 0 76 73" style="enable-background:new 0 0 76 73;" xml:space="preserve">
<style type="text/css">
	.st0{fill:#040504;}
	.st1{fill:#FFFFFF;}
	.st2{fill:#BFCECB;}
	.st3{fill:#BFCDCA;}
	.st4{fill:#C0CFCB;}
	.st5{fill:#929F9C;}
	.st6{fill:#83676B;}
	.st7{fill:#F9F5E5;}
	.st8{fill:#7D6166;}
	.st9{fill:#C5C5C2;}
	.st10{fill:#929E9C;}
	.st11{fill:#97A29E;}
	.st12{fill:#919F9C;}
	.st13{fill:#333232;}
	.st14{fill:#7D6066;}
	.st15{fill:#806468;}
	.st16{fill:#F7F8F8;}
</style>
<g>
	<g>
		<g>
			<path class="st0" d="M17.6,70.7c-0.3-0.6-0.5-1-0.7-1.5c-0.5-1-0.6-2.1-0.7-3.3c-0.1-1.1,0-2.3,0.2-3.4c0.2-0.6,0.2-1.2-0.2-1.8
				c-0.9-1.7-1.7-3.3-2.7-5c-0.3-0.7-0.7-1.4-1.1-2.1c-0.1-0.2-0.3-0.5-0.4-0.7c-0.7-1.1-1.2-2.3-1.3-3.6c-0.2-1.6-0.3-3.3-0.2-4.9
				c0.1-1.5,0.4-3,1.1-4.4c0.2-0.4,0-0.5-0.3-0.6c-1.1-0.3-2.1-0.7-3.2-1.2c-0.8-0.3-1.6-0.3-2.5-0.5c-1.2-0.3-2.4-0.6-3.6-1.2
				c-0.3-0.1-0.6-0.2-0.8-0.6c-0.2-0.2-0.5-0.3-0.5-0.7c0-0.1,0-0.3,0-0.4c0.1-0.6,0.3-1,0.8-1.3c0.5-0.4,1.1-0.6,1.7-0.7
				c0.3-0.1,0.5-0.2,0.6-0.6c0.1-0.6,0.3-1.1,0.5-1.7c0.2-0.5,0.5-1,0.8-1.4c0.4-0.5,0.9-0.9,1.5-1.2c0.3-0.1,0.5-0.3,0.7-0.4
				c0.9-0.5,1.9-0.8,2.9-1.1c1.6-0.5,3.2-0.9,4.9-0.6c0.2,0,0.3,0,0.5,0s0.4-0.1,0.5,0.1c0.1,0.2-0.1,0.3-0.3,0.5
				c-0.6,0.3-1.1,0.8-1.6,1.2c-0.5,0.3-1.1,0.7-1.5,1.2c-0.7,0.6-1.3,1.3-1.3,2.3c-0.4,1.5,0.1,2.7,1.4,3.4c0.2,0.1,0.3,0.2,0.5,0.3
				C13.6,35,14,35,14.4,35c1.2,0.3,2.3,0,3.3-0.8c1.6-0.9,3.2-1.6,4.9-2.2c0.6-0.3,1.2-0.5,1.8-0.8c0.7-0.3,1.3-0.8,2.1-1.1
				s1.5-0.7,2.2-1.2c0.3-0.2,0.6-0.4,0.9-0.7c0.6-0.4,0.9-1.1,1.3-1.5c0.8-0.9,1.5-1.8,2.3-2.8c0.6-0.9,1.4-1.6,1.8-2.6
				c0.7-1.4,1.1-3,2-4.4c1.6-2.9,3.4-5.6,5.9-7.8c0.3-0.3,0.3-0.5,0.1-0.8c-0.6-1-1.2-2.1-1.5-3.2c-0.2-0.6-0.4-1.3-0.1-2
				c0.7-0.6,1.4-0.3,2,0c0.3,0.1,0.6,0.3,0.9,0.4c0-0.3-0.1-0.5-0.1-0.7c-0.1-0.6-0.2-1.2,0-1.9c0.2-0.6,0.6-0.9,1.2-0.7
				c0.2,0,0.3,0.1,0.5,0.2c0.6,0.3,1.1,0.6,1.7,1c1.1,0.8,2.1,1.8,3.1,2.7C51,4.6,51.5,5,51.8,5.5c0.3,0.5,0.7,0.8,1.3,0.7
				c0.9,0.1,1.8,0.4,2.7,0.6c0.9,0.2,1.6,0.7,2.4,1c1,0.4,2,0.8,2.8,1.6c0.6,0.6,0.6,0.5,1.3,0.2c1.1-0.2,2.2-0.1,3.2,0.4
				c0.1,0,0.2,0.1,0.2,0.2c0.6,0.4,0.8,0.9,0.7,1.6c-0.1,0.4-0.1,0.9-0.1,1.3c0,0.3-0.1,0.5-0.2,0.7c-0.2,0.3-0.2,0.6,0.1,0.9
				c0.3,0.2,0.6,0.4,1,0c0.3-0.3,0.6-0.5,0.9-0.7c0.9-0.6,1.8-0.9,2.8-1c2-0.1,2.8,0.6,2.8,2.6c0,0.4-0.2,0.7-0.3,1
				c-0.7,1.2-1.8,2.1-2.8,3c-1,0.8-1.9,1.7-2.7,2.7c-0.5,0.6-0.9,1.4-1.2,2.1c0,0.1-0.1,0.2,0,0.3s0.2,0,0.3,0
				c0.2-0.1,0.2-0.3,0.3-0.4c0.2-0.4,0.4-0.9,0.7-1.2c0.1-0.1,0.2-0.3,0.3-0.4c0.7-0.8,1.7-0.7,2.3,0.2c0.1,0.2,0.1,0.4,0.3,0.5
				c0.3-0.3,0.4-0.8,0.7-1.1c0.4-0.5,0.9-0.8,1.5-0.7s0.9,0.5,1.1,1c0.1,0.2,0.1,0.5,0.3,0.7c0.9,0.9,1,2.1,0.3,3.2
				c-1.2,1.7-2.8,2.9-4.6,3.9c-0.3,0.2-0.6,0.3-0.3,0.8c0.2,0.3,0.1,0.6,0.2,1c0,0.5,0,1,0.2,1.5c0.1,0.4,0.1,0.7,0,1.1
				c-0.1,0.3,0,0.6,0,0.9c0.1,0.9,0,1.8-0.1,2.7c-0.1,0.5,0,0.9,0,1.4c-0.1,0.5,0,1.1-0.1,1.6c-0.1,1.1-0.2,2.2-0.6,3.3
				c-0.2,0.4-0.4,0.9-0.9,0.9s-0.8-0.4-1-0.8c-0.2-0.3-0.3-0.7-0.5-1c-0.2,1.8-0.5,3.5-0.9,5.2c-0.1,0.4-0.2,0.8-0.3,1.2
				c-0.4,1.5-0.9,3.1-1.8,4.5c-0.4,0.7-1,1.2-1.8,1.6c-0.4,0.2-0.8,0.2-1.2,0c-0.3-0.2-0.4-0.4-0.5-0.6c-0.1-0.6-0.2-1.1-0.1-1.6
				c-0.3,0.8-1.1,1.4-1.7,2.1c-0.6,0.6-1.3,1.1-2.1,1.4c-0.2,0.1-0.4,0.3-0.5,0.5C55.6,59,55,60,54.5,61c-0.4,0.8-0.8,1.6-1,2.4
				c-0.1,0.3-0.1,0.5-0.2,0.8c0,0.4-0.1,0.9,0,1.3c0.3,1.3,0.2,2.6,0.3,3.8c-0.1,0.5-0.1,1-0.3,1.4c-0.2,0.5-0.4,0.9-0.9,1
				c-0.9-0.2-1.7,0.4-2.6,0.3c-0.9-0.1-1.8,0-2.7-0.1c-0.1-0.1-0.2,0-0.3,0c-0.5,0-0.9,0.1-1.4,0.2c-0.5,0.1-0.3-1.3-0.8-1.4
				c-1.6-4.2-1.1-8.8-1.9-8.7c-9-0.4-7.1,2.3-6,9.2c-1.7,0-3.3,0-5-0.1c-1.2,0-4.1-8.5-5.2-8c-4.2,1.9-1.9,4.8-2.9,8.1
				C22.7,73.2,20,70.7,17.6,70.7z"/>
			<path class="st1" d="M43.9,48.7c0.3,1,0.6,1.9,1.2,2.7c0.1,0.1,0.1,0.2,0,0.3c-0.3,0.6,0,0.9,0.4,1.2c0.3,0.2,0.6,0.5,0.8,0.7
				c1.4,1.3,3.1,1.6,4.9,1.6c1,0,2-0.1,3-0.5c0.1,0,0.3-0.2,0.4,0s0.3,0.3,0.2,0.6c-0.1,0.3-0.2,0.5-0.3,0.8c0.3,0,0.4-0.2,0.5-0.3
				c0.2-0.2,0.4-0.4,0.7-0.4c0.7,0,1.2-0.4,1.7-0.8c0.7-0.7,1-1.6,1.4-2.4c0.2-0.3,0-0.6-0.3-0.8s-0.6-0.5-1.1-0.2s-1.1,0.6-1.7,0.9
				c-1,0.5-2.1,0.7-3.2,0.9c-0.7,0.1-1.3-0.2-1.8-0.5c-0.2-0.1-0.3-0.3-0.3-0.5c0-0.5-0.3-0.6-0.8-0.6c-0.3,0-0.7,0.1-1,0
				s-0.7-0.3-0.7-0.7c0-0.1,0-0.2,0.1-0.2c1.4,0.1,2.7-0.5,4-0.8c0,0,0.1,0,0.2,0c0.3,0,0.4,0.1,0.3,0.3s-0.2,0.4-0.3,0.6
				c-0.2,0.4,0,0.7,0.3,0.7c0.8,0,1.6,0,2.3-0.5c1.5-1.1,3.3-1.9,4.8-3c0.1,0.2,0,0.3,0,0.4c0,0.3,0,0.5,0.3,0.6s0.4-0.1,0.6-0.2
				c0.4-0.4,0.8-1,1.2-1.5C62.4,46,63,45,63.5,44c0.1-0.2,0.1-0.1,0.1-0.1c-0.1,0.1-0.1,0.3-0.1,0.4c0,1.3-0.6,2.5-1,3.7
				c-0.1,0.5-0.4,0.9-0.1,1.4c-0.1,0.4-0.4,0.8-0.1,1.3c0.1,0.2,0,0.4-0.1,0.6c-0.2,0.8-0.6,1.6-0.6,2.5c0,0.3-0.1,0.5,0.1,0.9
				c0.7-1.1,1.2-2.3,1.7-3.4c0.6-1.4,1.2-2.9,1.5-4.4c0.4-2.5,0.9-4.9,1.4-7.4c0.1-0.3,0.1-0.7,0.3-1c0.2,1.1,0.3,2.1,0.7,3.2
				c0.2-0.3,0.4-0.6,0.4-0.9c0.2-1.4,0.4-2.7,0.3-4.2c-0.1-1.1-0.1-2.1-0.2-3.2c-0.3,0-0.5,0.2-0.6,0.4c-1,1.3-2.4,1.9-4,2.1
				c-3.4,0.4-6.5-0.5-9.3-2.6c-1.4-0.7-2.7-1.6-4.2-2.3c-0.2-0.1-0.4-0.3-0.6-0.4c-0.5,0.1-0.9-0.2-1.3-0.5
				c-1.7-1.1-3.2-2.4-4.4-3.9c-0.6-0.8-1.1-1.6-1.4-2.6c-0.8-2.9-0.4-5.6,0.6-8.4c0.3-0.9,0.7-1.8,0.9-2.8c0.1-0.4,0.1-0.7,0-1.2
				c-0.5,0.5-1,1-1.5,1.5c-2.1,1.8-3.5,4.2-4.7,6.7c-1.4,2.9-3,5.7-5.1,8.3c-0.4,0.4-0.6,0.9-0.2,1.4c0.2,0.3,0.1,0.8,0.3,0.8
				c0.4-0.1,0.8-0.3,1.1-0.7c0.3-0.3,0.5-0.6,0.9-0.7c0,0.6,0.1,1.1,0.1,1.6c0,0.2-0.1,0.3,0.2,0.6c0.6-1.1,0.6-2.4,1.2-3.4
				c0.4-0.7,0.4-1.6,0.8-2.2c-0.2,1.5-0.8,3.1-0.9,4.7c0,0.5-0.2,0.9-0.2,1.4c0,0.2,0,0.5,0.2,0.6s0.3-0.2,0.5-0.4
				c0.2-0.3,0.3-0.6,0.4-0.9c0.1,0.9,0.4,1.7,0,2.6c-0.3-0.1-0.4,0.1-0.6,0.2c-0.7,0.6-0.8,0.6-1.4,0c0,0-0.1,0-0.2,0v0.1
				c-0.1,0.6,0.1,1.2,0.2,1.8c0.5,2.3,1.5,4.3,2.6,6.4c0.4,0.8,0.9,1.6,1.3,2.4c0.1,0.3,0.3,0.5,0.5,0.7c0.9,1,2,1.8,3.1,2.5
				C42.8,47.1,43.4,47.9,43.9,48.7z"/>
			<path class="st1" d="M19.6,67.5c0.7,0.8,1.4,1.8,2,2.7c0.1,0.1,0.1,0.4,0.4,0.3s0.3-0.3,0.3-0.5c0-0.5,0-0.9-0.1-1.4
				c-0.3-1.1-0.5-2.2-0.5-3.3c0-0.3,0-0.4,0.2-0.6c0.7-0.8,1.3-1.5,1.9-2.3c0.9-1.1,2-1.9,3.2-2.7c0.3-0.2,0.6-0.3,0.9-0.3
				c2.3-0.2,4.4-1,6.3-2.2c0.3-0.2,0.6-0.5,0.8-0.8c0.4-0.6,1-1.2,1.4-1.8c0.6-0.7,0.4-1-0.4-1.1c-0.1,0-0.4,0.1-0.3-0.3
				c0-0.8-0.1-1.6,0-2.4c0-1.9,0-3.8-1-5.5c-0.1-0.2-0.3-0.4-0.5-0.6c-0.3-0.2-0.5-0.2-0.5,0.3c0,0.6,0.1,1.1,0.2,1.7
				c-0.8-0.9-1.2-2-2.1-2.8c-0.5-0.5-1-0.9-1.4-1.3c-0.1-0.1-0.2-0.2,0.1-0.2c0.1,0,0.2,0,0.2,0.1c0.8,0.3,1.3,0.3,2.2,0.3
				c0.2,0,0.4,0,0.6,0c0.5,0,0.6-0.1,0.5-0.6c-0.3-1.6-0.9-3.2-1.4-4.8c-0.4-1.4-0.8-2.7-1.2-4.1c-0.1-0.5-0.4-0.8-0.9-0.9
				c-0.6-0.1-1.1-0.5-1.2-1.2c0-0.2,0-0.6-0.5-0.4c-2.7,1.5-5.8,2.1-8.6,3.5c-0.6,0.3-1.2,0.6-1.7,0.9c-0.3,0.1-0.5,0.3-0.6,0.7
				s-0.6,0.6-1,0.8c-1.2,0.4-2.4,0.2-3.6-0.1c-0.9-0.3-1.7-0.7-2.6-1.1c-0.8-0.3-1.2-1-1.4-1.8c-0.5-2.2,0-4.1,1.7-5.6
				c0.2-0.2,0.3-0.3,0.6-0.6c-0.7,0.1-1.2,0.3-1.8,0.5c-1.1,0.4-2.1,0.8-3.1,1.3c-0.7,0.4-1.4,0.8-1.6,1.6c-0.2,1.1,0.5,2,1,2.9
				c0.4,0.6,0.3,1-0.5,1.2c-0.8,0.1-1.5,0.3-2.3,0c-0.3-0.1-0.6-0.2-0.9,0.1c0.2,0.3,0.6,0.2,0.7,0.4c1.2,0.2,2.5,0.1,3.7,0.3
				s2.5,0.4,3.6,1c0.3,0.1,0.5,0.2,0.8,0.2c1.2,0.1,2.3,0.4,3.4,0.8c0.8,0.3,0.9,0.5,0.6,1.3c-0.3,0.7-0.6,1.4-0.9,2.2
				c-0.1,0.2-0.2,0.4-0.3,0.6c-1.1,1.1-1.2,2.4-0.9,3.8c0.1,0.3,0.1,0.7,0.2,1c0.4,2.6,1.6,4.8,3.1,6.9c1.1,1.4,2.1,2.8,3.2,4.2
				c0.4,0.6,0.6,1.1,0.4,1.8c-0.5,2-0.8,4-0.7,6.1C19.5,66.5,19.3,67,19.6,67.5z"/>
			<path class="st1" d="M68.9,29.1c0.4-0.2,0.8-0.5,1.2-0.7c-0.3-0.6-1.1-0.8-1.7-0.3c-0.3,0.2-0.4,0.3-0.6,0
				c-0.1-0.1-0.2-0.1-0.3-0.2c-0.7-0.1-1.4-0.5-2-0.7c-0.2-0.1-0.3-0.1-0.5-0.2c-0.9-0.4-1-0.7-0.7-1.7c0.4-1.3,1.2-2.3,2-3.3
				c0-0.1,0.1-0.1,0.2-0.2c1.2-1.1,5.3-4.2,5.9-5.6c-0.3,0.1-1.6,0.4-1.9,0.5c-0.2,0.1-0.6-0.1-0.8-0.3c-0.2-0.2-0.3-1-0.2-1.2
				c0.6-1,1.4-0.8,2.3-1.7c-0.4,0-1.4-0.6-2.8,0.3c-1.3,1-2.7,3.2-4,4.2c-0.3,0.2-0.6,0.4-1.2,0.4c0.4-0.6,0.8-1.1,1.2-1.6
				c0.2-0.2,0.2-0.3,0-0.5c-0.5-0.7-1-1.3-1.7-1.8c-0.4-0.3-0.7-0.5-1-0.9s-0.7-0.8-1.2-1c-0.7-0.4-1.1-1-1.4-1.7
				c-2.1-2.1-4.8-2.4-7.5-2.6c-0.9-0.1-1.8,0-2.7,0c-0.1,0-0.2,0-0.3,0c-0.5,0.6-0.8,0.2-1.2-0.1c-1.2-1-2.3-2-3.6-2.8
				c-0.5-0.3-0.9-0.5-1.5-0.6c0,0.3,0.1,0.4,0.2,0.5C44,6.7,44.9,8,45.6,9.5c0.5,1,0.8,2,1,3.1c0.2,1.2-0.1,2.3-0.6,3.4
				c-0.3,0.8-0.6,1.5-0.7,2.4c-0.2,0.7-0.3,1.4-0.3,2.1c-0.1,0.8,0.2,1.5,0.5,2.2c1.5,2.8,3.4,5.2,6.4,6.7c2,1,4,1.9,6,2.7
				c0.3,0.1,0.7,0.2,1.1,0c2.1-1,4.5-1.5,6.8-2C66.8,29.7,67.8,29.4,68.9,29.1z"/>
			<path class="st2" d="M35.6,50.9c-0.3,0.9-0.1,1.7-0.1,2.6c0.3,0.2,0.6,0,0.8,0c0.7,0,1,0.3,0.7,1c-0.1,0.3-0.3,0.5-0.5,0.7
				c-0.4,0.4-0.8,0.9-0.7,1.6c-0.4,0.6-1,1.2-1.6,1.7c-0.3,0.3-0.4,0.4,0.1,0.6c1,0.5,2,0.7,3,0.8c2,0.1,3.9,0,5.9-0.7
				c0.2-0.1,0.3-0.2,0.5-0.2c1.2,0.1,1.8-0.6,2.3-1.7c0.3-0.6,0.7-1.2,1.4-1.4l0,0c-0.7-0.5-1.4-0.9-2-1.5s-1.1-1.3-1.4-2.1
				c-0.1-0.3-0.3-0.6-0.6-0.8c-4.2-3-6.5-7.1-7.6-12c0,0,0-0.1,0-0.2c0.9,1.4,1.6,2.8,2.6,4.1c-0.1-0.9-0.6-1.5-1-2.3
				c-1.3-2.3-2.4-4.7-2.9-7.3c-0.1-0.3-0.1-0.6-0.1-0.9c-0.1,1,0,2-0.1,3.1c-0.3-0.2-0.4-0.5-0.5-0.7c-0.5-1.1-0.5-2.3-0.6-3.5
				c0-0.2,0-0.3,0-0.5c-0.1-0.8-0.1-0.8-0.9-0.7c-0.5,0-0.9-0.1-0.9-0.6c0-0.2-0.1-0.4-0.4-0.2c-0.6,0.4-1.2,0.7-1.9,1.1
				c0.2,0,0.3,0.2,0.3,0.4c0.1,0.9,0.5,1.3,1.4,1.4c0.4,0.1,0.6,0.3,0.7,0.7c0.7,2.6,1.5,5.2,2.4,7.8c0.1,0.4,0.2,0.9,0.3,1.3
				c0.1,0.3-0.1,0.3-0.3,0.3c-0.5,0-1-0.2-1.5,0.3c-0.2,0.2-0.4,0-0.5-0.1c-0.4-0.3-0.7-0.4-1.2-0.5c0,0.2,0.1,0.3,0.3,0.4
				c0.6,0.3,1.1,0.8,1.6,1.2c0.3,0.3,0.6,0.4,0.9,0c0.3-0.3,0.7-0.2,1.1,0c0.8,0.6,1.3,1.5,1.6,2.4c0.4,1.5,0.3,2.9-0.1,4.4
				C35.7,51.2,35.7,50.8,35.6,50.9z"/>
			<path class="st2" d="M68.9,29.1c-0.7,0-1.4,0.2-2.1,0.4c-1.3,0.4-2.6,0.6-3.9,0.9c-1.3,0.3-2.6,0.8-3.9,1.4
				c-0.3,0.2-0.6,0.2-0.9,0.1c-2.8-1.2-5.6-2.3-8.1-4c-1-0.7-1.7-1.6-2.4-2.5c-1-1.3-2-2.6-2.4-4.3c-0.2-0.8,0.1-1.5,0.2-2.3
				c0.1-1,0.4-2,0.9-3c0.7-1.7,0.8-3.6,0.1-5.4c-0.7-1.9-1.8-3.6-3-5.2l-0.1-0.1C43.5,5.6,43.7,6,44,6.5c1.1,2,1,4.1,0.6,6.2
				c-0.3,1.8-1,3.4-1.2,5.2c-0.1,1-0.2,1.9-0.2,2.9c0,2.7,1.4,4.6,3,6.5c0.9,1,2,2,3,3c0,0.2,0,0.3,0.2,0.4c1.4,0.5,2.4,1.5,3.7,2.1
				c0.3,0.1,0.5,0.3,0.9,0.3c-0.1-0.3-0.1-0.4,0.3-0.3c1,0.4,2,0.8,3,1.1c1.7,0.6,3.5,0.8,5.3,0.6c1.7-0.2,3-1.2,4.2-2.2
				c0.1-0.1,0.2-0.2,0.3-0.2c0.1-0.1,0.3-0.3,0.2-0.4c-0.1-0.2-0.3-0.2-0.5-0.2c-0.3,0.1-0.7,0.1-1,0c-0.2-0.1-0.4-0.1-0.4-0.3
				s0.2-0.2,0.4-0.3C66.7,30.2,67.8,29.7,68.9,29.1z"/>
			<path class="st2" d="M19.6,67.5c-0.1-2.2,0-4.3,0.5-6.5c0.1-0.6,0.2-1.2,0.4-1.8s-0.3-0.9-0.6-1.3c-1.3-1.8-2.8-3.6-4.1-5.5
				c-1.1-1.6-2-3.4-2.2-5.4c-0.1-0.9-0.4-1.7-0.4-2.6c0.1-0.7,0.1-1.5,0.8-2.1c0.2-0.2,0.3-0.4,0.4-0.6c0.4-1,0.8-2,1.3-3
				c0.1-0.3,0-0.4-0.2-0.6c-0.6-0.5-1.3-0.6-2-0.8c-0.8-0.2-1.6-0.3-2.4-0.4c-0.6,0-1.1-0.5-1.8-0.6c-1.4-0.4-2.8-0.6-4.3-0.6
				c-0.6,0-1.2,0-1.9,0C3.7,36,4.5,36,5.2,36.3c1.9,0.6,3.9,1,5.9,1.5c1.2,0.3,2.1,1.2,3.1,1.8c0.2,0.1,0.1,0.2,0,0.3
				c-0.3,0.4-0.6,0.7-0.9,1c-0.4,0.3-0.6,0.7-0.7,1.2c-0.2,1.2-0.4,2.5-0.4,3.7c0,1.1,0,2.2,0.2,3.3c0.1,0.7,0.3,1.4,0.7,2
				c1.3,1.9,2.1,4.1,3.1,6.1c0.7,1.4,1.2,2.7,1.9,4.1c0.2,0.3,0.2,0.7,0.1,1.1c-0.1,0.9-0.2,1.8-0.3,2.6c-0.1,1.3,0.3,2.5,0.7,3.7
				c0.2,0.6,0.6,1.2,1.4,1.5c-0.1-0.6-0.5-1-0.7-1.5c-0.1-0.4-0.3-0.8-0.4-1.2c0-0.1-0.1-0.3,0-0.4c0.2-0.1,0.3,0.1,0.4,0.2
				C19.5,67.4,19.6,67.5,19.6,67.5z"/>
			<path class="st2" d="M34.2,64.7c-0.7-1.3-0.1-2.4,0.8-3.4c-1.2-0.3-2.4-0.5-3.5-0.9c-0.1,0-0.3,0-0.4,0.1
				c-0.8,0.3-1.6,0.7-2.5,0.7c-0.3,0-0.3,0.2-0.1,0.4c1.4,2.3,2.9,4.5,4.2,6.8c0.3,0.5,0.7,1,1.5,1.3c-0.3-1.1-0.6-2-1-2.9
				c-0.1,0-0.2,0-0.3-0.1c-0.2-0.5-0.4-1-0.6-1.6c-0.1-0.3,0-0.4,0.3-0.4C33.1,64.7,33.6,64.9,34.2,64.7z"/>
			<path class="st2" d="M62.5,49.2c0-1.2,0.6-2.2,0.9-3.3c0.2-0.6,0.3-1.2,0.3-1.8c-0.3,0-0.3,0.2-0.3,0.3c-0.3,0.8-0.6,1.7-1,2.5
				c-0.3,0.6-0.6,1.2-1.1,1.7s-1.1,0.9-1.8,0.5c-0.3-0.2-0.6,0.1-0.8,0.3c-0.6,0.6-1.4,1.1-2.1,1.5c-1.1,0.6-2.4,1-3.6,1
				c-0.8,0-1-0.1-1.1-0.9c0-0.4-0.2-0.7-0.6-0.6c-1,0.3-2.1,0.3-3.2,0.3c0,0.5,0.4,0.9,1.1,1c0.2,0,0.3,0,0.5,0
				c0.5-0.1,0.9,0,0.8,0.6c0,0.2,0.2,0.3,0.3,0.4c1.1,0.6,2.3,0.5,3.5,0.2s2.3-0.8,3.3-1.5c0.6-0.4,0.8,0.1,1.1,0.3
				c0.3,0.2,0.1,0.4,0,0.7c-0.4,0.8-0.8,1.5-1.2,2.3c0.9-0.6,1.7-1.3,2.3-2.3c0.7-1.1,1.6-2.1,2.5-3.1
				C62.3,49.2,62.4,49.1,62.5,49.2z"/>
			<path class="st2" d="M48.8,59.4c0.3-0.5,0.7-1,1-1.5c0.4-0.5,0.8-0.9,1.2-1.5c-0.7,0-1.4,0-2.1-0.1c-0.5-0.1-1.1-0.2-1.6-0.3l0,0
				c-0.4,1.2-0.9,2.5-1.3,3.8c-0.5,1.4-0.9,2.9-1.2,4.4c0,0.2-0.1,0.4,0,0.6c0.6,1.4,0.9,2.8,1.9,4c0.6,0.8,1.3,1.6,2.5,1.7
				c0.1-0.4-0.2-0.6-0.5-0.7c-0.7-0.3-1-0.9-1.3-1.5c-0.4-0.8-1-1.5-1.3-2.4c-0.3-1-0.3-2.1,0-3.1c0.3-1.1,0.9-2.1,1.2-3.2
				c0.1-0.4,0.3-0.5,0.7-0.4C48.3,59.3,48.6,59.4,48.8,59.4z"/>
			<path class="st1" d="M48.8,59.4c-0.3-0.5-0.8-0.4-1.2-0.5c-0.3,0-0.3,0.4-0.4,0.7c-0.3,0.9-0.7,1.9-1.1,2.8
				c-0.6,1.8-0.3,3.6,0.8,5.2c0.1,0.2,0.3,0.3,0.3,0.6c0.3,0.7,0.7,1.4,1.5,1.7c0.2,0.1,0.4,0.3,0.5,0.6c0.2,0,0.3,0,0.5-0.1
				c-0.5-0.6-1-1.3-1.5-1.9c-0.3-0.4-0.6-0.8-0.7-1.3c0-0.1-0.1-0.3,0-0.4c0.1-0.1,0.3-0.1,0.5,0c0.4,0.3,0.8,0.5,1.2,0.8
				C47.6,64.9,47.1,62.2,48.8,59.4z"/>
			<path class="st3" d="M50.1,65.1c-0.1-0.5-0.2-0.9-0.3-1.5c0.8,0.5,1.1,1.2,1.6,2c0-0.5,0-0.8,0-1.1c-0.2-1.9,0.5-3.6,1.2-5.2
				c0,0,0.1-0.1,0.1-0.2c0.2-0.5,0.8-0.9,0.7-1.4c-0.1-0.5-0.2-1-0.4-1.5c0,0.4-0.3,0.6-0.5,0.8c-1,1-1.9,2.2-2.7,3.4
				c-0.6,1-0.8,2-0.4,3.1C49.6,64.1,49.8,64.6,50.1,65.1z"/>
			<path class="st3" d="M45.4,1.8c-0.2-0.1-0.3-0.1-0.3,0.1c0.1,0.5,0.1,1,0.3,1.4c0.5,1,1.1,2.1,2.1,2.7c0.1,0.1,0.2,0.2,0.3,0.2
				c0.8-0.1,1.6,0.3,2.4,0c0.3-0.1,0.3-0.2,0.1-0.4c-0.5-0.6-1-1.2-1.6-1.7C48.5,4.1,48.2,4,48,4c-0.9,0.2-1.4-0.2-1.8-0.9
				C46,2.7,45.5,2.4,45.4,1.8z"/>
			<path class="st3" d="M43.9,48.7c-0.2-0.9-0.8-1.5-1.5-2c-1.1-0.7-2.1-1.5-3-2.3c-0.2-0.1-0.3-0.3-0.5-0.3c1,1.6,1.9,3.3,3.2,4.6
				c0.4,0.4,0.8,0.7,1.2,1.1c0.3-0.2,0.1-0.5,0.2-0.7C43.5,48.9,43.5,48.6,43.9,48.7z"/>
			<path class="st1" d="M34.2,64.7c-0.7-0.1-1.4-0.2-2.1-0.2c-0.2,0-0.2,0.2-0.2,0.3c0.3,0.7,0.5,1.3,0.8,2c0,0.1,0.1,0.3,0.3,0.2
				c0,0,0-0.2,0.1-0.3c0-0.3-0.4-0.6,0-0.8c0.3-0.2,0.6,0.2,0.8,0.4c0.4,0.4,0.6,1,0.9,1.5C34.6,66.9,34.8,65.7,34.2,64.7z"/>
			<path class="st3" d="M34.2,32.8c0.5,0.8,0.9,0.9,1.6,0.2c0.2-0.2,0.3-0.4,0.6-0.3c0.1-0.1,0.1-0.3,0.1-0.5c0-0.3,0-0.6-0.2-0.7
				c-0.2-0.1-0.4,0.1-0.6,0.3c-0.2,0.2-0.4,0.3-0.6,0.2c-0.3-0.1-0.3-0.4-0.2-0.7c0.1-1.2,0.3-2.4,0.6-3.6c0.1-0.3,0.2-0.6,0-0.9
				c-0.6,0.7-0.6,1.7-0.9,2.5c-0.1,0.3-0.1,0.5-0.2,0.9c-0.1-0.3-0.1-0.4-0.1-0.5C34.2,30.7,34.2,31.8,34.2,32.8z"/>
			<path class="st4" d="M2.5,35.3c0.2-0.2,0.5-0.2,0.7-0.1c0.9,0.5,1.8,0.2,2.7,0c0.8-0.1,0.9-0.7,0.4-1.4C5.7,33,5.2,32.1,5.2,31
				c-0.4,1.3-0.2,2.5,0.5,3.7c-1-0.1-1.8,0.1-2.7,0.2C2.7,35,2.5,34.9,2.5,35.3C2.4,35.2,2.4,35.2,2.5,35.3
				C2.4,35.3,2.4,35.3,2.5,35.3z"/>
			<path class="st5" d="M35.8,56.8C35.9,56.8,35.9,56.8,35.8,56.8c0.1-1,0.9-1.4,1.2-2.1c0.1-0.2,0.2-0.4,0.2-0.6
				c0.1-0.5-0.2-0.8-0.7-0.8c-0.4,0-0.7,0.1-1.1,0.2c-0.1,0.1-0.3,0.2,0,0.2c0.2,0,0.4,0,0.6,0c0.6,0.1,0.6,0.2,0.3,0.6
				c-0.6,0.8-1.3,1.6-2,2.4c-0.1,0.1-0.3,0.2-0.3,0.4c0.5,0,0.8-0.4,1.2-0.6C35.5,56.7,35.8,56.3,35.8,56.8z"/>
			<path class="st6" d="M65.4,27.1c0.4,0.4,1,0.6,1.5,0.8c0.3,0.1,0.8,0,0.9,0.6c0,0.2,0.3,0.2,0.4,0c0.6-0.7,1.1-0.7,1.8-0.1
				c0.5-0.2,0.9-0.5,1.4-1c-0.8,0-1.6,0.1-2.3,0.1c-1.1,0.1-2.1,0-3.2-0.3C65.8,27.1,65.6,27.1,65.4,27.1z"/>
			<path class="st7" d="M45.4,1.8c-0.2,0.2-0.1,0.4,0.1,0.6c0.4,0.5,0.9,1,1.2,1.5c0.2,0.3,0.5,0.5,0.9,0.4s0.9,0.2,1.3-0.1
				C47.8,3.2,46.6,2.5,45.4,1.8z"/>
			<path class="st8" d="M59.7,10.6c0.1,0.6,0.3,1.1,0.9,1.5c0.7,0.5,1.4,1,1.9,1.7c0.2,0.3,0.5,0.3,0.8,0.4
				C62.1,12.9,61.1,11.7,59.7,10.6z"/>
			<path class="st1" d="M72.6,22.4L72.2,23c-0.1,0.1,0,0.3,0.2,0.3s0.5,0,0.7,0c0.1,0,0.2-0.1,0.2-0.3c-0.1-0.2-0.2-0.4-0.3-0.6
				C72.9,22.3,72.7,22.3,72.6,22.4z"/>
			<path class="st9" d="M65.3,13.4c0.3-0.1,0.3-0.4,0.3-0.6c0-0.2-0.1-0.2-0.3-0.1C65,12.8,65,13,65,13.3
				C65,13.4,65.1,13.5,65.3,13.4z"/>
			<path class="st10" d="M48,50.6c0.9,0.3,1.8,0.2,2.8-0.1c0.8-0.3,0.9-0.2,0.9,0.6c0,0.6,0.3,0.8,1,0.8c2.2,0,4.1-0.9,5.8-2.2
				c0.2-0.1,0.3-0.2,0.4-0.4c0.2-0.3,0.4-0.3,0.7-0.1c0.4,0.3,1.2,0,1.7-0.5c1-1,1.4-2.3,1.9-3.6c0.1-0.4,0.3-0.8,0.4-1.1
				s0.2-0.5,0.2-0.9c-0.6,1-1.2,1.9-1.7,2.9c-0.5,0.9-1.1,1.6-1.7,2.3c-0.1,0.1-0.2,0.4-0.5,0.3c-0.2-0.1-0.2-0.4-0.1-0.6
				c0.1-0.2,0.2-0.3,0.2-0.5c-0.2-0.2-0.3,0-0.5,0.1c-1.6,1.2-3.5,2.1-5.2,3.3c-0.5,0.4-1.2,0.2-1.8,0.3c-0.3,0-0.3-0.2-0.2-0.5
				s0.3-0.4,0.4-0.6c0.2-0.4,0.1-0.6-0.3-0.5c-0.8,0.2-1.5,0.4-2.3,0.6c-0.7,0.2-1.4,0.4-2.1,0.1C47.9,50.1,47.9,50.2,48,50.6z"/>
			<path class="st11" d="M35.5,26.8c-0.3,1.5-0.5,2.9-0.8,4.4c-0.1,0.4-0.1,0.8,0.3,1c0.4,0.2,0.7,0,0.9-0.3c0,0,0-0.1,0.1-0.1
				c0.2-0.2,0.3-0.2,0.3,0.1s0,0.6,0.1,0.9c0.2,0.3,0.2,0.2,0.2-0.1c0.1-1,0-1.9-0.3-3c-0.4,0.6-0.5,1.2-1,1.7
				c0.1-2.6,0.8-4.9,1.2-7.3c-0.3,0.3-0.5,0.6-0.7,1.3C35.8,25.9,35.6,26.3,35.5,26.8z"/>
			<path class="st12" d="M35.6,50.9c0,0.2,0,0.3,0.1,0.5c0.3-0.8,0.5-1.5,0.5-2.3c0.1-2-0.3-3.8-1.9-5.2c-0.5-0.4-0.9-0.4-1.4,0.1
				c-0.2,0.2-0.3,0.1-0.4,0c-0.6-0.6-1.4-1.2-2.1-1.7c-0.2,0-0.3-0.2-0.6,0.1c1.8,1.3,3.1,3,4.2,4.9c0.1-0.9-0.3-1.7-0.2-2.6
				c0.4,0.2,0.6,0.5,0.8,0.8c0.4,0.7,0.7,1.4,0.7,2.2C35.5,48.9,35.7,49.9,35.6,50.9z"/>
			<path class="st13" d="M58.1,19.7c0.4-0.3,0.7-0.7,0.9-1.2c0-1.1,0.1-2.2-0.6-3.2c-0.3-0.5-0.7-0.8-1.2-1
				c-1.9-0.7-3.1-0.1-3.9,1.8c-0.3,0.7-0.4,1.5-0.1,2.2c0.2,0.5,0.4,0.9,0.9,1.2c1.2,0.7,2.4,1,3.7,0.4C57.9,19.8,58,19.8,58.1,19.7
				z"/>
			<path class="st14" d="M58.1,19.7c-1.5,0.6-3,0.4-4.3-0.6c-0.7-0.5-0.6-1.3-0.7-2c0-0.3,0.1-0.7,0.1-1c-0.4,0.7-0.8,1.4-0.5,2.2
				c0.4,1.1,1.3,2.1,2.5,2.2C56.2,20.6,57.3,20.4,58.1,19.7z"/>
			<path class="st15" d="M57.2,14.3c1.1,0.7,1.7,1.7,1.7,3c0,0.4,0.1,0.7,0.1,1.1c0-1,0-2-0.1-3C58.8,14.7,58.1,14.4,57.2,14.3z"/>
			<path class="st1" d="M41.2,57.8c-1.3-1.5-2.2-3.2-3.1-5c0,1.1,0,2.2-0.1,3.3c0,0.5,0,1-0.2,1.5c-0.2,0.6,0.2,0.6,0.5,0.6
				C39.4,58.1,40.3,58.1,41.2,57.8z"/>
			<path class="st16" d="M54.7,17.2c0.6,0,0.9-0.4,0.9-0.9c0-0.5-0.4-0.9-0.9-0.8c-0.4,0-0.9,0.7-0.9,1.2
				C54,17.1,54.4,17.2,54.7,17.2z"/>
		</g>
		<path class="st16" d="M57.9,18.1c0.3,0,0.4-0.2,0.4-0.4s-0.2-0.4-0.4-0.3c-0.2,0-0.4,0.3-0.4,0.5C57.6,18.1,57.7,18.1,57.9,18.1z"
			/>
		<path class="st1" d="M68.8,22.6l-0.4,0.7c-0.1,0.1,0,0.3,0.1,0.3c0.3,0,0.5,0,0.7,0c0.1,0,0.2-0.1,0.2-0.3
			c-0.1-0.2-0.2-0.4-0.3-0.7C69.1,22.5,68.9,22.5,68.8,22.6z"/>
		<path class="st1" d="M72.3,24.7l-0.5,0.8c-0.1,0.1,0,0.2,0.1,0.2c0.3,0,0.5,0,0.8,0c0.1,0,0.2-0.1,0.1-0.2
			c-0.1-0.3-0.2-0.5-0.3-0.7C72.5,24.6,72.4,24.6,72.3,24.7z"/>
		<path class="st1" d="M68.8,25.2L68.3,26c-0.1,0.1,0,0.2,0.1,0.2c0.3,0,0.5,0,0.8,0c0.1,0,0.2-0.1,0.1-0.2
			c-0.1-0.3-0.2-0.5-0.3-0.8C69.1,25.1,68.9,25.1,68.8,25.2z"/>
	</g>
</g>
</svg>
