<?xml version="1.0" encoding="utf-8"?>
<!-- Generator: Adobe Illustrator 27.8.1, SVG Export Plug-In . SVG Version: 6.00 Build 0)  -->
<svg version="1.1" id="Layer_1" xmlns="http://www.w3.org/2000/svg" xmlns:xlink="http://www.w3.org/1999/xlink" x="0px" y="0px"
	 viewBox="0 0 289.6 361" style="enable-background:new 0 0 289.6 361;" xml:space="preserve">
<style type="text/css">
	.st0{fill:#1DB895;stroke:#000000;stroke-miterlimit:10;}
</style>
<g>
	<path class="st0" d="M12.3,0.8l-0.1,4.6L9,5.5L8.2,15.7l-4.5,0.2V5.7L0.5,5.9l0.1-5.1H12.3z"/>
	<path class="st0" d="M26,7.9c0,0.7-0.1,1.3-0.2,1.9c-0.2,0.6-0.4,1.2-0.7,1.7c-0.3,0.5-0.6,1-1,1.5c-0.4,0.4-0.9,0.8-1.4,1.1
		s-1.1,0.6-1.6,0.7c-0.6,0.2-1.2,0.3-1.9,0.3c-0.6,0-1.3-0.1-1.8-0.2c-0.6-0.2-1.1-0.4-1.6-0.7c-0.5-0.3-1-0.7-1.4-1.1
		c-0.4-0.4-0.8-0.9-1.1-1.4c-0.3-0.5-0.5-1.1-0.7-1.6c-0.2-0.6-0.2-1.2-0.2-1.8s0.1-1.2,0.2-1.8c0.2-0.6,0.4-1.2,0.7-1.7
		c0.3-0.5,0.6-1,1-1.5c0.4-0.4,0.9-0.8,1.3-1.1c0.5-0.3,1-0.6,1.6-0.8s1.2-0.3,1.8-0.3c1,0,2,0.2,2.8,0.5C22.7,1.9,23.4,2.4,24,3
		c0.6,0.6,1.1,1.3,1.4,2.2C25.8,5.9,26,6.9,26,7.9z M21.2,8.2c0-0.3,0-0.6-0.1-0.9C21,7,20.9,6.8,20.7,6.5S20.3,6.1,20.1,6
		c-0.3-0.1-0.5-0.2-0.9-0.2c-0.3,0-0.6,0.1-0.9,0.2c-0.3,0.1-0.5,0.3-0.7,0.5S17.3,7,17.2,7.2C17.1,7.5,17,7.8,17,8.1
		c0,0.3,0,0.6,0.1,0.9s0.2,0.6,0.4,0.8c0.2,0.2,0.4,0.4,0.6,0.6c0.3,0.2,0.5,0.2,0.9,0.2s0.6-0.1,0.9-0.2c0.3-0.1,0.5-0.3,0.7-0.5
		s0.3-0.5,0.4-0.8C21.1,8.8,21.2,8.5,21.2,8.2z"/>
	<path class="st0" d="M38.1,1L38,5.6l-3.2,0.1l-0.4,10l-4.5,0.2l-0.4-10l-3.2,0.2L26.4,1H38.1z"/>
	<path class="st0" d="M50.9,15.2l-5.3,0.7L45,13.5h-2.4l-0.5,2.4l-5.5-0.5l4.3-14.3l6-0.3L50.9,15.2z M44.5,10.2l-0.8-3.7l-0.8,3.7
		H44.5z"/>
	<path class="st0" d="M60.5,10.5L60,15.3L51,16l0.3-15.3h5.6l-0.8,9.9L60.5,10.5L60.5,10.5z"/>
	<path class="st0" d="M76.3,10.7c0,1-0.2,1.8-0.5,2.5S75,14.5,74.4,15c-0.6,0.5-1.3,0.8-2.1,1c-0.8,0.2-1.6,0.3-2.6,0.3
		c-0.4,0-0.7,0-1.2-0.1c-0.4-0.1-0.8-0.2-1.3-0.3c-0.4-0.1-0.8-0.3-1.2-0.5c-0.4-0.2-0.8-0.3-1.1-0.5l0.5-4.2c0.6,0.4,1.3,0.6,2,0.8
		c0.7,0.2,1.5,0.3,2.2,0.3c0.1,0,0.3,0,0.5,0s0.4,0,0.6-0.1c0.2-0.1,0.3-0.1,0.4-0.2s0.2-0.3,0.2-0.5c0-0.1,0-0.3-0.1-0.3
		s-0.2-0.2-0.3-0.2c-0.1-0.1-0.3-0.1-0.5-0.1s-0.3-0.1-0.5-0.1s-0.3,0-0.5,0s-0.3,0-0.3,0c-0.6,0-1.2-0.1-1.7-0.3s-0.9-0.5-1.3-0.8
		c-0.4-0.4-0.6-0.8-0.8-1.3S65,6.8,65,6.2c0-0.8,0.2-1.6,0.5-2.3s0.8-1.2,1.4-1.7s1.2-0.8,2-1.1c0.7-0.3,1.5-0.4,2.3-0.4
		c0.4,0,0.7,0,1.1,0c0.4,0,0.7,0.1,1.1,0.1c0.4,0.1,0.7,0.1,1.1,0.2c0.4,0.1,0.7,0.2,1,0.4l-0.4,4.4c-0.5-0.2-1-0.3-1.5-0.4
		c-0.5-0.1-1.1-0.2-1.6-0.2c-0.1,0-0.2,0-0.4,0c-0.1,0-0.3,0-0.5,0s-0.3,0-0.5,0.1c-0.2,0-0.3,0.1-0.4,0.1c-0.1,0.1-0.2,0.1-0.3,0.2
		c-0.1,0.1-0.1,0.2-0.1,0.4s0.1,0.3,0.2,0.4c0.1,0.1,0.3,0.1,0.4,0.2c0.2,0,0.4,0.1,0.6,0.1c0.2,0,0.4,0,0.6,0s0.4,0,0.6,0
		s0.3,0,0.4,0c0.6,0,1.1,0.2,1.5,0.4c0.5,0.2,0.8,0.5,1.2,0.8c0.3,0.3,0.6,0.8,0.7,1.2C76.2,9.6,76.3,10.1,76.3,10.7z"/>
	<path class="st0" d="M89.8,1c-0.3,2.5-0.6,5-0.8,7.5s-0.4,5-0.7,7.5l-4.4,0.3l0.2-1.7c-0.1,0.2-0.3,0.3-0.5,0.4
		c-0.2,0.1-0.4,0.2-0.6,0.3s-0.4,0.1-0.7,0.2s-0.4,0-0.7,0c-0.5,0-0.9-0.1-1.4-0.3s-0.8-0.4-1.2-0.7s-0.7-0.7-1-1.1
		c-0.3-0.4-0.5-0.8-0.7-1.3c-0.2-0.4-0.3-0.9-0.5-1.4c-0.1-0.5-0.2-0.9-0.2-1.4c0-0.6,0-1.3,0-2s0.1-1.4,0.1-2.1
		c0.1-0.7,0.1-1.4,0.3-2.1c0.1-0.7,0.2-1.3,0.4-2c0.9,0,1.8,0.1,2.6,0.1c0.9,0,1.8,0,2.6,0c-0.2,0.6-0.3,1.2-0.5,1.9
		c-0.2,0.6-0.3,1.3-0.4,1.9s-0.2,1.3-0.3,1.9c-0.1,0.6-0.1,1.3-0.1,1.9c0,0.2,0,0.4,0,0.6s0.1,0.6,0.1,0.8c0.1,0.3,0.2,0.5,0.3,0.7
		s0.3,0.3,0.5,0.3c0.3,0,0.5-0.1,0.7-0.3s0.4-0.5,0.6-0.9c0.2-0.4,0.3-0.8,0.4-1.4C84,8.1,84.1,7.5,84.2,7c0.1-0.6,0.1-1.1,0.2-1.7
		c0-0.6,0.1-1.1,0.1-1.6s0-1,0.1-1.4c0-0.4,0-0.7,0-0.9c0-0.1,0-0.3,0-0.4c0-0.1,0-0.3,0-0.4c0.5,0,0.9,0,1.4,0s0.9,0,1.4,0
		c0.4,0,0.7,0,1.1,0C89.1,1.1,89.4,1,89.8,1z"/>
	<path class="st0" d="M103,6.2c0,0.7-0.1,1.3-0.3,1.8s-0.5,1-0.9,1.4s-0.8,0.7-1.3,1s-1,0.5-1.6,0.7s-1.1,0.3-1.7,0.4
		c-0.6,0.1-1.2,0.1-1.8,0.1v4.6h-5c0-0.8,0-1.6,0-2.4c0-0.8,0-1.5,0-2.3s0-1.5,0-2.3s0-1.6,0-2.4c0-0.9,0-1.7,0-2.6
		c0-0.9,0-1.8,0.1-2.6c0.9-0.3,1.8-0.5,2.8-0.6c0.9-0.1,1.9-0.2,2.8-0.2c0.6,0,1.1,0,1.7,0.1c0.6,0.1,1.1,0.2,1.6,0.4s1,0.4,1.4,0.7
		s0.8,0.6,1.1,1s0.6,0.9,0.7,1.4C102.9,5,103,5.6,103,6.2z M98.2,6.6c0-0.5-0.1-0.8-0.4-1.1c-0.3-0.3-0.7-0.4-1.1-0.4
		c-0.2,0-0.3,0-0.5,0s-0.3,0.1-0.5,0.1l-0.1,3.1c0.1,0,0.2,0,0.3,0s0.2,0,0.3,0c0.3,0,0.5,0,0.7-0.1s0.5-0.2,0.6-0.4
		s0.3-0.4,0.4-0.6C98.1,7.1,98.2,6.9,98.2,6.6z"/>
	<path class="st0" d="M116.1,6.2c0,0.7-0.1,1.3-0.3,1.8s-0.5,1-0.9,1.4s-0.8,0.7-1.3,1s-1,0.5-1.6,0.7s-1.1,0.3-1.7,0.4
		c-0.6,0.1-1.2,0.1-1.8,0.1v4.6h-5c0-0.8,0-1.6,0-2.4c0-0.8,0-1.5,0-2.3s0-1.5,0-2.3s0-1.6,0-2.4c0-0.9,0-1.7,0-2.6
		c0-0.9,0-1.8,0.1-2.6c0.9-0.3,1.8-0.5,2.8-0.6c0.9-0.1,1.9-0.2,2.8-0.2c0.6,0,1.1,0,1.7,0.1c0.6,0.1,1.1,0.2,1.6,0.4s1,0.4,1.4,0.7
		s0.8,0.6,1.1,1s0.6,0.9,0.7,1.4C116,5,116.1,5.6,116.1,6.2z M111.3,6.6c0-0.5-0.1-0.8-0.4-1.1c-0.3-0.3-0.7-0.4-1.1-0.4
		c-0.2,0-0.3,0-0.5,0s-0.3,0.1-0.5,0.1l-0.1,3.1c0.1,0,0.2,0,0.3,0s0.2,0,0.3,0c0.3,0,0.5,0,0.7-0.1s0.5-0.2,0.6-0.4
		s0.3-0.4,0.4-0.6C111.3,7.1,111.3,6.9,111.3,6.6z"/>
	<path class="st0" d="M126.1,10.5l-0.5,4.8l-9,0.7l0.3-15.3h5.6l-0.8,9.9L126.1,10.5L126.1,10.5z"/>
	<path class="st0" d="M138.2,1.6l-5,8.2l0.2,6.1h-5.5l0.1-6l-3.9-8l5.5-0.7l1.7,4.6l1.9-4.6L138.2,1.6z"/>
	<path class="st0" d="M150,0.7L149.4,16l-4.7-0.2L145,5.6l-1.7,1.2l-1.6-3.7l3.5-2.6L150,0.7z"/>
	<path class="st0" d="M155.2,13.8c0,0.3-0.1,0.7-0.2,1.1c-0.1,0.4-0.3,0.8-0.6,1.2c-0.3,0.4-0.6,0.8-0.9,1.1
		c-0.4,0.4-0.8,0.6-1.2,0.9c0,0,0-0.1,0-0.3s0-0.4,0-0.6c0-0.2,0-0.5,0-0.7c0-0.3,0-0.5,0-0.7c-0.4-0.2-0.8-0.4-1.1-0.8
		s-0.4-0.8-0.4-1.3c0-0.3,0.1-0.6,0.2-0.9c0.1-0.3,0.3-0.5,0.5-0.7s0.4-0.4,0.7-0.5s0.6-0.2,0.9-0.2c0.3,0,0.6,0.1,0.9,0.2
		c0.3,0.1,0.5,0.3,0.7,0.5s0.4,0.4,0.5,0.7C155.2,13.1,155.2,13.4,155.2,13.8L155.2,13.8z"/>
	<path class="st0" d="M168.8,8.5c0,0.6-0.1,1.3-0.2,1.9c-0.1,0.6-0.3,1.2-0.6,1.8s-0.6,1.1-1,1.6s-0.8,0.9-1.3,1.3s-1,0.7-1.6,0.9
		c-0.6,0.2-1.2,0.3-1.9,0.3s-1.3-0.1-1.9-0.3c-0.6-0.2-1.1-0.5-1.6-0.9s-0.9-0.8-1.3-1.3s-0.7-1-1-1.6s-0.5-1.2-0.6-1.8
		s-0.2-1.3-0.2-1.9s0.1-1.2,0.2-1.9c0.1-0.6,0.3-1.2,0.6-1.8s0.6-1.1,1-1.6s0.8-0.9,1.3-1.3c0.5-0.4,1-0.7,1.6-0.9s1.2-0.3,1.9-0.3
		s1.3,0.1,1.9,0.3c0.6,0.2,1.1,0.5,1.6,0.9s0.9,0.8,1.3,1.3c0.4,0.5,0.7,1,1,1.6s0.5,1.2,0.6,1.8C168.7,7.2,168.8,7.8,168.8,8.5z
		 M164.3,8.8c0-0.3,0-0.7-0.1-1.1S164,7,163.8,6.6c-0.2-0.3-0.4-0.6-0.7-0.8s-0.6-0.3-1-0.3s-0.7,0.1-1,0.3s-0.5,0.5-0.7,0.8
		s-0.3,0.7-0.4,1.1s-0.1,0.7-0.1,1.1c0,0.3,0,0.7,0.1,1.1s0.2,0.7,0.4,1.1c0.2,0.3,0.4,0.6,0.7,0.8s0.6,0.3,1,0.3s0.7-0.1,1-0.3
		s0.5-0.5,0.7-0.8s0.3-0.7,0.4-1.1S164.3,9.1,164.3,8.8z"/>
	<path class="st0" d="M182.7,8.5c0,0.6-0.1,1.3-0.2,1.9c-0.1,0.6-0.3,1.2-0.6,1.8s-0.6,1.1-1,1.6s-0.8,0.9-1.3,1.3s-1,0.7-1.6,0.9
		c-0.6,0.2-1.2,0.3-1.9,0.3s-1.3-0.1-1.9-0.3c-0.6-0.2-1.1-0.5-1.6-0.9s-0.9-0.8-1.3-1.3s-0.7-1-1-1.6s-0.5-1.2-0.6-1.8
		s-0.2-1.3-0.2-1.9s0.1-1.2,0.2-1.9c0.1-0.6,0.3-1.2,0.6-1.8s0.6-1.1,1-1.6s0.8-0.9,1.3-1.3c0.5-0.4,1-0.7,1.6-0.9s1.2-0.3,1.9-0.3
		s1.3,0.1,1.9,0.3c0.6,0.2,1.1,0.5,1.6,0.9s0.9,0.8,1.3,1.3c0.4,0.5,0.7,1,1,1.6s0.5,1.2,0.6,1.8C182.7,7.2,182.7,7.8,182.7,8.5z
		 M178.2,8.8c0-0.3,0-0.7-0.1-1.1s-0.2-0.7-0.4-1.1c-0.2-0.3-0.4-0.6-0.7-0.8s-0.6-0.3-1-0.3s-0.7,0.1-1,0.3s-0.5,0.5-0.7,0.8
		s-0.3,0.7-0.4,1.1s-0.1,0.7-0.1,1.1c0,0.3,0,0.7,0.1,1.1s0.2,0.7,0.4,1.1c0.2,0.3,0.4,0.6,0.7,0.8s0.6,0.3,1,0.3s0.7-0.1,1-0.3
		s0.5-0.5,0.7-0.8s0.3-0.7,0.4-1.1S178.2,9.1,178.2,8.8z"/>
	<path class="st0" d="M196.6,8.5c0,0.6-0.1,1.3-0.2,1.9c-0.1,0.6-0.3,1.2-0.6,1.8c-0.3,0.6-0.6,1.1-1,1.6s-0.8,0.9-1.3,1.3
		s-1,0.7-1.6,0.9c-0.6,0.2-1.2,0.3-1.9,0.3s-1.3-0.1-1.9-0.3c-0.6-0.2-1.1-0.5-1.6-0.9s-0.9-0.8-1.3-1.3s-0.7-1-1-1.6
		s-0.5-1.2-0.6-1.8s-0.2-1.3-0.2-1.9s0.1-1.2,0.2-1.9c0.1-0.6,0.3-1.2,0.6-1.8s0.6-1.1,1-1.6s0.8-0.9,1.3-1.3c0.5-0.4,1-0.7,1.6-0.9
		s1.2-0.3,1.9-0.3s1.3,0.1,1.9,0.3c0.6,0.2,1.1,0.5,1.6,0.9s0.9,0.8,1.3,1.3c0.4,0.5,0.7,1,1,1.6s0.5,1.2,0.6,1.8
		C196.6,7.2,196.6,7.8,196.6,8.5z M192.1,8.8c0-0.3,0-0.7-0.1-1.1s-0.2-0.7-0.4-1.1c-0.2-0.3-0.4-0.6-0.7-0.8s-0.6-0.3-1-0.3
		s-0.7,0.1-1,0.3s-0.5,0.5-0.7,0.8s-0.3,0.7-0.4,1.1s-0.1,0.7-0.1,1.1c0,0.3,0,0.7,0.1,1.1s0.2,0.7,0.4,1.1c0.2,0.3,0.4,0.6,0.7,0.8
		s0.6,0.3,1,0.3s0.7-0.1,1-0.3s0.5-0.5,0.7-0.8s0.3-0.7,0.4-1.1S192.1,9.1,192.1,8.8z"/>
	<path class="st0" d="M201.4,13.8c0,0.3-0.1,0.7-0.2,1.1c-0.1,0.4-0.3,0.8-0.6,1.2c-0.3,0.4-0.6,0.8-0.9,1.1
		c-0.4,0.4-0.8,0.6-1.2,0.9c0,0,0-0.1,0-0.3s0-0.4,0-0.6c0-0.2,0-0.5,0-0.7c0-0.3,0-0.5,0-0.7c-0.4-0.2-0.8-0.4-1.1-0.8
		s-0.4-0.8-0.4-1.3c0-0.3,0.1-0.6,0.2-0.9c0.1-0.3,0.3-0.5,0.5-0.7s0.4-0.4,0.7-0.5c0.3-0.1,0.6-0.2,0.9-0.2s0.6,0.1,0.9,0.2
		c0.3,0.1,0.5,0.3,0.7,0.5s0.4,0.4,0.5,0.7C201.4,13.1,201.4,13.4,201.4,13.8L201.4,13.8z"/>
	<path class="st0" d="M215,8.5c0,0.6-0.1,1.3-0.2,1.9c-0.1,0.6-0.3,1.2-0.6,1.8c-0.3,0.6-0.6,1.1-1,1.6s-0.8,0.9-1.3,1.3
		s-1,0.7-1.6,0.9c-0.6,0.2-1.2,0.3-1.9,0.3c-0.7,0-1.3-0.1-1.9-0.3c-0.6-0.2-1.1-0.5-1.6-0.9s-0.9-0.8-1.3-1.3s-0.7-1-1-1.6
		s-0.5-1.2-0.6-1.8s-0.2-1.3-0.2-1.9s0.1-1.2,0.2-1.9c0.1-0.6,0.3-1.2,0.6-1.8c0.3-0.6,0.6-1.1,1-1.6s0.8-0.9,1.3-1.3
		c0.5-0.4,1-0.7,1.6-0.9s1.2-0.3,1.9-0.3s1.3,0.1,1.9,0.3s1.1,0.5,1.6,0.9s0.9,0.8,1.3,1.3s0.7,1,1,1.6s0.5,1.2,0.6,1.8
		C214.9,7.2,215,7.8,215,8.5z M210.5,8.8c0-0.3,0-0.7-0.1-1.1S210.2,7,210,6.6c-0.2-0.3-0.4-0.6-0.7-0.8c-0.3-0.2-0.6-0.3-1-0.3
		s-0.7,0.1-1,0.3s-0.5,0.5-0.7,0.8s-0.3,0.7-0.4,1.1s-0.1,0.7-0.1,1.1c0,0.3,0,0.7,0.1,1.1s0.2,0.7,0.4,1.1c0.2,0.3,0.4,0.6,0.7,0.8
		c0.3,0.2,0.6,0.3,1,0.3s0.7-0.1,1-0.3s0.5-0.5,0.7-0.8s0.3-0.7,0.4-1.1S210.5,9.1,210.5,8.8z"/>
	<path class="st0" d="M228.9,8.5c0,0.6-0.1,1.3-0.2,1.9c-0.1,0.6-0.3,1.2-0.6,1.8c-0.3,0.6-0.6,1.1-1,1.6s-0.8,0.9-1.3,1.3
		s-1,0.7-1.6,0.9c-0.6,0.2-1.2,0.3-1.9,0.3c-0.7,0-1.3-0.1-1.9-0.3c-0.6-0.2-1.1-0.5-1.6-0.9s-0.9-0.8-1.3-1.3s-0.7-1-1-1.6
		s-0.5-1.2-0.6-1.8s-0.2-1.3-0.2-1.9s0.1-1.2,0.2-1.9c0.1-0.6,0.3-1.2,0.6-1.8c0.3-0.6,0.6-1.1,1-1.6s0.8-0.9,1.3-1.3
		c0.5-0.4,1-0.7,1.6-0.9s1.2-0.3,1.9-0.3s1.3,0.1,1.9,0.3s1.1,0.5,1.6,0.9s0.9,0.8,1.3,1.3s0.7,1,1,1.6s0.5,1.2,0.6,1.8
		C228.9,7.2,228.9,7.8,228.9,8.5z M224.4,8.8c0-0.3,0-0.7-0.1-1.1s-0.2-0.7-0.4-1.1c-0.2-0.3-0.4-0.6-0.7-0.8
		c-0.3-0.2-0.6-0.3-1-0.3s-0.7,0.1-1,0.3s-0.5,0.5-0.7,0.8s-0.3,0.7-0.4,1.1S220,8.4,220,8.8c0,0.3,0,0.7,0.1,1.1s0.2,0.7,0.4,1.1
		c0.2,0.3,0.4,0.6,0.7,0.8c0.3,0.2,0.6,0.3,1,0.3s0.7-0.1,1-0.3s0.5-0.5,0.7-0.8s0.3-0.7,0.4-1.1S224.4,9.1,224.4,8.8z"/>
	<path class="st0" d="M242.9,8.5c0,0.6-0.1,1.3-0.2,1.9c-0.1,0.6-0.3,1.2-0.6,1.8c-0.3,0.6-0.6,1.1-1,1.6s-0.8,0.9-1.3,1.3
		s-1,0.7-1.6,0.9c-0.6,0.2-1.2,0.3-1.9,0.3c-0.7,0-1.3-0.1-1.9-0.3c-0.6-0.2-1.1-0.5-1.6-0.9s-0.9-0.8-1.3-1.3s-0.7-1-1-1.6
		s-0.5-1.2-0.6-1.8s-0.2-1.3-0.2-1.9s0.1-1.2,0.2-1.9c0.1-0.6,0.3-1.2,0.6-1.8c0.3-0.6,0.6-1.1,1-1.6s0.8-0.9,1.3-1.3
		c0.5-0.4,1-0.7,1.6-0.9s1.2-0.3,1.9-0.3s1.3,0.1,1.9,0.3s1.1,0.5,1.6,0.9s0.9,0.8,1.3,1.3s0.7,1,1,1.6s0.5,1.2,0.6,1.8
		C242.8,7.2,242.9,7.8,242.9,8.5z M238.3,8.8c0-0.3,0-0.7-0.1-1.1S238,7,237.8,6.6c-0.2-0.3-0.4-0.6-0.7-0.8c-0.3-0.2-0.6-0.3-1-0.3
		s-0.7,0.1-1,0.3s-0.5,0.5-0.7,0.8s-0.3,0.7-0.4,1.1s-0.1,0.7-0.1,1.1c0,0.3,0,0.7,0.1,1.1s0.2,0.7,0.4,1.1c0.2,0.3,0.4,0.6,0.7,0.8
		c0.3,0.2,0.6,0.3,1,0.3s0.7-0.1,1-0.3s0.5-0.5,0.7-0.8s0.3-0.7,0.4-1.1S238.3,9.1,238.3,8.8z"/>
	<path class="st0" d="M247.6,13.8c0,0.3-0.1,0.7-0.2,1.1c-0.1,0.4-0.3,0.8-0.6,1.2c-0.3,0.4-0.6,0.8-0.9,1.1
		c-0.4,0.4-0.8,0.6-1.2,0.9c0,0,0-0.1,0-0.3s0-0.4,0-0.6c0-0.2,0-0.5,0-0.7c0-0.3,0-0.5,0-0.7c-0.4-0.2-0.8-0.4-1.1-0.8
		s-0.4-0.8-0.4-1.3c0-0.3,0.1-0.6,0.2-0.9c0.1-0.3,0.3-0.5,0.5-0.7s0.4-0.4,0.7-0.5c0.3-0.1,0.6-0.2,0.9-0.2s0.6,0.1,0.9,0.2
		c0.3,0.1,0.5,0.3,0.7,0.5s0.4,0.4,0.5,0.7C247.6,13.1,247.6,13.4,247.6,13.8L247.6,13.8z"/>
	<path class="st0" d="M261.2,8.5c0,0.6-0.1,1.3-0.2,1.9c-0.1,0.6-0.3,1.2-0.6,1.8c-0.3,0.6-0.6,1.1-1,1.6s-0.8,0.9-1.3,1.3
		s-1,0.7-1.6,0.9c-0.6,0.2-1.2,0.3-1.9,0.3c-0.7,0-1.3-0.1-1.9-0.3c-0.6-0.2-1.1-0.5-1.6-0.9s-0.9-0.8-1.3-1.3s-0.7-1-1-1.6
		s-0.5-1.2-0.6-1.8S248,9.1,248,8.5s0.1-1.2,0.2-1.9c0.1-0.6,0.3-1.2,0.6-1.8c0.3-0.6,0.6-1.1,1-1.6s0.8-0.9,1.3-1.3
		c0.5-0.4,1-0.7,1.6-0.9s1.2-0.3,1.9-0.3s1.3,0.1,1.9,0.3s1.1,0.5,1.6,0.9s0.9,0.8,1.3,1.3s0.7,1,1,1.6s0.5,1.2,0.6,1.8
		C261.2,7.2,261.2,7.8,261.2,8.5z M256.7,8.8c0-0.3,0-0.7-0.1-1.1s-0.2-0.7-0.4-1.1c-0.2-0.3-0.4-0.6-0.7-0.8
		c-0.3-0.2-0.6-0.3-1-0.3s-0.7,0.1-1,0.3s-0.5,0.5-0.7,0.8s-0.3,0.7-0.4,1.1s-0.1,0.7-0.1,1.1c0,0.3,0,0.7,0.1,1.1s0.2,0.7,0.4,1.1
		c0.2,0.3,0.4,0.6,0.7,0.8c0.3,0.2,0.6,0.3,1,0.3s0.7-0.1,1-0.3s0.5-0.5,0.7-0.8s0.3-0.7,0.4-1.1S256.7,9.1,256.7,8.8z"/>
	<path class="st0" d="M275.2,8.5c0,0.6-0.1,1.3-0.2,1.9c-0.1,0.6-0.3,1.2-0.6,1.8c-0.3,0.6-0.6,1.1-1,1.6s-0.8,0.9-1.3,1.3
		s-1,0.7-1.6,0.9c-0.6,0.2-1.2,0.3-1.9,0.3c-0.7,0-1.3-0.1-1.9-0.3c-0.6-0.2-1.1-0.5-1.6-0.9s-0.9-0.8-1.3-1.3s-0.7-1-1-1.6
		s-0.5-1.2-0.6-1.8S262,9.1,262,8.5s0.1-1.2,0.2-1.9c0.1-0.6,0.3-1.2,0.6-1.8c0.3-0.6,0.6-1.1,1-1.6s0.8-0.9,1.3-1.3
		c0.5-0.4,1-0.7,1.6-0.9s1.2-0.3,1.9-0.3s1.3,0.1,1.9,0.3s1.1,0.5,1.6,0.9s0.9,0.8,1.3,1.3s0.7,1,1,1.6s0.5,1.2,0.6,1.8
		C275.1,7.2,275.2,7.8,275.2,8.5z M270.6,8.8c0-0.3,0-0.7-0.1-1.1s-0.2-0.7-0.4-1.1c-0.2-0.3-0.4-0.6-0.7-0.8
		c-0.3-0.2-0.6-0.3-1-0.3s-0.7,0.1-1,0.3s-0.5,0.5-0.7,0.8s-0.3,0.7-0.4,1.1s-0.1,0.7-0.1,1.1c0,0.3,0,0.7,0.1,1.1s0.2,0.7,0.4,1.1
		c0.2,0.3,0.4,0.6,0.7,0.8c0.3,0.2,0.6,0.3,1,0.3s0.7-0.1,1-0.3s0.5-0.5,0.7-0.8s0.3-0.7,0.4-1.1S270.6,9.1,270.6,8.8z"/>
	<path class="st0" d="M289.1,8.5c0,0.6-0.1,1.3-0.2,1.9c-0.1,0.6-0.3,1.2-0.6,1.8c-0.3,0.6-0.6,1.1-1,1.6s-0.8,0.9-1.3,1.3
		s-1,0.7-1.6,0.9c-0.6,0.2-1.2,0.3-1.9,0.3c-0.7,0-1.3-0.1-1.9-0.3c-0.6-0.2-1.1-0.5-1.6-0.9s-0.9-0.8-1.3-1.3s-0.7-1-1-1.6
		s-0.5-1.2-0.6-1.8s-0.2-1.3-0.2-1.9s0.1-1.2,0.2-1.9c0.1-0.6,0.3-1.2,0.6-1.8c0.3-0.6,0.6-1.1,1-1.6s0.8-0.9,1.3-1.3
		c0.5-0.4,1-0.7,1.6-0.9s1.2-0.3,1.9-0.3s1.3,0.1,1.9,0.3s1.1,0.5,1.6,0.9s0.9,0.8,1.3,1.3s0.7,1,1,1.6s0.5,1.2,0.6,1.8
		C289,7.2,289.1,7.8,289.1,8.5z M284.5,8.8c0-0.3,0-0.7-0.1-1.1S284.2,7,284,6.6c-0.2-0.3-0.4-0.6-0.7-0.8c-0.3-0.2-0.6-0.3-1-0.3
		s-0.7,0.1-1,0.3s-0.5,0.5-0.7,0.8s-0.3,0.7-0.4,1.1s-0.1,0.7-0.1,1.1c0,0.3,0,0.7,0.1,1.1s0.2,0.7,0.4,1.1c0.2,0.3,0.4,0.6,0.7,0.8
		c0.3,0.2,0.6,0.3,1,0.3s0.7-0.1,1-0.3s0.5-0.5,0.7-0.8s0.3-0.7,0.4-1.1S284.5,9.1,284.5,8.8z"/>
	<path class="st0" d="M117.5,53.6l-0.1,4.6l-3.2,0.1l-0.8,10.2l-4.5,0.2V58.5l-3.2,0.2l0.1-5.1L117.5,53.6z"/>
	<path class="st0" d="M130.2,68l-5.3,0.7l-0.6-2.4h-2.4l-0.5,2.4l-5.5-0.5l4.3-14.3l6-0.3L130.2,68z M123.8,63l-0.8-3.7l-0.8,3.7
		H123.8z"/>
	<path class="st0" d="M143.4,54.3l-4.2,6.9l3.8,6.1l-4.5,1.4l-2.1-4.2l-2.3,4.4l-4.6-1.7l4-6.2l-3.6-6.1l4.9-1.2l1.8,3.9l1.9-3.9
		L143.4,54.3z"/>
	<path class="st0" d="M160.9,61.3c0,0.6-0.1,1.3-0.2,1.9c-0.1,0.6-0.3,1.2-0.6,1.8c-0.3,0.6-0.6,1.1-1,1.6s-0.8,0.9-1.3,1.3
		s-1,0.7-1.6,0.9c-0.6,0.2-1.2,0.3-1.9,0.3s-1.3-0.1-1.9-0.3c-0.6-0.2-1.1-0.5-1.6-0.9s-0.9-0.8-1.3-1.3s-0.7-1-1-1.6
		s-0.5-1.2-0.6-1.8c-0.1-0.6-0.2-1.3-0.2-1.9s0.1-1.2,0.2-1.9c0.1-0.6,0.3-1.2,0.6-1.8c0.3-0.6,0.6-1.1,1-1.6s0.8-0.9,1.3-1.3
		s1-0.7,1.6-0.9c0.6-0.2,1.2-0.3,1.9-0.3s1.3,0.1,1.9,0.3c0.6,0.2,1.1,0.5,1.6,0.9s0.9,0.8,1.3,1.3c0.4,0.5,0.7,1,1,1.6
		s0.5,1.2,0.6,1.8C160.8,60,160.9,60.6,160.9,61.3z M156.3,61.6c0-0.3,0-0.7-0.1-1.1s-0.2-0.7-0.4-1.1c-0.2-0.3-0.4-0.6-0.7-0.8
		c-0.3-0.2-0.6-0.3-1-0.3s-0.7,0.1-1,0.3c-0.3,0.2-0.5,0.5-0.7,0.8s-0.3,0.7-0.4,1.1s-0.1,0.7-0.1,1.1c0,0.3,0,0.7,0.1,1.1
		s0.2,0.7,0.4,1.1c0.2,0.3,0.4,0.6,0.7,0.8c0.3,0.2,0.6,0.3,1,0.3s0.7-0.1,1-0.3c0.3-0.2,0.5-0.5,0.7-0.8s0.3-0.7,0.4-1.1
		S156.3,61.9,156.3,61.6z"/>
	<path class="st0" d="M170.8,54.3c-1.2,2.5-2.2,5-3.2,7.6s-1.9,5.2-2.7,7.8l-4.3-1.7c0.5-1.3,1-2.6,1.6-3.9c0.5-1.3,1.1-2.6,1.6-3.9
		s1.1-2.5,1.7-3.8c0.6-1.3,1.2-2.5,1.9-3.7L170.8,54.3z"/>
	<path class="st0" d="M183.9,61.3c0,0.6-0.1,1.3-0.2,1.9c-0.1,0.6-0.3,1.2-0.6,1.8c-0.3,0.6-0.6,1.1-1,1.6s-0.8,0.9-1.3,1.3
		s-1,0.7-1.6,0.9c-0.6,0.2-1.2,0.3-1.9,0.3s-1.3-0.1-1.9-0.3c-0.6-0.2-1.1-0.5-1.6-0.9s-0.9-0.8-1.3-1.3s-0.7-1-1-1.6
		s-0.5-1.2-0.6-1.8c-0.1-0.6-0.2-1.3-0.2-1.9s0.1-1.2,0.2-1.9c0.1-0.6,0.3-1.2,0.6-1.8c0.3-0.6,0.6-1.1,1-1.6s0.8-0.9,1.3-1.3
		s1-0.7,1.6-0.9c0.6-0.2,1.2-0.3,1.9-0.3s1.3,0.1,1.9,0.3c0.6,0.2,1.1,0.5,1.6,0.9s0.9,0.8,1.3,1.3c0.4,0.5,0.7,1,1,1.6
		s0.5,1.2,0.6,1.8C183.8,60,183.9,60.6,183.9,61.3z M179.3,61.6c0-0.3,0-0.7-0.1-1.1s-0.2-0.7-0.4-1.1c-0.2-0.3-0.4-0.6-0.7-0.8
		c-0.3-0.2-0.6-0.3-1-0.3s-0.7,0.1-1,0.3c-0.3,0.2-0.5,0.5-0.7,0.8s-0.3,0.7-0.4,1.1s-0.1,0.7-0.1,1.1c0,0.3,0,0.7,0.1,1.1
		s0.2,0.7,0.4,1.1c0.2,0.3,0.4,0.6,0.7,0.8c0.3,0.2,0.6,0.3,1,0.3s0.7-0.1,1-0.3c0.3-0.2,0.5-0.5,0.7-0.8s0.3-0.7,0.4-1.1
		S179.3,61.9,179.3,61.6z"/>
	<path class="st0" d="M83.4,106.1l-1,15.8l-4.9,0.2v-8.3l-2.2,6.7h-1.9l-1.7-6v7l-5,0.2l0.2-14.8l5.5-0.2l2.2,7.1l2.9-7.5h5.9V106.1
		z"/>
	<path class="st0" d="M97.5,120.8l-5.3,0.7l-0.6-2.4h-2.4l-0.5,2.4l-5.5-0.5l4.3-14.3l6-0.3L97.5,120.8z M91.2,115.8l-0.8-3.7
		l-0.8,3.7H91.2z"/>
	<path class="st0" d="M110.8,107.1l-4.2,6.9l3.8,6.1l-4.5,1.4l-2.1-4.2l-2.3,4.4l-4.6-1.7l4-6.2l-3.6-6.1l4.9-1.2l1.8,3.9l1.9-3.9
		L110.8,107.1z"/>
	<path class="st0" d="M134.6,106.8l-2.5,14.5l-6.1,0.1l-1.3-7.3l-1.3,6.7l-6.1,0.2l-2.5-13.8l5.3-0.5l1.1,8.5l1.4-7.8h4.2l1.7,7.9
		l0.9-9L134.6,106.8z"/>
	<path class="st0" d="M147.9,120.8l-5.3,0.7l-0.6-2.4h-2.4l-0.5,2.4l-5.5-0.5l4.3-14.3l6-0.3L147.9,120.8z M141.5,115.8l-0.8-3.7
		l-0.8,3.7H141.5z"/>
	<path class="st0" d="M157.6,116.1l-0.5,4.8l-9,0.7l0.3-15.3h5.6l-0.8,9.9h4.4V116.1z"/>
	<path class="st0" d="M167.5,116.1l-0.5,4.8l-9,0.7l0.3-15.3h5.6l-0.8,9.9h4.4V116.1z"/>
	<path class="st0" d="M180,113.1c0,0.6,0,1.2-0.1,1.9c-1.2,0.1-2.4,0.2-3.7,0.4c-1.2,0.2-2.4,0.3-3.6,0.5c0.2,0.5,0.5,0.9,0.9,1.2
		c0.4,0.3,0.9,0.5,1.4,0.5c0.3,0,0.6-0.1,0.9-0.2c0.3-0.1,0.7-0.2,1-0.4s0.7-0.3,1-0.5s0.6-0.4,0.8-0.5l-0.5,4.9
		c-0.3,0.2-0.6,0.4-0.9,0.5c-0.3,0.2-0.7,0.3-1,0.4s-0.7,0.2-1.1,0.2s-0.7,0.1-1.1,0.1c-0.7,0-1.4-0.1-1.9-0.3s-1.1-0.5-1.6-0.8
		s-0.9-0.8-1.3-1.2s-0.7-1-0.9-1.5s-0.4-1.1-0.5-1.8s-0.2-1.3-0.2-1.9c0-0.7,0.1-1.3,0.2-2s0.3-1.3,0.6-1.9c0.2-0.6,0.6-1.2,0.9-1.7
		c0.4-0.5,0.8-1,1.3-1.4s1.1-0.7,1.7-0.9c0.6-0.2,1.3-0.3,2.1-0.3c0.6,0,1.2,0.1,1.7,0.3c0.5,0.2,1,0.4,1.4,0.7
		c0.4,0.3,0.8,0.7,1.1,1.1s0.6,0.9,0.8,1.4s0.3,1.1,0.4,1.6C179.9,111.9,180,112.5,180,113.1z M175.7,112.5c0-0.2,0-0.4-0.1-0.6
		c0-0.2-0.1-0.4-0.2-0.6c-0.1-0.2-0.2-0.3-0.4-0.4s-0.4-0.2-0.6-0.2c-0.3,0-0.5,0.1-0.8,0.2c-0.2,0.2-0.4,0.3-0.6,0.6
		c-0.2,0.2-0.3,0.5-0.4,0.8c-0.1,0.3-0.2,0.5-0.2,0.8l3.2-0.3v-0.3H175.7z"/>
	<path class="st0" d="M192,106.6l-0.1,4.6l-3.2,0.1l-0.4,10l-4.5,0.2l-0.4-10l-3.2,0.2l0.1-5.1L192,106.6z"/>
	<path class="st0" d="M207.2,111.6c0,0.6-0.1,1.1-0.3,1.6c-0.2,0.5-0.5,1-0.8,1.5s-0.7,0.9-1.2,1.3c-0.4,0.4-0.9,0.7-1.3,1h3.4
		l-0.3,4.5l-10.1-0.3v-3.9c0.4-0.1,0.8-0.3,1.2-0.5c0.4-0.2,0.8-0.4,1.2-0.6c0.4-0.2,0.8-0.5,1.1-0.8c0.4-0.3,0.7-0.6,1-1
		c0.3-0.3,0.5-0.7,0.7-1.1s0.2-0.8,0.2-1.3c0-0.3,0-0.5-0.1-0.7s-0.2-0.4-0.4-0.5s-0.4-0.2-0.6-0.3c-0.2-0.1-0.5-0.1-0.7-0.1
		s-0.4,0-0.7,0.1c-0.2,0-0.4,0.1-0.7,0.2s-0.4,0.2-0.6,0.3c-0.2,0.1-0.4,0.3-0.5,0.4l-0.9-4.2c0.3-0.3,0.6-0.5,0.9-0.7
		s0.7-0.3,1.1-0.4s0.8-0.2,1.2-0.2c0.4,0,0.8-0.1,1.2-0.1c0.8,0,1.6,0.2,2.4,0.5c0.7,0.3,1.4,0.7,1.9,1.3c0.5,0.5,1,1.2,1.3,1.9
		C207.1,110,207.2,110.8,207.2,111.6z"/>
	<path class="st0" d="M215,111.8c0,0.4-0.1,0.8-0.2,1.1c-0.2,0.4-0.4,0.7-0.7,1s-0.7,0.5-1.1,0.7s-0.9,0.3-1.4,0.3s-1-0.1-1.4-0.3
		c-0.4-0.2-0.8-0.4-1.1-0.7c-0.3-0.3-0.5-0.6-0.7-1s-0.2-0.7-0.2-1.1s0.1-0.7,0.2-1.1c0.2-0.4,0.4-0.7,0.7-1
		c0.3-0.3,0.7-0.5,1.1-0.7s0.9-0.3,1.4-0.3s1,0.1,1.4,0.3c0.4,0.2,0.8,0.4,1.1,0.7s0.5,0.6,0.7,1C214.9,111.1,215,111.5,215,111.8z
		 M212.5,111.8c0-0.1,0-0.2-0.1-0.4c0-0.1-0.1-0.3-0.2-0.4s-0.2-0.2-0.3-0.3c-0.1-0.1-0.3-0.1-0.5-0.1s-0.3,0-0.5,0.1
		c-0.1,0.1-0.2,0.2-0.3,0.3s-0.2,0.2-0.2,0.4c0,0.1-0.1,0.3-0.1,0.4s0,0.2,0.1,0.4c0,0.1,0.1,0.3,0.2,0.4s0.2,0.2,0.3,0.3
		c0.1,0.1,0.3,0.1,0.5,0.1s0.3,0,0.5-0.1c0.1-0.1,0.2-0.2,0.3-0.3s0.1-0.2,0.2-0.4C212.5,112.1,212.5,111.9,212.5,111.8z
		 M219.2,108.4c-0.9,2-1.8,4-2.6,6.1c-0.8,2.1-1.5,4.2-2.2,6.3l-2.2-0.8c0.4-1,0.8-2.1,1.3-3.1c0.4-1,0.8-2.1,1.3-3.1
		c0.4-1,0.9-2,1.4-3s1-2,1.5-3L219.2,108.4z M223.1,117.2c0,0.4-0.1,0.8-0.2,1.1c-0.2,0.4-0.4,0.7-0.7,1s-0.7,0.5-1.1,0.7
		s-0.9,0.3-1.4,0.3s-1-0.1-1.4-0.3c-0.4-0.2-0.8-0.4-1.1-0.7c-0.3-0.3-0.5-0.6-0.7-1s-0.2-0.7-0.2-1.1s0.1-0.7,0.2-1.1
		c0.2-0.4,0.4-0.7,0.7-1c0.3-0.3,0.7-0.5,1.1-0.7s0.9-0.3,1.4-0.3s1,0.1,1.4,0.3c0.4,0.2,0.8,0.4,1.1,0.7s0.5,0.6,0.7,1
		C223,116.4,223.1,116.8,223.1,117.2z M220.7,117.2c0-0.1,0-0.2-0.1-0.4c0-0.1-0.1-0.3-0.2-0.4s-0.2-0.2-0.3-0.3
		c-0.1-0.1-0.3-0.1-0.5-0.1s-0.3,0-0.5,0.1c-0.1,0.1-0.2,0.2-0.3,0.3s-0.2,0.2-0.2,0.4c0,0.1-0.1,0.3-0.1,0.4s0,0.2,0.1,0.4
		c0,0.1,0.1,0.3,0.2,0.4s0.2,0.2,0.3,0.3c0.1,0.1,0.3,0.1,0.5,0.1s0.3,0,0.5-0.1c0.1-0.1,0.2-0.2,0.3-0.3s0.1-0.2,0.2-0.4
		C220.7,117.4,220.7,117.3,220.7,117.2z"/>
	<path class="st0" d="M53.1,168.6v-3.2l6.9-0.3v3.7L53.1,168.6z"/>
	<path class="st0" d="M61.5,168.6v-3.2l6.9-0.3v3.7L61.5,168.6z"/>
	<path class="st0" d="M69.9,168.6v-3.2l6.9-0.3v3.7L69.9,168.6z"/>
	<path class="st0" d="M78.4,168.6v-3.2l6.9-0.3v3.7L78.4,168.6z"/>
	<path class="st0" d="M86.8,168.6v-3.2l6.9-0.3v3.7L86.8,168.6z"/>
	<path class="st0" d="M95.2,168.6v-3.2l6.9-0.3v3.7L95.2,168.6z"/>
	<path class="st0" d="M103.6,168.6v-3.2l6.9-0.3v3.7L103.6,168.6z"/>
	<path class="st0" d="M112,168.6v-3.2l6.9-0.3v3.7L112,168.6z"/>
	<path class="st0" d="M120.4,168.6v-3.2l6.9-0.3v3.7L120.4,168.6z"/>
	<path class="st0" d="M128.8,168.6v-3.2l6.9-0.3v3.7L128.8,168.6z"/>
	<path class="st0" d="M137.2,168.6v-3.2l6.9-0.3v3.7L137.2,168.6z"/>
	<path class="st0" d="M145.6,168.6v-3.2l6.9-0.3v3.7L145.6,168.6z"/>
	<path class="st0" d="M154.1,168.6v-3.2l6.9-0.3v3.7L154.1,168.6z"/>
	<path class="st0" d="M162.5,168.6v-3.2l6.9-0.3v3.7L162.5,168.6z"/>
	<path class="st0" d="M170.9,168.6v-3.2l6.9-0.3v3.7L170.9,168.6z"/>
	<path class="st0" d="M179.3,168.6v-3.2l6.9-0.3v3.7L179.3,168.6z"/>
	<path class="st0" d="M187.7,168.6v-3.2l6.9-0.3v3.7L187.7,168.6z"/>
	<path class="st0" d="M196.1,168.6v-3.2l6.9-0.3v3.7L196.1,168.6z"/>
	<path class="st0" d="M204.5,168.6v-3.2l6.9-0.3v3.7L204.5,168.6z"/>
	<path class="st0" d="M212.9,168.6v-3.2l6.9-0.3v3.7L212.9,168.6z"/>
	<path class="st0" d="M221.3,168.6v-3.2l6.9-0.3v3.7L221.3,168.6z"/>
	<path class="st0" d="M229.8,168.6v-3.2l6.9-0.3v3.7L229.8,168.6z"/>
	<path class="st0" d="M43.8,212.3l-0.6,4.5c-0.2-0.1-0.4-0.1-0.6-0.1s-0.4,0-0.6,0c-0.5,0-1,0.1-1.5,0.2s-0.9,0.4-1.3,0.6
		c-0.4,0.3-0.7,0.6-0.9,1.1c-0.2,0.4-0.3,0.9-0.3,1.5c0,0.4,0.1,0.7,0.2,1s0.3,0.5,0.5,0.7s0.5,0.3,0.8,0.4s0.6,0.1,1,0.1
		c0.3,0,0.5,0,0.8-0.1s0.6-0.1,0.8-0.2c0.3-0.1,0.6-0.2,0.8-0.3c0.3-0.1,0.5-0.2,0.7-0.4l-0.4,5c-0.3,0.1-0.6,0.3-0.9,0.4
		s-0.7,0.2-1,0.3c-0.3,0.1-0.7,0.1-1,0.2s-0.7,0.1-1,0.1c-0.9,0-1.8-0.2-2.5-0.5c-0.8-0.3-1.5-0.8-2.1-1.4s-1-1.3-1.4-2.1
		c-0.3-0.8-0.5-1.7-0.5-2.6c0-1.2,0.2-2.4,0.5-3.5s0.9-2,1.5-2.9s1.5-1.5,2.5-1.9c1-0.5,2.2-0.7,3.5-0.7c0.5,0,1,0,1.5,0.1
		C42.8,211.9,43.3,212,43.8,212.3z"/>
	<path class="st0" d="M57.6,219.1c0,0.7-0.1,1.3-0.2,1.9c-0.2,0.6-0.4,1.2-0.7,1.7c-0.3,0.5-0.6,1-1,1.5c-0.4,0.4-0.9,0.8-1.4,1.1
		c-0.5,0.3-1.1,0.6-1.6,0.7c-0.6,0.2-1.2,0.3-1.9,0.3c-0.6,0-1.3-0.1-1.8-0.2c-0.6-0.2-1.1-0.4-1.6-0.7c-0.5-0.3-1-0.7-1.4-1.1
		s-0.8-0.9-1.1-1.4c-0.3-0.5-0.5-1.1-0.7-1.6c-0.2-0.6-0.2-1.2-0.2-1.8c0-0.6,0.1-1.2,0.2-1.8c0.2-0.6,0.4-1.2,0.7-1.7
		c0.3-0.5,0.6-1,1-1.5c0.4-0.4,0.9-0.8,1.3-1.1c0.5-0.3,1-0.6,1.6-0.8c0.6-0.2,1.2-0.3,1.8-0.3c1,0,2,0.2,2.8,0.5
		c0.9,0.3,1.6,0.8,2.2,1.4s1.1,1.3,1.4,2.2C57.4,217.1,57.6,218.1,57.6,219.1z M52.8,219.4c0-0.3,0-0.6-0.1-0.9s-0.2-0.5-0.4-0.8
		s-0.4-0.4-0.6-0.5c-0.3-0.1-0.5-0.2-0.9-0.2c-0.3,0-0.6,0.1-0.9,0.2s-0.5,0.3-0.7,0.5s-0.3,0.5-0.4,0.7c-0.1,0.3-0.2,0.6-0.2,0.9
		s0,0.6,0.1,0.9s0.2,0.6,0.4,0.8c0.2,0.2,0.4,0.4,0.6,0.6c0.3,0.2,0.5,0.2,0.9,0.2s0.6-0.1,0.9-0.2s0.5-0.3,0.7-0.5s0.3-0.5,0.4-0.8
		C52.7,220,52.8,219.7,52.8,219.4z"/>
	<path class="st0" d="M71.5,221.9c0,0.8,0,1.6,0,2.4s0,1.6-0.1,2.4l-6.2-0.1c0.2-1.3,0.4-2.5,0.6-3.8s0.2-2.5,0.2-3.8
		c0-0.1,0-0.2,0-0.5c0-0.2,0-0.4,0-0.7c0-0.3-0.1-0.5-0.1-0.8s-0.1-0.5-0.2-0.8c-0.1-0.2-0.2-0.4-0.2-0.6c-0.1-0.1-0.2-0.2-0.3-0.2
		c-0.2,0-0.4,0.1-0.6,0.2s-0.3,0.3-0.4,0.6c-0.1,0.2-0.2,0.5-0.3,0.8c-0.1,0.3-0.1,0.6-0.1,0.8c0,0.3-0.1,0.5-0.1,0.8
		c0,0.2,0,0.4,0,0.6c0,1.3-0.1,2.5-0.1,3.8c0,1.2,0,2.5-0.1,3.8L58,227c0.1-2.5,0.3-5,0.4-7.5s0.2-5,0.3-7.5l5.1-0.3v1.7
		c0.2-0.2,0.4-0.5,0.7-0.7c0.2-0.2,0.5-0.4,0.7-0.6c0.3-0.2,0.5-0.3,0.8-0.4s0.6-0.1,0.9-0.1c0.6,0,1.1,0.1,1.6,0.3
		c0.5,0.2,0.9,0.5,1.2,0.8s0.6,0.8,0.8,1.2c0.2,0.5,0.4,1,0.5,1.5s0.2,1.1,0.3,1.7s0.1,1.1,0.1,1.7s0,1.1,0,1.6
		C71.5,221,71.5,221.5,71.5,221.9z"/>
	<path class="st0" d="M83.9,212.2l-0.1,4.6l-3.2,0.1l-0.4,10l-4.5,0.2l-0.4-10l-3.2,0.2l0.1-5.1L83.9,212.2z"/>
	<path class="st0" d="M97.1,217c0,0.6,0,1.1-0.1,1.5c-0.1,0.5-0.2,0.9-0.5,1.3c-0.2,0.4-0.5,0.7-0.8,1.1s-0.7,0.6-1.2,0.9l2.6,4.6
		l-4.8,0.9l-1.7-4.6h-1.3l-0.2,4.5h-4.6c0-1.6,0.1-3.3,0.1-4.9s0.1-3.2,0.1-4.9c0-0.8,0-1.6,0-2.4s0-1.6,0.1-2.4
		c0.5-0.2,1-0.3,1.5-0.5c0.5-0.1,1-0.2,1.5-0.3c0.5-0.1,1-0.1,1.5-0.1s1,0,1.6,0c0.8,0,1.6,0.1,2.4,0.3c0.8,0.2,1.4,0.6,2,1
		s1.1,1,1.4,1.7C96.9,215.3,97.1,216.1,97.1,217z M92.3,217.3c0-0.3,0-0.6-0.1-0.8c-0.1-0.3-0.2-0.5-0.4-0.6
		c-0.2-0.2-0.4-0.3-0.6-0.4c-0.2-0.1-0.5-0.2-0.8-0.2c-0.1,0-0.3,0-0.4,0c-0.1,0-0.3,0-0.4,0.1l-0.2,4h0.3c0.3,0,0.6,0,0.9-0.1
		c0.3-0.1,0.6-0.2,0.9-0.4c0.3-0.2,0.5-0.4,0.6-0.6C92.2,218,92.3,217.7,92.3,217.3z"/>
	<path class="st0" d="M111.4,226.4l-5.3,0.7l-0.6-2.4h-2.4l-0.5,2.4l-5.5-0.5l4.3-14.3l6-0.3L111.4,226.4z M105,221.4l-0.8-3.7
		l-0.8,3.7H105z"/>
	<path class="st0" d="M121.6,212.7l-0.4,4.5c-0.2-0.1-0.4-0.1-0.6-0.1s-0.4,0-0.6,0c-0.5,0-1,0.1-1.5,0.2s-0.9,0.3-1.2,0.6
		c-0.4,0.3-0.6,0.6-0.8,1s-0.3,0.9-0.3,1.4c0,0.4,0.1,0.8,0.2,1c0.1,0.3,0.3,0.5,0.5,0.7s0.5,0.3,0.8,0.4s0.7,0.2,1,0.2
		s0.5,0,0.8-0.1s0.6-0.1,0.8-0.2c0.3-0.1,0.5-0.2,0.8-0.3c0.3-0.1,0.5-0.3,0.7-0.4l-0.2,5c-0.3,0.1-0.6,0.3-0.9,0.4
		c-0.3,0.1-0.7,0.2-1,0.3c-0.3,0.1-0.7,0.1-1,0.2c-0.3,0-0.7,0.1-1,0.1c-1,0-1.9-0.2-2.8-0.6c-0.8-0.4-1.6-0.9-2.1-1.6
		c-0.6-0.7-1.1-1.4-1.4-2.3c-0.3-0.9-0.5-1.8-0.5-2.8c0-1.2,0.2-2.3,0.5-3.3s0.8-1.9,1.5-2.6c0.6-0.7,1.4-1.3,2.4-1.8
		c1-0.4,2.1-0.6,3.3-0.6c0.5,0,1,0,1.5,0.1C120.6,212.3,121.1,212.5,121.6,212.7z"/>
	<path class="st0" d="M134,212.2l-0.1,4.6l-3.2,0.1l-0.4,10l-4.5,0.2l-0.4-10l-3.2,0.2l0.1-5.1L134,212.2z"/>
	<path class="st0" d="M151.5,217c0,0.6,0,1.1-0.1,1.5c-0.1,0.5-0.2,0.9-0.5,1.3c-0.2,0.4-0.5,0.7-0.8,1.1s-0.7,0.6-1.2,0.9l2.6,4.6
		l-4.8,0.9l-1.7-4.6h-1.3l-0.2,4.5h-4.6c0-1.6,0.1-3.3,0.1-4.9s0.1-3.2,0.1-4.9c0-0.8,0-1.6,0-2.4s0-1.6,0.1-2.4
		c0.5-0.2,1-0.3,1.5-0.5c0.5-0.1,1-0.2,1.5-0.3c0.5-0.1,1-0.1,1.5-0.1s1,0,1.6,0c0.8,0,1.6,0.1,2.4,0.3c0.8,0.2,1.4,0.6,2,1
		s1.1,1,1.4,1.7C151.3,215.3,151.5,216.1,151.5,217z M146.7,217.3c0-0.3,0-0.6-0.1-0.8c-0.1-0.3-0.2-0.5-0.4-0.6
		c-0.2-0.2-0.4-0.3-0.6-0.4c-0.2-0.1-0.5-0.2-0.8-0.2c-0.1,0-0.3,0-0.4,0c-0.1,0-0.3,0-0.4,0.1l-0.2,4h0.3c0.3,0,0.6,0,0.9-0.1
		c0.3-0.1,0.6-0.2,0.9-0.4c0.3-0.2,0.5-0.4,0.6-0.6C146.6,218,146.7,217.7,146.7,217.3z"/>
	<path class="st0" d="M164.1,218.7c0,0.6,0,1.2-0.1,1.9c-1.2,0.1-2.4,0.2-3.7,0.4c-1.2,0.2-2.4,0.3-3.6,0.5c0.2,0.5,0.5,0.9,0.9,1.2
		c0.4,0.3,0.9,0.5,1.4,0.5c0.3,0,0.6-0.1,0.9-0.2c0.3-0.1,0.7-0.2,1-0.4s0.7-0.3,1-0.5s0.6-0.4,0.8-0.5l-0.5,4.9
		c-0.3,0.2-0.6,0.4-0.9,0.5c-0.3,0.2-0.7,0.3-1,0.4s-0.7,0.2-1.1,0.2s-0.7,0.1-1.1,0.1c-0.7,0-1.4-0.1-1.9-0.3s-1.1-0.5-1.6-0.8
		s-0.9-0.8-1.3-1.2s-0.7-1-0.9-1.5s-0.4-1.1-0.5-1.8s-0.2-1.3-0.2-1.9c0-0.7,0.1-1.3,0.2-2s0.3-1.3,0.6-1.9c0.2-0.6,0.6-1.2,0.9-1.7
		c0.4-0.5,0.8-1,1.3-1.4s1.1-0.7,1.7-0.9c0.6-0.2,1.3-0.3,2.1-0.3c0.6,0,1.2,0.1,1.7,0.3c0.5,0.2,1,0.4,1.4,0.7
		c0.4,0.3,0.8,0.7,1.1,1.1s0.6,0.9,0.8,1.4s0.3,1.1,0.4,1.6C164.1,217.5,164.1,218.1,164.1,218.7z M159.8,218.1c0-0.2,0-0.4-0.1-0.6
		c0-0.2-0.1-0.4-0.2-0.6c-0.1-0.2-0.2-0.3-0.4-0.4s-0.4-0.2-0.6-0.2c-0.3,0-0.5,0.1-0.8,0.2c-0.2,0.2-0.4,0.3-0.6,0.6
		c-0.2,0.2-0.3,0.5-0.4,0.8c-0.1,0.3-0.2,0.5-0.2,0.8l3.2-0.3v-0.3H159.8z"/>
	<path class="st0" d="M178.1,221.9c0,0.8,0,1.6,0,2.4s0,1.6-0.1,2.4l-6.2-0.1c0.2-1.3,0.4-2.5,0.6-3.8c0.2-1.3,0.2-2.5,0.2-3.8
		c0-0.1,0-0.2,0-0.5c0-0.2,0-0.4,0-0.7c0-0.3-0.1-0.5-0.1-0.8s-0.1-0.5-0.2-0.8c-0.1-0.2-0.2-0.4-0.2-0.6c-0.1-0.1-0.2-0.2-0.3-0.2
		c-0.2,0-0.4,0.1-0.6,0.2c-0.2,0.1-0.3,0.3-0.4,0.6c-0.1,0.2-0.2,0.5-0.3,0.8s-0.1,0.6-0.1,0.8c0,0.3-0.1,0.5-0.1,0.8
		c0,0.2,0,0.4,0,0.6c0,1.3-0.1,2.5-0.1,3.8c0,1.2,0,2.5-0.1,3.8l-5.5,0.2c0.1-2.5,0.3-5,0.4-7.5c0.1-2.5,0.2-5,0.3-7.5l5.1-0.3v1.7
		c0.2-0.2,0.4-0.5,0.7-0.7c0.2-0.2,0.5-0.4,0.7-0.6c0.3-0.2,0.5-0.3,0.8-0.4s0.6-0.1,0.9-0.1c0.6,0,1.1,0.1,1.6,0.3
		c0.5,0.2,0.9,0.5,1.2,0.8s0.6,0.8,0.8,1.2c0.2,0.5,0.4,1,0.5,1.5s0.2,1.1,0.3,1.7s0.1,1.1,0.1,1.7s0,1.1,0,1.6
		C178.1,221,178.1,221.5,178.1,221.9z"/>
	<path class="st0" d="M192.4,219.1c0,0.7-0.1,1.3-0.2,1.9c-0.2,0.6-0.4,1.2-0.7,1.7s-0.6,1-1,1.5c-0.4,0.4-0.9,0.8-1.4,1.1
		c-0.5,0.3-1.1,0.6-1.6,0.7c-0.6,0.2-1.2,0.3-1.9,0.3c-0.6,0-1.3-0.1-1.8-0.2c-0.6-0.2-1.1-0.4-1.6-0.7c-0.5-0.3-1-0.7-1.4-1.1
		s-0.8-0.9-1.1-1.4s-0.5-1.1-0.7-1.6c-0.2-0.6-0.2-1.2-0.2-1.8c0-0.6,0.1-1.2,0.2-1.8c0.2-0.6,0.4-1.2,0.7-1.7s0.6-1,1-1.5
		c0.4-0.4,0.9-0.8,1.3-1.1c0.5-0.3,1-0.6,1.6-0.8c0.6-0.2,1.2-0.3,1.8-0.3c1,0,2,0.2,2.8,0.5c0.9,0.3,1.6,0.8,2.2,1.4
		c0.6,0.6,1.1,1.3,1.4,2.2C192.3,217.1,192.4,218.1,192.4,219.1z M187.7,219.4c0-0.3,0-0.6-0.1-0.9s-0.2-0.5-0.4-0.8
		s-0.4-0.4-0.6-0.5c-0.3-0.1-0.5-0.2-0.9-0.2c-0.3,0-0.6,0.1-0.9,0.2c-0.3,0.1-0.5,0.3-0.7,0.5s-0.3,0.5-0.4,0.7
		c-0.1,0.3-0.2,0.6-0.2,0.9s0,0.6,0.1,0.9s0.2,0.6,0.4,0.8c0.2,0.2,0.4,0.4,0.6,0.6c0.3,0.2,0.5,0.2,0.9,0.2s0.6-0.1,0.9-0.2
		c0.3-0.1,0.5-0.3,0.7-0.5s0.3-0.5,0.4-0.8C187.6,220,187.7,219.7,187.7,219.4z"/>
	<path class="st0" d="M206,212.2c-0.3,2.5-0.6,5-0.8,7.5c-0.2,2.5-0.4,5-0.7,7.5l-4.4,0.3l0.2-1.7c-0.1,0.2-0.3,0.3-0.5,0.4
		s-0.4,0.2-0.6,0.3s-0.4,0.1-0.7,0.2s-0.4,0-0.7,0c-0.5,0-0.9-0.1-1.4-0.3s-0.8-0.4-1.2-0.7c-0.4-0.3-0.7-0.7-1-1.1
		s-0.5-0.8-0.7-1.3c-0.2-0.4-0.3-0.9-0.5-1.4c-0.1-0.5-0.2-0.9-0.2-1.4c0-0.6,0-1.3,0-2s0.1-1.4,0.1-2.1c0.1-0.7,0.1-1.4,0.3-2.1
		c0.1-0.7,0.2-1.3,0.4-2c0.9,0,1.8,0.1,2.6,0.1c0.9,0,1.8,0,2.6,0c-0.2,0.6-0.3,1.2-0.5,1.9c-0.2,0.6-0.3,1.3-0.4,1.9
		s-0.2,1.3-0.3,1.9c-0.1,0.6-0.1,1.3-0.1,1.9c0,0.2,0,0.4,0,0.6s0.1,0.6,0.1,0.8c0.1,0.3,0.2,0.5,0.3,0.7c0.1,0.2,0.3,0.3,0.5,0.3
		c0.3,0,0.5-0.1,0.7-0.3c0.2-0.2,0.4-0.5,0.6-0.9s0.3-0.8,0.4-1.4c0.1-0.5,0.2-1.1,0.3-1.6c0.1-0.6,0.1-1.1,0.2-1.7
		c0-0.6,0.1-1.1,0.1-1.6s0-1,0.1-1.4c0-0.4,0-0.7,0-0.9c0-0.1,0-0.3,0-0.4s0-0.3,0-0.4c0.5,0,0.9,0,1.4,0s0.9,0,1.4,0
		c0.4,0,0.7,0,1.1,0C205.3,212.3,205.6,212.3,206,212.2z"/>
	<path class="st0" d="M220,221.9c0,0.8,0,1.6,0,2.4s0,1.6-0.1,2.4l-6.2-0.1c0.2-1.3,0.4-2.5,0.6-3.8s0.2-2.5,0.2-3.8
		c0-0.1,0-0.2,0-0.5c0-0.2,0-0.4,0-0.7c0-0.3-0.1-0.5-0.1-0.8s-0.1-0.5-0.2-0.8c-0.1-0.2-0.2-0.4-0.2-0.6c-0.1-0.1-0.2-0.2-0.3-0.2
		c-0.2,0-0.4,0.1-0.6,0.2s-0.3,0.3-0.4,0.6c-0.1,0.2-0.2,0.5-0.3,0.8s-0.1,0.6-0.1,0.8c0,0.3-0.1,0.5-0.1,0.8c0,0.2,0,0.4,0,0.6
		c0,1.3-0.1,2.5-0.1,3.8c0,1.2,0,2.5-0.1,3.8l-5.5,0.2c0.1-2.5,0.3-5,0.4-7.5s0.2-5,0.3-7.5l5.1-0.3v1.7c0.2-0.2,0.4-0.5,0.7-0.7
		c0.2-0.2,0.5-0.4,0.7-0.6c0.3-0.2,0.5-0.3,0.8-0.4s0.6-0.1,0.9-0.1c0.6,0,1.1,0.1,1.6,0.3c0.5,0.2,0.9,0.5,1.2,0.8s0.6,0.8,0.8,1.2
		c0.2,0.5,0.4,1,0.5,1.5s0.2,1.1,0.3,1.7c0.1,0.6,0.1,1.1,0.1,1.7s0,1.1,0,1.6C220,221,220,221.5,220,221.9z"/>
	<path class="st0" d="M231.2,212.7l-0.4,4.5c-0.2-0.1-0.4-0.1-0.6-0.1s-0.4,0-0.6,0c-0.5,0-1,0.1-1.5,0.2s-0.9,0.3-1.2,0.6
		c-0.4,0.3-0.6,0.6-0.8,1c-0.2,0.4-0.3,0.9-0.3,1.4c0,0.4,0.1,0.8,0.2,1c0.1,0.3,0.3,0.5,0.5,0.7s0.5,0.3,0.8,0.4s0.7,0.2,1,0.2
		s0.5,0,0.8-0.1s0.6-0.1,0.8-0.2c0.3-0.1,0.5-0.2,0.8-0.3c0.3-0.1,0.5-0.3,0.7-0.4l-0.2,5c-0.3,0.1-0.6,0.3-0.9,0.4s-0.7,0.2-1,0.3
		c-0.3,0.1-0.7,0.1-1,0.2c-0.3,0-0.7,0.1-1,0.1c-1,0-1.9-0.2-2.8-0.6c-0.8-0.4-1.6-0.9-2.1-1.6c-0.6-0.7-1.1-1.4-1.4-2.3
		s-0.5-1.8-0.5-2.8c0-1.2,0.2-2.3,0.5-3.3s0.8-1.9,1.5-2.6c0.6-0.7,1.4-1.3,2.4-1.8c1-0.4,2.1-0.6,3.3-0.6c0.5,0,1,0,1.5,0.1
		C230.3,212.3,230.8,212.5,231.2,212.7z"/>
	<path class="st0" d="M244.2,218.7c0,0.6,0,1.2-0.1,1.9c-1.2,0.1-2.4,0.2-3.7,0.4c-1.2,0.2-2.4,0.3-3.6,0.5c0.2,0.5,0.5,0.9,0.9,1.2
		c0.4,0.3,0.9,0.5,1.4,0.5c0.3,0,0.6-0.1,0.9-0.2s0.7-0.2,1-0.4s0.7-0.3,1-0.5s0.6-0.4,0.8-0.5l-0.5,4.9c-0.3,0.2-0.6,0.4-0.9,0.5
		c-0.3,0.2-0.7,0.3-1,0.4s-0.7,0.2-1.1,0.2s-0.7,0.1-1.1,0.1c-0.7,0-1.4-0.1-1.9-0.3s-1.1-0.5-1.6-0.8s-0.9-0.8-1.3-1.2
		s-0.7-1-0.9-1.5s-0.4-1.1-0.5-1.8s-0.2-1.3-0.2-1.9c0-0.7,0.1-1.3,0.2-2s0.3-1.3,0.6-1.9c0.2-0.6,0.6-1.2,0.9-1.7
		c0.4-0.5,0.8-1,1.3-1.4s1.1-0.7,1.7-0.9c0.6-0.2,1.3-0.3,2.1-0.3c0.6,0,1.2,0.1,1.7,0.3c0.5,0.2,1,0.4,1.4,0.7
		c0.4,0.3,0.8,0.7,1.1,1.1c0.3,0.4,0.6,0.9,0.8,1.4c0.2,0.5,0.3,1.1,0.4,1.6C244.2,217.5,244.2,218.1,244.2,218.7z M239.9,218.1
		c0-0.2,0-0.4-0.1-0.6c0-0.2-0.1-0.4-0.2-0.6s-0.2-0.3-0.4-0.4c-0.2-0.1-0.4-0.2-0.6-0.2c-0.3,0-0.5,0.1-0.8,0.2
		c-0.2,0.2-0.4,0.3-0.6,0.6c-0.2,0.2-0.3,0.5-0.4,0.8s-0.2,0.5-0.2,0.8l3.2-0.3v-0.3H239.9z"/>
	<path class="st0" d="M257.1,218.8c0,1-0.1,1.9-0.4,2.7s-0.6,1.5-1.1,2.1s-1,1.1-1.6,1.6s-1.3,0.8-2.1,1.1c-0.8,0.3-1.6,0.5-2.4,0.6
		c-0.9,0.1-1.7,0.2-2.6,0.2c-0.3,0-0.7,0-1,0s-0.7,0-1-0.1l0.3-14c0.8-0.3,1.6-0.4,2.4-0.5s1.7-0.2,2.5-0.2c1,0,2,0.1,2.8,0.4
		c0.9,0.3,1.6,0.7,2.2,1.3c0.6,0.6,1.1,1.2,1.5,2.1C256.9,216.8,257.1,217.8,257.1,218.8z M249.8,222.9c0.4-0.1,0.8-0.2,1.2-0.4
		c0.4-0.2,0.7-0.4,0.9-0.7s0.5-0.6,0.6-1s0.2-0.8,0.2-1.2c0-0.4,0-0.8-0.1-1.1s-0.2-0.7-0.4-0.9c-0.2-0.3-0.4-0.5-0.8-0.6
		c-0.3-0.2-0.7-0.2-1.2-0.3L249.8,222.9z"/>
	<path class="st0" d="M68.1,274l-0.5,4.8l-9,0.7c0-2.5,0.1-5,0.1-7.5c0.1-2.5,0.1-5,0.2-7.5h5.6c-0.2,1.6-0.3,3.1-0.5,4.7
		c-0.2,1.6-0.3,3.1-0.3,4.7c0.3,0,0.7,0,1,0s0.7,0,1,0c0.4,0,0.8,0,1.2,0C67.3,274,67.7,274,68.1,274z"/>
	<path class="st0" d="M74.2,265l-0.8,14.6l-4.5,0.2l-0.4-14.6L74.2,265z"/>
	<path class="st0" d="M89.5,272.2c0,1.1-0.2,2.1-0.6,3.1c-0.4,1-1,1.9-1.8,2.6l1.5,1.8l-3.9,2.5l-0.9-2.5c-0.3,0.1-0.5,0.1-0.8,0.1
		s-0.6,0-0.8,0c-0.7,0-1.3-0.1-2-0.3s-1.2-0.4-1.8-0.7s-1.1-0.7-1.5-1.1c-0.5-0.4-0.8-0.9-1.2-1.5c-0.3-0.5-0.6-1.1-0.8-1.8
		c-0.2-0.6-0.3-1.3-0.3-2s0.1-1.3,0.3-2c0.2-0.6,0.4-1.2,0.7-1.8c0.3-0.6,0.7-1.1,1.1-1.6c0.4-0.5,0.9-0.9,1.5-1.2s1.1-0.6,1.8-0.8
		c0.6-0.2,1.3-0.3,2-0.3c1.1,0,2.1,0.2,3.1,0.5c0.9,0.3,1.7,0.8,2.4,1.5c0.7,0.6,1.2,1.4,1.6,2.3S89.5,271,89.5,272.2z M84.3,272.5
		c0-0.3,0-0.6-0.1-1c-0.1-0.3-0.2-0.6-0.4-0.8s-0.4-0.4-0.7-0.6c-0.3-0.1-0.6-0.2-1-0.2s-0.7,0.1-1,0.2s-0.5,0.3-0.7,0.5
		s-0.4,0.5-0.5,0.8s-0.2,0.6-0.2,1c0,0.3,0,0.7,0.1,1s0.2,0.6,0.4,0.9s0.4,0.5,0.7,0.6c0.3,0.2,0.6,0.2,1,0.2s0.7-0.1,1-0.2
		s0.5-0.3,0.7-0.6c0.2-0.2,0.4-0.5,0.5-0.8C84.2,273.1,84.3,272.8,84.3,272.5z"/>
	<path class="st0" d="M103.1,265c-0.3,2.5-0.6,5-0.8,7.5s-0.4,5-0.7,7.5l-4.4,0.3l0.2-1.7c-0.1,0.2-0.3,0.3-0.5,0.4
		s-0.4,0.2-0.6,0.3s-0.4,0.1-0.7,0.2s-0.4,0-0.7,0c-0.5,0-0.9-0.1-1.4-0.3s-0.8-0.4-1.2-0.7s-0.7-0.7-1-1.1s-0.5-0.8-0.7-1.3
		c-0.2-0.4-0.3-0.9-0.5-1.4c-0.1-0.5-0.2-0.9-0.2-1.4c0-0.6,0-1.3,0-2s0.1-1.4,0.1-2.1c0.1-0.7,0.1-1.4,0.3-2.1
		c0.1-0.7,0.2-1.3,0.4-2c0.9,0,1.8,0.1,2.6,0.1c0.9,0,1.8,0,2.6,0c-0.2,0.6-0.3,1.2-0.5,1.9c-0.2,0.6-0.3,1.3-0.4,1.9
		s-0.2,1.3-0.3,1.9s-0.1,1.3-0.1,1.9c0,0.2,0,0.4,0,0.6s0.1,0.6,0.1,0.8c0.1,0.3,0.2,0.5,0.3,0.7s0.3,0.3,0.5,0.3
		c0.3,0,0.5-0.1,0.7-0.3s0.4-0.5,0.6-0.9c0.2-0.4,0.3-0.8,0.4-1.4c0.1-0.5,0.2-1.1,0.3-1.6c0.1-0.6,0.1-1.1,0.2-1.7
		c0-0.6,0.1-1.1,0.1-1.6s0-1,0.1-1.4c0-0.4,0-0.7,0-0.9c0-0.1,0-0.3,0-0.4s0-0.3,0-0.4c0.5,0,0.9,0,1.4,0s0.9,0,1.4,0
		c0.4,0,0.7,0,1.1,0C102.3,265.1,102.7,265,103.1,265z"/>
	<path class="st0" d="M109.3,265l-0.8,14.6l-4.5,0.2l-0.4-14.6L109.3,265z"/>
	<path class="st0" d="M122.4,271.6c0,1-0.1,1.9-0.4,2.7s-0.6,1.5-1.1,2.1s-1,1.1-1.6,1.6s-1.3,0.8-2.1,1.1s-1.6,0.5-2.4,0.6
		c-0.9,0.1-1.7,0.2-2.6,0.2c-0.3,0-0.7,0-1,0s-0.7,0-1-0.1l0.3-14c0.8-0.2,1.6-0.4,2.4-0.5c0.8-0.1,1.7-0.2,2.5-0.2
		c1,0,2,0.1,2.8,0.4c0.9,0.3,1.6,0.7,2.2,1.3s1.1,1.2,1.5,2.1C122.2,269.6,122.4,270.6,122.4,271.6z M115.1,275.7
		c0.4-0.1,0.8-0.2,1.2-0.4c0.4-0.2,0.7-0.4,0.9-0.7s0.5-0.6,0.6-1s0.2-0.8,0.2-1.2c0-0.4,0-0.8-0.1-1.1s-0.2-0.7-0.4-0.9
		s-0.4-0.5-0.8-0.6s-0.7-0.2-1.2-0.3L115.1,275.7z"/>
	<path class="st0" d="M128.6,265l-0.8,14.6l-4.5,0.2l-0.4-14.6L128.6,265z"/>
	<path class="st0" d="M140.9,265l-0.1,4.6l-3.2,0.1l-0.4,10l-4.5,0.2l-0.4-10l-3.2,0.2l0.1-5.1L140.9,265z"/>
	<path class="st0" d="M154.7,265.6l-5,8.2l0.2,6.1h-5.6l0.1-6l-3.9-8l5.5-0.7l1.7,4.6l1.9-4.6L154.7,265.6z"/>
	<path class="st0" d="M168.5,274.5l-0.5,4.8l-9,0.7l0.3-15.3h5.6l-0.8,9.9h4.4V274.5z"/>
	<path class="st0" d="M182.3,271.9c0,0.7-0.1,1.3-0.2,1.9s-0.4,1.2-0.7,1.7s-0.6,1-1,1.5c-0.4,0.4-0.9,0.8-1.4,1.1
		c-0.5,0.3-1.1,0.6-1.6,0.7s-1.2,0.3-1.9,0.3c-0.6,0-1.3-0.1-1.8-0.2c-0.6-0.2-1.1-0.4-1.6-0.7s-1-0.7-1.4-1.1s-0.8-0.9-1.1-1.4
		s-0.5-1.1-0.7-1.6c-0.2-0.6-0.2-1.2-0.2-1.8c0-0.6,0.1-1.2,0.2-1.8s0.4-1.2,0.7-1.7s0.6-1,1-1.5c0.4-0.4,0.9-0.8,1.3-1.1
		c0.5-0.3,1-0.6,1.6-0.8c0.6-0.2,1.2-0.3,1.8-0.3c1,0,2,0.2,2.8,0.5c0.9,0.3,1.6,0.8,2.2,1.4c0.6,0.6,1.1,1.3,1.4,2.2
		C182.1,269.9,182.3,270.9,182.3,271.9z M177.5,272.2c0-0.3,0-0.6-0.1-0.9s-0.2-0.5-0.4-0.8s-0.4-0.4-0.6-0.5
		c-0.3-0.1-0.5-0.2-0.9-0.2c-0.3,0-0.6,0.1-0.9,0.2c-0.3,0.1-0.5,0.3-0.7,0.5s-0.3,0.5-0.4,0.7s-0.2,0.6-0.2,0.9s0,0.6,0.1,0.9
		s0.2,0.6,0.4,0.8c0.2,0.2,0.4,0.4,0.6,0.6c0.3,0.2,0.5,0.2,0.9,0.2s0.6-0.1,0.9-0.2c0.3-0.1,0.5-0.3,0.7-0.5s0.3-0.5,0.4-0.8
		C177.5,272.8,177.5,272.5,177.5,272.2z"/>
	<path class="st0" d="M193.3,265.5l-0.4,4.5c-0.2-0.1-0.4-0.1-0.6-0.1s-0.4,0-0.6,0c-0.5,0-1,0.1-1.5,0.2s-0.9,0.3-1.2,0.6
		c-0.4,0.3-0.6,0.6-0.8,1s-0.3,0.9-0.3,1.4c0,0.4,0.1,0.8,0.2,1c0.1,0.3,0.3,0.5,0.5,0.7s0.5,0.3,0.8,0.4s0.7,0.2,1,0.2
		s0.5,0,0.8-0.1s0.6-0.1,0.8-0.2c0.3-0.1,0.5-0.2,0.8-0.3c0.3-0.1,0.5-0.2,0.7-0.4l-0.2,5c-0.3,0.1-0.6,0.3-0.9,0.4s-0.7,0.2-1,0.3
		c-0.3,0.1-0.7,0.1-1,0.2c-0.3,0-0.7,0.1-1,0.1c-1,0-1.9-0.2-2.8-0.6c-0.8-0.4-1.6-0.9-2.1-1.6c-0.6-0.7-1.1-1.4-1.4-2.3
		c-0.3-0.9-0.5-1.8-0.5-2.8c0-1.2,0.2-2.3,0.5-3.3s0.8-1.9,1.5-2.6c0.6-0.7,1.4-1.3,2.4-1.8c1-0.4,2.1-0.6,3.3-0.6
		c0.5,0,1,0,1.5,0.1C192.4,265.1,192.8,265.3,193.3,265.5z"/>
	<path class="st0" d="M207.5,266.3l-4.7,5.7l4.4,7.4l-5,0.9l-3.3-4.4l-0.2,4.2l-4.5,0.2l0.3-15.4l5,0.3l-0.4,4.4l3.1-4.5
		L207.5,266.3z"/>
	<path class="st0" d="M218.7,271.5c0,0.6,0,1.2-0.1,1.9c-1.2,0.1-2.4,0.2-3.7,0.4s-2.4,0.3-3.6,0.5c0.2,0.5,0.5,0.9,0.9,1.2
		c0.4,0.3,0.9,0.5,1.4,0.5c0.3,0,0.6-0.1,0.9-0.2s0.7-0.2,1-0.4s0.7-0.3,1-0.5s0.6-0.4,0.8-0.5l-0.5,4.9c-0.3,0.2-0.6,0.4-0.9,0.5
		c-0.3,0.2-0.7,0.3-1,0.4s-0.7,0.2-1.1,0.2s-0.7,0.1-1.1,0.1c-0.7,0-1.4-0.1-1.9-0.3s-1.1-0.5-1.6-0.8s-0.9-0.8-1.3-1.2
		s-0.7-1-0.9-1.5s-0.4-1.1-0.5-1.8s-0.2-1.3-0.2-1.9c0-0.7,0.1-1.3,0.2-2s0.3-1.3,0.6-1.9c0.2-0.6,0.6-1.2,0.9-1.7
		c0.4-0.5,0.8-1,1.3-1.4s1.1-0.7,1.7-0.9c0.6-0.2,1.3-0.3,2.1-0.3c0.6,0,1.2,0.1,1.7,0.3c0.5,0.2,1,0.4,1.4,0.7
		c0.4,0.3,0.8,0.7,1.1,1.1c0.3,0.4,0.6,0.9,0.8,1.4c0.2,0.5,0.3,1.1,0.4,1.6C218.7,270.3,218.7,270.9,218.7,271.5z M214.4,270.9
		c0-0.2,0-0.4-0.1-0.6s-0.1-0.4-0.2-0.6s-0.2-0.3-0.4-0.4s-0.4-0.2-0.6-0.2c-0.3,0-0.5,0.1-0.8,0.2c-0.2,0.2-0.4,0.3-0.6,0.6
		s-0.3,0.5-0.4,0.8s-0.2,0.5-0.2,0.8l3.2-0.3v-0.3H214.4z"/>
	<path class="st0" d="M231.6,271.6c0,1-0.1,1.9-0.4,2.7s-0.6,1.5-1.1,2.1s-1,1.1-1.6,1.6s-1.3,0.8-2.1,1.1s-1.6,0.5-2.4,0.6
		c-0.9,0.1-1.7,0.2-2.6,0.2c-0.3,0-0.7,0-1,0s-0.7,0-1-0.1l0.3-14c0.8-0.2,1.6-0.4,2.4-0.5s1.7-0.2,2.5-0.2c1,0,2,0.1,2.8,0.4
		c0.9,0.3,1.6,0.7,2.2,1.3s1.1,1.2,1.5,2.1C231.4,269.6,231.6,270.6,231.6,271.6z M224.3,275.7c0.4-0.1,0.8-0.2,1.2-0.4
		c0.4-0.2,0.7-0.4,0.9-0.7s0.5-0.6,0.6-1s0.2-0.8,0.2-1.2c0-0.4,0-0.8-0.1-1.1s-0.2-0.7-0.4-0.9s-0.4-0.5-0.8-0.6s-0.7-0.2-1.2-0.3
		L224.3,275.7z"/>
	<path class="st0" d="M67.1,332l-5.3,0.7l-0.6-2.4h-2.4l-0.5,2.4l-5.5-0.5l4.3-14.3l6-0.3L67.1,332z M60.8,327l-0.8-3.7l-0.8,3.7
		H60.8z"/>
	<path class="st0" d="M80.7,327.5c0,0.8,0,1.6,0,2.4c0,0.8,0,1.6-0.1,2.4l-6.2-0.1c0.2-1.3,0.4-2.5,0.6-3.8s0.2-2.5,0.2-3.8
		c0-0.1,0-0.2,0-0.5c0-0.2,0-0.4,0-0.7s-0.1-0.5-0.1-0.8s-0.1-0.5-0.2-0.8c-0.1-0.2-0.2-0.4-0.2-0.6c-0.1-0.1-0.2-0.2-0.3-0.2
		c-0.2,0-0.4,0.1-0.6,0.2c-0.2,0.1-0.3,0.3-0.4,0.6c-0.1,0.2-0.2,0.5-0.3,0.8s-0.1,0.6-0.1,0.8c0,0.3-0.1,0.5-0.1,0.8
		c0,0.2,0,0.4,0,0.6c0,1.3-0.1,2.5-0.1,3.8s0,2.5-0.1,3.8l-5.5,0.2c0.1-2.5,0.3-5,0.4-7.5c0.1-2.5,0.2-5,0.3-7.5l5.1-0.3v1.7
		c0.2-0.2,0.4-0.5,0.7-0.7c0.2-0.2,0.5-0.4,0.7-0.6s0.5-0.3,0.8-0.4c0.3-0.1,0.6-0.1,0.9-0.1c0.6,0,1.1,0.1,1.6,0.3s0.9,0.5,1.2,0.8
		s0.6,0.8,0.8,1.2s0.4,1,0.5,1.5s0.2,1.1,0.3,1.7s0.1,1.1,0.1,1.7c0,0.6,0,1.1,0,1.6C80.7,326.6,80.7,327.1,80.7,327.5z"/>
	<path class="st0" d="M93.1,317.8l-0.1,4.6l-3.2,0.1l-0.4,10l-4.5,0.2l-0.4-10l-3.2,0.2l0.1-5.1H93.1z"/>
	<path class="st0" d="M99.3,317.8l-0.8,14.6l-4.5,0.2L93.6,318L99.3,317.8z"/>
	<path class="st0" d="M100.4,327v-3.2l6.9-0.3v3.7L100.4,327z"/>
	<path class="st0" d="M127.8,318l-2.5,14.5l-6.1,0.1l-1.3-7.3l-1.3,6.7l-6.1,0.2l-2.5-13.8l5.3-0.5l1.1,8.5l1.4-7.8h4.2l1.7,7.9
		l0.9-9L127.8,318z"/>
	<path class="st0" d="M141,332.5l-5.4,0.3v-4.5h-2.5l-0.2,4.7h-4.8l0.4-15.1l5.1,0.2l-0.3,7.7h2.4v-8.1l4.9,0.1L141,332.5z"/>
	<path class="st0" d="M155.5,332l-5.3,0.7l-0.6-2.4h-2.4l-0.5,2.4l-5.5-0.5l4.3-14.3l6-0.3L155.5,332z M149.2,327l-0.8-3.7l-0.8,3.7
		H149.2z"/>
	<path class="st0" d="M165.2,327.3l-0.5,4.8l-9,0.7l0.3-15.3h5.6l-0.8,9.9h4.4V327.3z"/>
	<path class="st0" d="M177.7,324.3c0,0.6,0,1.2-0.1,1.9c-1.2,0.1-2.4,0.2-3.7,0.4s-2.4,0.3-3.6,0.5c0.2,0.5,0.5,0.9,0.9,1.2
		s0.9,0.5,1.4,0.5c0.3,0,0.6-0.1,0.9-0.2c0.3-0.1,0.7-0.2,1-0.4s0.7-0.3,1-0.5s0.6-0.4,0.8-0.5l-0.5,4.9c-0.3,0.2-0.6,0.4-0.9,0.5
		c-0.3,0.2-0.7,0.3-1,0.4s-0.7,0.2-1.1,0.2s-0.7,0.1-1.1,0.1c-0.7,0-1.4-0.1-1.9-0.3s-1.1-0.5-1.6-0.8s-0.9-0.8-1.3-1.2
		s-0.7-1-0.9-1.5s-0.4-1.1-0.5-1.8s-0.2-1.3-0.2-1.9c0-0.7,0.1-1.3,0.2-2s0.3-1.3,0.6-1.9c0.2-0.6,0.6-1.2,0.9-1.7
		c0.4-0.5,0.8-1,1.3-1.4s1.1-0.7,1.7-0.9c0.6-0.2,1.3-0.3,2.1-0.3c0.6,0,1.2,0.1,1.7,0.3s1,0.4,1.4,0.7s0.8,0.7,1.1,1.1
		c0.3,0.4,0.6,0.9,0.8,1.4s0.3,1.1,0.4,1.6C177.6,323.1,177.7,323.7,177.7,324.3z M173.4,323.7c0-0.2,0-0.4-0.1-0.6
		s-0.1-0.4-0.2-0.6c-0.1-0.2-0.2-0.3-0.4-0.4s-0.4-0.2-0.6-0.2c-0.3,0-0.5,0.1-0.8,0.2c-0.2,0.2-0.4,0.3-0.6,0.6s-0.3,0.5-0.4,0.8
		c-0.1,0.3-0.2,0.5-0.2,0.8l3.2-0.3v-0.3H173.4z"/>
	<path class="st0" d="M192.1,327.3l-0.5,4.8l-9,0.7l0.3-15.3h5.6l-0.8,9.9h4.4V327.3z"/>
	<path class="st0" d="M198.2,317.8l-0.8,14.6l-4.5,0.2l-0.4-14.6L198.2,317.8z"/>
	<path class="st0" d="M217.9,325.7c0,1,0,2-0.1,3.1c-0.1,1-0.1,2-0.2,3.1l-5.5,0.3c0.2-1.2,0.3-2.5,0.4-3.7s0.2-2.5,0.2-3.8
		c0-0.1,0-0.2,0-0.4s0-0.4,0-0.7c0-0.2,0-0.5-0.1-0.8c0-0.3-0.1-0.5-0.1-0.7c-0.1-0.2-0.1-0.4-0.2-0.6c-0.1-0.1-0.2-0.2-0.3-0.2
		c-0.3,0-0.4,0.1-0.6,0.3s-0.2,0.4-0.3,0.7c-0.1,0.3-0.1,0.5-0.1,0.8s0,0.5,0,0.7c0,0.3,0,0.6,0,0.9s0,0.6,0,0.9
		c0,1.1,0,2.2-0.1,3.3s-0.1,2.2-0.2,3.3l-5.1,0.2c0.2-1.2,0.3-2.5,0.4-3.7s0.2-2.5,0.2-3.7c0-0.1,0-0.2,0-0.4s0-0.4,0-0.7
		s0-0.5-0.1-0.8s-0.1-0.5-0.1-0.8c-0.1-0.2-0.1-0.4-0.2-0.6s-0.2-0.2-0.3-0.2c-0.2,0-0.3,0.1-0.5,0.2s-0.2,0.3-0.3,0.5
		c-0.1,0.2-0.1,0.5-0.2,0.7c0,0.3-0.1,0.5-0.1,0.8s0,0.5,0,0.7s0,0.4,0,0.5l-0.2,7.8h-5.4c0.1-1.2,0.2-2.4,0.3-3.6
		c0.1-1.2,0.2-2.4,0.3-3.6c0.1-1.2,0.2-2.4,0.2-3.6c0.1-1.2,0.1-2.4,0.1-3.7l5.1-0.2v1.2c0.2-0.2,0.3-0.4,0.5-0.6s0.4-0.4,0.6-0.5
		c0.2-0.2,0.5-0.3,0.7-0.4c0.3-0.1,0.5-0.2,0.8-0.2c0.4,0,0.7,0,0.9,0.1s0.5,0.1,0.8,0.3c0.2,0.1,0.4,0.3,0.6,0.5s0.3,0.5,0.5,0.9
		c0.2-0.2,0.5-0.5,0.7-0.7s0.5-0.4,0.7-0.6s0.5-0.3,0.8-0.4s0.6-0.1,1-0.1c0.7,0,1.3,0.1,1.8,0.4s0.9,0.6,1.2,1.1
		c0.3,0.4,0.6,1,0.8,1.5c0.2,0.6,0.3,1.2,0.4,1.8s0.2,1.2,0.2,1.8C217.8,324.6,217.9,325.2,217.9,325.7z"/>
	<path class="st0" d="M224.4,317.8l-0.8,14.6l-4.5,0.2l-0.4-14.6L224.4,317.8z"/>
	<path class="st0" d="M236.7,317.8l-0.1,4.6l-3.2,0.1l-0.4,10l-4.5,0.2l-0.4-10l-3.2,0.2l0.1-5.1H236.7z"/>
	<path class="st0" d="M104.4,351.1c0,0.7-0.1,1.3-0.2,1.9s-0.4,1.2-0.7,1.7s-0.6,1-1,1.5c-0.4,0.4-0.9,0.8-1.4,1.1s-1.1,0.6-1.6,0.7
		c-0.6,0.2-1.2,0.3-1.9,0.3c-0.6,0-1.3-0.1-1.8-0.2c-0.6-0.2-1.1-0.4-1.6-0.7s-1-0.7-1.4-1.1c-0.4-0.4-0.8-0.9-1.1-1.4
		s-0.5-1.1-0.7-1.6c-0.2-0.6-0.2-1.2-0.2-1.8s0.1-1.2,0.2-1.8s0.4-1.2,0.7-1.7s0.6-1,1-1.5c0.4-0.4,0.9-0.8,1.3-1.1
		c0.5-0.3,1-0.6,1.6-0.8s1.2-0.3,1.8-0.3c1,0,2,0.2,2.8,0.5c0.9,0.3,1.6,0.8,2.2,1.4c0.6,0.6,1.1,1.3,1.4,2.2
		C104.2,349.1,104.4,350.1,104.4,351.1z M99.6,351.4c0-0.3,0-0.6-0.1-0.9c-0.1-0.3-0.2-0.5-0.4-0.8s-0.4-0.4-0.6-0.5
		c-0.3-0.1-0.5-0.2-0.9-0.2c-0.3,0-0.6,0.1-0.9,0.2c-0.3,0.1-0.5,0.3-0.7,0.5s-0.3,0.5-0.4,0.7s-0.2,0.6-0.2,0.9
		c0,0.3,0,0.6,0.1,0.9s0.2,0.6,0.4,0.8s0.4,0.4,0.6,0.6c0.3,0.2,0.5,0.2,0.9,0.2s0.6-0.1,0.9-0.2c0.3-0.1,0.5-0.3,0.7-0.5
		s0.3-0.5,0.4-0.8C99.6,352,99.6,351.7,99.6,351.4z"/>
	<path class="st0" d="M118.3,353.9c0,0.8,0,1.6,0,2.4c0,0.8,0,1.6-0.1,2.4l-6.2-0.1c0.2-1.3,0.4-2.5,0.6-3.8s0.2-2.5,0.2-3.8
		c0-0.1,0-0.2,0-0.5c0-0.2,0-0.4,0-0.7s-0.1-0.5-0.1-0.8s-0.1-0.5-0.2-0.8c-0.1-0.2-0.2-0.4-0.2-0.6c-0.1-0.1-0.2-0.2-0.3-0.2
		c-0.2,0-0.4,0.1-0.6,0.2c-0.2,0.1-0.3,0.3-0.4,0.6c-0.1,0.2-0.2,0.5-0.3,0.8s-0.1,0.6-0.1,0.8c0,0.3-0.1,0.5-0.1,0.8
		c0,0.2,0,0.4,0,0.6c0,1.3-0.1,2.5-0.1,3.8s0,2.5-0.1,3.8l-5.5,0.2c0.1-2.5,0.3-5,0.4-7.5c0.1-2.5,0.2-5,0.3-7.5l5.1-0.3v1.7
		c0.2-0.2,0.4-0.5,0.7-0.7c0.2-0.2,0.5-0.4,0.7-0.6s0.5-0.3,0.8-0.4c0.3-0.1,0.6-0.1,0.9-0.1c0.6,0,1.1,0.1,1.6,0.3s0.9,0.5,1.2,0.8
		s0.6,0.8,0.8,1.2s0.4,1,0.5,1.5s0.2,1.1,0.3,1.7s0.1,1.1,0.1,1.7c0,0.6,0,1.1,0,1.6C118.3,353,118.3,353.5,118.3,353.9z"/>
	<path class="st0" d="M133.1,353.7l-0.5,4.8l-9,0.7l0.3-15.3h5.6l-0.8,9.9h4.4V353.7z"/>
	<path class="st0" d="M147.1,358.4l-5.3,0.7l-0.6-2.4h-2.4l-0.5,2.4l-5.5-0.5l4.3-14.3l6-0.3L147.1,358.4z M140.8,353.4l-0.8-3.7
		l-0.8,3.7H140.8z"/>
	<path class="st0" d="M159.8,344.2c-0.3,2.5-0.6,5-0.8,7.5s-0.4,5-0.7,7.5l-4.4,0.3l0.2-1.7c-0.1,0.2-0.3,0.3-0.5,0.4
		c-0.2,0.1-0.4,0.2-0.6,0.3c-0.2,0.1-0.4,0.1-0.7,0.2c-0.2,0-0.4,0-0.7,0c-0.5,0-0.9-0.1-1.4-0.3c-0.4-0.2-0.8-0.4-1.2-0.7
		s-0.7-0.7-1-1.1c-0.3-0.4-0.5-0.8-0.7-1.3c-0.2-0.4-0.3-0.9-0.5-1.4c-0.1-0.5-0.2-0.9-0.2-1.4c0-0.6,0-1.3,0-2s0.1-1.4,0.1-2.1
		c0.1-0.7,0.1-1.4,0.3-2.1c0.1-0.7,0.2-1.3,0.4-2c0.9,0,1.8,0.1,2.6,0.1c0.9,0,1.8,0,2.6,0c-0.2,0.6-0.3,1.2-0.5,1.9
		c-0.2,0.6-0.3,1.3-0.4,1.9s-0.2,1.3-0.3,1.9c-0.1,0.6-0.1,1.3-0.1,1.9c0,0.2,0,0.4,0,0.6s0.1,0.6,0.1,0.8c0.1,0.3,0.2,0.5,0.3,0.7
		s0.3,0.3,0.5,0.3c0.3,0,0.5-0.1,0.7-0.3s0.4-0.5,0.6-0.9c0.2-0.4,0.3-0.8,0.4-1.4c0.1-0.5,0.2-1.1,0.3-1.6c0.1-0.6,0.1-1.1,0.2-1.7
		c0-0.6,0.1-1.1,0.1-1.6s0-1,0.1-1.4c0-0.4,0-0.7,0-0.9c0-0.1,0-0.3,0-0.4c0-0.1,0-0.3,0-0.4c0.5,0,0.9,0,1.4,0s0.9,0,1.4,0
		c0.4,0,0.7,0,1.1,0C159,344.3,159.4,344.2,159.8,344.2z"/>
	<path class="st0" d="M173.7,353.9c0,0.8,0,1.6,0,2.4c0,0.8,0,1.6-0.1,2.4l-6.2-0.1c0.2-1.3,0.4-2.5,0.6-3.8s0.2-2.5,0.2-3.8
		c0-0.1,0-0.2,0-0.5c0-0.2,0-0.4,0-0.7s-0.1-0.5-0.1-0.8s-0.1-0.5-0.2-0.8c-0.1-0.2-0.2-0.4-0.2-0.6c-0.1-0.1-0.2-0.2-0.3-0.2
		c-0.2,0-0.4,0.1-0.6,0.2c-0.2,0.1-0.3,0.3-0.4,0.6c-0.1,0.2-0.2,0.5-0.3,0.8s-0.1,0.6-0.1,0.8c0,0.3-0.1,0.5-0.1,0.8
		c0,0.2,0,0.4,0,0.6c0,1.3-0.1,2.5-0.1,3.8s0,2.5-0.1,3.8l-5.5,0.2c0.1-2.5,0.3-5,0.4-7.5c0.1-2.5,0.2-5,0.3-7.5l5.1-0.3v1.7
		c0.2-0.2,0.4-0.5,0.7-0.7c0.2-0.2,0.5-0.4,0.7-0.6s0.5-0.3,0.8-0.4c0.3-0.1,0.6-0.1,0.9-0.1c0.6,0,1.1,0.1,1.6,0.3s0.9,0.5,1.2,0.8
		s0.6,0.8,0.8,1.2s0.4,1,0.5,1.5s0.2,1.1,0.3,1.7s0.1,1.1,0.1,1.7c0,0.6,0,1.1,0,1.6C173.7,353,173.7,353.5,173.7,353.9z"/>
	<path class="st0" d="M185,344.7l-0.4,4.5c-0.2-0.1-0.4-0.1-0.6-0.1s-0.4,0-0.6,0c-0.5,0-1,0.1-1.5,0.2c-0.5,0.1-0.9,0.3-1.2,0.6
		c-0.4,0.3-0.6,0.6-0.8,1s-0.3,0.9-0.3,1.4c0,0.4,0.1,0.8,0.2,1c0.1,0.3,0.3,0.5,0.5,0.7s0.5,0.3,0.8,0.4c0.3,0.1,0.7,0.2,1,0.2
		s0.5,0,0.8-0.1s0.6-0.1,0.8-0.2c0.3-0.1,0.5-0.2,0.8-0.3s0.5-0.2,0.7-0.4l-0.2,5c-0.3,0.1-0.6,0.3-0.9,0.4c-0.3,0.1-0.7,0.2-1,0.3
		s-0.7,0.1-1,0.2c-0.3,0-0.7,0.1-1,0.1c-1,0-1.9-0.2-2.8-0.6c-0.8-0.4-1.6-0.9-2.1-1.6c-0.6-0.7-1.1-1.4-1.4-2.3s-0.5-1.8-0.5-2.8
		c0-1.2,0.2-2.3,0.5-3.3s0.8-1.9,1.5-2.6c0.6-0.7,1.4-1.3,2.4-1.8c1-0.4,2.1-0.6,3.3-0.6c0.5,0,1,0,1.5,0.1
		C184,344.3,184.5,344.5,185,344.7z"/>
	<path class="st0" d="M198.8,358.9l-5.4,0.3v-4.5h-2.5l-0.2,4.7h-4.8l0.4-15.1l5.1,0.2l-0.3,7.7h2.4v-8.1l4.9,0.1L198.8,358.9z"/>
</g>
</svg>
