<?xml version="1.0" encoding="utf-8"?>
<!-- Generator: Adobe Illustrator 27.8.1, SVG Export Plug-In . SVG Version: 6.00 Build 0)  -->
<svg version="1.1" id="Layer_1" xmlns="http://www.w3.org/2000/svg" xmlns:xlink="http://www.w3.org/1999/xlink" x="0px" y="0px"
	 viewBox="0 0 260 126.3" style="enable-background:new 0 0 260 126.3;" xml:space="preserve">
<style type="text/css">
	.st0{fill:#22B895;stroke:#010101;stroke-miterlimit:10;}
</style>
<g>
	<path class="st0" d="M23.6,22.3c0,1.1-0.2,2-0.6,2.8s-0.9,1.4-1.6,2s-1.4,1-2.3,1.3s-1.8,0.6-2.7,0.8s-1.9,0.3-2.8,0.4
		c-0.9,0.1-1.8,0.1-2.6,0.1c-0.8,0-1.6,0-2.5-0.1s-1.7-0.2-2.6-0.3S4.2,29,3.4,28.7c-0.8-0.2-1.6-0.5-2.4-0.9V2.6
		C1.7,2.3,2.5,2,3.3,1.8S5,1.4,5.8,1.2C6.7,1,7.5,0.9,8.3,0.8c0.8-0.1,1.7-0.1,2.5-0.1c0.9,0,1.9,0.1,2.8,0.2
		c0.9,0.1,1.9,0.3,2.7,0.6c0.9,0.3,1.7,0.6,2.4,1.1c0.8,0.4,1.4,1,2,1.6s1,1.4,1.3,2.2c0.3,0.8,0.5,1.8,0.5,2.9
		c0,0.7-0.1,1.4-0.3,2.1c-0.2,0.6-0.5,1.2-0.9,1.7s-0.9,0.9-1.4,1.3c-0.6,0.4-1.2,0.6-1.9,0.8c0.8,0.2,1.6,0.5,2.3,1
		c0.7,0.4,1.3,1,1.8,1.6c0.5,0.6,0.9,1.3,1.1,2.1C23.5,20.6,23.6,21.5,23.6,22.3z M10.9,17.6c-0.4,0-0.7,0-1.1,0.1v4.4
		c0.2,0,0.4,0.1,0.6,0.1s0.4,0,0.6,0c0.3,0,0.6,0,0.9-0.1s0.6-0.2,0.9-0.4s0.5-0.4,0.7-0.7s0.3-0.7,0.3-1.2s-0.1-0.9-0.3-1.2
		c-0.2-0.3-0.4-0.6-0.7-0.7s-0.6-0.3-0.9-0.4C11.5,17.6,11.2,17.6,10.9,17.6z M13.7,11.2c0-0.4-0.1-0.7-0.2-1
		c-0.2-0.3-0.3-0.5-0.6-0.7c-0.2-0.2-0.5-0.3-0.7-0.4c-0.3,0-0.5,0-0.7,0c-0.3,0-0.5,0-0.8,0.1c-0.2,0.1-0.5,0.2-0.7,0.3l-0.1,4.3
		c0.3,0,0.7,0,1.1-0.1s0.9-0.2,1.3-0.3s0.8-0.4,1-0.8C13.6,12.3,13.7,11.8,13.7,11.2z"/>
	<path class="st0" d="M48.4,14.3c0,1.2-0.1,2.3-0.4,3.4s-0.7,2.1-1.2,3.1s-1.1,1.8-1.9,2.6c-0.7,0.8-1.6,1.5-2.5,2.1s-1.9,1-3,1.3
		s-2.2,0.5-3.4,0.5c-1.2,0-2.3-0.1-3.3-0.4c-1.1-0.3-2.1-0.7-3-1.3c-0.9-0.5-1.8-1.2-2.5-2s-1.4-1.6-1.9-2.5s-0.9-1.9-1.2-3
		c-0.3-1.1-0.4-2.2-0.4-3.3c0-1.1,0.1-2.2,0.4-3.3c0.3-1.1,0.7-2.1,1.2-3.1s1.1-1.8,1.9-2.7c0.7-0.8,1.5-1.5,2.5-2.1
		c0.9-0.6,1.9-1,2.9-1.4c1.1-0.3,2.2-0.5,3.3-0.5c1.9,0,3.6,0.3,5.2,0.9c1.6,0.6,2.9,1.4,4,2.5s2,2.4,2.6,3.9S48.4,12.4,48.4,14.3z
		 M39.7,14.8c0-0.6-0.1-1.1-0.2-1.6c-0.2-0.5-0.4-1-0.7-1.4s-0.7-0.7-1.2-1s-1-0.4-1.6-0.4s-1.2,0.1-1.6,0.3
		c-0.5,0.2-0.9,0.5-1.2,0.9c-0.3,0.4-0.6,0.8-0.8,1.3c-0.2,0.5-0.3,1.1-0.3,1.6s0.1,1.1,0.2,1.6s0.4,1,0.7,1.5
		c0.3,0.4,0.7,0.8,1.2,1.1s1,0.4,1.6,0.4s1.2-0.1,1.7-0.4c0.5-0.2,0.9-0.6,1.2-1c0.3-0.4,0.6-0.9,0.8-1.4
		C39.6,15.9,39.7,15.4,39.7,14.8z"/>
	<path class="st0" d="M72.6,10.4c0,1-0.1,1.9-0.3,2.8c-0.2,0.8-0.5,1.6-0.8,2.3c-0.4,0.7-0.9,1.3-1.5,1.9s-1.3,1.1-2.2,1.7l4.6,8.3
		l-8.8,1.7l-3-8.3l-2.4,0.1L57.8,29h-8.4c0.1-3,0.1-5.9,0.2-8.9c0.1-2.9,0.1-5.9,0.2-8.9c0-1.5,0.1-3,0.1-4.5s0.1-3,0.2-4.5
		c0.9-0.3,1.8-0.6,2.7-0.8s1.8-0.4,2.7-0.5s1.8-0.2,2.7-0.3c0.9,0,1.9-0.1,2.8-0.1c1.5,0,2.9,0.2,4.3,0.6s2.6,1,3.7,1.8
		c1.1,0.8,1.9,1.8,2.6,3.1C72.3,7.4,72.6,8.8,72.6,10.4z M63.9,11.1c0-0.5-0.1-1-0.2-1.5c-0.1-0.5-0.4-0.8-0.7-1.2s-0.7-0.6-1.1-0.8
		c-0.4-0.2-0.9-0.3-1.5-0.3c-0.3,0-0.5,0-0.8,0c-0.2,0-0.5,0.1-0.7,0.1l-0.3,7.3h0.5c0.6,0,1.1-0.1,1.7-0.2c0.6-0.1,1.1-0.4,1.6-0.7
		c0.5-0.3,0.8-0.7,1.1-1.2S63.9,11.7,63.9,11.1z"/>
	<path class="st0" d="M98,4l-8.6,10.3l7.9,13.4l-9.1,1.6l-5.9-8L82,29l-8.1,0.3l0.6-28l9.1,0.5l-0.7,8l5.7-8.2L98,4z"/>
	<path class="st0" d="M118.3,13.5c0,1.1-0.1,2.3-0.2,3.4c-2.2,0.1-4.4,0.4-6.6,0.7c-2.2,0.3-4.4,0.6-6.6,0.9
		c0.3,0.9,0.9,1.7,1.6,2.2c0.7,0.6,1.6,0.8,2.6,0.8c0.5,0,1.1-0.1,1.7-0.3s1.2-0.4,1.8-0.7s1.2-0.6,1.8-0.9c0.6-0.3,1-0.6,1.4-0.9
		l-0.9,8.9c-0.5,0.4-1.1,0.7-1.7,1s-1.2,0.5-1.8,0.7s-1.3,0.3-1.9,0.4s-1.3,0.1-1.9,0.1c-1.3,0-2.5-0.2-3.5-0.5s-2-0.8-2.9-1.5
		c-0.9-0.6-1.6-1.4-2.3-2.2s-1.2-1.8-1.6-2.8s-0.8-2.1-1-3.2S96,17.3,96,16.2c0-1.2,0.1-2.4,0.3-3.6s0.6-2.4,1-3.5s1-2.2,1.7-3.1
		s1.5-1.8,2.4-2.5s1.9-1.3,3.1-1.7c1.2-0.4,2.4-0.6,3.8-0.6c1.2,0,2.2,0.2,3.2,0.5s1.8,0.8,2.6,1.3s1.4,1.2,2,2s1,1.6,1.4,2.6
		c0.4,0.9,0.6,1.9,0.8,2.9S118.3,12.4,118.3,13.5z M110.5,12.5c0-0.4,0-0.7-0.1-1.1s-0.2-0.7-0.4-1s-0.4-0.6-0.7-0.8
		c-0.3-0.2-0.6-0.3-1.1-0.3s-1,0.1-1.4,0.4s-0.7,0.6-1,1.1c-0.3,0.4-0.5,0.9-0.7,1.4s-0.3,1-0.4,1.4l5.8-0.5L110.5,12.5L110.5,12.5z
		"/>
	<path class="st0" d="M143.8,19.4c0,1.5,0,2.9,0,4.4c0,1.4-0.1,2.9-0.1,4.3l-11.2-0.2c0.4-2.3,0.7-4.6,1-6.9c0.3-2.3,0.4-4.6,0.4-7
		c0-0.2,0-0.4,0-0.8s0-0.8-0.1-1.3c0-0.5-0.1-1-0.2-1.5c-0.1-0.5-0.2-1-0.3-1.4s-0.3-0.8-0.4-1c-0.2-0.3-0.4-0.4-0.6-0.4
		c-0.4,0-0.8,0.1-1.1,0.4s-0.6,0.6-0.8,1s-0.4,0.9-0.5,1.4s-0.2,1-0.3,1.5s-0.1,1-0.1,1.4s0,0.8,0,1.1c-0.1,2.3-0.1,4.6-0.2,6.9
		c0,2.3-0.1,4.6-0.2,6.9l-10,0.4c0.3-4.6,0.5-9.2,0.8-13.7c0.2-4.5,0.4-9.1,0.6-13.7l9.2-0.5l-0.1,3.1c0.4-0.4,0.8-0.9,1.2-1.2
		s0.9-0.7,1.4-1s1-0.5,1.5-0.7s1.1-0.2,1.7-0.2c1.1,0,2.1,0.2,2.9,0.5c0.8,0.4,1.5,0.9,2.1,1.5s1.1,1.4,1.5,2.2
		c0.4,0.9,0.7,1.8,1,2.7c0.2,1,0.4,2,0.6,3c0.1,1,0.2,2.1,0.3,3.1s0.1,2,0.1,2.9C143.8,17.7,143.8,18.6,143.8,19.4z"/>
	<path class="st0" d="M169.8,14.3c0,1.2-0.1,2.3-0.4,3.4c-0.3,1.1-0.7,2.1-1.2,3.1s-1.1,1.8-1.9,2.6s-1.6,1.5-2.5,2.1s-1.9,1-3,1.3
		s-2.2,0.5-3.4,0.5s-2.3-0.1-3.3-0.4c-1.1-0.3-2.1-0.7-3-1.3c-0.9-0.5-1.8-1.2-2.5-2s-1.4-1.6-1.9-2.5s-0.9-1.9-1.2-3
		c-0.3-1.1-0.4-2.2-0.4-3.3c0-1.1,0.1-2.2,0.4-3.3c0.3-1.1,0.7-2.1,1.2-3.1s1.1-1.8,1.9-2.7c0.7-0.8,1.5-1.5,2.5-2.1s1.9-1,2.9-1.4
		c1.1-0.3,2.2-0.5,3.3-0.5c1.9,0,3.6,0.3,5.2,0.9c1.6,0.6,2.9,1.4,4,2.5s2,2.4,2.6,3.9S169.8,12.4,169.8,14.3z M161.1,14.8
		c0-0.6-0.1-1.1-0.2-1.6s-0.4-1-0.7-1.4s-0.7-0.7-1.2-1s-1-0.4-1.6-0.4s-1.2,0.1-1.6,0.3c-0.5,0.2-0.9,0.5-1.2,0.9s-0.6,0.8-0.8,1.3
		s-0.3,1.1-0.3,1.6s0.1,1.1,0.2,1.6s0.4,1,0.7,1.5c0.3,0.4,0.7,0.8,1.2,1.1s1,0.4,1.6,0.4s1.2-0.1,1.7-0.4c0.5-0.2,0.9-0.6,1.2-1
		s0.6-0.9,0.8-1.4C161,15.9,161.1,15.4,161.1,14.8z"/>
	<path class="st0" d="M205,16c0,1.9-0.1,3.7-0.2,5.6c-0.1,1.8-0.3,3.7-0.4,5.6l-10,0.5c0.3-2.3,0.6-4.5,0.8-6.8
		c0.2-2.3,0.4-4.5,0.4-6.8c0-0.1,0-0.4,0-0.8s0-0.8-0.1-1.2c0-0.5-0.1-0.9-0.1-1.4s-0.1-0.9-0.2-1.3s-0.2-0.7-0.4-1
		c-0.1-0.3-0.3-0.4-0.5-0.4c-0.5,0-0.8,0.2-1.1,0.5c-0.3,0.3-0.5,0.8-0.6,1.2c-0.1,0.5-0.2,1-0.2,1.5s0,0.9,0,1.2c0,0.5,0,1.1,0,1.6
		s0,1.1,0,1.7c0,2,0,4-0.1,6s-0.2,4-0.4,6l-9.3,0.4c0.3-2.3,0.6-4.5,0.8-6.8c0.2-2.3,0.3-4.5,0.3-6.8c0-0.1,0-0.4,0-0.8
		s0-0.8-0.1-1.3s-0.1-1-0.1-1.5s-0.1-1-0.2-1.4s-0.2-0.8-0.4-1s-0.3-0.4-0.5-0.4c-0.3,0-0.6,0.1-0.8,0.4s-0.4,0.6-0.5,1
		s-0.2,0.8-0.3,1.3s-0.1,1-0.2,1.4s-0.1,0.9-0.1,1.3s0,0.7,0,0.9L180,28.7h-9.8c0.2-2.2,0.4-4.4,0.6-6.6c0.2-2.2,0.4-4.4,0.6-6.6
		s0.3-4.4,0.4-6.6c0.1-2.2,0.2-4.4,0.2-6.6l9.3-0.4v2.3c0.3-0.4,0.6-0.7,1-1.1s0.8-0.7,1.2-1s0.8-0.5,1.3-0.7s0.9-0.3,1.4-0.3
		c0.6,0,1.2,0,1.7,0.1s1,0.3,1.4,0.5s0.8,0.6,1.1,1s0.6,0.9,0.8,1.6c0.4-0.5,0.8-0.9,1.3-1.3s0.9-0.7,1.3-1c0.5-0.3,1-0.5,1.5-0.7
		s1.2-0.2,1.8-0.2c1.3,0,2.3,0.2,3.2,0.7c0.9,0.5,1.6,1.1,2.2,1.9c0.6,0.8,1.1,1.7,1.4,2.8c0.3,1,0.6,2.1,0.8,3.2
		c0.2,1.1,0.3,2.2,0.3,3.3C204.9,14.1,205,15.1,205,16z"/>
	<path class="st0" d="M216.9,1.8l-1.4,26.6l-8.2,0.4l-0.8-26.5L216.9,1.8z"/>
	<path class="st0" d="M237.1,2.6l-0.7,8.2c-0.4-0.1-0.7-0.2-1.1-0.2s-0.7-0.1-1.1-0.1c-0.9,0-1.8,0.1-2.6,0.4s-1.6,0.6-2.2,1.1
		s-1.2,1.1-1.5,1.8c-0.4,0.7-0.6,1.6-0.6,2.6c0,0.7,0.1,1.4,0.3,1.9c0.2,0.5,0.5,1,0.9,1.3c0.4,0.4,0.9,0.6,1.4,0.8
		c0.6,0.2,1.2,0.3,1.9,0.3c0.5,0,1,0,1.5-0.1s1-0.2,1.5-0.4s1-0.4,1.5-0.6c0.5-0.2,0.9-0.5,1.3-0.7l-0.3,9.2
		c-0.5,0.3-1.1,0.5-1.6,0.7c-0.6,0.2-1.2,0.4-1.8,0.5s-1.2,0.3-1.9,0.3s-1.2,0.1-1.8,0.1c-1.8,0-3.5-0.3-5-1s-2.8-1.6-3.9-2.8
		s-1.9-2.6-2.5-4.2c-0.6-1.6-0.9-3.3-0.9-5c0-2.1,0.3-4.1,0.9-6c0.6-1.8,1.5-3.5,2.7-4.8c1.2-1.4,2.6-2.4,4.4-3.2
		c1.7-0.8,3.7-1.2,6-1.2c0.9,0,1.8,0.1,2.7,0.2C235.4,1.9,236.3,2.2,237.1,2.6z"/>
	<path class="st0" d="M259,19.3c0,1.8-0.3,3.3-0.9,4.6s-1.5,2.4-2.5,3.2s-2.3,1.5-3.8,1.9s-3,0.6-4.6,0.6c-0.6,0-1.3-0.1-2.1-0.3
		s-1.5-0.4-2.3-0.6s-1.5-0.5-2.3-0.8s-1.4-0.6-1.9-0.8l0.9-7.7c1.1,0.7,2.3,1.2,3.7,1.5c1.3,0.3,2.7,0.5,4,0.5c0.2,0,0.5,0,0.9,0
		s0.7-0.1,1-0.2s0.6-0.2,0.8-0.4s0.3-0.5,0.3-0.8c0-0.2-0.1-0.5-0.2-0.6s-0.4-0.3-0.6-0.4c-0.2-0.1-0.5-0.2-0.8-0.3
		s-0.6-0.1-0.9-0.1s-0.6,0-0.8,0s-0.5,0-0.6,0c-1.1,0-2.1-0.2-3.1-0.5s-1.7-0.8-2.4-1.5s-1.2-1.4-1.5-2.3s-0.5-1.9-0.5-3.1
		c0-1.5,0.3-2.9,0.9-4.1s1.4-2.3,2.5-3.1c1-0.9,2.2-1.5,3.6-2c1.3-0.5,2.7-0.7,4.2-0.7c0.6,0,1.3,0,2,0.1c0.7,0,1.4,0.1,2,0.2
		s1.3,0.3,2,0.4c0.6,0.2,1.2,0.4,1.8,0.7l-0.7,7.9c-0.9-0.3-1.8-0.5-2.8-0.8c-1-0.2-1.9-0.3-2.8-0.3c-0.2,0-0.4,0-0.7,0
		c-0.3,0-0.5,0-0.8,0.1c-0.3,0-0.6,0.1-0.9,0.1c-0.3,0.1-0.6,0.2-0.8,0.3c-0.2,0.1-0.4,0.3-0.6,0.4c-0.1,0.2-0.2,0.4-0.2,0.6
		c0,0.3,0.1,0.5,0.3,0.7s0.5,0.3,0.8,0.3c0.3,0.1,0.7,0.1,1.1,0.1s0.8,0,1.1,0s0.7,0,1.1-0.1s0.6,0,0.8,0c1,0.1,2,0.3,2.8,0.7
		c0.8,0.4,1.5,0.9,2.1,1.5s1,1.4,1.3,2.2C258.9,17.3,259,18.2,259,19.3z"/>
	<path class="st0" d="M138.2,75.4c-0.5-0.4-0.9-0.7-1.4-1s-0.9-0.7-1.4-1c-0.6,0.5-1.4,1-2.2,1.5s-1.7,0.9-2.6,1.2
		c-0.9,0.3-1.9,0.6-2.8,0.8c-1,0.2-2,0.2-2.9,0.1c-1.1-0.1-2.2-0.3-3.2-0.7s-1.8-0.8-2.5-1.4s-1.2-1.3-1.6-2
		c-0.4-0.8-0.5-1.6-0.4-2.4c0.1-0.7,0.3-1.4,0.7-2.1s0.8-1.3,1.4-1.9c0.5-0.6,1.1-1.2,1.8-1.7c0.7-0.6,1.3-1.1,2-1.6
		c-0.5-0.5-1-1-1.4-1.5s-0.8-1.1-1.1-1.7s-0.5-1.2-0.7-1.8s-0.2-1.2-0.1-1.8c0.1-0.8,0.5-1.6,1-2.4s1.3-1.4,2.1-1.9
		c0.9-0.5,1.8-0.9,2.9-1.2c1.1-0.3,2.2-0.4,3.3-0.3s2.1,0.3,3,0.8s1.7,1,2.4,1.6s1.1,1.3,1.5,2.1c0.3,0.8,0.4,1.5,0.3,2.3
		c-0.1,0.6-0.3,1.2-0.6,1.8s-0.7,1.1-1.1,1.6s-1,1-1.5,1.4s-1.1,0.9-1.7,1.3c0.5,0.4,1.1,0.8,1.6,1.2c0.5,0.4,1,0.8,1.6,1.1
		c0.2-0.3,0.5-0.7,0.7-1.1s0.4-0.7,0.6-1.1l5.8,1.4c-0.3,0.7-0.6,1.5-1,2.2s-0.9,1.4-1.4,2.1c0.6,0.4,1.1,0.8,1.7,1.2
		c0.5,0.4,1.1,0.8,1.7,1.2L138.2,75.4z M129.8,69.7c-0.4-0.5-0.8-1-1.2-1.4c-0.4-0.5-0.8-1-1.2-1.4c-0.2,0.2-0.4,0.4-0.6,0.7
		c-0.2,0.3-0.4,0.5-0.6,0.8s-0.4,0.6-0.5,0.9s-0.2,0.6-0.3,0.9c0,0.4,0.1,0.7,0.3,1s0.5,0.5,0.9,0.5c0.3,0,0.6,0,0.8-0.1
		c0.3-0.1,0.6-0.3,0.8-0.5c0.3-0.2,0.5-0.4,0.8-0.7C129.4,70.1,129.6,69.9,129.8,69.7z M129.2,56.8c0-0.5,0-0.8-0.2-1.1
		c-0.2-0.3-0.5-0.4-0.9-0.5s-0.8,0-1.1,0.3c-0.3,0.2-0.5,0.6-0.5,1.1c0,0.3,0,0.6,0.1,0.9s0.2,0.6,0.3,0.9s0.3,0.6,0.4,0.8
		c0.2,0.3,0.3,0.5,0.4,0.7c0.2-0.2,0.3-0.4,0.5-0.7c0.2-0.2,0.3-0.5,0.5-0.8s0.3-0.5,0.4-0.8C129.1,57.4,129.1,57.1,129.2,56.8z"/>
	<path class="st0" d="M46.9,97.3l-0.2,8.3l-5.8,0.2l-1.5,18.5l-8.2,0.4v-18.5l-5.8,0.3l0.2-9.2H46.9z"/>
	<path class="st0" d="M71.7,110.3c0,1.2-0.1,2.3-0.4,3.4c-0.3,1.1-0.7,2.1-1.2,3.1s-1.1,1.8-1.9,2.6c-0.7,0.8-1.6,1.5-2.5,2.1
		s-1.9,1-3,1.3s-2.2,0.5-3.4,0.5s-2.3-0.1-3.3-0.4c-1.1-0.3-2.1-0.7-3-1.3c-0.9-0.5-1.8-1.2-2.5-2s-1.4-1.6-1.9-2.5s-0.9-1.9-1.2-3
		c-0.3-1.1-0.4-2.2-0.4-3.3c0-1.1,0.1-2.2,0.4-3.3c0.3-1.1,0.7-2.1,1.2-3.1s1.1-1.8,1.9-2.7c0.7-0.8,1.5-1.5,2.5-2.1
		c0.9-0.6,1.9-1,2.9-1.4c1.1-0.3,2.2-0.5,3.3-0.5c1.9,0,3.6,0.3,5.2,0.9c1.6,0.6,2.9,1.4,4,2.5s2,2.4,2.6,3.9S71.7,108.4,71.7,110.3
		z M63.1,110.8c0-0.6-0.1-1.1-0.2-1.6c-0.2-0.5-0.4-1-0.7-1.4s-0.7-0.7-1.2-1s-1-0.4-1.6-0.4s-1.2,0.1-1.6,0.3
		c-0.5,0.2-0.9,0.5-1.2,0.9s-0.6,0.8-0.8,1.3s-0.3,1.1-0.3,1.6s0.1,1.1,0.2,1.6s0.4,1,0.7,1.5c0.3,0.4,0.7,0.8,1.2,1.1
		s1,0.4,1.6,0.4s1.2-0.1,1.7-0.4c0.5-0.2,0.9-0.6,1.2-1c0.3-0.4,0.6-0.9,0.8-1.4C63,111.9,63.1,111.4,63.1,110.8z"/>
	<path class="st0" d="M96.9,100l-8.6,10.3l7.9,13.4l-9.1,1.6l-5.9-8l-0.3,7.7l-8.1,0.3l0.6-28l9.1,0.5l-0.7,8l5.7-8.2L96.9,100z"/>
	<path class="st0" d="M117.2,109.5c0,1.1-0.1,2.3-0.2,3.4c-2.2,0.1-4.4,0.4-6.6,0.7c-2.2,0.3-4.4,0.6-6.6,0.9
		c0.3,0.9,0.9,1.7,1.6,2.2c0.7,0.6,1.6,0.8,2.6,0.8c0.5,0,1.1-0.1,1.7-0.3s1.2-0.4,1.8-0.7s1.2-0.6,1.8-0.9c0.6-0.3,1-0.6,1.4-0.9
		l-0.9,8.9c-0.5,0.4-1.1,0.7-1.7,1s-1.2,0.5-1.8,0.7s-1.3,0.3-1.9,0.4s-1.3,0.1-1.9,0.1c-1.3,0-2.5-0.2-3.5-0.5s-2-0.8-2.9-1.5
		c-0.9-0.6-1.6-1.4-2.3-2.2s-1.2-1.8-1.6-2.8s-0.8-2.1-1-3.2s-0.3-2.3-0.3-3.4c0-1.2,0.1-2.4,0.3-3.6s0.6-2.4,1-3.5s1-2.2,1.7-3.1
		s1.5-1.8,2.4-2.5s1.9-1.3,3.1-1.7c1.2-0.4,2.4-0.6,3.8-0.6c1.2,0,2.2,0.2,3.2,0.5s1.8,0.8,2.6,1.3s1.4,1.2,2,2s1,1.6,1.4,2.6
		c0.4,0.9,0.6,1.9,0.8,2.9S117.2,108.4,117.2,109.5z M109.4,108.5c0-0.4,0-0.7-0.1-1.1s-0.2-0.7-0.4-1s-0.4-0.6-0.7-0.8
		c-0.3-0.2-0.6-0.3-1.1-0.3s-1,0.1-1.4,0.4s-0.7,0.6-1,1.1c-0.3,0.4-0.5,0.9-0.7,1.4s-0.3,1-0.4,1.4l5.8-0.5L109.4,108.5
		L109.4,108.5z"/>
	<path class="st0" d="M142.8,115.4c0,1.5,0,2.9,0,4.4c0,1.4-0.1,2.9-0.1,4.3l-11.2-0.2c0.4-2.3,0.7-4.6,1-6.9c0.3-2.3,0.4-4.6,0.4-7
		c0-0.2,0-0.4,0-0.8s0-0.8-0.1-1.3c0-0.5-0.1-1-0.2-1.5c-0.1-0.5-0.2-1-0.3-1.4s-0.3-0.8-0.4-1c-0.2-0.3-0.4-0.4-0.6-0.4
		c-0.4,0-0.8,0.1-1.1,0.4s-0.6,0.6-0.8,1s-0.4,0.9-0.5,1.4s-0.2,1-0.3,1.5s-0.1,1-0.1,1.4s0,0.8,0,1.1c-0.1,2.3-0.1,4.6-0.2,6.9
		c0,2.3-0.1,4.6-0.2,6.9l-10,0.4c0.3-4.6,0.5-9.2,0.8-13.7c0.2-4.5,0.4-9.1,0.6-13.7l9.2-0.5l-0.1,3.1c0.4-0.4,0.8-0.9,1.2-1.2
		s0.9-0.7,1.4-1s1-0.5,1.5-0.7s1.1-0.2,1.7-0.2c1.1,0,2.1,0.2,2.9,0.5c0.8,0.4,1.5,0.9,2.1,1.5s1.1,1.4,1.5,2.2
		c0.4,0.9,0.7,1.8,1,2.7c0.2,1,0.4,2,0.6,3c0.1,1,0.2,2.1,0.3,3.1s0.1,2,0.1,2.9C142.8,113.7,142.8,114.6,142.8,115.4z"/>
	<path class="st0" d="M162.6,97.8l-1.4,26.6l-8.2,0.4l-0.8-26.5L162.6,97.8z"/>
	<path class="st0" d="M188.4,115.4c0,1.5,0,2.9,0,4.4c0,1.4-0.1,2.9-0.1,4.3l-11.3-0.2c0.4-2.3,0.7-4.6,1-6.9c0.3-2.3,0.4-4.6,0.4-7
		c0-0.2,0-0.4,0-0.8s0-0.8-0.1-1.3c0-0.5-0.1-1-0.2-1.5c-0.1-0.5-0.2-1-0.3-1.4s-0.3-0.8-0.4-1c-0.2-0.3-0.4-0.4-0.6-0.4
		c-0.4,0-0.8,0.1-1.1,0.4s-0.6,0.6-0.8,1s-0.4,0.9-0.5,1.4s-0.2,1-0.3,1.5s-0.1,1-0.1,1.4s0,0.8,0,1.1c-0.1,2.3-0.1,4.6-0.2,6.9
		c0,2.3-0.1,4.6-0.2,6.9l-10,0.4c0.3-4.6,0.5-9.2,0.8-13.7c0.2-4.5,0.4-9.1,0.6-13.7l9.2-0.5l-0.1,3.1c0.4-0.4,0.8-0.9,1.2-1.2
		s0.9-0.7,1.4-1s1-0.5,1.5-0.7s1.1-0.2,1.7-0.2c1.1,0,2.1,0.2,2.9,0.5c0.8,0.4,1.5,0.9,2.1,1.5s1.1,1.4,1.5,2.2
		c0.4,0.9,0.7,1.8,1,2.7c0.2,1,0.4,2,0.6,3c0.1,1,0.2,2.1,0.3,3.1s0.1,2,0.1,2.9C188.4,113.7,188.4,114.6,188.4,115.4z"/>
	<path class="st0" d="M208.7,97.5c-0.1,1.2-0.1,2.4-0.2,3.6s-0.1,2.4-0.3,3.6l-8.3,0.4v2.5h7.2l-0.4,6.1l-6.8,0.2v10.8l-9.9,0.2
		l0.6-27.4L208.7,97.5L208.7,97.5z"/>
	<path class="st0" d="M233.5,110.3c0,1.2-0.1,2.3-0.4,3.4s-0.7,2.1-1.2,3.1s-1.1,1.8-1.9,2.6s-1.6,1.5-2.5,2.1s-1.9,1-3,1.3
		s-2.2,0.5-3.4,0.5c-1.2,0-2.3-0.1-3.3-0.4c-1.1-0.3-2.1-0.7-3-1.3c-0.9-0.5-1.8-1.2-2.5-2s-1.4-1.6-1.9-2.5s-0.9-1.9-1.2-3
		c-0.3-1.1-0.4-2.2-0.4-3.3c0-1.1,0.1-2.2,0.4-3.3c0.3-1.1,0.7-2.1,1.2-3.1s1.1-1.8,1.9-2.7c0.7-0.8,1.5-1.5,2.5-2.1s1.9-1,2.9-1.4
		c1.1-0.3,2.2-0.5,3.3-0.5c1.9,0,3.6,0.3,5.2,0.9s2.9,1.4,4,2.5s2,2.4,2.6,3.9S233.5,108.4,233.5,110.3z M224.9,110.8
		c0-0.6-0.1-1.1-0.2-1.6s-0.4-1-0.7-1.4s-0.7-0.7-1.2-1s-1-0.4-1.6-0.4s-1.2,0.1-1.6,0.3c-0.5,0.2-0.9,0.5-1.2,0.9
		c-0.3,0.4-0.6,0.8-0.8,1.3c-0.2,0.5-0.3,1.1-0.3,1.6s0.1,1.1,0.2,1.6s0.4,1,0.7,1.5c0.3,0.4,0.7,0.8,1.2,1.1s1,0.4,1.6,0.4
		s1.2-0.1,1.7-0.4c0.5-0.2,0.9-0.6,1.2-1s0.6-0.9,0.8-1.4C224.8,111.9,224.9,111.4,224.9,110.8z"/>
</g>
</svg>
