<?xml version="1.0" encoding="utf-8"?>
<!-- Generator: Adobe Illustrator 27.8.1, SVG Export Plug-In . SVG Version: 6.00 Build 0)  -->
<svg version="1.1" id="Layer_1" xmlns="http://www.w3.org/2000/svg" xmlns:xlink="http://www.w3.org/1999/xlink" x="0px" y="0px"
	 viewBox="0 0 406.5 92.8" style="enable-background:new 0 0 406.5 92.8;" xml:space="preserve">
<style type="text/css">
	.st0{fill:#ED8EA9;stroke:#000000;stroke-width:2;stroke-miterlimit:10;}
</style>
<g>
	<path class="st0" d="M45,39.6l11.2,2.3l2.6,17.4l-3,22.4l-18.4,6.2l-14.1-2.5l-12.5-4.2L12.6,47l-0.2-24.1l-6.7,0.7L8.3,5.5
		l23.7-1.1l21.2,3l3.7,13.2l-1.6,15.3L45,38.8V39.6z M30.7,52l0.1,14.8l4.1,1.3l2.8,0.2l1.1-6.9l-0.8-8.8l-4.2-0.7L30.7,52z
		 M37.7,22.6L34.6,22L31,21.8l-0.2,13.5h3.8l2.8-0.2l1.2-7.1L37.7,22.6z"/>
	<path class="st0" d="M95.6,7l20.9-2.1l0.3,31.9l-2.2,43.5l-18.7,7.6l-15-3l-14-5.2l-0.6-38.6l1.1-34.6l21.7-1.1l-2.3,31.3L87.2,65
		l7.2,1.2l2-24.1L95.6,7z"/>
	<path class="st0" d="M174.1,23.1l-5.6,33.6l-9.8,2.5l-0.3,9.9l0.9,16.1l-21.6,2.5l0.6-16.2L138,58.6l-9.9-2.9l-3.3-26.2l0.1-23.3
		L146,4.8l-1.1,17.9l1.6,17.7l4.9,0.9l2.2-15.3l-0.5-19.4l20.5-1.7L174.1,23.1z"/>
	<path class="st0" d="M245.9,85.5l-18,2.4l-6.9-20L213.3,51l-0.7,0.2l2,14.4l1.5,19.9l-21.2,1.8l1.2-36.4l-1.7-44.6l18.3-1.1
		l6.3,18.6l8.7,19.5l0.8-0.2l-1.8-14l-2.1-21.9l21.6-1.6L244.8,41L245.9,85.5z"/>
	<path class="st0" d="M289.2,6.1L302,9.6l2.1,33.2l-2.9,39.3l-17.6,5.8l-14.8-2.8L256,80.4L253.9,46l2.4-34.2l17-7.3L289.2,6.1z
		 M273.8,42.5l1,23.7l4.2,1l3.1,0.3l1.9-21.9l-0.9-21.1l-4.9-0.9l-2.7-0.1L273.8,42.5z"/>
	<path class="st0" d="M388.9,84.4l-29.5,4.3l-4.5-33l-1.4-15.8h-0.9l-1.5,16.9l-3.7,28l-27.5,2.6l-8.4-57.3L311,6.6l22.2-1.3
		l-0.4,19.1l2.1,22.1l1,16.3h0.9l1.8-17.9l2.6-18.5l1.5-17.2l23.5-1.5l1.4,15.5l3.4,23.5l1.6,16.1h0.9l0.8-17.7l1.7-19.7l-0.2-18.6
		l22-2l-1.1,18.5L388.9,84.4z"/>
</g>
</svg>
