<?xml version="1.0" encoding="utf-8"?>
<!-- Generator: Adobe Illustrator 27.8.1, SVG Export Plug-In . SVG Version: 6.00 Build 0)  -->
<svg version="1.1" id="Layer_1" xmlns="http://www.w3.org/2000/svg" xmlns:xlink="http://www.w3.org/1999/xlink" x="0px" y="0px"
	 viewBox="0 0 487.6 351.2" style="enable-background:new 0 0 487.6 351.2;" xml:space="preserve">
<style type="text/css">
	.st0{fill:#3389AF;}
	.st1{fill:#FEFEFE;}
	.st2{fill:#C3E4F5;}
</style>
<g>
	<path class="st0" d="M147.3,335.1c-7.8-3.7-15.3-8-22.1-13.4c-4.2-3.3-8-7.2-11.8-11c-3.4-4.5-7-8.9-9.5-14
		c-0.9-1.9-1.7-3.8-1.7-5.9c0-2.2-0.9-1.5-1.8-0.6c-5.2,3.3-10.9,4.4-17,4.4c-5.7,0-11.4-0.2-17-1.4c-13.2-2.6-22.2-10.3-27.6-22.5
		c-1.7-3.7-2.3-7.9-4.6-11.4c-1.1-1.7-1-3.8-1.2-5.8c-0.1-0.7,0.3-1.6-0.5-2.2c-7.5-3.6-14.7-7.5-20.4-13.8
		c-3.8-4.2-5.9-8.8-6.1-14.6c-0.3-11.9,2.6-22.4,11.7-30.6c6.9-6.2,15.1-9.6,23.8-12.2c6.4-1.9,12.8-3.2,19.5-2
		c1,0.2,1.5-0.5,1.5-1.2c-0.2-2.2,0.6-4.2,0.4-6.4c-1.6-17.4,0.9-33.7,12.7-47.5c5.1-6,11.8-9.8,18.6-13.5
		c6.1-3.3,12.6-5.6,19.2-7.8c0.5-0.7,1.3-0.9,2.1-1.1c5.9-1.5,11.8-2.7,17.9-2.6c3.7,0.1,7.5-0.2,11.2,0.2c4.6,0.6,9.2,0.8,13.6,2.3
		c4.2,1.3,7.8,3.5,10.9,7.1c-0.9-6.2-0.9-12-1-17.7c-0.1-10.2,2.6-19.7,6.4-28.9c0.4-1.1,0.9-1.4,2-2.9c6.4-12,16.2-20.7,27.3-28.2
		c3.9-2.9,7.3-4.6,11.5-6.3c5.6-2.1,11.2-4.3,16.9-6.1c2.2-0.7,4.4-1.3,6.5-2c3.5-1,5.4-1.3,8-1.8c3.7-0.6,7.4-1.2,11.1-1.9
		c1.3-0.2,1.3-0.2,3.8-0.4c11.9-1.1,23.8-1.1,35.7,0.1c3.3,0.3,6.5,1.2,9.8,1.4c6.1,1.1,8.1,1.6,12,2.9c3,1.1,6.1,2.3,9,3.6
		c0.7,0.3,1.5,1,1.9,1.3c7.3,3.6,14.5,7.5,21.4,12c4.7,3.1,9,6.7,13.6,10.1c2.1,2,4.3,4,6.4,6.1c6.5,6.3,12.5,13.1,17.6,20.6
		c4.7,7.8,8.6,15.9,10.3,24.9c3.1,16.6,2.4,32.8-5.6,48.1c-0.1,0.2-0.2,0.4-0.3,0.8c14.5,1.3,26.1,8.3,36.3,18.1
		c4.4,5,8.5,10.1,10.8,16.4c3.2,8.7,4.1,17.6,0.6,26.5c-0.5,1.2,0.3,1.3,0.9,1.4c10.3,2.4,18.6,8.1,25.8,15.5c2.3,3,4.5,6.1,6.8,9.1
		c2.6,2.5,4.2,5.5,4.9,9.1c2.6,7,3.5,14.2,2.7,21.6c-1.1,9.5-6.3,16.8-13,23.3c-0.9,0.8-1.7,1.6-2.6,2.4c-9.7,7-20.6,10.3-32.5,10.6
		c-3.5-0.4-7-0.2-10.4-0.9c-1-0.2-1.8,0-2.3,1c-5.5,10.3-14,17.7-23.6,24c-6.9,4.5-14.3,8-21.5,11.7c-3.8,1.5-7.5,3.1-11.3,4.4
		c-7.4,2.4-14.8,4.5-22.6,5.2c-0.4,0-0.7,0.2-1.1,0.3c-8.4,0.6-16.8,0.6-25.2,0c-10.8-0.7-21.4-2.3-31.1-7.3c-2.2-0.3-3.6-2-5.6-2.7
		c-1.9-1.2-3.8-2.3-5.3-4c-2.5-2.7-5.6-4.9-8.1-7.7c-1.3-1.4-2.7-2.8-3.6-4.6c-1.5-1.9-3-3.7-4.6-5.8c-3.4,5.5-8.3,9.5-13.3,13.3
		c-10.9,8.2-22.8,14.2-36.3,16.7c-1.2,0.2-1.2,0.2-3.7,0.6c-4.1,0.4-6.3,0.8-11.5,0.6c-11.5,0-22.8-0.7-34-3.4"/>
	<path class="st1" d="M427.3,289.6c-2.1,0.5-2.7-0.2-1.9-2.3c1.8-5.2,1.7-10.6,2-16c0.1-1.6,0.3-3.2,0.4-4.8c0-0.8-0.2-1.5-1.1-1.5
		c-0.8,0-1,0.7-1,1.4c0,0.2,0,0.3,0,0.5c0.4,9.8-4.5,17.7-9.3,25.6c-0.8,1.4-1.8,2.6-2.8,3.9c-15.1,7.7-31,13.2-47.9,14.9
		c-12.4,1.2-24.8,0.8-37.3,0.2c-9.3-0.4-18.6-1.4-27.8-3c-10-1.7-19.8-4-28.9-9c-6.3-3.5-11.8-8.1-16.8-13.3
		c-3.2-3.3-6.2-6.9-9.1-10.4c-1.5-1.9-3-3.7-3-6.3c0-1.2-0.5-2.4-1.3-3.3c-2.6-2.9-5.2-5.8-8.1-8.4c-3.1-2.8-6.9-2.4-10.7-1.3
		c-4.1,1.1-8,2.6-11.8,4.5c-4.5,2.2-9.4,2.5-14.2,2.6c-9.3,0.3-18.6,0.2-27.8-2.2c-6.4-1.7-11.9-5-17.1-8.9
		c-5.4-4.1-9.5-9.3-13-14.9c-4.8-7.5-9.8-9.3-19.3-7c-6,1.5-11.4,4.4-17,7c-11.6,5.3-23.8,6.1-36.3,5.2c-14.2-1-26.6-6.7-38.4-14.2
		c-4.5-2.9-8.7-6.2-13.1-9.3c-0.7-0.5-1.2-1.1-1.5-1.8c0.3-10,5.3-17.4,13.3-23.1c6.2-4.4,13.4-6.6,20.5-9c4.5-1.5,9.1-2.4,13.8-2.8
		c0.9-0.1,1.7,0,2.6,0.2c4,0.6,6-0.7,6.3-5c0.6-8.6,0.5-17.2,1.5-25.7c1.4-12.4,7.2-22.7,17.6-29.9c10.8-7.5,22.8-12.7,35.9-15
		c10.4-1.8,20.9-1.7,31.3,0.6c4.8,1.1,8.3,4,11.8,7.4c-12.3,2.7-19.2,10.8-23.1,22c-0.9,2.6-1.1,5.3-1.3,8c-0.1,0.9-0.1,1.5-1.3,1.9
		c-7.8,2.5-12.9,9.5-13.1,17.8c-0.1,3.3-0.1,6.7,0,10c0.1,3.3,1.5,6.3,3.1,9.2c0.2,0.3,0.4,0.5,0.6,0.7c1.7,1.7,4.5,2.1,6.1,0.9
		c2-1.5,2-3.4,1-5.4c-2.8-5.5-2.5-11.3-1.7-17.1c0.7-4.7,4.1-7.5,8.8-7.6c3.4-0.1,5.3-1.9,5.5-5.3c0.1-2.5-0.3-5.2,0.1-7.6
		c1.3-8.7,5.8-15.2,14-18.9c3.2-1.4,6.7-1.2,10.1-1.2c2,0,4.4,0.4,5-2.1c0.6-2.6-1.8-3.4-3.8-4.1c-1.3-0.5-1.8-1.2-2.1-2.5
		c-1.8-8.7-1.5-17.4-0.8-26.2c0.7-8.9,3.3-17.3,7.4-25.3c5.8-11.5,15.1-19.6,26-26c14.2-8.4,29.8-12.5,45.9-15.2
		c9-1.5,18-1.9,27.1-2c17.8-0.1,34.5,4.3,50.2,12.5c16.2,8.5,30.4,19.6,42.3,33.5c8.1,9.5,14.3,20.2,16.4,32.7c3,17,0.6,33.1-8.5,48
		c-3.7,6.1-7.9,12-11.8,18c-2.1,3.3-3.7,6.8-5.2,10.5c3.2-1.8,6.8-3.2,9.4-5.8c5.4-5.3,10.4-11,14.4-17.5c1-1.6,1.9-2.2,4-1.7
		c17,4.3,30.3,13.5,38.6,29.2c4.3,8.1,4.7,16.8,1.3,25.4c-1.3,3.3-1.6,6.8-2.7,10.3c1.5-0.7,2.9-1.3,4.1-2.1
		c1.8-1.2,3.5-0.8,5.3-0.1c12.8,5.1,22.6,13.7,29.1,25.8c5.2,9.7,6.6,19.8,1.6,30.2c-1.2-0.4-2.2,0.3-3,1.1c-4.3,4.1-9.7,6.1-15.2,8
		c-3.8,1.3-7.2,3.4-10.6,5.3C436.5,285,432,287.6,427.3,289.6z"/>
	<path class="st2" d="M13.3,217.4c8.8,6.5,17.7,13,27.6,17.7c7.8,3.6,15.9,6.1,24.6,6.8c8.4,0.7,16.7,0.6,24.9-1.1
		c5.7-1.2,11-3.6,16.3-6c5.2-2.3,10.3-4.8,16.1-5.7c6.8-1.1,12.2,1.2,16,7.2c6.6,10.3,15,18.7,26.7,23.2c4.2,1.6,8.7,2.6,13.2,2.9
		c8.1,0.5,16.2,1,24.3,0c3.4-0.4,6.7-1.5,9.7-3c4.5-2.2,9.1-3.7,14-4.4c3.3-0.5,6.4,0.8,8.5,3.4c1.7,2.1,3.6,4,5.5,5.8
		c1.8,1.7,2.9,3.8,2.7,6.3c-0.1,1.9,1.3,3.1,2.3,4.3c6.7,8.2,13.7,16.2,22.6,22.1c5.7,3.8,12.1,6.3,18.7,8.1
		c7.1,1.8,14.2,3.1,21.4,4.2c4.9,0.7,9.9,1.2,14.9,1.6c9.7,0.7,19.4,0.4,29.1,0.5c17,0.2,33.2-3.6,48.8-10c3.2-1.3,6.4-2.8,9.6-4.3
		c0.8-0.4,1.6-0.6,2.5-0.6c-4.5,6.2-10.2,11-16.6,15.3c-11.5,7.7-23.8,13.9-36.8,18.4c-7.5,2.6-15.4,4.2-23.5,4.7
		c-6.5,0.4-12.9,0.6-19.3,0.3c-10.9-0.6-21.8-1.3-31.6-6.9c-5.7-3.2-10.4-7.5-15.2-11.9c-3.2-3-6.4-6-10.1-8.4
		c-0.7-0.5-0.9-0.9-0.7-1.7c0.3-1,0.9-2.1,0.4-3.5c-1.5,1.2-2.9,2.3-4.3,3.4c-7.7,6-15.1,12.5-23.7,17.3c-8.9,5-18.2,8.9-28.4,9.9
		c-15.8,1.5-31.6,1.2-47-3.5c-13-4-24.3-10.8-34.3-20c-5.5-5.1-10.1-10.9-13.6-17.7c2.9,1.3,5.8,2.7,9,3.4c4.9,1.1,9.6,1,14.2-1.1
		c3.1-1.4,4.8-4.5,7.8-6.2c0.7-0.4,0.5-1.3-0.1-1.9c-0.7-0.7-1.6-0.9-2.4-0.3c-4.4,3.6-9.5,2.1-14.3,1.8c-5.8-0.5-10.9-3.3-14.9-7.7
		c-7.1-7.8-11.9-16.8-15.7-26.5c-0.6-1.5-1.3-3.1-3.1-2.8c-1.9,0.3-2.2,2-2.2,3.7c-0.1,4.2,1.6,7.9,3.1,11.7
		c2.1,5.5,4.7,10.8,8.2,15.6c0.8,1.1,0.5,1.6-0.6,2.1c-2.8,1.4-5.8,2.3-8.9,2.5c-9.2,0.5-18.3,0.3-27.1-3.1
		c-8.8-3.4-14.3-10.1-17.9-18.5c-1.5-3.5-1.9-7.4-3.7-10.8c-0.6-1.2,0.2-2,1.5-2.4c3-1,5.6-2.8,7.1-5.7c0.4-0.8,1.4-1.7,0.8-2.6
		c-0.7-1-2.1-1.2-3.3-1.1c-1,0.1-2.1,0.2-3,0.7c-5.1,3.1-9.8,2.3-14.5-0.8c-4.8-3.2-9.5-6.4-13-11.1
		C12.7,226.7,12.3,222.2,13.3,217.4z"/>
	<path class="st2" d="M427.3,289.6c1.9-2.1,4.6-2.7,6.9-4.1c3.5-2.1,7.2-4,10.9-5.9c3-1.6,6.1-3.1,9.4-4c5.2-1.4,9.3-4.6,13.4-7.9
		c0.9-0.7,1.6-0.8,2,0.4c-4.6,7.5-10.1,14-18.7,17.1c-4.7,1.7-9.3,3.6-14.3,4.2C433.7,289.8,430.5,289.6,427.3,289.6z"/>
</g>
</svg>
