<?xml version="1.0" encoding="utf-8"?>
<!-- Generator: Adobe Illustrator 27.8.1, SVG Export Plug-In . SVG Version: 6.00 Build 0)  -->
<svg version="1.1" id="Layer_1" xmlns="http://www.w3.org/2000/svg" xmlns:xlink="http://www.w3.org/1999/xlink" x="0px" y="0px"
	 viewBox="0 0 593.7 357" style="enable-background:new 0 0 593.7 357;" xml:space="preserve">
<style type="text/css">
	.st0{fill:#5A8C03;stroke:#18351A;stroke-miterlimit:10;}
	.st1{fill:#077724;}
	.st2{fill:#117E3F;}
	.st3{fill:#449844;}
	.st4{fill:#469C45;}
	.st5{fill:#6D321D;stroke:#3D1100;stroke-miterlimit:10;}
	.st6{fill:none;stroke:#542018;stroke-width:3;stroke-miterlimit:10;}
	.st7{fill:#542018;}
	.st8{fill:#6D321D;stroke:#0F2213;stroke-miterlimit:10;}
	.st9{fill:#6D321D;stroke:#3D1100;stroke-width:3;stroke-miterlimit:10;}
	.st10{fill:#6D321D;stroke:#621A00;stroke-miterlimit:10;}
	.st11{fill:#157E3F;}
	.st12{fill:#449744;}
</style>
<g>
	<path class="st0" d="M594.1,10.7c-30.2-9.5-62.9-6.2-94.4-2.8c-11.2,1.2-22.5,2.4-33.7,3.6c-9.8,1.1-20.7-2.6-30.2,0
		c-14.5,3.9-25,3.6-39.9,1.4c-17-2.5-33-7.5-50.2-7.5c-27.5,0-47.4,5.7-72.6,4.5c-19.8-1-37.4-3.9-57.1-3.3
		c-23.3,0.8-43,14.9-65.6,9.5c-14.8-3.5-26.7-10-41.9-9.6C94.2,6.8,80,12.8,65.8,13.3c-15.1,0.5-20.2,5.2-32.1,1.1s-28-4-33.7,7.2
		l0.9,97.9l594.3-6.2L594.1,10.7z"/>
	<g>
		<path class="st1" d="M594.5,9c-29.6-9.1-60.8-6.5-91.2-3.3c-7.9,0.8-15.7,1.7-23.5,2.5c-8,0.9-15.9,2-24,1.4
			c-6.3-0.5-12.7-1.4-19-0.2c-7.6,1.5-14.7,3.3-22.5,3.3c-15.5,0-30.7-4.1-45.8-6.8c-14.3-2.5-28.3-2.7-42.7-1.5
			c-13.6,1.2-27.2,3.3-40.8,3.7c-15.1,0.4-30-1.6-45-2.7c-14.4-1.1-28.5-1.3-42.6,2.2c-13.3,3.4-26.5,8.9-40.5,7.6
			C143.2,14,130.8,6.8,117.2,5c-14.7-2-28.6,3.3-42.9,5.6c-6.6,1.1-13.3,1-19.9,2.1c-5.8,1-11.4,2.2-17.2,0.7
			C27.4,11,17.8,7.9,7.9,12.2c-4.5,2-9.6,5.8-9.6,11c0,4.1,0.1,8.3,0.1,12.4c0.3,28,0.5,55.9,0.8,83.9c0,0.9,0.8,1.8,1.8,1.8
			c19.7-0.2,39.3-0.4,59-0.6c47.4-0.5,94.8-1,142.2-1.5c57.2-0.6,114.4-1.2,171.6-1.8c49.6-0.5,99.1-1,148.7-1.5
			c16.3-0.2,32.5-0.3,48.8-0.5c7.6-0.1,15.5,0.6,23.1-0.2c0.3,0,0.7,0,1,0c0.9,0,1.8-0.8,1.8-1.8c-0.3-30-0.7-59.9-1-89.9
			c0-4.3-0.1-8.5-0.1-12.8c0-2.3-3.5-2.3-3.5,0c0.3,30,0.7,59.9,1,89.9c0,4.3,0.1,8.5,0.1,12.8c0.6-0.6,1.2-1.2,1.8-1.8
			c-19.7,0.2-39.3,0.4-59,0.6c-47.4,0.5-94.8,1-142.2,1.5c-57.2,0.6-114.4,1.2-171.6,1.8c-49.6,0.5-99.1,1-148.7,1.5
			c-16.3,0.2-32.5,0.3-48.8,0.5c-5,0.1-10,0.1-15,0.2c-2.4,0-5.8-0.6-8,0.1c-0.3,0.1-0.7,0-1,0c0.6,0.6,1.2,1.2,1.7,1.8
			C2.5,95.6,2.2,71.8,2,47.9c-0.1-6.1-0.1-12.1-0.2-18.2c0-2.2-0.8-5.9-0.1-8.1c1.4-4.2,8.2-6.7,12-7.5c6.1-1.2,12.4-0.3,18.3,1.5
			c4.4,1.3,8.4,2.4,13.1,2.1c5.8-0.4,11.4-2,17.1-2.5c6.2-0.5,12.1-1,18.2-2.2c8.1-1.7,16.1-4,24.4-4.7c14.7-1.3,27.7,4.7,41.5,8.4
			c12.3,3.4,24.1,2,36.2-1.3c6.3-1.7,12.6-3.7,18.9-5.2c7.9-1.8,15.8-2.2,23.8-2.1c14.7,0.3,29.3,2.2,43.9,3.1
			c13.4,0.8,26.7-0.2,40.1-1.6c13.9-1.5,28-3.3,42.1-2.4c15.5,0.9,30.5,5.4,45.9,7.6c7.2,1,14.5,1.7,21.9,1.3
			c7.4-0.5,14.3-3,21.5-3.7c7.9-0.7,15.8,1.4,23.7,1c8.5-0.5,17-1.8,25.4-2.7C524.2,7,559.8,2,593.6,12.4
			C595.8,13,596.7,9.7,594.5,9z"/>
	</g>
</g>
<g>
	<path class="st2" d="M412.4,88.6c-0.4,0-0.7-0.2-1-0.7c-1.4-2.8-2.8-5.6-3.3-8.8c-0.1-0.6-0.1-1.2-0.1-1.8s0.1-1.1,0.7-1.4
		c0.5-0.2,1.1,0,1.5,0.4c1.4,1.3,2.7,2.7,3.6,4.4c1,1.8,1.8,3.6,2.4,5.5c0.2,0.5,0.4,1,1.1,0.8s0.5-0.8,0.4-1.3
		c-0.7-4.3-1.5-8.6-1.4-13c0.1-2,0.1-4.1,0.9-6c0.2-0.5,0.4-1.2,1.1-1.2c0.7-0.1,0.9,0.6,1.2,1c1.3,2.1,1.6,4.5,1.8,6.8
		c0.3,3.4,0.4,6.8,0.6,10.2c0,0.5,0.1,1,0.8,1c0.7,0,0.8-0.5,0.8-1.1c0.1-2.8,0.1-5.6,0.8-8.3c0.4-1.6,1.2-2.9,2.3-4.1
		c0.3-0.3,0.6-0.6,1.1-0.5s0.5,0.6,0.6,1c0.6,3.2,0.3,6.3-0.7,9.3c-0.4,1-0.7,2-1.1,3c-0.1,0.4-0.3,1,0.3,1.3
		c0.6,0.2,0.9-0.2,1.1-0.7c0.9-1.6,1.9-3.2,3.1-4.7c0.3-0.4,0.6-0.7,0.9-1.1c1.2-1.1,1.9-1,2.5,0.6c0.7,1.7,0.6,3.5,0.8,5.2
		c0,0.4,0.1,0.8,0.1,1.1c0.1,0.4,0.2,0.8,0.7,0.8c0.5,0.1,0.7-0.3,0.9-0.6c0.2-0.4,0.3-0.8,0.5-1.1c1-2,2.1-4,4.1-5.2
		c0.1-0.6-0.7-0.8-0.7-1.3c-1.5,0.7-2.4,2.1-3.3,3.4c-0.2,0.3-0.4,0.7-0.8,1.2c-0.2-1.1-0.3-2-0.4-2.8s-0.4-1.7-1-2.4
		c-1.1-1.5-2.6-1.6-4.1-0.2c-0.4,0.3-0.8,0.7-1.3,1.2c0.2-1.7,0.3-3.2,0.3-4.8c0-1-0.2-2-0.4-2.9c-0.6-1.9-1.9-2.3-3.5-1.2
		c-0.4,0.3-0.7,0.6-1,0.8c-0.3,0.3-0.7,0.5-0.8,1c-0.1,0.5-0.7,0.8-0.7,1.3c-0.4,0.2-0.5,0.6-0.5,1c-0.1-0.6-0.1-1.1-0.4-1.6l0,0
		c-0.2-0.7,0-1.5-0.4-2.1c-0.4-1.2-0.6-2.5-1.1-3.6c-0.1-0.2-0.2-0.4-0.3-0.6c-0.5-0.9-1.1-1.9-2.4-1.9s-2.1,0.9-2.7,2
		c-0.8,1.5-1,3.1-1.1,4.8c-0.2,2.8,0.1,5.6,0.5,8.4c0,0.3,0.1,0.7,0.1,1.3c-1.1-1.5-1.9-2.9-3.1-4c-0.7-0.7-1.4-1.4-2.3-1.8
		c-1.2-0.6-2.3-0.3-2.8,0.9c-1.1,2.4-0.9,4.8-0.1,7.1c0.7,1.9,1.6,3.6,2.5,5.3c0.5,1,0.5,0.9-0.5,1.1"/>
	<path class="st3" d="M420.2,84.8c-0.8-4.2-1.4-8.5-1.6-12.8"/>
	<path class="st4" d="M413.7,86.2c-0.8-1.5-1.7-3-2.2-4.7"/>
	<path class="st3" d="M426.3,79.3c0.3-1.5,0.7-3,1-4.5"/>
</g>
<g>
	<path class="st2" d="M182,81.2c-0.4,0-0.7-0.2-1-0.7c-1.4-2.8-2.8-5.6-3.3-8.8c-0.1-0.6-0.1-1.2-0.1-1.8s0.1-1.1,0.7-1.4
		c0.5-0.2,1.1,0,1.5,0.4c1.4,1.3,2.7,2.7,3.6,4.4c1,1.8,1.8,3.6,2.4,5.5c0.2,0.5,0.4,1,1.1,0.8s0.5-0.8,0.4-1.3
		c-0.7-4.3-1.5-8.6-1.4-13c0.1-2,0.1-4.1,0.9-6c0.2-0.5,0.4-1.2,1.1-1.2c0.7-0.1,0.9,0.6,1.2,1c1.3,2.1,1.6,4.5,1.8,6.8
		c0.3,3.4,0.4,6.8,0.6,10.2c0,0.5,0.1,1,0.8,1s0.8-0.5,0.8-1.1c0.1-2.8,0.1-5.6,0.8-8.3c0.4-1.6,1.2-2.9,2.3-4.1
		c0.3-0.3,0.6-0.6,1.1-0.5s0.5,0.6,0.6,1c0.6,3.2,0.3,6.3-0.7,9.3c-0.4,1-0.7,2-1.1,3c-0.1,0.4-0.3,1,0.3,1.3
		c0.6,0.2,0.9-0.2,1.1-0.7c0.9-1.6,1.9-3.2,3.1-4.7c0.3-0.4,0.6-0.7,0.9-1.1c1.2-1.1,1.9-1,2.5,0.6c0.7,1.7,0.6,3.5,0.8,5.2
		c0,0.4,0.1,0.8,0.1,1.1c0.1,0.4,0.2,0.8,0.7,0.8c0.5,0.1,0.7-0.3,0.9-0.6c0.2-0.4,0.3-0.8,0.5-1.1c1-2,2.1-4,4.1-5.2
		c0.1-0.6-0.7-0.8-0.7-1.3c-1.5,0.7-2.4,2.1-3.3,3.4c-0.2,0.3-0.4,0.7-0.8,1.2c-0.2-1.1-0.3-2-0.4-2.8s-0.4-1.7-1-2.4
		c-1.1-1.5-2.6-1.6-4.1-0.2c-0.4,0.3-0.8,0.7-1.3,1.2c0.2-1.7,0.3-3.2,0.3-4.8c0-1-0.2-2-0.4-2.9c-0.6-1.9-1.9-2.3-3.5-1.2
		c-0.4,0.3-0.7,0.6-1,0.8c-0.3,0.3-0.7,0.5-0.8,1s-0.7,0.8-0.7,1.3c-0.4,0.2-0.5,0.6-0.5,1c-0.1-0.6-0.1-1.1-0.4-1.6l0,0
		c-0.2-0.7,0-1.5-0.4-2.1c-0.4-1.2-0.6-2.5-1.1-3.6c-0.1-0.2-0.2-0.4-0.3-0.6c-0.5-0.9-1.1-1.9-2.4-1.9s-2.1,0.9-2.7,2
		c-0.8,1.5-1,3.1-1.1,4.8c-0.2,2.8,0.1,5.6,0.5,8.4c0,0.3,0.1,0.7,0.1,1.3c-1.1-1.5-1.9-2.9-3.1-4c-0.7-0.7-1.4-1.4-2.3-1.8
		c-1.2-0.6-2.3-0.3-2.8,0.9c-1.1,2.4-0.9,4.8-0.1,7.1c0.7,1.9,1.6,3.6,2.5,5.3c0.5,1,0.5,0.9-0.5,1.1"/>
	<path class="st3" d="M189.8,77.4c-0.8-4.2-1.4-8.5-1.6-12.8"/>
	<path class="st4" d="M183.3,78.8c-0.8-1.5-1.7-3-2.2-4.7"/>
	<path class="st3" d="M195.9,71.9c0.3-1.5,0.7-3,1-4.5"/>
</g>
<g>
	<g>
		<path class="st5" d="M476.9,352.1c0,2.8,2.2,5,5,5h47.3c2.8,0,5-2.2,5-5v-257c0-2.8-1.8-6.3-4-8l-20.6-15.4c-2.2-1.6-5.8-1.6-8,0
			L481,87.1c-2.2,1.6-4,5.2-4,8v257H476.9z"/>
		<path class="st6" d="M476.9,352.1c0,2.8,2.2,5,5,5h47.3c2.8,0,5-2.2,5-5v-257c0-2.8-1.8-6.3-4-8l-20.6-15.4c-2.2-1.6-5.8-1.6-8,0
			L481,87.1c-2.2,1.6-4,5.2-4,8v257H476.9z"/>
	</g>
	<g>
		<g>
			<path class="st7" d="M492.4,133.2c3.2,0,3.2-5,0-5C489.2,128.2,489.2,133.2,492.4,133.2L492.4,133.2z"/>
		</g>
	</g>
	<g>
		<g>
			<path class="st7" d="M519.8,130.6c3.2,0,3.2-5,0-5C516.6,125.6,516.5,130.6,519.8,130.6L519.8,130.6z"/>
		</g>
	</g>
	<g>
		<g>
			<path class="st7" d="M520.2,313.5c3.2,0,3.2-5,0-5S517,313.5,520.2,313.5L520.2,313.5z"/>
		</g>
	</g>
	<g>
		<g>
			<path class="st7" d="M495.6,312c3.2,0,3.2-5,0-5S492.4,312,495.6,312L495.6,312z"/>
		</g>
	</g>
	<g>
		<path class="st5" d="M474.8,352.1c0,2.8-2.2,5-5,5h-47.3c-2.8,0-5-2.2-5-5v-257c0-2.8,1.8-6.3,4-8l20.6-15.4c2.2-1.6,5.8-1.6,8,0
			l20.6,15.4c2.2,1.6,4,5.2,4,8L474.8,352.1L474.8,352.1z"/>
		<path class="st6" d="M474.8,352.1c0,2.8-2.2,5-5,5h-47.3c-2.8,0-5-2.2-5-5v-257c0-2.8,1.8-6.3,4-8l20.6-15.4c2.2-1.6,5.8-1.6,8,0
			l20.6,15.4c2.2,1.6,4,5.2,4,8L474.8,352.1L474.8,352.1z"/>
	</g>
	<g>
		<g>
			<path class="st7" d="M459.3,133.2c3.2,0,3.2-5,0-5C456.1,128.2,456.1,133.2,459.3,133.2L459.3,133.2z"/>
		</g>
	</g>
	<g>
		<g>
			<path class="st7" d="M432,130.6c3.2,0,3.2-5,0-5C428.8,125.6,428.8,130.6,432,130.6L432,130.6z"/>
		</g>
	</g>
	<g>
		<g>
			<path class="st7" d="M431.6,313.5c3.2,0,3.2-5,0-5S428.4,313.5,431.6,313.5L431.6,313.5z"/>
		</g>
	</g>
	<g>
		<g>
			<path class="st7" d="M456.1,312c3.2,0,3.2-5,0-5S452.9,312,456.1,312L456.1,312z"/>
		</g>
	</g>
	<g>
		<path class="st8" d="M415.4,352.1c0,2.8-2.2,5-5,5h-47.3c-2.8,0-5-2.2-5-5v-257c0-2.8,1.8-6.3,4-8l20.6-15.4c2.2-1.6,5.8-1.6,8,0
			l20.6,15.4c2.2,1.6,4,5.2,4,8L415.4,352.1L415.4,352.1z"/>
		<path class="st6" d="M415.4,352.1c0,2.8-2.2,5-5,5h-47.3c-2.8,0-5-2.2-5-5v-257c0-2.8,1.8-6.3,4-8l20.6-15.4c2.2-1.6,5.8-1.6,8,0
			l20.6,15.4c2.2,1.6,4,5.2,4,8L415.4,352.1L415.4,352.1z"/>
	</g>
	<g>
		<g>
			<path class="st7" d="M399.9,133.2c3.2,0,3.2-5,0-5C396.7,128.2,396.7,133.2,399.9,133.2L399.9,133.2z"/>
		</g>
	</g>
	<g>
		<g>
			<path class="st7" d="M372.6,130.6c3.2,0,3.2-5,0-5C369.4,125.6,369.4,130.6,372.6,130.6L372.6,130.6z"/>
		</g>
	</g>
	<g>
		<g>
			<path class="st7" d="M372.2,313.5c3.2,0,3.2-5,0-5S369,313.5,372.2,313.5L372.2,313.5z"/>
		</g>
	</g>
	<g>
		<g>
			<path class="st7" d="M396.7,312c3.2,0,3.2-5,0-5S393.5,312,396.7,312L396.7,312z"/>
		</g>
	</g>
	<g>
		<path class="st5" d="M298.7,352.1c0,2.8,2.2,5,5,5H351c2.8,0,5-2.2,5-5v-257c0-2.8-1.8-6.3-4-8l-20.6-15.4c-2.2-1.6-5.8-1.6-8,0
			l-20.6,15.4c-2.2,1.6-4,5.2-4,8L298.7,352.1L298.7,352.1z"/>
		<path class="st6" d="M298.7,352.1c0,2.8,2.2,5,5,5H351c2.8,0,5-2.2,5-5v-257c0-2.8-1.8-6.3-4-8l-20.6-15.4c-2.2-1.6-5.8-1.6-8,0
			l-20.6,15.4c-2.2,1.6-4,5.2-4,8L298.7,352.1L298.7,352.1z"/>
	</g>
	<g>
		<g>
			<path class="st7" d="M314.2,133.2c3.2,0,3.2-5,0-5C310.9,128.2,310.9,133.2,314.2,133.2L314.2,133.2z"/>
		</g>
	</g>
	<g>
		<g>
			<path class="st7" d="M341.5,130.6c3.2,0,3.2-5,0-5C338.3,125.6,338.3,130.6,341.5,130.6L341.5,130.6z"/>
		</g>
	</g>
	<g>
		<g>
			<path class="st7" d="M341.9,313.5c3.2,0,3.2-5,0-5C338.7,308.5,338.7,313.5,341.9,313.5L341.9,313.5z"/>
		</g>
	</g>
	<g>
		<g>
			<path class="st7" d="M317.4,312c3.2,0,3.2-5,0-5C314.2,307,314.2,312,317.4,312L317.4,312z"/>
		</g>
	</g>
	<g>
		<path class="st5" d="M296.6,352.1c0,2.8-2.2,5-5,5h-47.3c-2.8,0-5-2.2-5-5v-257c0-2.8,1.8-6.3,4-8l20.6-15.4c2.2-1.6,5.8-1.6,8,0
			l20.6,15.4c2.2,1.6,4,5.2,4,8v257H296.6z"/>
		<path class="st6" d="M296.6,352.1c0,2.8-2.2,5-5,5h-47.3c-2.8,0-5-2.2-5-5v-257c0-2.8,1.8-6.3,4-8l20.6-15.4c2.2-1.6,5.8-1.6,8,0
			l20.6,15.4c2.2,1.6,4,5.2,4,8v257H296.6z"/>
	</g>
	<g>
		<g>
			<path class="st7" d="M281.1,133.2c3.2,0,3.2-5,0-5S277.9,133.2,281.1,133.2L281.1,133.2z"/>
		</g>
	</g>
	<g>
		<g>
			<path class="st7" d="M253.7,130.6c3.2,0,3.2-5,0-5C250.5,125.6,250.5,130.6,253.7,130.6L253.7,130.6z"/>
		</g>
	</g>
	<g>
		<g>
			<path class="st7" d="M253.3,313.5c3.2,0,3.2-5,0-5S250.1,313.5,253.3,313.5L253.3,313.5z"/>
		</g>
	</g>
	<g>
		<g>
			<path class="st7" d="M277.9,312c3.2,0,3.2-5,0-5C274.7,307,274.6,312,277.9,312L277.9,312z"/>
		</g>
	</g>
	<g>
		<path class="st9" d="M179.8,352.1c0,2.8,2.2,5,5,5h47.3c2.8,0,5-2.2,5-5v-257c0-2.8-1.8-6.3-4-8l-20.6-15.4c-2.2-1.6-5.8-1.6-8,0
			l-20.6,15.4c-2.2,1.6-4,5.2-4,8L179.8,352.1L179.8,352.1z"/>
		<path class="st6" d="M179.8,352.1c0,2.8,2.2,5,5,5h47.3c2.8,0,5-2.2,5-5v-257c0-2.8-1.8-6.3-4-8l-20.6-15.4c-2.2-1.6-5.8-1.6-8,0
			l-20.6,15.4c-2.2,1.6-4,5.2-4,8L179.8,352.1L179.8,352.1z"/>
	</g>
	<g>
		<g>
			<path class="st7" d="M195.3,133.2c3.2,0,3.2-5,0-5S192.1,133.2,195.3,133.2L195.3,133.2z"/>
		</g>
	</g>
	<g>
		<g>
			<path class="st7" d="M222.7,130.6c3.2,0,3.2-5,0-5C219.5,125.6,219.4,130.6,222.7,130.6L222.7,130.6z"/>
		</g>
	</g>
	<g>
		<g>
			<path class="st7" d="M223.1,313.5c3.2,0,3.2-5,0-5C219.9,308.5,219.9,313.5,223.1,313.5L223.1,313.5z"/>
		</g>
	</g>
	<g>
		<g>
			<path class="st7" d="M198.5,312c3.2,0,3.2-5,0-5S195.3,312,198.5,312L198.5,312z"/>
		</g>
	</g>
	<g>
		<path class="st5" d="M177.7,352.1c0,2.8-2.2,5-5,5h-47.3c-2.8,0-5-2.2-5-5v-257c0-2.8,1.8-6.3,4-8L145,71.7c2.2-1.6,5.8-1.6,8,0
			l20.6,15.4c2.2,1.6,4,5.2,4,8L177.7,352.1L177.7,352.1z"/>
		<path class="st6" d="M177.7,352.1c0,2.8-2.2,5-5,5h-47.3c-2.8,0-5-2.2-5-5v-257c0-2.8,1.8-6.3,4-8L145,71.7c2.2-1.6,5.8-1.6,8,0
			l20.6,15.4c2.2,1.6,4,5.2,4,8L177.7,352.1L177.7,352.1z"/>
	</g>
	<g>
		<g>
			<path class="st7" d="M162.2,133.2c3.2,0,3.2-5,0-5S159,133.2,162.2,133.2L162.2,133.2z"/>
		</g>
	</g>
	<g>
		<g>
			<path class="st7" d="M134.9,130.6c3.2,0,3.2-5,0-5C131.7,125.6,131.7,130.6,134.9,130.6L134.9,130.6z"/>
		</g>
	</g>
	<g>
		<g>
			<path class="st7" d="M134.5,313.5c3.2,0,3.2-5,0-5S131.3,313.5,134.5,313.5L134.5,313.5z"/>
		</g>
	</g>
	<g>
		<g>
			<path class="st7" d="M159,312c3.2,0,3.2-5,0-5S155.8,312,159,312L159,312z"/>
		</g>
	</g>
	<g>
		<path class="st10" d="M61,352.1c0,2.8,2.2,5,5,5h47.3c2.8,0,5-2.2,5-5v-257c0-2.8-1.8-6.3-4-8L93.7,71.7c-2.2-1.6-5.8-1.6-8,0
			L65,87.1c-2.2,1.6-4,5.2-4,8V352.1z"/>
		<path class="st6" d="M61,352.1c0,2.8,2.2,5,5,5h47.3c2.8,0,5-2.2,5-5v-257c0-2.8-1.8-6.3-4-8L93.7,71.7c-2.2-1.6-5.8-1.6-8,0
			L65,87.1c-2.2,1.6-4,5.2-4,8V352.1z"/>
	</g>
	<g>
		<g>
			<path class="st7" d="M76.5,133.2c3.2,0,3.2-5,0-5S73.3,133.2,76.5,133.2L76.5,133.2z"/>
		</g>
	</g>
	<g>
		<g>
			<path class="st7" d="M103.8,130.6c3.2,0,3.2-5,0-5C100.6,125.6,100.6,130.6,103.8,130.6L103.8,130.6z"/>
		</g>
	</g>
	<g>
		<g>
			<path class="st7" d="M104.2,313.5c3.2,0,3.2-5,0-5S101,313.5,104.2,313.5L104.2,313.5z"/>
		</g>
	</g>
	<g>
		<g>
			<path class="st7" d="M79.7,312c3.2,0,3.2-5,0-5S76.5,312,79.7,312L79.7,312z"/>
		</g>
	</g>
	<g>
		<path class="st5" d="M593.7,352.1c0,2.8-2.2,5-5,5h-47.3c-2.8,0-5-2.2-5-5v-257c0-2.8,1.8-6.3,4-8L561,71.7c2.2-1.6,5.8-1.6,8,0
			l20.6,15.4c2.2,1.6,4,5.2,4,8v257H593.7z"/>
		<path class="st6" d="M593.7,352.1c0,2.8-2.2,5-5,5h-47.3c-2.8,0-5-2.2-5-5v-257c0-2.8,1.8-6.3,4-8L561,71.7c2.2-1.6,5.8-1.6,8,0
			l20.6,15.4c2.2,1.6,4,5.2,4,8v257H593.7z"/>
	</g>
	<g>
		<g>
			<path class="st7" d="M578.2,133.2c3.2,0,3.2-5,0-5S575,133.2,578.2,133.2L578.2,133.2z"/>
		</g>
	</g>
	<g>
		<g>
			<path class="st7" d="M550.8,130.6c3.2,0,3.2-5,0-5C547.6,125.6,547.6,130.6,550.8,130.6L550.8,130.6z"/>
		</g>
	</g>
	<g>
		<g>
			<path class="st7" d="M550.4,313.5c3.2,0,3.2-5,0-5S547.2,313.5,550.4,313.5L550.4,313.5z"/>
		</g>
	</g>
	<g>
		<g>
			<path class="st7" d="M575,312c3.2,0,3.2-5,0-5S571.7,312,575,312L575,312z"/>
		</g>
	</g>
	<g>
		<path class="st5" d="M1.6,352.1c0,2.8,2.2,5,5,5h47.3c2.8,0,5-2.2,5-5v-257c0-2.8-1.8-6.3-4-8L34.2,71.7c-2.2-1.6-5.8-1.6-8,0
			L5.6,87.1c-2.2,1.6-4,5.2-4,8C1.6,95.1,1.6,352.1,1.6,352.1z"/>
		<path class="st6" d="M1.6,352.1c0,2.8,2.2,5,5,5h47.3c2.8,0,5-2.2,5-5v-257c0-2.8-1.8-6.3-4-8L34.2,71.7c-2.2-1.6-5.8-1.6-8,0
			L5.6,87.1c-2.2,1.6-4,5.2-4,8C1.6,95.1,1.6,352.1,1.6,352.1z"/>
	</g>
	<g>
		<g>
			<path class="st7" d="M17.1,133.2c3.2,0,3.2-5,0-5C13.8,128.2,13.8,133.2,17.1,133.2L17.1,133.2z"/>
		</g>
	</g>
	<g>
		<g>
			<path class="st7" d="M44.4,130.6c3.2,0,3.2-5,0-5C41.2,125.6,41.2,130.6,44.4,130.6L44.4,130.6z"/>
		</g>
	</g>
	<g>
		<g>
			<path class="st7" d="M44.8,313.5c3.2,0,3.2-5,0-5S41.6,313.5,44.8,313.5L44.8,313.5z"/>
		</g>
	</g>
	<g>
		<g>
			<path class="st7" d="M20.3,312c3.2,0,3.2-5,0-5S17.1,312,20.3,312L20.3,312z"/>
		</g>
	</g>
</g>
<g>
	<path class="st2" d="M78.9,68.3c0.4,0,0.7-0.2,1-0.7c1.4-2.8,2.8-5.6,3.3-8.8c0.1-0.6,0.1-1.2,0.1-1.8s-0.1-1.1-0.7-1.4
		c-0.5-0.2-1.1,0-1.5,0.4c-1.4,1.3-2.7,2.7-3.6,4.4c-1,1.8-1.8,3.6-2.4,5.5c-0.2,0.5-0.4,1-1.1,0.8s-0.5-0.8-0.4-1.3
		c0.7-4.3,1.5-8.6,1.4-13c-0.1-2-0.1-4.1-0.9-6c-0.2-0.5-0.4-1.2-1.1-1.2c-0.7-0.1-0.9,0.6-1.2,1c-1.3,2.1-1.6,4.5-1.8,6.8
		c-0.3,3.4-0.4,6.8-0.6,10.2c0,0.5-0.1,1-0.8,1c-0.7,0-0.8-0.5-0.8-1.1c-0.1-2.8-0.1-5.6-0.8-8.3c-0.4-1.6-1.2-2.9-2.3-4.1
		c-0.3-0.3-0.6-0.6-1.1-0.5s-0.5,0.6-0.6,1c-0.6,3.2-0.3,6.3,0.7,9.3c0.4,1,0.7,2,1.1,3c0.1,0.4,0.3,1-0.3,1.3
		c-0.6,0.2-0.9-0.2-1.1-0.7c-0.9-1.6-1.9-3.2-3.1-4.7c-0.3-0.4-0.6-0.7-0.9-1.1c-1.2-1.1-1.9-1-2.5,0.6c-0.7,1.7-0.6,3.5-0.8,5.2
		c0,0.4-0.1,0.8-0.1,1.1c-0.1,0.4-0.2,0.8-0.7,0.8c-0.5,0.1-0.7-0.3-0.9-0.6c-0.2-0.4-0.3-0.8-0.5-1.1c-1-2-2.1-4-4.1-5.2
		c-0.1-0.6,0.7-0.8,0.7-1.3c1.5,0.7,2.4,2.1,3.3,3.4c0.2,0.3,0.4,0.7,0.8,1.2c0.2-1.1,0.3-2,0.4-2.8s0.4-1.7,1-2.4
		c1.1-1.5,2.6-1.6,4.1-0.2c0.4,0.3,0.8,0.7,1.3,1.2c-0.2-1.7-0.3-3.2-0.3-4.8c0-1,0.2-2,0.4-2.9c0.6-1.9,1.9-2.3,3.5-1.2
		c0.4,0.3,0.7,0.6,1,0.8c0.3,0.3,0.7,0.5,0.8,1c0.1,0.5,0.7,0.8,0.7,1.3c0.4,0.2,0.5,0.6,0.5,1c0.1-0.6,0.1-1.1,0.4-1.6l0,0
		c0.2-0.7,0-1.5,0.4-2.1c0.4-1.2,0.6-2.5,1.1-3.6c0.1-0.2,0.2-0.4,0.3-0.6c0.5-0.9,1.1-1.9,2.4-1.9s2.1,0.9,2.7,2
		c0.8,1.5,1,3.1,1.1,4.8c0.2,2.8-0.1,5.6-0.5,8.4c0,0.3-0.1,0.7-0.1,1.3c1.1-1.5,1.9-2.9,3.1-4c0.7-0.7,1.4-1.4,2.3-1.8
		c1.2-0.6,2.3-0.3,2.8,0.9c1.1,2.4,0.9,4.8,0.1,7.1c-0.7,1.9-1.6,3.6-2.5,5.3c-0.5,1-0.5,0.9,0.5,1.1"/>
	<path class="st3" d="M71.1,64.5c0.8-4.2,1.4-8.5,1.6-12.8"/>
	<path class="st4" d="M77.6,65.9c0.8-1.5,1.7-3,2.2-4.7"/>
	<path class="st3" d="M65,59c-0.3-1.5-0.7-3-1-4.5"/>
</g>
<path class="st11" d="M377,13.7c0.1,3.4-1.3,6.1-3.4,8.6c-1.1,1.4-2.4,2.5-3.9,3.5c-0.4,0.3-0.8,0.6-1.2,0.1
	c-0.4-0.6-0.1-0.9,0.4-1.3c2.6-1.9,4.8-4.2,6-7.3c1-2.8,1-5.5-0.4-8.2c-0.6-1-1.1-1.3-2.3-0.9c-1.1,0.4-2,1.1-2.8,2
	c-2.2,2.7-3.9,5.6-3.9,9.2c0,0.4-0.1,0.7-0.5,0.9s-0.7-0.1-1-0.3c-0.7-0.7-1.3-1.5-2.2-2c-0.5-0.3-1.2-0.7-1.7-0.4
	c-0.5,0.4-0.1,1.1,0.1,1.7c0.5,1.3,1.4,2.2,2.4,3.1c0.1,0.1,0.2,0.1,0.2,0.2c0.4,0.4,1.2,0.8,0.7,1.5c-0.6,0.8-1.1,0-1.6-0.3
	c-1.8-1.5-3.3-3.1-3.5-5.6c-0.2-2,0.2-2.2,2.2-2.1c1.1,0,2,0.6,2.8,1.3c0.5,0.4,0.6,0.2,0.7-0.3c0.6-3.2,2.2-5.8,4.4-8.1
	c0.9-1,1.9-1.8,3.3-2.2c1.5-0.4,2.8,0,3.6,1.3C376.6,9.7,377,11.7,377,13.7z"/>
<path class="st12" d="M372.3,10.7c-0.1,2.7-0.8,5.2-2.3,7.4"/>
<g>
	<path class="st2" d="M540.3,63.9c0.4,0,0.7-0.2,1-0.7c1.4-2.8,2.8-5.6,3.3-8.8c0.1-0.6,0.1-1.2,0.1-1.8s-0.1-1.1-0.7-1.4
		c-0.5-0.2-1.1,0-1.5,0.4c-1.4,1.3-2.7,2.7-3.6,4.4c-1,1.8-1.8,3.6-2.4,5.5c-0.2,0.5-0.4,1-1.1,0.8s-0.5-0.8-0.4-1.3
		c0.7-4.3,1.5-8.6,1.4-13c-0.1-2-0.1-4.1-0.9-6c-0.2-0.5-0.4-1.2-1.1-1.2c-0.7-0.1-0.9,0.6-1.2,1c-1.3,2.1-1.6,4.5-1.8,6.8
		c-0.3,3.4-0.4,6.8-0.6,10.2c0,0.5-0.1,1-0.8,1s-0.8-0.5-0.8-1.1c-0.1-2.8-0.1-5.6-0.8-8.3c-0.4-1.6-1.2-2.9-2.3-4.1
		c-0.3-0.3-0.6-0.6-1.1-0.5s-0.5,0.6-0.6,1c-0.6,3.2-0.3,6.3,0.7,9.3c0.4,1,0.7,2,1.1,3c0.1,0.4,0.3,1-0.3,1.3
		c-0.6,0.2-0.9-0.2-1.1-0.7c-0.9-1.6-1.9-3.2-3.1-4.7c-0.3-0.4-0.6-0.7-0.9-1.1c-1.2-1.1-1.9-1-2.5,0.6c-0.7,1.7-0.6,3.5-0.8,5.2
		c0,0.4-0.1,0.8-0.1,1.1c-0.1,0.4-0.2,0.8-0.7,0.8c-0.5,0.1-0.7-0.3-0.9-0.6c-0.2-0.4-0.3-0.8-0.5-1.1c-1-2-2.1-4-4.1-5.2
		c-0.1-0.6,0.7-0.8,0.7-1.3c1.5,0.7,2.4,2.1,3.3,3.4c0.2,0.3,0.4,0.7,0.8,1.2c0.2-1.1,0.3-2,0.4-2.8s0.4-1.7,1-2.4
		c1.1-1.5,2.6-1.6,4.1-0.2c0.4,0.3,0.8,0.7,1.3,1.2c-0.2-1.7-0.3-3.2-0.3-4.8c0-1,0.2-2,0.4-2.9c0.6-1.9,1.9-2.3,3.5-1.2
		c0.4,0.3,0.7,0.6,1,0.8c0.3,0.3,0.7,0.5,0.8,1s0.7,0.8,0.7,1.3c0.4,0.2,0.5,0.6,0.5,1c0.1-0.6,0.1-1.1,0.4-1.6l0,0
		c0.2-0.7,0-1.5,0.4-2.1c0.4-1.2,0.6-2.5,1.1-3.6c0.1-0.2,0.2-0.4,0.3-0.6c0.5-0.9,1.1-1.9,2.4-1.9s2.1,0.9,2.7,2
		c0.8,1.5,1,3.1,1.1,4.8c0.2,2.8-0.1,5.6-0.5,8.4c0,0.3-0.1,0.7-0.1,1.3c1.1-1.5,1.9-2.9,3.1-4c0.7-0.7,1.4-1.4,2.3-1.8
		c1.2-0.6,2.3-0.3,2.8,0.9c1.1,2.4,0.9,4.8,0.1,7.1c-0.7,1.9-1.6,3.6-2.5,5.3c-0.5,1-0.5,0.9,0.5,1.1"/>
	<path class="st3" d="M532.5,60.1c0.8-4.2,1.4-8.5,1.6-12.8"/>
	<path class="st4" d="M539,61.5c0.8-1.5,1.7-3,2.2-4.7"/>
	<path class="st3" d="M526.4,54.6c-0.3-1.5-0.7-3-1-4.5"/>
</g>
<g>
	<path class="st2" d="M290.1,65.8c-0.4,0-0.7-0.2-1-0.7c-1.4-2.8-2.8-5.6-3.3-8.8c-0.1-0.6-0.1-1.2-0.1-1.8s0.1-1.1,0.7-1.4
		c0.5-0.2,1.1,0,1.5,0.4c1.4,1.3,2.7,2.7,3.6,4.4c1,1.8,1.8,3.6,2.4,5.5c0.2,0.5,0.4,1,1.1,0.8s0.5-0.8,0.4-1.3
		c-0.7-4.3-1.5-8.6-1.4-13c0.1-2,0.1-4.1,0.9-6c0.2-0.5,0.4-1.2,1.1-1.2c0.7-0.1,0.9,0.6,1.2,1c1.3,2.1,1.6,4.5,1.8,6.8
		c0.3,3.4,0.4,6.8,0.6,10.2c0,0.5,0.1,1,0.8,1c0.7,0,0.8-0.5,0.8-1.1c0.1-2.8,0.1-5.6,0.8-8.3c0.4-1.6,1.2-2.9,2.3-4.1
		c0.3-0.3,0.6-0.6,1.1-0.5s0.5,0.6,0.6,1c0.6,3.2,0.3,6.3-0.7,9.3c-0.4,1-0.7,2-1.1,3c-0.1,0.4-0.3,1,0.3,1.3
		c0.6,0.2,0.9-0.2,1.1-0.7c0.9-1.6,1.9-3.2,3.1-4.7c0.3-0.4,0.6-0.7,0.9-1.1c1.2-1.1,1.9-1,2.5,0.6c0.7,1.7,0.6,3.5,0.8,5.2
		c0,0.4,0.1,0.8,0.1,1.1c0.1,0.4,0.2,0.8,0.7,0.8c0.5,0.1,0.7-0.3,0.9-0.6c0.2-0.4,0.3-0.8,0.5-1.1c1-2,2.1-4,4.1-5.2
		c0.1-0.6-0.7-0.8-0.7-1.3c-1.5,0.7-2.4,2.1-3.3,3.4c-0.2,0.3-0.4,0.7-0.8,1.2c-0.2-1.1-0.3-2-0.4-2.8s-0.4-1.7-1-2.4
		c-1.1-1.5-2.6-1.6-4.1-0.2c-0.4,0.3-0.8,0.7-1.3,1.2c0.2-1.7,0.3-3.2,0.3-4.8c0-1-0.2-2-0.4-2.9c-0.6-1.9-1.9-2.3-3.5-1.2
		c-0.4,0.3-0.7,0.6-1,0.8c-0.3,0.3-0.7,0.5-0.8,1c-0.1,0.5-0.7,0.8-0.7,1.3c-0.4,0.2-0.5,0.6-0.5,1c-0.1-0.6-0.1-1.1-0.4-1.6l0,0
		c-0.2-0.7,0-1.5-0.4-2.1c-0.4-1.2-0.6-2.5-1.1-3.6c-0.1-0.2-0.2-0.4-0.3-0.6c-0.5-0.9-1.1-1.9-2.4-1.9s-2.1,0.9-2.7,2
		c-0.8,1.5-1,3.1-1.1,4.8c-0.2,2.8,0.1,5.6,0.5,8.4c0,0.3,0.1,0.7,0.1,1.3c-1.1-1.5-1.9-2.9-3.1-4c-0.7-0.7-1.4-1.4-2.3-1.8
		c-1.2-0.6-2.3-0.3-2.8,0.9c-1.1,2.4-0.9,4.8-0.1,7.1c0.7,1.9,1.6,3.6,2.5,5.3c0.5,1,0.5,0.9-0.5,1.1"/>
	<path class="st3" d="M297.9,62c-0.8-4.2-1.4-8.5-1.6-12.8"/>
	<path class="st4" d="M291.4,63.4c-0.8-1.5-1.7-3-2.2-4.7"/>
	<path class="st3" d="M304,56.5c0.3-1.5,0.7-3,1-4.5"/>
</g>
<g>
	<path class="st2" d="M151.1,38.8c-0.4,0-0.7-0.2-1-0.7c-1.4-2.8-2.8-5.6-3.3-8.8c-0.1-0.6-0.1-1.2-0.1-1.8s0.1-1.1,0.7-1.4
		c0.5-0.2,1.1,0,1.5,0.4c1.4,1.3,2.7,2.7,3.6,4.4c1,1.8,1.8,3.6,2.4,5.5c0.2,0.5,0.4,1,1.1,0.8s0.5-0.8,0.4-1.3
		c-0.7-4.3-1.5-8.6-1.4-13c0.1-2,0.1-4.1,0.9-6c0.2-0.5,0.4-1.2,1.1-1.2c0.7-0.1,0.9,0.6,1.2,1c1.3,2.1,1.6,4.5,1.8,6.8
		c0.3,3.4,0.4,6.8,0.6,10.2c0,0.5,0.1,1,0.8,1s0.8-0.5,0.8-1.1c0.1-2.8,0.1-5.6,0.8-8.3c0.4-1.6,1.2-2.9,2.3-4.1
		c0.3-0.3,0.6-0.6,1.1-0.5s0.5,0.6,0.6,1c0.6,3.2,0.3,6.3-0.7,9.3c-0.4,1-0.7,2-1.1,3c-0.1,0.4-0.3,1,0.3,1.3
		c0.6,0.2,0.9-0.2,1.1-0.7c0.9-1.6,1.9-3.2,3.1-4.7c0.3-0.4,0.6-0.7,0.9-1.1c1.2-1.1,1.9-1,2.5,0.6c0.7,1.7,0.6,3.5,0.8,5.2
		c0,0.4,0.1,0.8,0.1,1.1c0.1,0.4,0.2,0.8,0.7,0.8c0.5,0.1,0.7-0.3,0.9-0.6c0.2-0.4,0.3-0.8,0.5-1.1c1-2,2.1-4,4.1-5.2
		c0.1-0.6-0.7-0.8-0.7-1.3c-1.5,0.7-2.4,2.1-3.3,3.4c-0.2,0.3-0.4,0.7-0.8,1.2c-0.2-1.1-0.3-2-0.4-2.8s-0.4-1.7-1-2.4
		c-1.1-1.5-2.6-1.6-4.1-0.2c-0.4,0.3-0.8,0.7-1.3,1.2c0.2-1.7,0.3-3.2,0.3-4.8c0-1-0.2-2-0.4-2.9c-0.6-1.9-1.9-2.3-3.5-1.2
		c-0.4,0.3-0.7,0.6-1,0.8c-0.3,0.3-0.7,0.5-0.8,1s-0.7,0.8-0.7,1.3c-0.4,0.2-0.5,0.6-0.5,1c-0.1-0.6-0.1-1.1-0.4-1.6l0,0
		c-0.2-0.7,0-1.5-0.4-2.1c-0.4-1.2-0.6-2.5-1.1-3.6c-0.1-0.2-0.2-0.4-0.3-0.6c-0.5-0.9-1.1-1.9-2.4-1.9s-2.1,0.9-2.7,2
		c-0.8,1.5-1,3.1-1.1,4.8c-0.2,2.8,0.1,5.6,0.5,8.4c0,0.3,0.1,0.7,0.1,1.3c-1.1-1.5-1.9-2.9-3.1-4c-0.7-0.7-1.4-1.4-2.3-1.8
		c-1.2-0.6-2.3-0.3-2.8,0.9c-1.1,2.4-0.9,4.8-0.1,7.1c0.7,1.9,1.6,3.6,2.5,5.3c0.5,1,0.5,0.9-0.5,1.1"/>
	<path class="st3" d="M158.9,35c-0.8-4.2-1.4-8.5-1.6-12.8"/>
	<path class="st4" d="M152.4,36.4c-0.8-1.5-1.7-3-2.2-4.7"/>
	<path class="st3" d="M165,29.5c0.3-1.5,0.7-3,1-4.5"/>
</g>
<g>
	<path class="st2" d="M409.1,38.8c-0.4,0-0.7-0.2-1-0.7c-1.4-2.8-2.8-5.6-3.3-8.8c-0.1-0.6-0.1-1.2-0.1-1.8s0.1-1.1,0.7-1.4
		c0.5-0.2,1.1,0,1.5,0.4c1.4,1.3,2.7,2.7,3.6,4.4c1,1.8,1.8,3.6,2.4,5.5c0.2,0.5,0.4,1,1.1,0.8s0.5-0.8,0.4-1.3
		c-0.7-4.3-1.5-8.6-1.4-13c0.1-2,0.1-4.1,0.9-6c0.2-0.5,0.4-1.2,1.1-1.2c0.7-0.1,0.9,0.6,1.2,1c1.3,2.1,1.6,4.5,1.8,6.8
		c0.3,3.4,0.4,6.8,0.6,10.2c0,0.5,0.1,1,0.8,1c0.7,0,0.8-0.5,0.8-1.1c0.1-2.8,0.1-5.6,0.8-8.3c0.4-1.6,1.2-2.9,2.3-4.1
		c0.3-0.3,0.6-0.6,1.1-0.5s0.5,0.6,0.6,1c0.6,3.2,0.3,6.3-0.7,9.3c-0.4,1-0.7,2-1.1,3c-0.1,0.4-0.3,1,0.3,1.3
		c0.6,0.2,0.9-0.2,1.1-0.7c0.9-1.6,1.9-3.2,3.1-4.7c0.3-0.4,0.6-0.7,0.9-1.1c1.2-1.1,1.9-1,2.5,0.6c0.7,1.7,0.6,3.5,0.8,5.2
		c0,0.4,0.1,0.8,0.1,1.1c0.1,0.4,0.2,0.8,0.7,0.8c0.5,0.1,0.7-0.3,0.9-0.6c0.2-0.4,0.3-0.8,0.5-1.1c1-2,2.1-4,4.1-5.2
		c0.1-0.6-0.7-0.8-0.7-1.3c-1.5,0.7-2.4,2.1-3.3,3.4c-0.2,0.3-0.4,0.7-0.8,1.2c-0.2-1.1-0.3-2-0.4-2.8s-0.4-1.7-1-2.4
		c-1.1-1.5-2.6-1.6-4.1-0.2c-0.4,0.3-0.8,0.7-1.3,1.2c0.2-1.7,0.3-3.2,0.3-4.8c0-1-0.2-2-0.4-2.9c-0.6-1.9-1.9-2.3-3.5-1.2
		c-0.4,0.3-0.7,0.6-1,0.8c-0.3,0.3-0.7,0.5-0.8,1c-0.1,0.5-0.7,0.8-0.7,1.3c-0.4,0.2-0.5,0.6-0.5,1c-0.1-0.6-0.1-1.1-0.4-1.6l0,0
		c-0.2-0.7,0-1.5-0.4-2.1c-0.4-1.2-0.6-2.5-1.1-3.6c-0.1-0.2-0.2-0.4-0.3-0.6c-0.5-0.9-1.1-1.9-2.4-1.9s-2.1,0.9-2.7,2
		c-0.8,1.5-1,3.1-1.1,4.8c-0.2,2.8,0.1,5.6,0.5,8.4c0,0.3,0.1,0.7,0.1,1.3c-1.1-1.5-1.9-2.9-3.1-4c-0.7-0.7-1.4-1.4-2.3-1.8
		c-1.2-0.6-2.3-0.3-2.8,0.9c-1.1,2.4-0.9,4.8-0.1,7.1c0.7,1.9,1.6,3.6,2.5,5.3c0.5,1,0.5,0.9-0.5,1.1"/>
	<path class="st3" d="M416.9,35c-0.8-4.2-1.4-8.5-1.6-12.8"/>
	<path class="st4" d="M410.4,36.4c-0.8-1.5-1.7-3-2.2-4.7"/>
	<path class="st3" d="M423,29.5c0.3-1.5,0.7-3,1-4.5"/>
</g>
<path class="st11" d="M40.1,21.1c0.1,3.4-1.3,6.1-3.4,8.6c-1.1,1.4-2.4,2.5-3.9,3.5c-0.4,0.3-0.8,0.6-1.2,0.1
	c-0.4-0.6-0.1-0.9,0.4-1.3c2.6-1.9,4.8-4.2,6-7.3c1-2.8,1-5.5-0.4-8.2c-0.6-1-1.1-1.3-2.3-0.9c-1.1,0.4-2,1.1-2.8,2
	c-2.2,2.7-3.9,5.6-3.9,9.2c0,0.4-0.1,0.7-0.5,0.9s-0.7-0.1-1-0.3c-0.7-0.7-1.3-1.5-2.2-2c-0.5-0.3-1.2-0.7-1.7-0.4
	c-0.5,0.4-0.1,1.1,0.1,1.7c0.5,1.3,1.4,2.2,2.4,3.1c0.1,0.1,0.2,0.1,0.2,0.2c0.4,0.4,1.2,0.8,0.7,1.5c-0.6,0.8-1.1,0-1.6-0.3
	c-1.8-1.5-3.3-3.1-3.5-5.6c-0.2-2,0.2-2.2,2.2-2.1c1.1,0,2,0.6,2.8,1.3c0.5,0.4,0.6,0.2,0.7-0.3c0.6-3.2,2.2-5.8,4.4-8.1
	c0.9-1,1.9-1.8,3.3-2.2c1.5-0.4,2.8,0,3.6,1.3C39.7,17.1,40.1,19.1,40.1,21.1z"/>
<path class="st12" d="M35.4,20.4c-0.1,2.7-0.8,5.2-2.3,7.4"/>
<path class="st11" d="M230.3,12.5c-0.1,3.4,1.3,6.1,3.4,8.6c1.1,1.4,2.4,2.5,3.9,3.5c0.4,0.3,0.8,0.6,1.2,0.1
	c0.4-0.6,0.1-0.9-0.4-1.3c-2.6-1.9-4.8-4.2-6-7.3c-1-2.8-1-5.5,0.4-8.2c0.6-1,1.1-1.3,2.3-0.9c1.1,0.4,2,1.1,2.8,2
	c2.2,2.7,3.9,5.6,3.9,9.2c0,0.4,0.1,0.7,0.5,0.9s0.7-0.1,1-0.3c0.7-0.7,1.3-1.5,2.2-2c0.5-0.3,1.2-0.7,1.7-0.4
	c0.5,0.4,0.1,1.1-0.1,1.7c-0.5,1.3-1.4,2.2-2.4,3.1c-0.1,0.1-0.2,0.1-0.2,0.2c-0.4,0.4-1.2,0.8-0.7,1.5c0.6,0.8,1.1,0,1.6-0.3
	c1.8-1.5,3.3-3.1,3.5-5.6c0.2-2-0.2-2.2-2.2-2.1c-1.1,0-2,0.6-2.8,1.3c-0.5,0.4-0.6,0.2-0.7-0.3c-0.6-3.2-2.2-5.8-4.4-8.1
	c-0.9-1-1.9-1.8-3.3-2.2c-1.5-0.4-2.8,0-3.6,1.3C230.7,8.5,230.3,10.5,230.3,12.5z"/>
<path class="st11" d="M536.9,19.5c-0.1,3.4,1.3,6.1,3.4,8.6c1.1,1.4,2.4,2.5,3.9,3.5c0.4,0.3,0.8,0.6,1.2,0.1
	c0.4-0.6,0.1-0.9-0.4-1.3c-2.6-1.9-4.8-4.2-6-7.3c-1-2.8-1-5.5,0.4-8.2c0.6-1,1.1-1.3,2.3-0.9c1.1,0.4,2,1.1,2.8,2
	c2.2,2.7,3.9,5.6,3.9,9.2c0,0.4,0.1,0.7,0.5,0.9s0.7-0.1,1-0.3c0.7-0.7,1.3-1.5,2.2-2c0.5-0.3,1.2-0.7,1.7-0.4
	c0.5,0.4,0.1,1.1-0.1,1.7c-0.5,1.3-1.4,2.2-2.4,3.1c-0.1,0.1-0.2,0.1-0.2,0.2c-0.4,0.4-1.2,0.8-0.7,1.5c0.6,0.8,1.1,0,1.6-0.3
	c1.8-1.5,3.3-3.1,3.5-5.6c0.2-2-0.2-2.2-2.2-2.1c-1.1,0-2,0.6-2.8,1.3c-0.5,0.4-0.6,0.2-0.7-0.3c-0.6-3.2-2.2-5.8-4.4-8.1
	c-0.9-1-1.9-1.8-3.3-2.2c-1.5-0.4-2.8,0-3.6,1.3C537.3,15.5,536.9,17.5,536.9,19.5z"/>
<path class="st12" d="M541.6,18.8c0.1,2.7,0.8,5.2,2.3,7.4"/>
</svg>
