<?xml version="1.0" encoding="utf-8"?>
<!-- Generator: Adobe Illustrator 27.8.1, SVG Export Plug-In . SVG Version: 6.00 Build 0)  -->
<svg version="1.1" id="Layer_1" xmlns="http://www.w3.org/2000/svg" xmlns:xlink="http://www.w3.org/1999/xlink" x="0px" y="0px"
	 viewBox="0 0 385 291" style="enable-background:new 0 0 385 291;" xml:space="preserve">
<style type="text/css">
	.st0{fill:#FEFEFE;}
	.st1{fill:#020102;}
	.st2{fill:#CECECE;}
	.st3{fill:#BA0000;}
	.st4{fill:#9B0000;}
	.st5{fill:#B7753E;}
	.st6{fill:#985315;}
	.st7{fill:#EF7B7B;}
	.st8{fill:#F97A7A;}
	.st9{fill:#BC0202;}
	.st10{fill:#990000;}
	.st11{fill:#030306;}
	.st12{fill:#030407;}
	.st13{fill:#040508;}
	.st14{fill:#040408;}
	.st15{fill:#040509;}
	.st16{fill:#03070D;}
	.st17{fill:#040B11;}
	.st18{fill:#030910;}
	.st19{fill:#030911;}
	.st20{fill:#020A12;}
	.st21{fill:#061523;}
	.st22{fill:#070404;}
	.st23{fill:#0D0705;}
	.st24{fill:#0B0604;}
	.st25{fill:#0C0804;}
	.st26{fill:#090504;}
	.st27{fill:#B07B28;}
	.st28{fill:#0C0704;}
	.st29{fill:#B07B29;}
	.st30{fill:#04070C;}
	.st31{fill:#04060A;}
	.st32{fill:#040910;}
	.st33{fill:#040911;}
	.st34{fill:#342647;}
	.st35{fill:#322545;}
	.st36{fill:#A17226;}
	.st37{fill:#AA7926;}
	.st38{fill:#A87726;}
	.st39{fill:#A77427;}
</style>
<g>
	<path class="st0" d="M49.1,218.6c0-48.1,0-96.3-0.1-144.4c0-2.6,0.5-3.1,3.1-3.1c46.7,0.1,93.4,0.1,140.2,0.1
		c0.1,1.5-1.2,1.6-2.1,2c-1.2,0.6-2.5,0.9-3.5,1.8c-2.5,2.1-5.1,2.4-8.4,1.8c-7.1-1.3-11.9,1.6-14.9,8.4c-1.9,4.4-2.1,9.1-1.8,13.8
		c0.2,2.9-0.8,4.3-3.7,4.2c-3-0.1-6,0-8.9,1.1c-1.5,0.6-2.5,0-3.3-1.3c-2.5-3.9-6.3-2.6-9.8-2.4c-3,0.1-4.3,2.3-4.9,4.9
		c-0.6,2.6-1.9,3.9-4.9,3c-2.3-0.7-4.7-0.6-7.1-1.1c-4.3-0.9-7.5,1.6-7.9,6c-0.2,2.3-1,3.9-3.3,4.5c-1.4,0.4-2.8,1-3.6,2.3
		c-1.8,3.1-4.8,3.7-8,3.9c-3.4,0.3-6.6,1.3-9.7,2.6c-1.7,0.7-2.9,1.9-2.6,3.8c1.9,12.8-1.6,24.7-5.2,36.7c-1.5,4.9-2.9,9.9-3.8,15
		c-0.5,2.8-1.8,4.6-4.6,5.3c-4.5,1.1-8.2,3.8-12.2,6c-1.6,0.9-2.3,2.3-2.5,4.1c-0.7,6.4-2.7,12.4-4.4,18.5
		C51.1,217.1,50.9,218.6,49.1,218.6z"/>
	<path class="st0" d="M200.2,71.1c45.3,0,90.7,0,136-0.1c2.5,0,3,0.5,2.9,2.9c-0.1,43.2-0.1,86.3-0.1,129.5c-0.4,0.2-0.8,0.2-1-0.2
		c-0.6-6.5-4.8-7.9-10.5-8.5c-11.1-1.3-11.2-1.6-12.6-12.6c-1.9-14-3.3-28.1-6.2-41.9c-0.7-3.5-1.7-7-2.6-10.5
		c-0.7-2.9-2.5-4.4-5.3-5.3c-4.8-1.5-9.8-2.2-14.5-4c-1.7-0.6-3.6-1-4.8-2.3c-2.8-2.8-6.2-3.4-9.9-3c-4.2,0.4-7.4-0.9-10-4.3
		c-1.7-2.3-4.2-3.6-7.2-3.4c-2.1,0.2-2.9-1-3.5-2.7c-2.6-6.9-3.5-7.5-10.7-7.6c-3,0-6,0-9,0c-2.5,0-3.8-1.2-3.8-3.8
		c0-0.6,0-1.2,0-1.8c-0.1-6.5-1.8-8.6-8.1-10.3c-2.9-0.8-5.9-0.9-8.9-0.4c-2.7,0.5-4.5-0.4-5.4-2.9
		C203.8,75.4,201.1,73.8,200.2,71.1z"/>
	<path class="st1" d="M200.2,71.1c3.1,1.4,4.6,4.3,5.7,7.2c0.8,2,1.7,2.3,3.8,1.9c5.3-1.1,10.5-0.3,15.2,2.5
		c2.4,1.5,3.6,3.3,3.5,6.4c-0.3,7-0.1,7,7.1,7c2,0,4.1,0.1,6.1,0.1c6.3-0.1,8.3,1.6,10.1,8.7c0.4,1.6,0.4,2.2,2.3,1.7
		c3.8-0.9,6.6,1.1,8.6,4c2.1,3,4.6,4.1,8.1,3.8c4-0.4,7.7,0,11.1,3.1c3.6,3.2,8.7,3.9,13.4,4.6c7.9,1,11.7,4.9,13.3,13
		c3.3,16.3,5.4,32.8,7.4,49.3c0.9,7.6,1.2,8,9,9.2c2.6,0.4,5.2,0.9,7.8,1.1c3.3,0.3,5.4,1.6,5.2,5.2c0,1.2,0.3,2.4,0.4,3.6
		c0.5,4.2,0.1,8.5,0.3,12.8c0.1,1.3-0.4,2.6,0.4,3.8c0,1.9,0,3.8,0,5.8c-2.6,2.7-6,3.9-9.3,5.2c-13.3,5.6-27.3,8.3-41.5,10.1
		c-23.1,3-46.1,5.9-69.2,8.5c-5.7,0.7-11.5,0.7-17.2,0.9c-1.3,0.1-2.6-0.4-3.9,0.4c-13.2,0-26.4,0-39.6,0
		c-7.2-1.2-14.5-1.2-21.6-2.6c-0.2,0-0.5,0-0.7-0.1c-19.4-4.8-39-8.8-58.4-13.4c-8-1.9-15.7-5.2-23.3-8.4c-2-0.8-3.9-1.9-5.3-3.6
		c0-1.4,0-2.9,0-4.3c2.7-5.1,4.6-10.8,4.7-16.2c0.3-11.4,9.1-12.9,16.6-16c2.1-0.9,3.3-1.4,3.7-3.9c1.4-9.8,5.1-18.9,7.4-28.5
		c1.9-8,2.9-16,1.5-24.2c-0.3-1.9,0.3-2.8,2-3.6c4.5-2.2,9.2-3.4,14.1-3.7c1.6-0.1,2.9,0,3.5-2.1c0.7-2.3,3-3.5,5.3-3.8
		c2.2-0.2,2.7-1,2.6-3.1c-0.3-5.5,4.3-8.8,9.8-7c2.7,0.9,5.9-0.7,8.2,1.9c0.4,0.5,0.7-0.3,0.9-0.7c0.2-0.4,0.3-0.9,0.5-1.4
		c2.2-6.7,5.9-8.7,13-7.1c2.4,0.5,3.1,1.3,4.6,4.5c3.6-1.7,7.4-1.9,11.2-1.7c1.8,0.1,2.4-0.2,2.2-2.3c-0.7-5.7-0.3-11.2,2.4-16.5
		c3.2-6.4,9.2-9.3,16.1-7.5c2.3,0.6,4,0.4,5.9-1c2.2-1.5,4.7-2.5,7.1-3.6C194.9,71.1,197.6,71.1,200.2,71.1z"/>
	<path class="st0" d="M198,250.9c3.6-1.4,7.4-0.9,11.1-1.4c33.1-3.9,66.4-6.9,99.3-13.1c10.7-2,20.8-6,30.6-10.8
		c0,7.6-0.1,15.1,0.1,22.7c0,2.2-0.4,2.6-2.6,2.6C290.4,250.9,244.2,250.9,198,250.9z"/>
	<path class="st0" d="M49.1,222.9c10.1,4.9,20.6,9,31.4,11.6c19.4,4.7,38.9,8.9,58.5,13.1c5.7,1.2,11.6,1.6,17.4,2.4
		c0.7,0.1,1.8-0.3,2.1,0.9c-36.5,0-72.9,0-109.4,0C49.1,241.6,49.1,232.2,49.1,222.9z"/>
	<path class="st2" d="M339.1,220c-1.5-2.2-0.6-4.7-0.7-7.1c-0.1-3.2,0-6.3,0.1-9.5c0.2-0.1,0.4-0.1,0.6,0
		C339.1,209,339.1,214.5,339.1,220z"/>
	<path class="st3" d="M239,212.8c-17.6,2.3-35.2,5.1-53.1,4.9c-11.4-0.1-22.5-2.7-33.7-4.2c-13.8-1.9-27.5-4.3-41.1-7.7
		c0.5-4.1,1.2-8.1,2.9-11.8c4.6-10.5,5.6-21.7,6.8-32.9c0.5-4.9,0.8-9.8,0.7-14.7c0-1.2,0.1-2.4,1.1-3.3c14.4,2.1,28.9,3.9,43.5,4.5
		c16.6,0.8,33.3,0.7,49.9,0c14.2-0.6,28.4-2.5,42.5-4c0.9,4-0.9,7.7-1.3,11.6c-0.7,7.6-1,15.3-2.1,22.8
		c-1.7,12.4-7.3,23.2-14.5,33.2C240.2,211.9,239.6,212.3,239,212.8z"/>
	<path class="st4" d="M239,212.8c1.7-3.9,4.4-7.3,6.6-10.9c5.9-10.2,8.8-21.1,9.4-32.8c0.5-8.5,0.9-17.1,3.5-25.3
		c9-1.9,18.1-3.2,26.9-5.6c4.1-1.1,8.4-2.1,12.4-3.6c2.9-1,4.2,0.1,5.4,2.3c1.3,2.4,1.7,5.1,1.7,7.6c0.2,9,3.1,17.4,4.8,26
		c1.4,7.4,3,14.7,4.7,22.1c0.5,2.4-0.2,3.7-2.5,4.7c-12.3,5.6-25.2,8.9-38.5,11.2C262.1,210.4,250.6,212.1,239,212.8z"/>
	<path class="st5" d="M123.9,133.7c-5.4-0.6-10.5-2.2-15.7-3.5c-0.6-0.1-1.6-0.4-1.4-0.8c1.3-2.6-0.8-4.7-0.8-7.1
		c0-3.2,2.9-2.4,4.6-2.8c4.3-0.8,4.3-0.6,3.2-5c-0.9-3.4,0.2-4.9,3.7-5.2c3.3-0.3,6.3,1,9.4,2c4.3,1.4,6.3,0.4,6.3-4.1
		c0-3.7,2.3-4.3,4.7-5c2.7-0.8,4.5,0.8,5.7,3.1c2.6,4.8,3.5,5,7.7,1.5c2-1.7,4.2-2.1,6.7-1.6c1.4,0.3,2.8,0.8,4.2,1
		c3,0.4,3.8-0.6,2.8-3.4c-2.7-7.2-2.2-13.9,2.8-20c3.9-4.7,9.2-5.8,14.5-2.9c2.4,1.3,3.1,0.9,4.3-1.4c2.4-4.4,11.1-5.3,14.8-2
		c1.5,1.4,1.6,3.2,1.4,5c-0.4,3.1,1,3.8,3.7,3.5c2.3-0.3,4.5-0.4,6.8-0.7c2-0.2,4-0.4,6.1,0.2c3.1,0.9,5.2,2.5,4.7,6.1
		c-0.1,0.5,0,1,0,1.4c0,8,0.9,8.8,9.2,8.6c3.2-0.1,6.4-0.9,9.7-0.3c4.9,0.9,5.8,2.5,4,7.2c-1.3,3.3-0.8,4.5,2.5,3.7
		c6.3-1.4,10.4,0.4,13.3,5.9c0.6,1.1,1.5,1.2,2.8,0.9c1.9-0.4,3.8-0.6,5.7-0.8c5.5-0.5,7.8,1.1,9.5,6.3c0.7,2.2,0.3,3.5-2.2,3.6
		c-1.8,0.8-2.9-0.2-4-1.4c-4.3-5.2-9.9-5.8-15.9-4.1c-2.4,0.7-3.9,0.7-4.7-1.9c-0.7-2.2-2.3-3.3-4.6-3.2c-2.8,0.2-4.8-0.9-6.4-3.1
		c-1.3-1.7-3-3.1-4.9-4.1c-3.5-1.8-4.4-1.7-6.9,1.5c-1.5,1-3.4,1-4.9,2.1c1.2-0.3,2.4-0.4,3.6-0.4c5.9-0.2,6.4,0.2,7.2,6.1
		c0.2,1.7,1,2.4,2.6,2.8c3.1,0.7,6.5,0.3,9.5,1.7c1.6,1,2.8,2.2,3.5,4c1,2.5,0.2,3.7-2.5,3.5c-1.2-0.1-2.4-0.4-3.5-0.8
		c-6.6-1.9-13.2-2.5-19.8-0.4c-2.4,0.8-3.7,0-4.1-2.4c-1.3-6.1-5.3-9.4-11.2-10.7c-0.5-0.1-0.9-0.2-1.4-0.4c-0.9-0.3-1.9-0.7-2-1.8
		c-0.1-1.3,1.1-1.4,1.9-1.8c1.7-0.6,3.4-1,5.3-1.1c2.5-0.2,3-1.3,1.7-3.4c-0.7-1.2-1.8-1.9-3.1-2.3c-4.5-1.4-9.9,0.2-12.9,4
		c-1.3,1.7-2.8,2.1-4.7,1.7c-1.6-0.3-3.3-0.8-5-0.9c-3.8-0.1-7.6,0.2-9.7,4c-1.2,2.2-2.5,2.3-4.6,1.2c-4.7-2.5-9.6-3.4-15.4-1.4
		c1.9,1.4,3.6,2.1,5.3,2.9c5.9,2.9,7.8,8.1,8.1,14.2c0.1,2.6-1,3.3-3.4,2.3c-2.3-1-4.7-1.8-7.2-2.3c-2.7-0.4-5.3-0.3-7.5,1.5
		c-2,1.6-3.8,1.8-5.5-0.5c-2-2.6-4.9-2.8-7.8-2.6c-1.7,0.1-3.2,0-3.3-2.2c0.8-4.5,3-6,7.6-5c4.9,1.1,9.7,2.4,14.8,0.7
		c2.4-0.8,3.6,1.2,4.8,3.5c0.1-3.5-1.6-4.4-4-4.8c-1.7-0.2-3.4-0.1-4.9,0.6c-3.7,1.8-6.7,0.8-9.2-2.3c-0.9-1.9-2.3-3.3-4.4-3.9
		c-2.9-0.8-5,0.2-6.4,3.5c-0.9,2.1-2,2.4-3.9,1.5c-1.5-0.7-3-1.4-4.6-2c-2.3-0.8-3.7-0.1-4.4,2.2c-1,2.8-1.7,5.7-1.4,8.8
		C124.4,131.4,124.9,132.6,123.9,133.7z"/>
	<path class="st3" d="M100.8,215.8c16.5,3.7,33.1,6.6,49.9,8.1c25.7,2.2,51.3,3,77.1,0.7c9.8-0.9,19.6-1.6,29.3-2.5
		c1.2,3.5-1.1,6.2-2.1,9.1c-1.3,3.7-3.7,6.9-5.8,10.2c-7.6,1.7-15.4,2.1-23.1,2.9c-17.9,1.7-35.8,2.7-53.8,2.1
		c-14-0.5-28-0.9-41.7-4.2c-5.6-1.3-11.1-3-16.3-5.5c-4.9-2.4-10.3-3.1-15.6-3.9c-0.2-0.3-0.5-0.6-0.5-0.9
		C98.3,226.5,98.5,220.9,100.8,215.8z"/>
	<path class="st6" d="M123.9,133.7c-1.3-4.7-0.5-9.1,1.2-13.6c0.9-2.3,2.3-2.6,4.2-2c2,0.7,4,1.6,5.9,2.5c1.2,0.5,2.1,1.2,2.4-1
		c0.4-3.3,2.8-4.8,5.8-4.6c3,0.2,6,1,6.5,4.8c-0.9,1.3-2.4,1.2-3.6,1c-5.7-0.8-8.3,5.4-7,10.2c0.8-1.3-0.4-3.5,1.8-3.9
		c0,1.3,0.3,1.8,1.9,1.6c3.9-0.4,7.7-0.2,10,3.9c0.5,0.8,1.2,1.2,2.1,0.4c6.1-5.6,12.2-2.6,18.2,0.3c0.1,0,0.2,0,0.3,0
		c2.3-7.1-1.4-12.1-14-19c4.1-3.8,14.1-2.8,19.9,1.5c2.9-5.6,7.3-7.7,13.5-6.3c1.4,0.3,2.8,0.6,4.2,0.9c1.3,0.3,2.2,0,2.9-1.3
		c2.8-4.9,11.4-6.9,16.1-3.8c1.5,0.9,2.5,2.2,2.7,4c0.2,1.9,0.3,3.5-2.7,2.8c-2.6-0.6-5.1,0.9-7.9,1.6c1.7,1.6,3.6,1.4,5.2,1.9
		c5,1.7,8.9,4.5,9.9,10.2c0.4,2.4,0.9,3.4,4,2.4c6.2-2.1,12.7-1.4,19,0.5c1.9,0.6,4.8,1.9,5.6,0.8c1.3-1.9-1.1-3.7-2.5-5.3
		c-0.2-0.2-0.3-0.4-0.4-0.6c-1.8-1.9-4.2-2-6.6-1.9c-2.9,0.1-4.5-1-4.4-4.1c0.1-2.7-1.4-4.4-3.9-5.3c-1.1-0.4-2.3-0.6-3-1.7
		c0.9-3.6,2.3-4.3,5.6-2.9c3.1,1.2,5.7,3.2,7.5,5.8c1.3,1.9,2.7,2.4,4.8,2.2c3.3-0.3,5.6,0.8,6.1,4.4c0.2,1.5,1,1.8,2.5,1.2
		c7.4-2.9,13.2-1.4,18.3,4.8c0.8,1,1.7,1.2,2.8,1.2c-11,3.7-22.4,5.9-33.8,7.7c-23.2,3.7-46.6,5-70.1,4.3c-16.5-0.5-32.9-2-49.2-5
		C125,134.1,124.5,133.9,123.9,133.7z"/>
	<path class="st4" d="M249.1,241.5c0.4-4.1,3.9-6.8,5.1-10.6c0.9-2.9,2.3-5.7,2.9-8.8c13.3-2.2,26.7-4.3,39.7-7.8
		c10.9-2.9,21.7-5.9,32.1-10.2c3.3-1.4,4.2,0.1,4.3,2.8c0.1,4.6,0,9.1,0,13.7c0,1-0.3,1.8-1.4,2.2c-13.7,4.2-26.5,11.1-40.7,14
		c-2.6,0.5-5.2,1.2-7.8,1.1c-10.6-0.2-20.9,2.1-31.3,3.6C251,241.6,250,241.5,249.1,241.5z"/>
	<path class="st7" d="M122.5,143.1c0,13.9-1.1,27.7-4.2,41.3c-1.6,7-5.5,13.3-6.3,20.5c0,0.3-0.7,0.6-1,0.8
		c-6.5-1.8-13.1-3.6-19.6-5.3c-1-1.2-0.6-2.5-0.4-3.8c3.1-17.4,5.5-34.9,10.2-52c0.5-2,0.5-4.4,3-5.4
		C110.3,140.6,116.4,141.8,122.5,143.1z"/>
	<path class="st8" d="M291.5,213.4c-15.9,4.2-32.2,6.5-48.5,7.9c-25.9,2.2-51.9,3.1-77.9,1.5c-33.1-2.1-65.8-6.5-96.5-20.1
		c-2-0.9-3.9-2-5.9-2.7c-3.2-1.1-2.1-2.5-0.5-4c2.7-2.4,6.3-3.4,9.4-5.1c1.2-0.7,1.9,0.2,1.2,1.5c-1.5,2.8,0.2,4.1,2.2,5.5
		c3.8,2.5,8,4,12.3,4.7c10.3,1.7,20.3,4.5,30.1,8c7.2,2.5,14.6,3.8,22.2,3.8c10,0.1,19.7,2.4,29.5,4.2c14.3,2.5,28.7,1.7,43,0.6
		c18.5-1.4,36.9-4.1,55.3-6.3c1-0.1,1.9-1.1,3-0.8c6.1-0.5,12.1-0.4,18.2-0.2C289.9,211.8,291.2,211.8,291.5,213.4z"/>
	<path class="st8" d="M104.5,127.8c-0.9,1-3.1-0.8-3.2,1.2c-0.1,1.2,1.3,2.3,2.5,2.9c1.5,0.7,3.1,1.4,4.7,1.7
		c22.1,4.6,44.4,7.1,67,7.6c20.6,0.4,41.3,0.6,61.7-2.6c13-2,26.2-2.5,38.9-6.3c1.9-0.6,3.8-1.3,5.8-2c2.3-0.8,4.4-1.6,2.5-4.8
		c-0.7-1.1-0.1-2.1,1.5-1.8c4.8,1.1,9.4,2.6,13.4,5.9c-6.7,4.7-14.3,6.5-22,7.7c-15,2.4-30,4.9-45.1,6.9c-19.9,2.7-39.9,2.3-60,1.4
		c-23.4-1-46.4-5.2-69.4-9.2c-3.8-0.6-7.4-1.9-10.9-3.6c-1.9-0.9-2.4-1.8-0.4-3.2c3.1-2.2,6.6-3.4,10.4-3.4
		C103.1,126.3,104.3,126.2,104.5,127.8z"/>
	<path class="st9" d="M104.2,139.3c-3.1,7.2-4.5,14.8-5.9,22.4c-2.5,12.9-4.6,25.8-6.9,38.8c-4.5-1.3-8.9-2.6-13.4-3.8
		c-2.2-0.6-2.4-1.5-1.9-3.6c2.2-10.7,6.4-20.8,9.2-31.3c2.1-7.9,3.6-15.8,3.5-24c0-2.2,0.4-3,2.8-2.2
		C95.7,137,100,138.1,104.2,139.3z"/>
	<path class="st7" d="M100.8,215.8c-0.7,5.7-1.5,11.4-2.2,17.1c-9.8,0.3-19-2.2-27.4-7.1c-0.2-0.4-0.4-0.9-0.2-1.4
		c2.6-5,4.9-10.1,7.6-15C86,211.5,93.4,213.7,100.8,215.8z"/>
	<path class="st9" d="M78.6,209.4c-1,6.2-5,10.9-7.5,16.4c-4.8-1.8-9.2-4.5-14.4-5.2c-1.5-0.2-1.4-1.3-1.3-2.4
		c0.2-2.5,1.2-4.9,2-7.2c1-3,1.8-6.1,1.9-9.6C65.7,204.7,72.2,206.8,78.6,209.4z"/>
	<path class="st10" d="M291.5,213.4c-2.3-1.2-4.8-0.5-7.3-0.6c-4.6-0.2-9.2,0.2-13.7-0.8c10.3-2.7,20.7-4.8,30.8-8.5
		c3.4-1.2,7-2,10-3.9c5.6-3.4,11.3-1.9,17-1.6c0.6,0,1.3,0.4,2.6,0.9C318.1,205.7,305,210.2,291.5,213.4z"/>
	<path class="st11" d="M182.1,199.1c0.1-4,1.8-7,4.4-9.4c2.5-2.3,5.4-4,7.4-6.8c0.7-1,1.5-0.8,2.5-0.5c5.7,1.8,10.2,5.1,13,10.5
		c1.4,2.7,1.4,5.5-0.1,8.2c-1.4,2.4-2.8,4.3-6.1,2.4c-2.7-1.5-5.8-1.1-8.8-0.5c-2.9,0.5-5.9,1.3-8.8,0.3
		C183.4,202.7,181.5,201.6,182.1,199.1z"/>
	<path class="st12" d="M192.9,172.7c-0.3,1.9,0.2,5-3.4,5.6c-3.4,0.6-5-1.8-6.2-4.4c-1.1-2.5-1.5-5.1-0.3-7.7c0.9-2,2.4-3.1,4.8-3.2
		c2.3-0.1,3.1,1.3,3.9,3C192.5,168,193,170,192.9,172.7z"/>
	<path class="st13" d="M220.3,178.1c0.2,6.4-7.3,11.3-13,8.4c-1.8-0.9-2.6-1.9-1.3-3.9c2-3,3.9-6.1,7.5-7.4
		C216.7,174,220.2,175.5,220.3,178.1z"/>
	<path class="st14" d="M196.6,172.3c0.1-2.4,0.9-5.3,2.5-8.1c1.4-2.4,3.2-2.5,5-1c2.7,2.2,3.3,5.1,2.6,8.4c-0.8,3.5-2.5,6.2-6.3,7
		C197.7,179.3,196.6,177.6,196.6,172.3z"/>
	<path class="st15" d="M178.5,189.1c-3.6-0.1-7.7-4.5-7.6-8.3c0-2.6,2.3-5.4,4.4-5.3c3.2,0,9.2,5.8,9.1,8.7
		C184.2,186.5,181.1,189.2,178.5,189.1z"/>
	<path class="st16" d="M285,195.5c3.8-3.3,7.7-5.2,12-6.4c0.8-0.2,1.8-0.4,2.3,0.4c0.5,0.7,0.3,1.7-0.2,2.4
		c-2.6,3.5-5.7,6.4-11.1,6.7c2.9-3.7,7.7-4,10.3-7.9C293.2,191.2,290.4,196,285,195.5z"/>
	<path class="st16" d="M293,150.2c-2.6,3.7-4,7.7-8.7,8.4C286.7,155.6,288.4,152,293,150.2z"/>
	<path class="st17" d="M287.1,163.6c-0.9-0.5-0.8-1.4-0.3-2.1c1.3-2,3.7-2.8,5-4.9c0.4-0.6,1,0.2,1.2,0.7
		C293.2,158.3,288.1,163.7,287.1,163.6z"/>
	<path class="st18" d="M289.6,143.2c2,3.2,0.5,7-1.9,7.5c-0.3,0.1-0.7,0-0.9-0.2c-0.4-0.5-0.2-1.2,0.2-1.6
		C288.2,147.5,289.8,146.3,289.6,143.2z"/>
	<path class="st19" d="M296.9,176.7c-2.6,2.5-4.3,5-8.2,5.2C290.9,179.2,293,177.3,296.9,176.7z"/>
	<path class="st20" d="M292,184.2c1.4-1.2,2.8-2.5,4.2-3.7c0.5-0.4,1-0.7,1.5-0.1c0.5,0.6,0.3,1.1-0.1,1.6
		C296.2,183.7,294.2,184,292,184.2z"/>
	<path class="st21" d="M292.1,164.1c-0.3,0.7-0.8,1.2-1.6,1.2c-0.7,0-1.1-0.4-0.9-1.1c0.2-0.8,1-0.9,1.7-0.9
		C291.8,163.2,292.1,163.5,292.1,164.1z"/>
	<path class="st6" d="M181.6,102.2c-1.6-3.3,0.5-6.5,0.1-9.8c-0.1-1.1,1.1-1,1.9-1.2c4.2-1.1,8.6-1,12.8-0.3c4,0.7,7.7,2.8,11.9,3.1
		c-1,1.3-2.6,1-4,1.1c-3.7,0.2-7,1.4-9.5,4.3c-1.3,1.5-2.7,2.2-4.7,1.6C187,100.1,184.4,102.2,181.6,102.2z"/>
	<path class="st22" d="M181.6,102.2c3-1.9,6.2-3.2,9.8-1.8c0.6,0.2,1.2,0.3,1.6-0.4c3.6-5.7,9.3-6.1,15.2-6.1
		c6.2,1.4,8.1,3.1,8.5,7.8c-1.9-1.2-3.7-2.4-5.5-3.5c-6.2-3.4-11.5-1.8-14.9,4.2c-0.5,1-0.5,3.1-2.9,1.6c-6.7-4.3-10.5-2.5-12.1,5.2
		C178.9,107,178.9,106.3,181.6,102.2z"/>
	<path class="st22" d="M141.1,127.1c-0.8,0.9-0.5,2-0.5,3.1c0,0.9,0,1.9,0,3c-2-0.3-2.5-1.7-2.8-3c-1.2-5.2,2.5-10.1,7.8-10.3
		c1.4-0.1,2.9,0,4.3,0c0.9,0.6,2.1,0.9,2.7,1.7c1.3,1.7,2.5,1.3,4,0.5c2.2-1.1,4.5-1.5,7-1.3c3.9,0.4,5.7,2.5,5.4,6.3
		c0,0.4-0.3,1-0.6,1.2c-0.9,0.4-1.4-0.4-1.6-1c-0.9-4.1-3.5-3.4-6.5-2.7c-4.4,1.1-8.7-0.6-13-1.4
		C143.4,122.4,142.1,123.3,141.1,127.1z"/>
	<path class="st23" d="M231.1,110.6c6.5,1.2,7,1.7,7.9,8.5c0.2,1.6,1.2,1.5,2.2,1.5c1.8,0.1,3.6,0,5.3,0.5c1.1,0.3,3,0.5,2.5,2.6
		c-3.4-0.4-6.8-0.9-10.3-1.2c-1.8-0.1-2.4-0.7-2.5-2.5c-0.3-6.8,0.6-7.2-8.2-6.3c-1.5,0.1-2.9,0.8-4.7,1.3
		C225,111.1,228.2,111.1,231.1,110.6z"/>
	<path class="st24" d="M174.7,94.9c-2.4-0.2-4.5-0.7-4.6-3.8c0-1.8,3-5.8,4.2-5.7c1,0.1,5.3,5.9,5,7
		C178.7,94.9,176.6,94.7,174.7,94.9z"/>
	<path class="st25" d="M120.3,127c0.4,2.6-0.7,4-3.3,3.7c-2-0.2-4.7-0.3-4.6-3.3c0-2.5,1.8-3.8,4.3-3.8
		C118.9,123.6,120.9,124,120.3,127z"/>
	<path class="st26" d="M190.9,127.3c-0.3,1.4-0.2,3.7-3,3.4c-2.2-0.2-4.3-1.1-4.3-3.9c0-1.8,3-5.5,4.3-5.1
		C190.4,122.5,191.1,124.4,190.9,127.3z"/>
	<path class="st27" d="M266.7,123.6c1.3,0.2,3.9-0.7,3.8,1.7c-0.1,2.7-2.4,3.5-5,3.3c-1.8-0.1-4.1,0.1-4-2.4
		C261.7,123.3,264.3,123.6,266.7,123.6z"/>
	<path class="st28" d="M127.7,131.6c-1.5,0.2-2.5-0.3-2.5-2.3c0-3,1.7-4.4,4.4-4.7c1.9-0.2,3.5,0.7,3.8,3
		C133.6,129.6,130.9,131.5,127.7,131.6z"/>
	<path class="st29" d="M199.9,122.2c-2.3,0.1-3.9-0.7-4-3.1c0-1.4,0.2-3.5,2-3.1c2.3,0.5,3.8,2.5,4.2,4.9
		C202.4,122.5,200.8,122,199.9,122.2z"/>
	<path class="st30" d="M322.9,212.7c-1.3,4.3-5.1,5-9,6.6c0.9-2.6,2.8-3.3,4.4-4.2C319.8,214.2,321.4,213.5,322.9,212.7z"/>
	<path class="st31" d="M314.1,221.9c2.1-3,4.9-3.9,7.8-4.6C321.8,220.2,320.1,221.3,314.1,221.9z"/>
	<path class="st19" d="M322.6,222c0.4-1.8,1.2-2.6,2.7-2.6c0.2,0,0.6,0.5,0.6,0.6C325.5,221.5,324.4,221.9,322.6,222z"/>
	<path class="st32" d="M92.8,150.8c1.2-2,2.2-3.5,3.1-5c0.5-0.8,1-0.9,1.7-0.5c0.6,0.3,1.4,0.7,0.9,1.6
		C97.3,148.9,96.2,151.1,92.8,150.8z"/>
	<path class="st33" d="M93.1,156.9c0-1.7,1.3-2.2,2.1-3c0.5-0.5,0.7-2.3,1.9-1c0.8,0.8,0.1,1.8-0.6,2.5
		C95.7,156.2,94.7,156.8,93.1,156.9z"/>
	<path class="st34" d="M208.1,196.6c-0.3,0.9-0.6,2.6-1.3,4c-1.1,2.2-2.6,0.1-3.9,0.1c-5.3,0-10.5,0-15.8-0.1
		c-3.4,0-4.1-0.9-3.1-4.1c1.8-5.6,6.6-8.6,10.9-11.9c1.3-1,3-0.1,3.9,0.7c3,2.7,5.8,5.6,8.7,8.5C208,194.4,208.1,195.1,208.1,196.6z
		"/>
	<path class="st35" d="M190.8,171.6c0,2,0.1,3.7-2.1,3.8c-2.1,0.1-4.5-3.1-4.2-5.8c0.2-1.9,0.8-3.7,3.2-3.4
		C191.4,166.6,190.2,169.8,190.8,171.6z"/>
	<path class="st35" d="M210.9,185.4c-2.3,0.1-3-0.8-2.1-3c1.2-3.1,4.4-5.2,7.5-4.8c1.1,0.1,1.9,0.2,1.6,1.6
		C217.5,181.9,213.7,185.3,210.9,185.4z"/>
	<path class="st35" d="M198.8,172.5c0-1.1-0.2-1.7,0-2.2c0.8-2.1,0.5-5.9,4.2-4.7c2.6,0.8,1.9,3.8,1.9,6.1c0,0.5-0.2,0.9-0.4,1.4
		c-0.8,1.7-1.8,3.3-3.9,3.1C198.2,175.7,198.9,173.6,198.8,172.5z"/>
	<path class="st35" d="M176,178.4c2.3,0.1,5.6,3.2,5.3,5.5c-0.2,1.6-0.3,3.8-2.9,3.8c-2.7,0-4.9-2.9-4.9-6.1
		C173.5,179.8,173.8,178.3,176,178.4z"/>
	<path class="st36" d="M176.2,91.7c0.2,1.1-0.6,1.2-1.3,1.2c-1.4,0-2.4-0.6-2.5-2c-0.1-1,0.6-1.7,1.5-1.6
		C175.1,89.5,175.8,90.5,176.2,91.7z"/>
	<path class="st37" d="M116.8,128.5c-1,0.1-1.5-0.4-1.5-1.5c0-0.8,0.3-1.4,1.2-1.4c0.9,0,1.7,0.1,1.7,1.3
		C118.3,127.9,118,128.6,116.8,128.5z"/>
	<path class="st38" d="M188.6,127.1c0.1,1.1-0.4,1.5-1.5,1.5c-0.9,0-1.8-0.1-1.6-1.3c0.2-1,0.3-2.4,1.6-2.4
		C188.3,124.9,188.6,126.1,188.6,127.1z"/>
	<path class="st39" d="M126.9,129.2c0.9-1.9,2-2.9,3.9-2.6c0.6,0.1,0.8,0.5,0.6,1C130.6,129.4,129,129.6,126.9,129.2z"/>
</g>
</svg>
