<?xml version="1.0" encoding="utf-8"?>
<!-- Generator: Adobe Illustrator 27.8.1, SVG Export Plug-In . SVG Version: 6.00 Build 0)  -->
<svg version="1.1" id="Layer_1" xmlns="http://www.w3.org/2000/svg" xmlns:xlink="http://www.w3.org/1999/xlink" x="0px" y="0px"
	 viewBox="0 0 139.3 54.2" style="enable-background:new 0 0 139.3 54.2;" xml:space="preserve">
<style type="text/css">
	.st0{stroke:#FFFFFF;stroke-miterlimit:10;}
	.st1{fill:none;stroke:#000000;stroke-width:4;}
	.st2{fill:#FFFFFF;}
</style>
<g>
	<g>
		<path class="st0" d="M25.8,23.1l6.7,1.4l1.6,10.4l-1.8,13.4l-11,3.7l-8.5-1.5L5.3,48l1.1-20.5L6.3,13.1l-4,0.4L3.8,2.6L18,2
			l12.7,1.8l2.2,7.9L32,20.9l-6.2,1.7C25.8,22.6,25.8,23.1,25.8,23.1z M17.2,30.5l0.1,8.9l2.5,0.8l1.7,0.1l0.7-4.2l-0.5-5.3
			l-2.5-0.4L17.2,30.5z M21.5,12.9l-1.9-0.4l-2.2-0.1l-0.1,8.1h2.3l1.7-0.1l0.7-4.3L21.5,12.9z"/>
		<path class="st0" d="M59.3,3L67,5.1L68.3,25l-1.8,23.6L56,52.1l-8.9-1.7l-7.7-2.8l-1.2-20.7l1.4-20.5L49.8,2L59.3,3z M50.1,24.8
			L50.7,39l2.5,0.6l1.8,0.2l1.1-13.1L55.6,14l-3-0.6l-1.4,0L50.1,24.8z"/>
		<path class="st0" d="M99.5,31l1.6,11.9l1.4,7.6l-12.6,1.4L89.2,46l-0.6-13.7l-2.2,0.2h-1.2l0.5,18.1l-12.8,0.7l0.9-20.7l-0.6-18.9
			L74,3.1l10.8-1l14.4,1.6l2.5,10.6L100.1,28l-5.9,1.5v0.6L99.5,31z M85.2,12.8V22l1.7,0.1l2.3-0.2l0.8-4.8l-1-3.9l-2.3-0.4H85.2z"
			/>
		<path class="st0" d="M135.1,22l0.5,19l1.4,9l-13.2,1.9l-0.5-7.6l0.1-12.7l-1.6-0.3l-2.8-0.1l0.3,19.2l-13.1,1l0.8-25.6l-0.6-22.4
			l13.2-1L119,19.5l1.7,0.1l0.9,0.2l2.4-9.2l-0.6-6.8l12.2-1.5l0.4,6.5l-2.2,9.9l-5.6,1.6v0.5L135.1,22z"/>
	</g>
	<g>
		<path class="st1" d="M25.8,23.1l6.7,1.4l1.6,10.4l-1.8,13.4l-11,3.7l-8.5-1.5L5.3,48l1.1-20.5L6.3,13.1l-4,0.4L3.8,2.6L18,2
			l12.7,1.8l2.2,7.9L32,20.9l-6.2,1.7C25.8,22.6,25.8,23.1,25.8,23.1z M17.2,30.5l0.1,8.9l2.5,0.8l1.7,0.1l0.7-4.2l-0.5-5.3
			l-2.5-0.4L17.2,30.5z M21.5,12.9l-1.9-0.4l-2.2-0.1l-0.1,8.1h2.3l1.7-0.1l0.7-4.3L21.5,12.9z"/>
		<path class="st1" d="M59.3,3L67,5.1L68.3,25l-1.8,23.6L56,52.1l-8.9-1.7l-7.7-2.8l-1.2-20.7l1.4-20.5L49.8,2L59.3,3z M50.1,24.8
			L50.7,39l2.5,0.6l1.8,0.2l1.1-13.1L55.6,14l-3-0.6l-1.4,0L50.1,24.8z"/>
		<path class="st1" d="M99.5,31l1.6,11.9l1.4,7.6l-12.6,1.4L89.2,46l-0.6-13.7l-2.2,0.2h-1.2l0.5,18.1l-12.8,0.7l0.9-20.7l-0.6-18.9
			L74,3.1l10.8-1l14.4,1.6l2.5,10.6L100.1,28l-5.9,1.5v0.6L99.5,31z M85.2,12.8V22l1.7,0.1l2.3-0.2l0.8-4.8l-1-3.9l-2.3-0.4H85.2z"
			/>
		<path class="st1" d="M135.1,22l0.5,19l1.4,9l-13.2,1.9l-0.5-7.6l0.1-12.7l-1.6-0.3l-2.8-0.1l0.3,19.2l-13.1,1l0.8-25.6l-0.6-22.4
			l13.2-1L119,19.5l1.7,0.1l0.9,0.2l2.4-9.2l-0.6-6.8l12.2-1.5l0.4,6.5l-2.2,9.9l-5.6,1.6v0.5L135.1,22z"/>
	</g>
	<g>
		<path class="st2" d="M25.8,23.1l6.7,1.4l1.6,10.4l-1.8,13.4l-11,3.7l-8.5-1.5L5.3,48l1.1-20.5L6.3,13.1l-4,0.4L3.8,2.6L18,2
			l12.7,1.8l2.2,7.9L32,20.9l-6.2,1.7C25.8,22.6,25.8,23.1,25.8,23.1z M17.2,30.5l0.1,8.9l2.5,0.8l1.7,0.1l0.7-4.2l-0.5-5.3
			l-2.5-0.4L17.2,30.5z M21.5,12.9l-1.9-0.4l-2.2-0.1l-0.1,8.1h2.3l1.7-0.1l0.7-4.3L21.5,12.9z"/>
		<path class="st2" d="M59.3,3L67,5.1L68.3,25l-1.8,23.6L56,52.1l-8.9-1.7l-7.7-2.8l-1.2-20.7l1.4-20.5L49.8,2L59.3,3z M50.1,24.8
			L50.7,39l2.5,0.6l1.8,0.2l1.1-13.1L55.6,14l-3-0.6l-1.4,0L50.1,24.8z"/>
		<path class="st2" d="M99.5,31l1.6,11.9l1.4,7.6l-12.6,1.4L89.2,46l-0.6-13.7l-2.2,0.2h-1.2l0.5,18.1l-12.8,0.7l0.9-20.7l-0.6-18.9
			L74,3.1l10.8-1l14.4,1.6l2.5,10.6L100.1,28l-5.9,1.5v0.6L99.5,31z M85.2,12.8V22l1.7,0.1l2.3-0.2l0.8-4.8l-1-3.9l-2.3-0.4H85.2z"
			/>
		<path class="st2" d="M135.1,22l0.5,19l1.4,9l-13.2,1.9l-0.5-7.6l0.1-12.7l-1.6-0.3l-2.8-0.1l0.3,19.2l-13.1,1l0.8-25.6l-0.6-22.4
			l13.2-1L119,19.5l1.7,0.1l0.9,0.2l2.4-9.2l-0.6-6.8l12.2-1.5l0.4,6.5l-2.2,9.9l-5.6,1.6v0.5L135.1,22z"/>
	</g>
</g>
</svg>
