<?xml version="1.0" encoding="utf-8"?>
<!-- Generator: Adobe Illustrator 27.8.1, SVG Export Plug-In . SVG Version: 6.00 Build 0)  -->
<svg version="1.1" id="Layer_1" xmlns="http://www.w3.org/2000/svg" xmlns:xlink="http://www.w3.org/1999/xlink" x="0px" y="0px"
	 viewBox="0 0 325.7 61.5" style="enable-background:new 0 0 325.7 61.5;" xml:space="preserve">
<style type="text/css">
	.st0{fill:#010101;}
	.st1{fill:#676868;}
	.st2{fill:#7F8080;}
	.st3{fill:#E41E26;}
</style>
<g>
	<path d="M10.6,25.4c1.6-2.4,3.4-3.6,5.6-3.6c3.4,0,5.9,1.5,7.6,4.4c0.4-0.5,0.8-1,1.3-1.6c0.5-0.5,1.3-1.2,2.5-1.8
		c1.1-0.7,2.3-1,3.5-1c2.7,0,4.9,1,6.7,3.1c1.8,2,2.7,5.4,2.7,10.2v8.8c0,0.8,0,1.3-0.1,1.7c-0.1,0.4-0.2,0.8-0.5,1.3
		c-0.4,0.9-1.7,1.3-3.9,1.3c-2.1,0-3.4-0.5-3.9-1.4c-0.2-0.5-0.4-0.9-0.4-1.3s-0.1-1-0.1-1.7V35c0-2.9-1-4.3-3.1-4.3
		c-1.2,0-2,0.4-2.4,1.1c-0.4,0.8-0.6,1.9-0.6,3.2v8.8c0,0.8,0,1.4-0.1,1.8c0,0.4-0.2,0.8-0.5,1.3c-0.5,0.9-1.8,1.3-3.9,1.3
		c-2.1,0-3.4-0.5-3.9-1.4c-0.2-0.5-0.4-0.9-0.4-1.3c-0.1-0.4-0.1-1-0.1-1.7V35c0-2.9-1-4.3-3.1-4.3c-2,0-3,1.5-3,4.3v8.9
		c0,0.8,0,1.3-0.1,1.7c-0.1,0.4-0.2,0.8-0.5,1.3c-0.5,0.9-1.8,1.3-3.9,1.3S3,47.8,2.5,46.9c-0.2-0.5-0.4-0.9-0.4-1.3
		C2,45.2,2,44.6,2,43.8V26.2c0-0.8,0-1.3,0.1-1.7c0-0.4,0.2-0.8,0.5-1.3c0.5-0.9,1.7-1.3,3.6-1.3c1.9,0,3.1,0.3,3.6,0.9
		C10.3,23.4,10.6,24.2,10.6,25.4z"/>
	<path d="M61.6,24.7c0.2-1.9,1.5-2.8,3.9-2.8c1.3,0,2.3,0.1,2.9,0.3c0.6,0.2,1.1,0.5,1.3,1s0.4,0.9,0.5,1.3c0,0.4,0.1,1,0.1,1.7
		v17.5c0,0.8,0,1.3-0.1,1.7c-0.1,0.4-0.2,0.8-0.4,1.3c-0.5,0.9-1.6,1.3-3.4,1.3c-1.8,0-3-0.2-3.6-0.7c-0.6-0.4-1-1.1-1.1-2
		c-1.2,1.8-3.3,2.7-6.2,2.7c-2.9,0-5.6-1.3-8-4c-2.5-2.6-3.7-5.7-3.7-9.2s1.2-6.5,3.7-9.2c2.5-2.6,5.2-3.9,8.2-3.9
		c1.1,0,2.2,0.2,3.1,0.6c0.9,0.4,1.6,0.8,2,1.1C61.1,24,61.4,24.3,61.6,24.7z M52.5,35.1c0,1.1,0.4,2.1,1.3,3
		c0.9,0.9,1.9,1.3,3.2,1.3c1.2,0,2.3-0.5,3.1-1.4c0.8-0.9,1.2-1.9,1.2-3s-0.4-2.1-1.2-3c-0.8-0.9-1.8-1.4-3.2-1.4
		c-1.3,0-2.4,0.5-3.2,1.4C53,33,52.5,34,52.5,35.1z"/>
	<path d="M92,10.9c0.2-0.5,0.7-0.8,1.3-1c0.6-0.2,1.5-0.3,2.5-0.3c1.1,0,1.9,0.1,2.5,0.3c0.6,0.2,1.1,0.5,1.3,1s0.4,0.9,0.5,1.3
		c0,0.4,0.1,1,0.1,1.7v29.8c0,0.8,0,1.3-0.1,1.7c-0.1,0.4-0.2,0.8-0.5,1.3c-0.5,0.9-1.9,1.4-4.2,1.4c-2.3,0-3.6-0.8-3.9-2.5
		c-1.4,1.6-3.4,2.4-5.9,2.4c-3,0-5.7-1.3-8.2-3.9c-2.5-2.6-3.7-5.7-3.7-9.1s1.2-6.5,3.7-9.2c2.5-2.6,5.2-4,8.2-4
		c2.5,0,4.4,0.8,5.8,2.5V13.9c0-0.8,0-1.3,0.1-1.7C91.6,11.8,91.8,11.4,92,10.9z M83.9,38.1c0.9,0.9,1.9,1.4,3.2,1.4
		c1.2,0,2.3-0.5,3.1-1.4c0.8-0.9,1.2-1.9,1.2-3c0-1.1-0.4-2.1-1.2-3c-0.8-0.9-1.8-1.4-3.2-1.4c-1.3,0-2.4,0.5-3.2,1.4
		c-0.8,0.9-1.2,1.9-1.2,3C82.6,36.2,83,37.2,83.9,38.1z"/>
	<path d="M129.6,31.9c0,2-0.5,3.6-1.5,4.5c-1,1-2.1,1.5-3.4,1.5h-11.9c0,0.9,0.6,1.7,1.6,2.3c1.1,0.6,2.2,1,3.3,1
		c1.9,0,3.4-0.2,4.5-0.6l0.6-0.2c0.8-0.4,1.5-0.5,2-0.5c1.1,0,2,0.8,2.8,2.2c0.4,0.9,0.6,1.7,0.6,2.3c0,3-3.6,4.5-10.6,4.5
		c-2.5,0-4.7-0.4-6.6-1.3c-1.9-0.8-3.4-2-4.5-3.4c-2.1-2.7-3.1-5.7-3.1-9c0-4.2,1.4-7.6,4.1-10.1c2.7-2.5,6.1-3.8,10.2-3.8
		c4.6,0,8,1.6,10.2,4.9C129.1,28,129.6,29.8,129.6,31.9z M119.1,33.4c1.3,0,1.9-0.5,1.9-1.6c0-0.8-0.3-1.4-0.9-1.8
		c-0.6-0.5-1.4-0.7-2.5-0.7c-1.1,0-2.2,0.4-3.2,1.3c-1.1,0.9-1.6,1.8-1.6,2.8H119.1z"/>
	<path d="M179.2,22.1c2.1,0.9,3.2,2.1,3.2,3.5c0,0.6-0.3,1.5-0.8,2.7c-0.5,1.2-1,2.3-1.4,3.3l-5.5,13.4c-0.5,1.5-1.3,2.5-2.5,3.1
		c-0.5,0.2-1.1,0.4-1.9,0.4c-0.8,0-1.5-0.3-2.2-0.9c-0.7-0.6-1.2-1.2-1.4-1.8l-0.4-0.8c-0.3-0.7-1.2-3.3-2.9-7.8
		c-0.3,0.8-0.8,2.1-1.5,3.9s-1.1,2.9-1.2,3.4c-0.2,0.5-0.3,0.8-0.4,0.9c0,0.1-0.2,0.4-0.4,0.8c-0.2,0.4-0.5,0.8-0.8,1
		c-0.8,0.8-1.7,1.2-2.8,1.2s-1.9-0.3-2.6-0.9c-0.7-0.6-1.2-1.2-1.4-1.8l-7.5-18.4c-0.3-1-0.5-1.6-0.5-1.9c0-1.3,1-2.4,2.9-3.2
		c1.1-0.4,1.9-0.7,2.6-0.7c0.7,0,1.2,0.1,1.6,0.4c0.4,0.3,0.7,0.6,0.9,0.8c0.2,0.3,0.3,0.6,0.4,0.9c0.6,1.3,1.8,4.5,3.5,9.4l3-8.1
		c0.2-0.7,0.6-1.2,1.1-1.8c1-1,1.9-1.5,2.9-1.5s1.9,0.3,2.6,0.8c0.7,0.5,1.2,1.1,1.5,1.6l0.4,0.8c1.7,4.7,2.6,7.3,2.9,8l3.1-8.3
		c0.8-2.1,2-3.2,3.6-3.2C177.9,21.6,178.5,21.7,179.2,22.1z"/>
	<path d="M193.4,17c-0.2,0.5-0.7,0.8-1.3,1c-0.6,0.2-1.5,0.3-2.5,0.3s-1.9-0.1-2.5-0.3c-0.6-0.2-1.1-0.5-1.3-1s-0.4-0.9-0.4-1.3
		c-0.1-0.4-0.1-1-0.1-1.7s0-1.3,0.1-1.7c0-0.4,0.2-0.8,0.4-1.3c0.5-0.9,1.8-1.4,3.9-1.4c2.1,0,3.4,0.5,3.8,1.4
		c0.3,0.5,0.4,0.9,0.5,1.3c0.1,0.4,0.1,1,0.1,1.7c0,0.8,0,1.3-0.1,1.7C193.8,16.1,193.7,16.5,193.4,17z M185.2,26.3
		c0-0.8,0-1.3,0.1-1.7c0-0.4,0.2-0.8,0.4-1.3c0.5-0.9,1.8-1.3,3.9-1.3c1.6,0,2.7,0.3,3.4,0.8c0.6,0.5,0.9,1.2,0.9,2.2
		c0,0.3,0,0.8,0,1.5v17.5c0,0.8,0,1.3-0.1,1.7c0,0.4-0.2,0.8-0.5,1.3c-0.4,0.9-1.7,1.3-3.9,1.3c-2.1,0-3.4-0.5-3.9-1.3
		c-0.2-0.5-0.4-0.9-0.4-1.3c-0.1-0.4-0.1-0.9-0.1-1.8V26.3z"/>
	<path d="M213.2,30.7l-3.2-0.2v6.9c0,0.9,0.1,1.5,0.4,2c0.3,0.4,0.8,0.6,1.6,0.6c0.8,0,1.4,0,1.8,0.1c0.4,0,0.9,0.2,1.3,0.5
		c0.8,0.4,1.1,1.5,1.1,3.4c0,2.1-0.5,3.4-1.4,3.8c-0.5,0.2-0.9,0.4-1.3,0.4c-0.4,0-0.9,0.1-1.7,0.1c-3.5,0-6.1-0.8-7.9-2.3
		c-1.8-1.6-2.7-4.2-2.7-8v-7.4c-0.6,0.1-1.3,0.2-2.1,0.2c-0.7,0-1.3-0.3-1.8-0.9c-0.5-0.6-0.7-1.5-0.7-2.9c0-1.4,0.1-2.4,0.2-3
		c0.2-0.6,0.4-1.1,0.7-1.3c0.5-0.4,1.2-0.7,2-0.7l1.6,0.2V17c0-0.8,0-1.3,0.1-1.7c0.1-0.4,0.2-0.8,0.5-1.2c0.4-0.8,1.7-1.2,3.9-1.2
		c2.3,0,3.6,0.6,4,1.8c0.2,0.5,0.2,1.4,0.2,2.5v4.9c1.5-0.1,2.6-0.2,3.3-0.2s1.3,0,1.7,0.1c0.4,0,0.8,0.2,1.3,0.5
		c0.9,0.4,1.3,1.7,1.3,3.9c0,2.1-0.5,3.4-1.4,3.8c-0.5,0.2-0.9,0.4-1.3,0.4C214.6,30.7,214,30.7,213.2,30.7z"/>
	<path d="M235,22c3.3,0,6.1,1.3,8.3,3.8c2.2,2.5,3.3,5.6,3.3,9.3v8.8c0,0.8,0,1.3-0.1,1.7c0,0.4-0.2,0.8-0.5,1.3
		c-0.4,0.9-1.7,1.3-3.8,1.3c-2,0-3.3-0.4-3.8-1.3c-0.3-0.5-0.4-1-0.5-1.4c0-0.4-0.1-1-0.1-1.8V35c0-1.4-0.4-2.4-1.1-3.2
		c-0.8-0.8-1.7-1.1-2.9-1.1s-2.2,0.4-3.1,1.1c-0.9,0.7-1.4,1.5-1.5,2.4v9.7c0,0.8,0,1.3-0.1,1.7c0,0.4-0.2,0.8-0.5,1.3
		c-0.4,0.9-1.7,1.3-3.8,1.3c-2.1,0-3.4-0.5-3.9-1.3c-0.2-0.5-0.4-0.9-0.4-1.3c0-0.4-0.1-0.9-0.1-1.8V13.9c0-0.8,0-1.3,0.1-1.7
		c0-0.4,0.2-0.8,0.4-1.3c0.5-0.9,1.8-1.4,3.9-1.4c2.1,0,3.4,0.5,3.8,1.4c0.3,0.5,0.4,0.9,0.5,1.3c0.1,0.4,0.1,1,0.1,1.7v11
		C230.8,23,232.8,22,235,22z"/>
</g>
<g>
	<path class="st0" d="M293.7,57.3c-0.4-0.7-0.9-1.3-1.4-2c-2.5-3.4-5.5-6.4-8.6-9.3c-2.8-2.5-5.7-4.9-8.4-7.5
		c-2.3-2.2-4.4-4.4-6-7.1c-1.7-2.8-2.6-5.9-2.8-9.2c-0.1-0.2,0-0.5-0.1-0.7c0-0.7,0-1.4,0-2.1c0.1-0.5,0.1-1,0.2-1.5
		c0.4-1.9,1.1-3.7,2.1-5.3c1.5-2.4,3.6-4.3,6.1-5.6c1.4-0.7,2.9-1.2,4.4-1.4c0.4-0.1,0.9,0,1.3-0.1c0.7,0,1.3,0,2,0
		c0.7,0.1,1.4,0.1,2.2,0.2c2.8,0.6,5.3,1.9,7.4,3.9c0.7,0.7,1.4,1.5,2,2.3c0.2,0.3,0.2,0.3,0.4,0c0.6-0.8,1.2-1.6,1.9-2.2
		c2.4-2.3,5.1-3.7,8.4-4.2c0.4-0.1,0.7,0,1.1-0.1c0.8,0,1.6,0,2.4,0c0.5,0.1,1.1,0.1,1.6,0.2c2.9,0.6,5.4,1.8,7.6,3.8
		c2.4,2.2,3.9,4.9,4.6,8.1c0.2,0.7,0.2,1.5,0.2,2.2c0,0.6,0,1.2,0,1.7c0,0.1,0,0.2,0,0.3c-0.2,0.4-0.1,0.9-0.2,1.3
		c-0.4,3.6-1.8,6.8-4,9.7c-1.7,2.4-3.8,4.4-5.9,6.4c-2.8,2.6-5.7,5-8.4,7.6c-3.2,3-6.1,6.3-8.6,10c-0.1,0.1-0.2,0.3-0.2,0.4
		C294.5,57.3,294.1,57.3,293.7,57.3z"/>
	<path class="st1" d="M322.1,19.7C322.2,19.7,322.2,19.7,322.1,19.7c0.1,0.6,0.1,1.2,0.1,1.8c-0.1,0-0.1,0-0.1-0.1
		C322.1,20.9,322.1,20.3,322.1,19.7z"/>
	<path class="st2" d="M266.5,21.5c0.1,0.2,0.1,0.5,0.1,0.7c0,0,0,0-0.1,0C266.5,21.9,266.5,21.7,266.5,21.5z"/>
	<path class="st3" d="M294.3,17.2c0.3-0.7,0.6-1.3,0.9-2c1.5-3.2,3.8-5.5,7.1-6.7c4.7-1.7,9.1-1,13,2.1c2.4,1.9,3.8,4.4,4.4,7.4
		c0.5,2.2,0.3,4.5-0.2,6.7c-0.7,3.1-2.3,5.8-4.4,8.3c-2,2.4-4.4,4.6-6.7,6.7c-2.7,2.4-5.4,4.7-7.9,7.3c-2.2,2.2-4.3,4.6-6.1,7.1
		c0,0.1-0.1,0.1-0.1,0.2c-0.8-1-1.6-2.1-2.4-3c-2.3-2.6-4.7-5.1-7.3-7.4c-2.3-2.1-4.7-4.1-7-6.2c-1.9-1.7-3.7-3.6-5.2-5.7
		c-1.9-2.7-3.2-5.6-3.6-8.9c-0.4-3.2,0-6.3,1.7-9.1c2.1-3.4,5.1-5.5,9-6.1c5.9-0.9,11.3,2,13.9,7.4C293.7,15.8,294,16.5,294.3,17.2z
		"/>
</g>
</svg>
