<?xml version="1.0" encoding="utf-8"?>
<!-- Generator: Adobe Illustrator 27.8.1, SVG Export Plug-In . SVG Version: 6.00 Build 0)  -->
<svg version="1.1" id="Layer_1" xmlns="http://www.w3.org/2000/svg" xmlns:xlink="http://www.w3.org/1999/xlink" x="0px" y="0px"
	 viewBox="0 0 1878.3 1928.6" style="enable-background:new 0 0 1878.3 1928.6;" xml:space="preserve">
<style type="text/css">
	.st0{fill:#0E0E0E;}
	.st1{fill:#CCCCCC;}
	.st2{fill:#9B9B9B;}
	.st3{fill:#838383;}
	.st4{fill:#747474;}
	.st5{fill:#EFEFEF;}
	.st6{fill:#999999;}
	.st7{fill:#292929;}
	.st8{fill:#595959;}
</style>
<g>
	<path class="st0" d="M18.1,914.3c0.7-8.5,1.5-17.1,2.1-25.6c1.8-24.7,6-49,13.1-72.8c2.7-9,6-17.8,8.9-26.7
		c6.9-21.4,22-36.3,39.3-49.4c13.7-10.5,29.4-17.1,45.4-23c2.1-0.8,3.6-1.5,4.2-4c8.3-35.1,20.8-68.7,36-101.4
		c20.6-44.2,46.8-84.7,78.8-121.5c5-5.8,10.1-11.5,15.3-17.1c1.7-1.8,2-3.2,1.1-5.6c-5.7-14.9-10.4-30.3-12.5-46
		c-2.5-18.9-4-38.3,4.5-56.6c4.6-9.8,11.8-17.6,19-25.5c30.9-33.8,64.2-65.2,98.7-95.2c25.9-22.6,52.1-44.9,81.4-63.1
		c15.1-9.3,31.9-14.7,49.6-17.5c16.5-2.6,33-3.5,49.6-1.7c13.9,1.5,27.6,4.1,40.7,9.2c2.1,0.8,4.1,2,6.9,0.1
		c40.4-27.3,84.4-47.1,130.4-63.1c40.5-14,81.7-25.3,123.8-33.3c26.1-4.9,52.3-8.8,78.7-11.1c16.8-1.5,33.6-2.7,50.5-3.3
		c11.8-0.4,23.6-0.2,35.4-0.9c11-0.6,20.5-5.6,29.5-11.8c9.3-6.4,17.6-14.1,26.6-21c12.9-9.9,26.3-18.8,42.9-21.2c9,0,18,0,27,0
		c8.4,0.9,16.8,1.3,25.1,2.8c16.9,3.1,33.3,8.1,49.8,12.6c18.3,5,36.1,11.8,54.5,16.4c23.2,5.9,46.3,12.4,69.2,19.4
		c30.5,9.3,58.3,23.8,82.8,44.2c26.2,21.8,41.5,49.9,46.7,83.5c1.5,9.9,2.5,19.8,2,29.8c-0.2,4.4,1.3,7.4,5.1,10
		c35.7,24.8,67.8,53.9,97.3,85.8c34.8,37.6,64.5,78.9,89.1,123.8c3.4,6.3,6.7,12.7,9.9,19.1c1.3,2.6,3,4,6.1,4.3
		c16.8,1.4,33.2,5.2,49.4,9.7c13,3.6,26,7.2,38.6,12.2c3.3,1.3,6,3.2,8.5,5.9c14.3,15.5,24.2,33.8,33.8,52.3
		c12.9,24.9,23.2,50.9,33,77.1c7.4,19.5,11.2,40,15.2,60.5c4.5,23.1,7.7,46.3,9.6,69.7c0.7,9.3,1,18.6,0.7,27.9
		c0,1.6-0.5,3.3,0.5,4.8c0,11.7,0,23.3,0,35c-1.3,7.2-0.5,14.5-0.8,21.8c-0.5,11.2-2.3,22.2-4.1,33.2c-0.7,3.9-1.6,7.8-1.9,11.8
		c-0.5,6-3.3,11.1-7.2,15.6c-9.6,11.1-19.3,22-29.5,32.5c-2.3,2.3-3.4,4.9-3,8.1c3.7,30.3,3.2,60.8,2.7,91.3
		c-0.2,13.1-1.9,26.2-2.4,39.3c-0.8,20-4.3,39.7-6.7,59.5c-2,15.8-5.2,31.5-8.5,47.2c-5.1,24.5-11.3,48.7-18.9,72.5
		c-0.9,2.7-0.6,5.1,0.9,7.6c5.2,8.6,8.8,18,12.4,27.3c3.2,8.3,3.7,17.1,3,26.1c-1.1,13.3-3.5,26.4-5.7,39.5
		c-2.5,14.7-7.4,28.7-12.8,42.5c-8.1,20.8-17.7,41-27.8,60.9c-16,31.4-33.6,61.8-56.9,88.5c-16.4,18.9-34.2,36.4-54.4,51.3
		c-5.2,3.8-11.1,3.5-16.7,3.7c-14.5,0.5-29,0.8-43.4-1.6c-4-0.7-6.6,1.2-9.2,3.8c-20.6,20.2-42,39.5-64.5,57.5
		c-27.6,22.1-56.7,42.1-86.3,61.3c-20.7,13.4-32.8,33-34.9,58.3c-0.7,8.7,0,17.6-3.8,26c-5.1,11.1-12.2,20.5-21.3,28.7
		c-16,14.4-34.5,24.9-53.3,35c-35.1,18.9-72.1,33.6-109.6,47.1c-22.3,8-45.1,14.1-68.8,16.2c-3.8,0.3-7.6-0.6-11.3,0.6
		c-9,0-18,0-27,0c-4.2-1-8.6-0.5-12.8-1.4c-14.4-3-27-9.4-37.6-19.6c-8.2-7.8-16.1-15.9-22.9-25.1c-1.9-2.5-4.1-3.6-7.2-3.6
		c-6.7,0.1-13.2,1.5-19.8,2.2c-14.4,1.6-28.8,2.5-43.3,3c-9,0.3-18,1.1-26.9,0.7c-23.4-1-46.8-2.4-70.2-5.2
		c-25.3-3-50.4-7.4-75.2-13.1c-17.9-4.1-35.5-9-52.9-14.8c-16.3-5.5-32.1-12.3-48.4-17.3c-14-4.3-28.7-8-43.7-6.4
		c-10.4,1.1-20.1,4.6-29.8,8.2c-14.3,5.3-28.8,9.4-44.1,10.5c-9.1,0.7-18-0.8-26.5-4c-12.4-4.8-24.8-9.7-36.9-15.4
		c-31.1-14.9-62.1-30-90.7-49.5c-16.5-11.3-31.7-24.3-46.8-37.5c-7-6.1-13.9-12.5-20.4-19.1c-20.7-21.1-42.9-41.1-55.8-68.7
		c-4.6-9.9-7.4-20.2-7.4-31.3c0-11.7,0.5-23.3,3.1-34.7c0.9-3.7,0.1-6.6-2.6-9.5c-20.7-22.2-40.2-45.4-58-70
		c-21.7-30-41.1-61.4-57.8-94.6c-11.5-22.9-22.1-46.3-31.2-70.3c-10.2-26.8-18.8-54.1-26-81.9c-6.6-25.7-11.8-51.7-15.6-77.9
		c-2.5-17.1-4.6-34.3-6-51.6c-1-12.3-0.1-24.6-1.8-36.9c-0.9-6.4-3.8-12-6.3-17.8c-6.8-16.1-18-29.3-32.3-38.5
		c-19.3-12.4-23.5-31.5-27-51.6c-0.8-4.8,0.3-9.6-1-14.3C18.1,950.3,18.1,932.3,18.1,914.3z"/>
	<path class="st1" d="M1758.9,512.4c15,24.2,28.4,49.1,38.2,75.8c13.4,36.7,23,74.4,29,113c0.4,2.3,0.7,4.6,1,6.8
		c0.4,6-3.1,10.4-6.1,14.9c-5.4,8-12.2,14.9-18.5,22.3c-15,17.4-31,33.9-45.1,52.1c-14.4,18.6-22.7,39.3-25.2,62.6
		c-2.3,21.7-4.4,43.4-6,65.1c-3,39.7-7.9,79.2-16.2,118.2c-5.9,27.4-12.7,54.5-20.9,81.3c-16,52.8-36.9,103.5-62.5,152.4
		c-17.7,33.8-37.4,66.5-59.5,97.6c-17.2,24.2-35.1,47.8-54.5,70.2c-7.5,8.7-15.2,17.3-23.2,25.5c-8.1,8.4-15.8,17.2-24.2,25.3
		c-29.6,28.3-60.2,55.5-93.2,79.9c-33.4,24.7-68.3,47.1-104.7,67.1c-41.9,22.9-85.2,42.7-130.4,58c-11.8,4-24.3,5.9-36.5,8.5
		c-26.7,5.7-53.7,10.2-80.7,13.9c-18.3,2.5-36.7,4.1-55.1,5.7c-33.7,2.9-67.4,4.3-101.2,3.9c-21.1-0.3-42.2-1.2-63.3-2.8
		c-21.4-1.6-42.8-3.4-64.1-6.1c-19-2.4-38-5.1-56.8-8.7c-27-5.2-53.9-10.7-80.5-17.7c-46.5-12.2-92-27.1-136.6-44.9
		c-34.7-13.8-68.3-30-101.5-47c-11.1-5.7-22-11.8-32.9-18c-1.8-1-4.7-1.8-3.5-5.1c3.4-16.7,9.2-32.7,14.5-48.8
		c1.6-4.8,2.6-9.7,1.3-14.6c-1.9-7.3-8.6-13-15.6-13.5c-8.9-0.7-16.1,3.1-19.4,10.9c-2.4,5.7-4.2,11.7-6.4,18
		c-8.3-8.8-16-17.9-23.5-27.2c-38.7-48.1-70-100.6-94.2-157.3c-19.8-46.3-34.2-94.4-43.7-143.9c-4.9-25.5-8.6-51.2-10.8-77.1
		c-1.1-12.7-0.7-25.6-2.1-38.3c-2.4-22.2-2.6-44.5-2.3-66.7c0.4-29.8,4.2-59.3,9.3-88.7c0.3-1.6,2.4-3.8,0.1-4.9
		c-1.9-1-4.7-1.1-6.7,0.3c-3.4,2.3-7.3,4-10.1,7.2c-6.6,3.5-13.9,4.3-21.1,4.9c-12.6,1.1-25.2,1.3-36.6-5.8
		c-2.9-1.8-5.4-3.8-6.3-7.3c1.1-10.4,1.5-20.9,3.8-31.1c0.1,0.1,0.3,0.2,0.4,0.3c0.1,0.1,0.1,0.2,0.1,0.4
		C58.7,891,65.3,885,71,878.4c20.6-24,43.7-45.6,66-68c5-5,7.5-11.3,10.7-17.3c0.8-1.6,0.3-3-1.2-3.9c-10.4-6.3-21.2-11.6-33.9-7.9
		c-7.6,2.2-13.9,6.9-19.7,12.4c-4.8,4.6-9.3,9.5-13.5,14.7c-0.9,1.2-2,3.6-4.1,1.1c3.8-18.8,16.6-31,31.4-41.3
		c15.3-10.7,32.9-16.2,50.6-21.4c3.7-1.1,5-3,5.7-6.3c15.6-71.1,44-136.6,86.9-195.6c13.5-18.6,28.5-35.9,44.7-52.3
		c1.8-1.8,3.8-3.4,2.5-6.3c-0.9-12.7,5.5-23.5,9.9-34.6c10.9-27.5,26.1-52.8,41-78.2c13.2-22.5,26.9-44.8,39.6-67.7
		c13-23.7,29.2-45.3,47.5-65.2c0.3-0.4,0.6-0.8,0.8-1.3c20.3-14.9,39.4-31.7,65-37.3c16.9-3.7,33.9-4,51-2.7
		c0.9,0.1,1.8,0.5,3.4,0.9c-43.4,29-79.8,64.5-112.6,104.9c9.1,1.1,17.7,0.2,26.3-0.2c2.5-0.1,4.2-2.6,6-4.3
		c64-57,135.7-101.9,214.2-136.2c54.5-23.8,111-40.9,169.3-52.2c25.7-5,51.5-8.8,77.6-11.2c23.5-2.2,47-3.7,70.6-3.4
		c14.9,0.2,29.2-3.7,43.4-7.5c2.5-0.7,4.7-2.3,7.1-3.5c22.6-2.5,45.3-5.5,67.9-7.2c19.5-1.5,39.2-3.5,58.8-2.3
		c19.6,1.2,39.3,0.1,58.9,0.9c17.1,0.8,34.2,1.8,50.9,6c1.7,0.4,3.5,1.3,5.3,0.5c35.8,8.8,70.4,20.5,99.9,43.9
		c1.5,1.2,2.9,2.7,4.3,4c-1.6,3.7-5.2,5.5-8.2,7.7c-8.3,6.2-16.9,12.1-25.7,17.6c-1.9,1.2-3.8,2.6-6.3,1.8
		c-32.1-13.9-65-25.3-99-33.6c-8.6-2.1-15.9,0.8-20.6,7.5c-1.8,2.6-2.2,3.8,1.6,5.1c45.2,15.3,88.8,34.4,130.1,58.2
		c65.1,37.4,123.4,83.4,174.6,138.4c48.5,52.1,89,109.6,120.7,173.4c19.9,40,36.4,81.3,48.6,124.3c1.3,4.5,2.9,4.1,5.9,1.8
		c7.3-5.6,8.7-13,6.9-21.4c-3-14.7-6.9-29.2-10.9-43.7c-1.1-2.8,0.4-4.8,1.9-6.8c10.9-15.1,21.3-30.6,31.7-46.1
		C1755.6,514.8,1756.2,512.4,1758.9,512.4z"/>
	<path class="st2" d="M324.1,1582.2c2.4,4.7,7.5,5.8,11.5,8.1c39.1,21.8,79.3,41.5,120.8,58.4c32.3,13.1,65.2,24.9,98.6,34.9
		c31.3,9.4,62.8,17.7,94.8,24.2c24.3,4.9,48.7,9.5,73.4,12.7c21,2.7,42.1,5.1,63.2,6.8c18,1.5,36.1,2.3,54.2,3.2
		c20.3,1,40.6,1,60.9,0.4c20.5-0.5,41.1-1.5,61.6-3.5c15-1.4,30.1-2.5,45-4.3c13.5-1.6,26.9-3.9,40.3-5.9c19.2-2.8,38.1-7,57.1-10.6
		c25.3-4.8,49.3-13.3,72.9-23.2c49.7-20.7,97.3-45.4,142.6-74.5c28.1-18,55.1-37.7,81.1-58.6c16.4-13.2,32.3-27.2,47.4-42
		c7.7-7.6,15.8-14.8,23.3-22.6c24.6-25.7,48.3-52.1,70-80.4c29.1-38.1,55.2-78.1,77.9-120.3c22-40.9,40.7-83.3,56.1-127.1
		c12.1-34.5,21.8-69.6,29.8-105.2c5.6-24.9,10.1-50,13.2-75.3c2.4-19.6,3.8-39.3,5.4-58.9c2.1-25.9,3.5-51.9,8.9-77.4
		c3.3-15.3,10.7-28.8,19.9-41.4c12.4-16.9,27-31.9,40.7-47.7c8.1-9.3,16.8-18,24-28c3.5-4.9,6.4-10.1,8.3-15.8
		c2.8,10.3,2.5,21,4,31.5c3.4,24.6,3,49.4,2.7,74.2c-0.2,18.1-3.2,36-6.3,53.8c-0.4,2.5-1.6,4.5-3.4,6.4
		c-11.7,12.8-23,25.9-36.5,36.8c-2,1.7-3,3.4-2.7,6.4c3,29.8,4.9,59.6,4.5,89.6c-0.4,28.6-2,57.1-5.4,85.5
		c-7.1,61-21.4,120.2-42,178c-25.1,70.3-60.1,135.4-103.3,196.1c-40.5,56.9-88.4,106.9-142.1,151.5c-27.2,22.6-56.5,42.2-86.1,61.4
		c-28.7,18.7-47.6,44.4-52.8,79.2c-1.1,7.5-2.4,15-2.8,22.7c-0.2,4.5-3.4,7.8-6.3,11c-12,13.1-27.2,21.8-42.5,30.3
		c-41.7,23.1-85.7,40.8-131,55.2c-9.8,3.1-19.9,5-30,6.8c-3.4,0.6-2.7-1.6-2.1-3.3c1.5-4.6,3.2-9.1,4.9-13.6
		c4.8-13,9-26.1,13.3-39.2c0.6-1.9,1.1-3.8,2.6-5.3c11-5.5,22-11,33-16.6c7.7-4,10.7-10.3,9-18.6c-1.3-6.8-1.9-7.2-8.2-4.2
		c-49.6,23.5-101.7,39.2-155.5,49.1c-29.9,5.5-60.2,8.1-90.6,8.7c-23,0.4-46,0.1-68.8-1.8c-38.2-3.2-75.8-10.3-112.7-20.5
		c-41.6-11.5-81.7-26.7-120.2-46.1c-41.9-21.1-81.4-46-118.6-74.5c-2-1.5-4-2.9-6.1-4.4c-3.1-0.2-5.1-2.3-7.3-4
		c-13-10.2-26.9-19-42.2-26.1c-0.8,6.5,0.2,12.6,0.8,18.7c1.8,18.5,3.6,37.1,9.2,54.9c3.9,12.5,8.9,24.7,14.5,36.6
		c1.4,3.1,1.4,3.1-0.2,5.1c-47.1-21.6-89.5-50.2-126.2-87c-10.8-10.9-21.5-21.8-31.8-33.1c-9.4-10.2-17.5-21.3-21.2-35
		c-3.4-12.7,0.3-25,2.1-37.4C323,1585.4,322.7,1583.5,324.1,1582.2z"/>
	<path class="st3" d="M1765.8,1271.4c5.1,12.8,12.7,24.9,11.8,39.1c-0.7,11-4.5,21.4-8.3,31.7c-11.7,32.3-26.3,63.2-44,92.7
		c-12.7,21.1-23.7,43.2-38.7,62.9c-15.8,20.8-34.4,38.9-54.2,55.7c-1,0.8-2,1.8-3.5,1.6c-10.1-1.2-20.2-1.9-30.3-2.3
		c-0.4,0-0.9-0.5-1.7-1c37.6-40.5,70.3-84.4,98.6-131.7C1723.7,1373,1747.2,1323.5,1765.8,1271.4z"/>
	<path class="st4" d="M499.9,1779.4c1.1-4-2-6.8-3.4-9.8c-8.2-18-14.8-36.5-17.8-56.2c-1.5-10.1-2.2-20.4-3.7-30.5
		c-1-6.9-0.5-13.9-1.5-21.2c19,8.2,35.7,19.7,51.6,32.4c-3.2,5.5-2.3,11.8-3,17.8c-0.2,1.8,1.8,2.7,3,3.8
		c25.8,22.9,53.4,43.3,82.7,61.6c7.5,4.7,15.2,9.2,23.1,14c-16.1,5-31.8,9.6-48.1,11.4c-13.5,1.5-26.8,2.9-40-3.3
		C528.4,1792.8,513.8,1786.9,499.9,1779.4z"/>
	<path class="st5" d="M436.1,239.4c-0.7,4.7-4.5,7.3-7.2,10.5c-13.7,16.1-26.2,33-36.7,51.3c-7.9,13.8-15.7,27.7-23.8,41.5
		c-8.9,15.1-18.4,29.9-27.1,45.1c-16,27.9-31.6,56.1-41.6,87c-1.2,3.8-0.7,7.9-2.4,11.5c-6.2-28.9-9.9-58.2-11.3-87.8
		c-0.6-12.4,4-21.9,12.2-30.8c27-29.2,55.7-56.7,85.2-83.4c16.3-14.7,33.3-28.6,50-42.9C434.1,240.6,435.1,240,436.1,239.4z"/>
	<path class="st5" d="M1299,84.5c-3.7,2.3-7.5,0-11-0.5c-11.3-1.7-22.6-2.8-34-3.7c-20-1.7-39.9-0.1-59.9-1.1
		c-9.6-0.5-19.3-1.4-28.8-0.5c-17.2,1.6-34.4,1.3-51.6,3.3c-14.6,1.7-29.2,4.3-44,4.4c-4.2,0-8.4,2.4-12.6,0.2
		c15.6-8.5,28.5-20.7,42.5-31.4c2-1.5,4.2-2.8,6.1-4.4c8.9-7.4,19.3-8.7,30.5-8c24.7,1.6,48.4,8,71.8,15.2
		C1238.1,67.3,1268.5,75.9,1299,84.5z"/>
	<path class="st5" d="M75.4,809.4c3.9-0.2,4.6-3.9,6.7-6.2c8.9-9.7,17.7-19.6,30.9-23.3c13.6-3.8,24.8,2.4,35.8,9.3
		c1.9,1.2,1.1,2.5,0.4,3.9c-4,8-8.4,15.6-15.1,22c-12.3,11.6-24.1,23.9-36.1,35.9c-14,14-26.7,29.1-39.8,43.9
		c-1.6,1.8-3.1,3.8-3.5,7.7c-0.3-2.3-0.5-3.3-0.7-4.3C59.6,868.2,63,837.7,75.4,809.4z"/>
	<path class="st2" d="M50.3,929.3c7.2,8.3,16.7,11.4,27.3,12c11,0.6,21.8-0.6,32.4-3.4c1.5-0.4,2.9-0.6,4.4-0.5
		c-2.7,13-5.7,25.9-7.9,38.9c-3.9,22.1-6.3,44.3-7.2,66.7c-0.1,2.1,0.3,4.3-1.7,6.6c-1.8-3-3.5-5.8-5.1-8.6
		c-7.1-12.6-15-24.8-24.9-35.4c-11-11.7-14-26.5-16.3-41.5C49.4,952.6,50.1,940.9,50.3,929.3z"/>
	<path class="st4" d="M1163.9,1823c-4.7,18.8-11.7,36.8-18,55c-0.6,1.8-4.2,4-0.6,6.4c-16.1,3-32.3,3.7-48.5,1.5
		c-12.5-1.7-21.1-9.9-29-18.9c-3.3-3.7-7.1-7-9.9-11.9c6.8-1.5,13.2-2.9,19.6-4.3c28.7-6.4,56.6-15.3,83.6-27
		C1161.9,1823.5,1162.9,1823.3,1163.9,1823z"/>
	<path class="st4" d="M1758.9,512.4c-12.2,17.6-24.4,35.3-36.6,52.9c-0.9,1.3-1.6,2.5-1.4,4.1c-8-27.1-17.5-53.7-28.6-79.6
		c-0.1-0.3,0-0.6,0-1.4c5.4,0.5,10.2,2.7,15.2,4.2c16.6,5,32.7,11.3,48.7,17.8C1757.4,510.8,1758.5,511.1,1758.9,512.4z"/>
	<path class="st4" d="M1363,159.4c2,0,3.3-1.2,4.9-2.2c12.2-7.7,23.9-16.1,35.4-24.8c4.6,2.4,7.5,6.5,10.6,10.3
		c12.8,15.7,20.2,33.9,21.5,53.6C1411.8,182.3,1387.7,170.3,1363,159.4z"/>
	<path class="st0" d="M1167.9,1235.4c0.2-42.6,14-81,36.8-116.4c26.7-41.4,61.7-73.8,106.6-95c20.6-9.7,42.2-16,65.1-17.9
		c38.2-3.1,72.1,6.3,99.7,33.8c19,18.9,29.3,42.3,33,68.7c6.8,48.2-5.9,92.1-30.3,133c-29.3,49.3-69.9,86.3-123.4,108.2
		c-24.1,9.8-49.2,14.8-75.2,13.1c-60.5-4-102.3-45.5-110.5-102.2C1168.5,1252.3,1167.7,1243.9,1167.9,1235.4z"/>
	<path class="st0" d="M449.1,1278.3c-68.7-16.8-110.2-62.4-133.9-126.6c-9.9-26.8-13-54.9-11-83.2c3-42.4,17.7-80.2,48-110.7
		c19.6-19.8,43.5-32.4,71.1-37.5c35.7-6.5,68.7,1.1,99.8,18.9c1.3,0.7,2.6,1.4,3.9,2.1c12.2,5.4,22.2,14,31.5,23.2
		c33.4,33.2,53.3,73.3,60.8,119.8c2.6,15.9,2,31.8,1.9,47.8c0,3.2-1,6.2-2.1,9.2c-2.4,16.9-6.6,33.3-13.1,49
		c-4.1,14.3-12.2,26.5-21.2,38c-24.3,30.7-55.8,48.9-94.9,52.9c-12.5,1.3-25.2,1.8-37.5-2.4C451.4,1278.5,450.1,1279.1,449.1,1278.3
		z"/>
	<path class="st0" d="M1106.7,475c-0.2-36.4,9.1-65.9,30.5-91c19.7-23,44.9-36.4,74.8-40.9c47.4-7,89.7,6.5,128,33.6
		c41.8,29.5,70.3,68.8,83.4,118.5c9.9,37.5,8.4,74.3-10.3,109c-18.8,34.8-48.5,55.3-87.3,62c-44.5,7.6-85.1-3.9-122.4-28
		c-43.7-28.2-73.9-67.2-89.4-117C1108.9,505.1,1106.3,488.4,1106.7,475z"/>
	<path class="st6" d="M469.9,1330.4c5.2-0.7,10.3,0.4,15.3,1.1c16.3,2.4,31.6-1.6,46.9-5.9c38.9-10.8,71.8-31.6,99-61.1
		c6.5-7,12-14.9,16.9-23.2c5.2,0.1,8.6-2.7,11.5-6.7c14.9-20.9,26-43.7,34.2-68c10.3-30.5,14.1-61.9,12.9-93.9
		c-0.1-2.2-0.4-4.3-0.7-6.4c-0.2-2.1-0.8-4.3,1.2-6c3,10.9,4.2,22,5.8,33.1c2.5,18.5,2.4,37.1,2,55.7c-0.4,20.8-3.3,41.3-8,61.5
		c-7.8,33.5-20.6,64.8-40.6,93c-12.2,17.3-27.1,32.2-42.6,46.7c-14.1,13.2-29.2,24.6-46.6,32.9c-16.8,8-34.2,13.4-52.8,15.1
		c-33.2,3.1-65.7-0.8-96.9-12.3c-25.3-9.3-47.7-24-68.9-40.6c-10.6-8.3-21.1-16.7-30.4-26.5c-14.4-15.3-26.9-32-37.1-50.4
		c-13.2-23.9-22.6-49.2-27.7-75.9c-2.5-13-3.9-26.2-4.6-39.5c-0.9-16.8,1.2-33.4,2.4-50c2.2,0.6,1.9,2.5,2.1,4
		c5.5,59.5,26.7,112.8,64.7,159c25.2,30.7,56,54.3,92.5,70.5c22.8,10.1,46.6,15.8,71.3,18.1c4.1,0.4,8.3,0,12.5,0.2
		c3.5,0.2,5.4-1.4,6.9-4.5c4.2-8.9,4.3-8.7-5.3-10.3c-10-1.6-20-3.4-29.8-6.2C473.7,1333.3,470.8,1333.4,469.9,1330.4z"/>
	<path class="st6" d="M1197.8,743.5c8.3,0.6,16.2,3.3,24.4,4c12.1,1,24,1.9,36.2,1.2c18.6-1.2,36.4-5.1,53.9-11
		c21.6-7.3,41.3-18,59.7-31.5c11.3-8.3,22-17.2,31.6-27.3c13-13.6,24.7-28.2,34.4-44.4c1.4-2.3,1.2-5.1,2.9-7.2
		c3.3-0.9,4.6-3.9,6.3-6.2c13.4-17.8,25.1-36.7,35.6-56.3c3.3-6.1,6.9-12.1,10.3-18.2c1.1-2,1.7-4.8,4.7-5.4
		c0.3,12.4-2.6,24.4-5.2,36.3c-9,41.9-25.5,80.6-49.3,116.2c-11.8,17.6-25.4,33.8-40.7,48.3c-32.8,31.1-70.6,53.4-115.4,62.6
		c-20.6,4.2-41.3,4.9-62.3,1.9c-22.7-3.2-43.9-10.5-63.6-21.8c-27.7-15.9-49.8-37.9-67-64.9c-17.8-27.9-29.2-58.4-35.2-90.9
		c-4-21.4-5.6-43.1-5-64.9c0.1-2.6,0.7-5.3,1.1-7.9c2.4,0.4,2,2.4,2.2,3.9c3.1,23.1,9.1,45.4,17.9,66.9
		c15.5,37.9,38.2,70.3,70.7,95.7c12.7,9.9,26.6,17.7,41.4,23.9c2.5,1.1,5,1.7,7.7,0.8C1197.1,746.8,1198.1,745.7,1197.8,743.5z"/>
	<path class="st0" d="M737.2,334.9c-0.2,23.4-7.2,41.2-16.6,58.1c-19.4,35-46.6,63.4-77.5,88.4c-25.2,20.3-52.5,37.4-82.8,49.2
		c-19.2,7.5-39,13.1-59.9,12.4c-18.1-0.6-34.5-5.6-45.4-21.4c-7.5-10.8-9.7-23-8.3-36c3.7-33.1,20.8-59.9,41.1-84.8
		c32.9-40.4,72.9-72.2,120.1-94.6c23.8-11.3,48.6-19.8,75.4-19.2c16.8,0.4,32.1,5,43.4,18.6C734.4,315.1,737.4,326.3,737.2,334.9z"
		/>
	<path class="st0" d="M887.9,1678.2c-39.6-1.3-77.5-6.3-112.6-23.9c-12.7-6.4-24.3-14.4-33.4-25.6c-18-22.3-15.6-50.1,5.8-69.4
		c18-16.3,39.7-25,62.7-30.9c20.1-5.1,40.6-7.5,61.3-8c37.2-0.9,73.3,4.1,107.8,18.3c17.2,7,33,16.5,44.9,31.4
		c15.9,20.1,15.3,44.4-1.6,63.6c-13.4,15.2-30.8,24-49.5,30.6c-22.4,8-45.7,11.9-69.5,13C898.3,1677.4,892.7,1677.9,887.9,1678.2z"
		/>
	<path class="st6" d="M1582,1125.3c1.3,1,0.9,2.4,0.9,3.7c0.4,13.5,0.7,26.9,1.1,40.4c1.2,33.5-4.6,66-15,97.7
		c-11.8,35.9-29.7,68.6-54.1,97.5c-24,28.4-52.5,51.4-86.3,67.3c-21,9.9-42.8,16.6-66,19.6c-26.6,3.5-52.6,1.4-78.3-5.7
		c-30.3-8.4-57-23.4-80.2-44.7c-16.2-14.9-30-31.5-40.6-50.7c-2.2-4-3.7-8.5-5.3-12.9c-0.5-1.4-0.8-3.3,0.2-4.3
		c1.5-1.6,2.7,0.6,3.7,1.2c11.4,6.8,21.8,15.1,33.6,21.4c24.6,13.1,50.1,23.7,77.5,29.4c18.4,3.9,37.1,5.6,55.9,5
		c17.8-0.5,35.2-3.7,52.6-7.3c8.1-1.7,15.8-5.2,24.2-5.6c-0.3,3-3,3.3-5,4.1c-14.1,6.4-28.8,11.3-43.4,16.5c-2.7,1-5.5,1.7-7.3,4.1
		c-0.8,1.1-1.7,2.3-1,3.6c0.7,1.5,2.3,1.1,3.6,0.9c17.9-2.4,35.4-6.2,52.7-11.4c11.3-3.4,22.8-6.5,33.9-10.3
		c16.3-5.6,31.4-13,43-26.9c12.6-15,26.3-29.1,38.3-44.8c25.7-33.6,44.8-70.5,54.8-111.7c2.6-10.6,2.8-21.4,4.1-32.2
		c1.6-12.4,0.7-24.9,1-37.4C1580.7,1129.6,1580.1,1127.1,1582,1125.3z"/>
	<path class="st6" d="M796,362.2c0.4,8.9-2,17.4-4.4,25.8c-8.7,30.9-23.5,58.8-42.4,84.7c-12.9,17.6-27.1,34.1-43,49
		c-30.9,28.9-65,53.1-104,70.2c-20.8,9.1-42.1,16.4-64.5,19.9c-26.8,4.2-53.6,4.9-79.7-4.5c-36.8-13.3-58.8-39.2-64.9-78
		c-0.9-5.4-1.3-10.8-1.9-16.3c-0.1-0.9,0-1.9,0-4.1c4.7,6.4,8.4,12.2,13.2,17.2c19.5,20.7,43.8,30.9,71.4,35.2
		c16.1,2.5,32.2,2.5,48.3,1.6c20.2-1,40.1-5.1,59.4-11.4c0.6-0.2,1.3-0.1,2-0.2c1.9,1.9,4.1,1.7,6.5,1.3c27.3-5,53-14,76.4-29.1
		c23.7-15.3,46.2-32.2,65.7-52.7c24.3-25.6,44.7-53.8,55.4-88c1.7-5.4,2.9-10.9,4.1-16.5C793.8,365,793.4,362.7,796,362.2z"/>
	<path class="st0" d="M469.9,1330.4c12.6,5,25.9,6.9,39.2,8.9c2.5,0.4,4.9,0.7,7.9,1.1c-2.2,5-4.3,9.6-6.2,14.2
		c-1.1,2.6-3.2,1.9-5.1,1.9c-35.1-0.1-68.2-8.7-99.2-25c-59-31-99.2-78.8-124.3-139.9c-11.2-27.3-17.9-55.7-20.2-85.1
		c-0.1-1.1-0.5-2.2-0.8-3.4c-0.8-15.8-0.8-31.5,0.9-47.3c5.6-50.8,23.1-96.7,56.2-136.1c6.7-7.9,14.2-15,21.5-22.2
		c4.3-4.3,8.6-5.5,14.4-2.6c-7.8,8.9-15.5,17.8-22.1,27.5c-20.5,29.6-33.7,62.2-40.2,97.5c-3.6,19.7-7,39.4-7.2,59.5
		c-0.4,29.8,3.7,58.7,13.3,86.9c23.2,68.1,65.5,119.8,131.6,150.4C442.6,1322.6,456.4,1326,469.9,1330.4z"/>
	<path class="st6" d="M1400,349.4c-8-5.2-16-10.6-24.1-15.7c-26-16.2-54.1-26.9-84.2-32.1c-25.4-4.3-50.7-4.1-76.1,1.2
		c-30.1,6.2-57,18.8-81.3,37.2c-18.4,13.9-33.7,31-46.3,50.4c-9.9,15.3-18.3,31.2-24.3,48.5c-0.9,2.6-1.9,5.4-4.2,7.2
		c-0.9,0.7-2,1.5-3.2,1.1c-1.4-0.5-1.2-1.9-1.2-3c-0.1-14.5,0.1-28.9,1.6-43.3c1.8-17.2,7.2-33,15.1-48.1
		c10.5-20.1,24.9-36.8,43.1-50.3c28-20.8,60-31.7,94.1-37.1c32.7-5.2,64.7-1.8,96.1,8.7c18.3,6.1,36.5,12.4,53.6,21.3
		c1.6,0.8,3.6,1.1,4.1,3.3c-2.3,1.4-4.2,0.1-6.1-0.9c-27.1-13.2-55.8-19.5-85.9-19c-5.2,0.1-10.3,0.9-15.4,1.5
		c-3.3,0.4-6.4,1.7-8.2,4.9c1,1.6,2.4,0.8,3.6,0.8c45.8,0.2,86.9,14.5,124,40.9c7.5,5.3,14.6,11,21.6,17
		C1398.2,345.3,1400.4,346.5,1400,349.4z"/>
	<path class="st0" d="M1582,1125.3c0.8,26.4,0.2,52.7-5.8,78.4c-9.5,40.4-28.7,76.4-53.7,109.4c-13.9,18.3-29.6,35.1-45.1,52.1
		c-9.2,10.1-21.5,15.7-33.8,19.6c-23.7,7.6-47.4,15.7-72,20.1c-7.2,1.3-14.5,2.2-21.7,3.3c-3.4,0.5-3.7-1.1-2.7-3.7
		c1.5-4.1,4.8-6.1,8.8-7.4c15.1-5.1,30.2-10.5,44.8-16.9c1.8-0.8,3.8-1.2,5.2-2.8c16.2-7.8,32.3-15.5,48.5-23.4
		c1.9-0.9,3.4-2.6,4.9-4.2c21.6-22.6,42.9-45.6,59.5-72.3c19.6-31.3,34.6-64.6,39.6-101.5c2.7-20.1,6.3-40.3,5.5-60.8
		c-1.1-27.8-6.2-54.8-16.5-80.7c-0.4-1-0.8-2-1.5-3.7c7.6,2.9,13.7,5.5,17.3,13.3c7.9,17.2,11.8,35.4,15.7,53.7
		C1581,1106.8,1581.6,1116,1582,1125.3z"/>
	<path class="st0" d="M707.2,1060.2c1.5,19.8,1.5,39.5-1.2,59.2c-5.9,43.1-21.4,82.5-46.7,117.9c-2.4,3.4-5.6,5.1-9.7,5.3
		c-1.1,0.1-1.5-0.4-1.5-1.4c13.6-26.8,25.9-54,31.5-83.8c5.1-27.2,6.4-54.6,4.9-82.2c-1.7-30.4-8.4-59.3-22.5-86.2
		c-6.9-13.2-13.8-26.6-22.8-38.5c-11.2-14.8-26.3-24.8-42.1-33.8c-25.7-14.4-53.8-22-82.1-28.8c-6.6-1.6-13.1-3.3-19.7-4.9
		c-2.7-0.6-2.8-1.4-1-3.4c2.4-2.5,5.5-3.1,8.6-3.4c50.8-4.5,96,9.3,134.5,42.9c39.9,34.8,60.7,80,68.7,131.7
		C706.6,1054,706.9,1057.1,707.2,1060.2z"/>
	<path class="st0" d="M1105.9,1210.3c-1.7-24.8,6.8-50.4,16-75.9c11.6-32,27.7-61.4,49.8-87.4c13-15.3,29.4-26.8,45.8-38.3
		c28.6-20.1,59.3-35.9,91.7-48.7c11.1-4.4,22.6-7.5,34.2-10c1.9-0.4,3.9-2,4.8,1.1c0.8,2.8,2.3,5.9-1.6,7.8
		c-3.1,1.5-6.3,2.9-9.4,4.5c-37.3,18.8-74.2,37.9-107.6,63.4c-25.7,19.6-49,41.4-67.1,68.4c-8.9,13.3-14.7,28.2-19.9,43.3
		c-6.6,19-12.8,38.2-16,58.2c-2.7,17-2.6,34.1-1.9,51.2c0.6,14.7,3,29.3,5.4,43.8c0.3,1.8,0.2,3-1.9,3.9c-2.1,0.9-2.8-0.2-4.1-1.2
		c-10.3-7.7-11.8-19.4-14.1-30.7C1106.7,1247,1105.9,1230.1,1105.9,1210.3z"/>
	<path class="st0" d="M1400,349.4c-12.7-12.7-27.1-23.1-42.4-32.2c-32-18.9-66.5-29.4-103.9-29.6c-1.5,0-3,0.1-4.5,0.1
		c-1.5,0-3,0-4.7,0c1.2-5.2,4.5-7.9,9.5-8.7c16.9-2.7,33.8-1.9,50.7,0.8c18.5,3,36.2,8.8,53.1,16.8c1.6,0.8,3.4,1.3,5.1,2
		c26.7,14.2,50.2,32.5,70.5,54.9c22.9,25.3,41,53.7,53.1,85.4c6.4,16.7,9.4,34.5,11,52.5c1,11,2.4,22,2.4,33.1
		c0,5.6-0.3,11.2-1.9,16.7c-8.3,14.5-16.6,29.1-24.8,43.6c-7.8,13.7-17.2,26.4-26.3,39.2c-1.3,1.9-2.8,3.9-4.8,5
		c-2.3,1.3-0.6-1.2-1.1-1.8c6.7-19.5,15.9-37.9,24.4-56.6c5.3-11.6,12.4-22.5,14.9-35.2c3.8-18.7,1.5-37.3-2.3-55.8
		c-10.9-52.1-40.1-93.3-77.1-129.9C1400.6,349.7,1400.3,349.5,1400,349.4z"/>
	<path class="st0" d="M846.1,1466c29.1,0,58.9,7.6,88.6,15.8c14.1,3.9,27.9,8.3,40.9,15.1c4.5,2.4,7.6,13.1,5,17.5
		c-0.9,1.6-1.7,0.7-2.8,0.3c-27.1-10.4-55.2-17.3-83.9-21.2c-25.2-3.5-50.6-5.8-76-2.9c-24.5,2.8-47.5,11.3-69.8,21.6
		c-15.6,7.2-28.3,17.8-38.4,31.6c-2.9,3.9-5,8.2-6.9,12.6c-0.8,2-2.1,2.7-4.3,3.4c-3.6,1.1-3.3-0.8-2.9-2.8
		c2.5-13.3,6.9-25.8,13.8-37.6c9-15.5,23.8-23.6,38.9-30.8c24.8-11.8,50.8-19.7,78.5-21.8C832.5,1466.3,838.2,1466.3,846.1,1466z"/>
	<path class="st0" d="M1072.8,1634.9c2.2,10.8-3.9,17.2-9.4,23.5c-13.6,15.5-31.2,25.2-50,32.8c-22.9,9.3-46.8,14.7-71.3,18.2
		c-22.3,3.2-44.6,4.2-67,3.3c-36.5-1.3-72.1-7.1-105.5-22.7c-7.7-3.6-14.9-8-21.7-13.2c-4.9-3.7-6.1-7.8-4.2-13.3
		c24.9,13.5,51.8,20.5,79.6,24.7c26.9,4.1,53.9,5.1,81,3.8c42.4-2,83.9-8.6,123.2-25.8c8.4-3.7,16.5-7.8,24.1-12.9
		C1059.1,1648.3,1066.3,1642.7,1072.8,1634.9z"/>
	<path class="st6" d="M782,321.4c-4.7-13-11.8-24.4-23.2-32.6c-10.6-7.6-22.6-12.4-35.3-15.4c-16.9-4-34-5.1-51.3-3.2
		c-5.9,0.6-11.9,0-17.3,3c-34.7-2.9-66.1,7.4-96,23.9c-11.2,6.2-21.9,13.2-32.1,20.9c-1.6,1.2-3.2,3.1-5.7,2.2
		c2.8-8.1,9.6-13.1,15.5-18.5c15.7-14.3,33.3-25.8,52.6-34.9c23.6-11.1,48.2-18.3,74.4-20.6c20.1-1.8,39.9-0.8,59.3,4.3
		c29.6,7.9,54.1,23.4,68.3,51.4c8.7,17.2,10.4,35.8,6.2,54.8c-0.1,0.6-0.6,1.1-0.9,1.7c-2-1.6-1.1-3.6-0.9-5.5
		c1.1-11.2-0.7-22.1-3.3-33c-0.5-2-1.4-3.7-2.8-5.2c-1.3-1.3-2.7-3-4.6-2.4c-1.9,0.7-1,2.9-1.2,4.4
		C783.2,318.4,783.5,320.2,782,321.4z"/>
	<path class="st0" d="M782,321.4c0.1-2.5,0.1-5,0.2-7.4c0.3-4.5,1.3-5,5.4-2.7c3.9,2.3,5.4,6,6.4,10.2c3,12.2,3.4,24.5,2.3,37
		c-0.1,1.3-0.2,2.5-0.3,3.8c-3.3,16.3-8.3,32.1-15.8,47c-17.7,35.1-43.3,63.7-73.5,88.4c-18.9,15.5-38.7,29.7-60.8,39.9
		c-18.2,8.4-37.5,14.5-57.6,17.2c-3.3,0.4-2.5-1.7-2.9-3.3c12.4-7.5,26.7-11,39.3-18.1c38.2-21.4,72.3-47.6,101.4-80.7
		c15.3-17.4,30.6-35,41-55.6c11.1-21.9,18.5-45.4,15.4-70.8C782.2,324.7,782.1,323,782,321.4z"/>
	<path class="st0" d="M1197.8,743.5c2.5,1.7,2.5,3.1-0.4,4.4c-3.8,1.8-7.3,1.3-11-0.2c-28.5-11.6-52.2-29.9-72-53.1
		c-32.9-38.6-50.9-83.8-58.3-133.5c-0.2-1.6-0.7-3.2-1-4.8c-1.9-17.5-2.5-35.1-2-52.7c0.1-4.7,0.9-9.3,5.2-12.3
		c1.2-0.8,2.5-2.2,4-1.6c1.7,0.7,0.8,2.6,0.8,4c0,27.2,3.8,53.9,11.2,79.9c15.3,54.3,42.6,101.8,84.2,140.4
		C1170.6,725,1183.6,735,1197.8,743.5z"/>
	<path class="st7" d="M521,320.2c13.5-9.4,26.9-18.8,41.5-26.6c19.2-10.3,39.5-17.5,61-20.9c9.7-1.5,19.5-2,29.3-0.5
		c0.8,0.1,1.7,0.1,2.1,1c-56.1,6.8-100.5,36.3-140.7,73.4c-31.2,28.8-56.5,62.2-75.2,100.5c-8.5,17.3-14.7,35.4-18.6,54.3
		c-0.6,3-0.8,6.3-4,9.1c0-6.6-0.6-12.7,0.1-18.6c5.5-47.8,27.3-88.2,57-124.9C487.6,349.8,503.8,334.5,521,320.2z"/>
	<path class="st6" d="M619.2,1141.3c0.7-11.6,1.8-23.2,0.9-34.8c-5-68.7-33.5-124.3-91.2-163.6c-0.7-0.5-1.3-1-1.9-1.5
		c9.8,2.4,18.6,7,27.2,12c18.9,11,35.2,25.1,47.9,42.9c12.9,18,21.6,38,25.9,59.8c5.4,27.3,3,54-5.8,80.3
		C621.6,1138.2,621.2,1140.2,619.2,1141.3z"/>
	<path class="st6" d="M449.1,1278.3c11.4,1.4,22.7,2.9,34.3,2.2c43.5-2.7,77.6-22.5,103.6-56.9c7.8-10.3,13.4-21.7,19.1-33.2
		c-0.5,10.5-4.3,20.1-8.1,29.6c-12.7,31.8-34.6,54.1-67.7,64c-16,4.8-32.5,5.7-49.2,2.7C470.1,1284.7,459.3,1282.8,449.1,1278.3z"/>
	<path class="st8" d="M1454,1122.5c-0.1,24-5.9,46.7-15.4,68.5c-12.5,28.5-30.1,53.6-52.3,75.4c-22.7,22.3-48.6,40-78.8,50.4
		c-23.1,8-46.7,11.2-71,5.6c-11.8-2.7-18.7-11.1-25.2-19.9c-13-17.7-18.7-37.8-19.5-59.7c-1.6-40.6,11.2-76.7,32.5-110.4
		c20.1-31.9,46.4-57.7,78.6-77.3c20.8-12.7,43.2-21.6,67.4-24.5c14.1-1.7,27.7,2.8,40.2,9.5c26.9,14.6,39.4,38.4,42.6,67.9
		c0.3,2.5,0.7,4.9,0.9,7.4C1454.1,1117.8,1454,1120.2,1454,1122.5z"/>
	<path class="st6" d="M1446.7,1046.3c19.9,13.7,31.8,32.7,37.2,55.9c7.1,30.9,3.4,61.2-7.9,90.4c-25,64.5-68.9,111-133.7,136.8
		c-14.5,5.8-29.8,8.8-45.5,9.6c7-2.6,14.3-4.4,21.3-7.1c37.7-14.7,69-38.4,95.4-68.8c20.4-23.5,36.3-49.6,46.8-79
		c7.9-22.1,12.5-44.8,11.4-68.3C1470.5,1090.2,1463.7,1066.4,1446.7,1046.3z"/>
	<path class="st8" d="M517.9,1230.4c-36.9,0-70.2-11.2-98.9-34.2c-31.6-25.2-51.4-57.9-58-98.2c-7.6-45.9,3.2-87.3,30.7-124.5
		c7.6-10.3,16.8-19.3,27-27.2c4.7-3.6,10.7-3.4,16.2-4c18.6-2,36.7,0.3,54.3,6.8c16.6,6.1,31.6,14.9,44.8,26.5
		c34.9,30.5,54.4,69.4,61.2,114.9c2.7,18.4,2.2,36.6-0.7,55c-3.8,24.4-13.5,46.1-27.7,66c-3.6,5-7.7,9.7-12.3,13.7
		c-4.2,3.6-9.7,2.8-14.7,3.8C532.6,1230.7,525.2,1230.4,517.9,1230.4z"/>
	<path class="st6" d="M366.7,977.5c-32.9,59.3-36.8,119.6-3.6,179.4c33.2,59.9,86.3,88.8,155.5,92c-9.8,4-18.6,6.5-27.7,7.5
		c-31.6,3.7-60.4-4.7-86.4-22.3c-22.1-15-39.4-34.6-52.6-57.9c-12.4-21.9-20.5-45.5-23.3-70.4c-4.7-42.1,2.5-81.7,27.8-116.9
		C359.5,984.8,362.8,980.8,366.7,977.5z"/>
	<path class="st8" d="M1378.1,573.3c0.3,14.1-1.3,27.3-4.7,40.5c-1.2,4.7-3.7,7.9-7.5,10.6c-17.3,12.6-36.6,19-57.9,20.2
		c-32.4,1.7-61.6-7.6-88.9-24.2c-26.5-16.1-47.7-37.6-63.8-64.1c-13-21.4-21.5-44.4-24.4-69.4c-1.9-16.9-0.8-33.4,3.9-49.8
		c0.7-2.3,2-3.4,3.7-4.3c19.4-10.7,40.2-16.9,62.3-19.4c26.9-3.1,52.7,1.3,77.5,11.3c24,9.6,44.4,24.7,61.3,44.4
		c19.7,22.9,31.4,49.4,36.6,79C1377.8,556.5,1378.4,565.1,1378.1,573.3z"/>
	<path class="st6" d="M1396.2,583.7c1.1-64.6-22.5-117.6-75.4-155.4c-52.9-37.8-110.8-42.4-172-20.6c8.3-11.8,18.2-21.1,30.2-28.2
		c21.4-12.6,44.7-16.4,69.1-13.7c47.7,5.2,85.2,29,115.7,64.9c19.3,22.8,32.3,48.9,38.6,78.3c5.1,24.3,4.3,48-4.2,71.4
		c-0.3,0.9-0.7,1.9-1.1,2.8C1396.9,583.4,1396.6,583.5,1396.2,583.7z"/>
	<path class="st8" d="M699.1,353.3c13,0,12.9,0,9.5,9.1c-7.9,21.3-20.5,39.9-35.2,57c-25.1,29.1-54.1,53.5-87.5,72.6
		c-22.9,13.1-46.9,23.5-73.4,27.1c-4.2,0.6-3.5-1.9-3.3-4c0.6-11.4,3.4-22.3,8.3-32.6c12.6-26.5,31.4-48,53-67.3
		c18.4-16.5,38.7-30.3,60.8-41.5C653.7,362.2,677.1,354,699.1,353.3z"/>
	<path class="st6" d="M491.7,518.2c-18-3.7-23.5-16.5-21.4-32.4c2.3-17.2,9.8-32.3,18.9-46.7c18-28.7,41.4-52.5,67.8-73.3
		c27.3-21.6,56.8-39.5,90.4-49.6c11.5-3.5,23.2-6.2,35.2-5.5c10.9,0.7,21.6,2.5,27.7,13.4c0.4,0.7,1,1.4,1.2,2.2
		c0.7,2.9,2.7,6.1,1.5,8.7c-1.6,3.2-4.9,0.4-7.4,0.4c-19.8,0.2-38.9,4.2-57.3,11.4c-49.5,19.3-90.8,49.9-123.9,91.4
		c-14.3,17.9-25.8,37.5-30.8,60.3C492.2,504.8,491.4,511.3,491.7,518.2z"/>
	<path class="st8" d="M873.1,1544c27.5-0.7,54.6,2.3,80.9,10.4c16.5,5.1,32.1,11.8,45.3,23.4c2.8,2.5,2.2,3.4-0.4,5.3
		c-16.7,12-35.8,18-55.6,22.2c-17.6,3.7-35.4,5.7-53.3,5.7c-23.9,0-47.6-2.5-70.7-9.4c-10.9-3.3-21.4-7.3-30.9-13.6
		c-5.5-3.6-10.2-8-13.7-13.6c-2-3.2-1.8-5.3,2-7.5c20.7-12,43.2-17.7,66.6-20.8C853.2,1544.8,863.1,1544.1,873.1,1544z"/>
	<path class="st6" d="M758.6,1582.7c15.5,23.1,39.4,31.7,64.3,38.2c24.4,6.4,49.4,8.4,74.6,7.4c33.7-1.3,66.7-6.5,97.3-21.9
		c5.8-2.9,11-6.7,16.8-10.6c1.9,9.3-1.4,16.4-7.1,22.6c-9.5,10.5-21.8,16.8-34.8,21.8c-22.1,8.4-45,12.1-68.5,13.4
		c-30.6,1.6-60.6-1.5-90-10.4c-18.3-5.6-35.7-13.1-49.1-27.4C753,1605.9,749.8,1595.5,758.6,1582.7z"/>
</g>
</svg>
