<?xml version="1.0" encoding="utf-8"?>
<!-- Generator: Adobe Illustrator 27.8.1, SVG Export Plug-In . SVG Version: 6.00 Build 0)  -->
<svg version="1.1" id="Layer_1" xmlns="http://www.w3.org/2000/svg" xmlns:xlink="http://www.w3.org/1999/xlink" x="0px" y="0px"
	 viewBox="0 0 90 86" style="enable-background:new 0 0 90 86;" xml:space="preserve">
<style type="text/css">
	.st0{fill:#FFD97B;stroke:#010101;stroke-width:0.5;stroke-miterlimit:10;}
	.st1{fill:#F7BD57;stroke:#010101;stroke-width:0.5;stroke-miterlimit:10;}
	.st2{fill:#F7BE57;stroke:#010101;stroke-width:0.5;stroke-miterlimit:10;}
	.st3{fill:#DA9A48;stroke:#010101;stroke-width:0.5;stroke-miterlimit:10;}
	.st4{fill:#E2A452;stroke:#010101;stroke-width:0.5;stroke-miterlimit:10;}
	.st5{fill:#DC9D4A;stroke:#010101;stroke-width:0.5;stroke-miterlimit:10;}
	.st6{fill:#D99744;stroke:#010101;stroke-width:0.5;stroke-miterlimit:10;}
	.st7{fill:#DA9846;stroke:#010101;stroke-width:0.5;stroke-miterlimit:10;}
	.st8{fill:#D99745;stroke:#010101;stroke-width:0.5;stroke-miterlimit:10;}
	.st9{fill:#E3A652;stroke:#010101;stroke-width:0.5;stroke-miterlimit:10;}
	.st10{fill:#D79643;stroke:#010101;stroke-width:0.5;stroke-miterlimit:10;}
	.st11{fill:#E2A853;stroke:#010101;stroke-width:0.5;stroke-miterlimit:10;}
	.st12{fill:#E5AD57;stroke:#010101;stroke-width:0.5;stroke-miterlimit:10;}
	.st13{fill:#E8B25A;stroke:#010101;stroke-width:0.5;stroke-miterlimit:10;}
	.st14{fill:#E1A24F;stroke:#010101;stroke-width:0.5;stroke-miterlimit:10;}
	.st15{fill:#E7AF59;stroke:#010101;stroke-width:0.5;stroke-miterlimit:10;}
	.st16{fill:#DD9E4B;stroke:#010101;stroke-width:0.5;stroke-miterlimit:10;}
	.st17{fill:#E2A34F;stroke:#010101;stroke-width:0.5;stroke-miterlimit:10;}
	.st18{fill:#DFA14D;stroke:#010101;stroke-width:0.5;stroke-miterlimit:10;}
	.st19{fill:#E7AF58;stroke:#010101;stroke-width:0.5;stroke-miterlimit:10;}
	.st20{fill:#DC9C48;stroke:#010101;stroke-width:0.5;stroke-miterlimit:10;}
	.st21{fill:#E9B35B;stroke:#010101;stroke-width:0.5;stroke-miterlimit:10;}
	.st22{fill:#E4A753;stroke:#010101;stroke-width:0.5;stroke-miterlimit:10;}
	.st23{fill:#E2A350;stroke:#010101;stroke-width:0.5;stroke-miterlimit:10;}
	.st24{fill:#E5AB55;stroke:#010101;stroke-width:0.5;stroke-miterlimit:10;}
	.st25{fill:#FFD87A;stroke:#010101;stroke-width:0.5;stroke-miterlimit:10;}
</style>
<g>
	<path class="st0" d="M87.7,36c-0.1,2.4,0.2,4.8,0.1,7.2c-0.5,8.6-3.5,16.3-8.6,23.2c-1.3,1.7-2.7,3.3-4.2,4.9
		c-0.3,0.3-0.5,0.6-0.3,1.1c0.1,0.3,0.1,0.8-0.2,1.1c-0.4-0.1-0.6-0.4-0.7-0.7c-0.1-0.8-0.5-0.5-1-0.3c-0.7,0.5-1.3,1.1-1.9,1.7
		c-2.3,2.4-5,4.2-8.2,5c-0.6,0.2-1,0.6-1.5,0.9c-2.1,0.4-4.1,1.5-6.2,2c-1.8,0.4-3.5,1.1-5.3,1.4c-0.4,0.1-0.8,0.2-1.1-0.1
		c-0.5-0.7-0.7-1.5-1-2.3c-0.6-1.6-1.5-2.7-3.1-3.3c2,1.4,2.8,3.5,3.2,5.8c-0.7,0.4-1.6,0.5-2.2,1.2C45.3,85,45,85,44.8,84.7
		c0.8-1.3,0-2.1-0.9-2.9c-4.5-4.8-10.2-7.5-16.7-8.3c-3-0.4-6.1-0.3-9.2,0.2c-1.3,0.2-2.1,1.1-2.7,2.2C8.7,70.6,4.5,63.8,2.2,55.8
		C0.3,48.9,0.3,42,2.1,35.1c0.2-0.6,0.3-1.2-0.6-1.4c1.5-0.3,2-1.4,2.4-2.7c1.4-4.5,3.9-8.5,6.6-12.4c0.2-0.4,0.5-0.7,0.6-1.1
		c1-1.4,2.1-2.6,3.3-3.7c0.8,0.2,0.7,1.3,1.5,1.5c-0.1-0.8-0.8-1.3-1-2c0.2-0.1,0.3-0.3,0.5-0.4c0.3,0,0.5,0.1,0.8,0.1
		c-0.1-0.2-0.4-0.2-0.5-0.4c6.9-5.9,14.9-9.5,23.8-11c3.6-0.6,7.1-0.4,10.7-0.5c1.3,0.7,2.6,1.2,4.1,1c0.9-0.1,1.8,0.2,2.6,0.7
		c0.9,0.5,2,0.7,3,0.4c4.5,1.2,8.5,3.4,12.2,6.1c5,3.7,8.9,8.3,11.6,13.9c0.2,0.4,0.4,0.7,0.7,1c-0.2,0.3-0.5,0.2-0.8,0.2
		s-0.7-0.2-0.9,0.1c-0.2,0.4,0.1,0.7,0.3,0.9c1.4,1.5,2,3.3,2.5,5.2c0.2,0.7,0.4,1.5,0.6,2.2c0.3,1.1,0.6,2.2,0,3.2
		C86.9,36.5,87.3,35.8,87.7,36z"/>
	<path class="st1" d="M15.4,75.8c0.1-1.2,1.3-2.4,2.6-2.6c5.3-0.5,10.6-0.5,15.7,1.3c4.7,1.7,8.5,4.6,11.8,8.3
		c0.7,0.8-0.4,1.2-0.6,1.8c-0.5,0.3-0.9,0-1.2-0.4c-0.7-1.4-2.1-1.7-3.5-1.8c-4.8-0.4-9.4-1.4-13.8-3.2c-2-0.8-3.7-1.9-5.5-3
		c-0.5-0.3-1-0.7-1.5-0.9c-1.1-0.4-2.1-0.6-3,0.4c-0.2,0.2-0.5,0.4-0.8,0.3C15.6,76,15.5,75.9,15.4,75.8z"/>
	<path class="st1" d="M15.7,76.1c2.3-1.8,2.9-1.9,5.4-0.2c4.7,3.2,9.9,4.8,15.4,5.8c1.9,0.3,3.8,0.2,5.6,0.8
		c0.9,0.3,1.5,0.8,1.9,1.5c0.2,0.5,0.5,0.7,1,0.6c0.3,0,0.6,0.1,0.7-0.2c0.4-1,1.2-1,2-1c0.3,0,0.6-0.2,1-0.2c1.4,0,2.8-0.4,4.1-0.8
		c2.5-0.7,5-1.4,7.3-2.5c0.4-0.2,0.8,0.1,1.1,0c0.2,0.1,0.4,0.2,0.3,0.5c-3,1.6-6.2,2.6-9.5,3.3C41.8,86,32,85,22.6,80.4
		C20.1,79.3,17.8,77.9,15.7,76.1z"/>
	<path class="st1" d="M11.2,17.5c0.5,0.3,0.2,0.6,0,1C8.3,22.3,5.9,26.4,4.4,31c-0.2,0.5-0.4,0.9-0.6,1.4c-0.3,1.1-1.1,1.5-2.1,1.3
		c-0.6-0.6-0.5-1.4-0.4-2.1c1.1-5.2,3.7-9.5,7.4-13.3C9.4,17.7,10.2,17.4,11.2,17.5z"/>
	<path class="st2" d="M87.7,36c-0.2,0.1-0.4,0.3-0.6,0.4c-0.4,0.2-0.8,0.5-1.2,0.1c-0.3-0.4,0-0.7,0.3-1c0.2-0.2,0.3-0.4,0.2-0.7
		c-0.6-2.7-1.2-5.4-2.6-7.9c-0.3-0.5-0.8-0.9-1.1-1.3c-0.3-0.3-0.6-0.7-0.3-1.2c0.2-0.5,0.8-0.2,1.2-0.2c0.3,0,0.6,0.1,0.9,0.2
		c1.2,0,1.9,0.7,2.4,1.6c1.3,2.7,2.2,5.6,2.4,8.7C89.3,35.8,88.4,35.7,87.7,36z"/>
	<path class="st2" d="M61.5,80.5c-0.1-0.2-0.2-0.3-0.3-0.5c0.1-0.5,0.4-0.8,0.9-0.9c3.4-0.8,6.2-2.7,8.7-5.2c0.6-0.6,1.3-1.2,2-1.8
		c0.5-0.4,1.3-0.9,1.1,0.5c0,0.4,0.3,0.6,0.5,0.9c-1.6,2.5-3.7,4.4-6.2,5.9c-0.6,0.3-1.2,0.6-1.7,1c-1.4,1-2.8,1.1-4.3,0.4
		C62,80.7,61.8,80.6,61.5,80.5z"/>
	<path class="st2" d="M59.9,3.2c-0.5,0.8-1.3,0.6-2,0.3c-1.2-0.3-2.2-1.1-3.5-1.2c-0.8,0-1.6,0.3-2.4-0.1c-0.7-0.3-1.4-0.5-1.8-1.2
		c0.1-0.6,0.5-0.7,0.9-0.7C54.4,0.2,57.5,0.6,59.9,3.2z"/>
	<path class="st3" d="M14.9,13.3c0.8,0.4,1,1.3,1.5,2c0.1,0.1,0.1,0.3,0,0.4c-0.2,0.2-0.4,0-0.5,0c-0.8-0.4-0.9-1.3-1.4-1.9
		C14.5,13.5,14.7,13.3,14.9,13.3z"/>
	<path class="st4" d="M15.7,12.6c0.4,0,1-0.2,1.2,0.3c0,0.1,0,0.3-0.1,0.3c-0.5,0.1-1.1,0.2-1.4-0.4C15.5,12.8,15.6,12.7,15.7,12.6z
		"/>
	<path class="st1" d="M61.2,28.6c-2.9-0.1-5.5-0.7-7.6-2.7c-3.3-3.1-2.7-8,0.8-10.8c2.2-1.7,4.7-2.6,7.4-2.8c3-0.2,6.1,0.6,8.3,2.5
		c2.9,2.4,3.3,5.9,1,9.1C68.6,27.2,65.1,28.4,61.2,28.6z"/>
	<path class="st1" d="M39.9,37.9c3.1,0.3,6.1,0.8,8.7,2.7c2,1.4,2.3,3.5,1.7,5.7c-0.9,3.3-2.5,6-5.9,7.3c-3.8,1.5-9.2,0.1-11.4-3.2
		c-1.4-2.1-1.3-7.1,0.9-9.9C35.4,38.6,37.4,37.7,39.9,37.9z"/>
	<path class="st1" d="M60.2,68.6c-1.2-0.1-2.3-0.2-3.4-0.5c-0.8-0.2-1.1-0.8-1.1-1.6c0-2.9,1.2-5.2,3.4-7.1c2.5-2.2,5.3-3.9,8.6-4.6
		c1.1-0.2,2.2-0.4,3.3-0.3c2.1,0.1,3.8,2.4,3.2,4.4c-0.3,1-0.8,2-1.4,2.8C69.5,65.8,65.4,68.1,60.2,68.6z"/>
	<path class="st1" d="M25.9,14.5c-0.8,0-1.6,0.1-2.3-0.6c-0.9-0.8-0.9-1.5-0.2-2.4S25,9.8,26,9.4c2.7-1,5.4-2.3,8.5-2.2
		c0.3,0,0.6,0,0.9,0.1c1.6,0.4,1.9,1.5,0.8,2.8c-1.2,1.3-2.7,2.2-4.3,2.9C30.1,13.9,28.1,14.5,25.9,14.5z"/>
	<path class="st1" d="M13.8,57.1c0.2,1.2,0.8,2.1,1.5,3.1c1.3,1.7,2.3,3.6,3.1,5.5c0.1,0.3,0.2,0.6,0.5,0.7c0.2,0.5,0.1,1-0.2,1.4
		c-1.7,0.7-2.9-0.4-3.8-1.4c-1.7-1.8-3-3.9-3.9-6.2c-0.4-0.9-0.3-1.7,0-2.6c0.2-0.8,1.1-0.6,1.6-1C13.1,56.5,13.4,57,13.8,57.1z"/>
	<path class="st5" d="M62.3,31.7c-1.9-0.4-3.9-0.7-5.8-1.1c-0.2,0-0.4-0.1-0.4-0.3c0-0.3,0.3-0.3,0.5-0.4c1.2-0.1,2.5,0,3.5,0.5
		c1.8,0.8,3.4,0.7,5-0.3c0.6-0.4,1.2-0.5,1.9-0.7c4.2-1,6.5-3.9,7.6-7.9c0.2-0.6-0.1-1.2-0.2-1.8c0-0.3-0.1-0.8,0.4-0.8
		c0.4,0,0.4,0.3,0.5,0.6c0.3,0.9,0.2,1.7-0.1,2.6c-1.3,3.9-4,6.3-7.8,7.7c-1,0.3-1.9,0.6-2.8,1.2C64,31.5,63.2,31.7,62.3,31.7z"/>
	<path class="st6" d="M49.5,52.7c1.1-1.1,1.7-2.5,2.3-3.8c1.1-2.2,1.2-4.4,0.5-6.6c-0.1-0.3-0.4-0.8,0.1-1c0.4-0.1,0.6,0.4,0.7,0.7
		c0.9,2.3,0.8,4.6-0.3,6.8c-0.6,1.2-1.1,2.6-2.2,3.5C50.4,52.6,50.2,52.9,49.5,52.7z"/>
	<path class="st7" d="M36,54.8c-3.2,0.2-4.5-2-5.9-4c-1.1-1.5-0.9-3.2,0.3-4.6C29.9,50.7,32.6,52.9,36,54.8z"/>
	<path class="st6" d="M59.9,70.8c-1.6,0.7-3.6,0.2-4.8-1.1c-1.2-1.3-1.7-3.4-1-4.6c0.1-0.3,0.3-0.6,0.7-0.6c0.4,0.1,0.2,0.4,0.2,0.7
		C54.9,68.8,56.1,70.2,59.9,70.8z"/>
	<path class="st2" d="M11.9,46.1c-0.5,0.9-1.3,1.2-2.3,1.1c-0.7,0-1.1-0.4-1.3-1.1s0.2-1,0.6-1.4c0.4-0.3,0.9-0.5,1.3-0.7
		c0.8-0.5,1.2-0.2,1.5,0.6C11.6,45.2,11.8,45.6,11.9,46.1z"/>
	<path class="st8" d="M48.7,83.3c-0.3,0.4-0.5,0.7-1,0.2c-0.7-1.6-0.9-3.6-2.5-4.8c-0.3-0.2-0.6-0.5-0.9-0.7
		c-0.2-0.2-0.6-0.3-0.3-0.6c0.2-0.3,0.5-0.2,0.7-0.1c1.2,0.7,2.4,1.5,2.9,2.9C48,81.3,48.5,82.2,48.7,83.3z"/>
	<path class="st2" d="M44.5,4.1c-0.4,0.7-1.2,1.3-2,1.6c-0.7,0.3-1.4,0-1.9-0.6c-0.1-0.1-0.1-0.2-0.1-0.3c0.1-1,0.9-1.3,1.6-1.5
		c0.8-0.1,1.7-0.4,2.2,0.5C44.4,3.9,44.4,4,44.5,4.1z"/>
	<path class="st9" d="M64.7,54.3c-1.5,0.9-3.8,0.5-4.8,2.3c-1,1.6-3,2.2-3.7,4c-0.1-1.1,0.4-1.9,1.3-2.4c0.5-0.2,0.9-0.5,1.2-0.9
		C60,55,62.2,54.4,64.7,54.3z"/>
	<path class="st10" d="M18.7,67.8c0-0.5-0.1-1,0.2-1.4c1.1-0.8,2.2-0.1,3.3-0.1c0.3,0,0.6,0.3,0.6,0.6c0.1,0.5-0.4,0.5-0.6,0.7
		c-1,0.3-2-0.1-3.1,0.2C19,67.8,18.9,67.8,18.7,67.8z"/>
	<path class="st11" d="M36.5,63.9c-0.4-0.1-0.5-0.4-0.4-0.7c0.1-0.4,0.2-0.8,0.5-1.1c1.1-1.3,1.7-2.8,1.8-4.5c0-0.3,0-0.9,0.5-0.8
		s0.1,0.6,0,0.9c-0.1,1.4-0.6,2.8-1.3,4.1c-0.2,0.5-0.4,0.9-0.4,1.4C37.1,63.5,37,63.9,36.5,63.9z"/>
	<path class="st12" d="M48.9,19.6c0.2,2.4,0.3,4.8,1.5,7c-0.5,0-0.9-0.3-1.4-1.6C48.5,23.2,48,21.4,48.9,19.6z"/>
	<path class="st13" d="M27.9,22.5c0.2-1.9,0.4-3.9,0.6-5.8c0-0.3,0.2-0.5,0.3-0.7c0.1-0.1,0.2-0.2,0.4-0.2s0.3,0.2,0.2,0.3
		C28.9,18.3,28.9,20.5,27.9,22.5z"/>
	<path class="st7" d="M13.8,57.1c-0.6,0.3-0.8-0.4-1.2-0.5c0-0.3,0-0.6,0.1-0.8c0.3-0.5,0.8-0.8,1.4-0.8c0.3,0,0.7,0.1,0.7,0.4
		c0.1,0.6-0.3,0.9-0.6,1.3C14.1,56.9,13.9,57,13.8,57.1z"/>
	<path class="st5" d="M37.8,72.7c-0.8,0.5-1.4,0.1-2.1-0.1c-0.6-0.3-1.3-0.5-1.9-0.8c-0.2-0.1-0.5-0.2-0.4-0.4
		c0-0.3,0.3-0.3,0.6-0.3c0.9,0.1,1.8,0.4,2.6,0.9C36.9,72.3,37.2,72.7,37.8,72.7z"/>
	<path class="st5" d="M32.3,39.2c-0.4-0.1-0.3-0.4-0.2-0.6c0.6-1.3,1.4-2.3,2.5-3.2c0.2-0.2,0.6-0.3,0.7,0c0.3,0.3-0.1,0.4-0.3,0.6
		c-0.9,0.6-1.5,1.6-2.1,2.5C32.8,38.8,32.7,39.1,32.3,39.2z"/>
	<path class="st14" d="M31,15.3c0.6,0.9,0.3,1.9,0.3,2.8c0,0.1-0.1,0.2-0.2,0.2c-0.1,0-0.3-0.1-0.4-0.2C30.6,17.2,30.1,16.3,31,15.3
		z"/>
	<path class="st15" d="M79.8,61.3c-1.4-0.3-2.3-1.4-3.9-1.7C77.1,59.2,78.9,60.1,79.8,61.3z"/>
	<path class="st15" d="M33,14.5c1.1-1.2,2.8-1.1,4-1.9C36,14,34.2,13.5,33,14.5z"/>
	<path class="st16" d="M71.7,52.4c0.9-0.4,1.6-0.2,2.2,0.4c0.2,0.2,0.5,0.3,0.2,0.7c-0.2,0.3-0.5,0.2-0.7,0
		C73,52.9,72.3,52.7,71.7,52.4z"/>
	<path class="st17" d="M12.3,42.8c1.2-0.1,1.5,0.3,1.4,1.6C13,44,12.9,43.1,12.3,42.8z"/>
	<path class="st18" d="M40.1,74.3c-0.7,0.2-1.4,0.2-1.8-0.4c0,0,0-0.3,0.1-0.3C39,73.5,39.5,73.9,40.1,74.3z"/>
	<path class="st19" d="M42,6.5c0.8-0.3,1.7-0.2,2.5-0.4C43.7,6.5,43,6.9,42,6.5z"/>
	<path class="st20" d="M11.9,46.1c-0.6-0.4-0.9-0.8-0.2-1.4C12.3,45.1,12.3,45.6,11.9,46.1z"/>
	<path class="st21" d="M47,33.8c-0.2,0.7-0.5,1.2-1.4,1.3C46,34.4,46.5,34.1,47,33.8z"/>
	<path class="st12" d="M52.6,3.4c0.8-0.1,1.4-0.3,2,0.5C53.8,3.8,53.3,3.8,52.6,3.4z"/>
	<path class="st22" d="M14,46.3c-0.1,0.3-0.2,0.8-0.6,0.8c-0.2,0-0.3-0.2-0.2-0.4c0.1-0.3,0.2-0.8,0.7-0.8C14,46,14,46.2,14,46.3z"
		/>
	<path class="st22" d="M51.2,55.2c-0.5,0.2-0.9,0.1-1.2-0.3c-0.1-0.1,0.1-0.3,0.2-0.3C50.7,54.4,50.9,54.8,51.2,55.2z"/>
	<path class="st1" d="M19.2,67.8c1-0.5,2-0.1,3.1-0.2C21.2,68.1,20.2,67.8,19.2,67.8z"/>
	<path class="st23" d="M37.4,56.4c-0.2,0.6-0.5,0.9-0.9,0.9c-0.1,0-0.2-0.2-0.2-0.2C36.5,56.6,36.9,56.6,37.4,56.4z"/>
	<path class="st24" d="M38.5,10.1c-0.1-0.4-0.3-0.7,0.2-1c0.1,0,0.3,0,0.3,0.1C39.2,9.7,38.9,9.9,38.5,10.1z"/>
	<path class="st25" d="M61.2,67.5c1.8-0.3,2.9-1.5,3.9-2.7c2-2.4,4.3-4.4,6.8-6.1c0.3-0.2,0.5-0.6,0.9-0.4c0.4,0.3,0.1,0.7,0,1.1
		c-0.8,2.2-2.4,3.8-4.2,5.2c-1.8,1.4-3.9,2.5-6.1,3.1C62.1,67.8,61.8,68,61.2,67.5z"/>
</g>
</svg>
