<?xml version="1.0" encoding="utf-8"?>
<!-- Generator: Adobe Illustrator 27.8.1, SVG Export Plug-In . SVG Version: 6.00 Build 0)  -->
<svg version="1.1" id="Layer_1" xmlns="http://www.w3.org/2000/svg" xmlns:xlink="http://www.w3.org/1999/xlink" x="0px" y="0px"
	 viewBox="0 0 280 131" style="enable-background:new 0 0 280 131;" xml:space="preserve">
<style type="text/css">
	.st0{fill:#121111;}
	.st1{fill:#8286AB;}
	.st2{fill:#62677F;}
	.st3{fill:#C2C6DF;}
	.st4{fill:#636680;}
	.st5{fill:#C4C5DE;}
	.st6{fill:#626680;}
	.st7{fill:#646580;}
	.st8{fill:#C0C5E0;}
</style>
<g>
	<path class="st0" d="M152.8,130.8c1.4-0.3,2.9-0.3,4.3-0.8c1.3-0.4,2.4-1,3.6-1.7c0.7-0.4,1.3-0.9,2-1.3c0.6-0.3,1.1-0.8,1.2-1.5
		c0.1-0.5,0.3-0.5,0.7-0.5c5.7,0.7,11.3,0.6,16.9-0.5c6-1.2,11.5-3.5,16.5-6.9c0.7-0.5,1.1-0.5,1.9,0c3.4,2.2,7.1,3.5,11,4.4
		c7.7,1.8,15.3,1.3,22.8-1.3c3.9-1.4,6.5-4.2,8.4-7.8c1-2,1.6-4,1.6-6.1c0-0.5,0.3-0.4,0.5-0.3c1.1,0.1,2.2,0.2,3.3,0.3
		c6.1,0.5,12.1-0.3,18-1.8c2.6-0.7,5.2-1.5,7.7-2.6c2.4-1.1,4.3-2.7,5.5-5.1c0.8-1.4,0.4-3.3-0.8-4.5c-4.8-5.5-11-9.1-17.7-11.9
		c-3.3-1.4-6.7-2.7-10.1-3.6c-3.7-1.1-7.5-1.8-11.3-1.8c-0.4,0-0.5-0.1-0.4-0.5c0.3-2.7,0.4-5.4-0.1-8.1c-0.6-3.3-2.1-6.2-4.4-8.7
		c-4.4-4.7-9.8-7.6-15.9-9.3c-2.8-0.8-5.7-0.6-8.6-0.4c-1.2,0.1-2.4,0.2-3.8,0.6c0.4-0.5,0.6-0.8,0.9-1.2c1.7-2.1,3.1-4.5,3.8-7.1
		c0.3-1,0.2-2.1,0.4-3.2c0.1-0.8,1.8-12.3,1.1-12.4c-0.7-0.1-3.7,11.1-4,11.8c-0.1,0.3,0.3,0.7,0.3,0.9c0.1,1.5-0.4,2.8-1.1,4
		c-1.6,2.8-3.7,5.1-6.2,7c-0.4,0.3-0.8,0.6-1.2,0.9c-0.6,0.6-0.7,1.5-0.2,2.2c0.7,1.1,1.2,1.3,2.2,1c1.6-0.5,3.1-1.2,4.7-1.5
		c5.1-1,10.1-0.6,14.9,1.7c2.6,1.3,5.1,2.5,7.2,4.5c1.7,1.6,3.4,3.3,4.6,5.5c1,1.9,1.5,3.9,1.7,6c0.3,2.6,0,5.1,0,7.7
		c0,0.3,0.1,0.6,0.2,0.9c0.5,1,1.3,1.3,2.4,1.3c4.8-0.1,9.5,0.5,14.1,1.8c4.6,1.4,9.1,2.9,13.4,5.2c3.6,1.9,6.8,4.3,9.6,7.3
		c0.1,0.2,0.3,0.3,0.4,0.5c1.4,1.9,1.3,3.1-0.6,4.5c-1.7,1.3-3.6,2.3-5.7,3c-4,1.3-8,2.3-12.1,2.6c-2.8,0.2-5.6,0.3-8.4,0
		c-1.8-0.2-3.6-0.5-5.5-0.5c-1.3,0-1.8,0.5-1.8,1.8c0,0.9,0.2,1.8,0.1,2.8c0,0.7-0.1,1.3-0.4,1.9c-1.2,2.8-3,5.2-5.8,6.6
		c-1.7,0.9-3.6,1.3-5.5,1.7c-3.9,0.9-7.9,1-11.8,0.8c-2.2-0.1-4.4-0.6-6.6-1.2c-2.9-0.8-5.7-1.8-8.3-3.3c-0.7-0.4-1.3-0.9-1.9-1.4
		c-1-0.8-2.2-0.9-3,0c-2.3,2.5-5.4,3.8-8.3,5.2c-2.2,1.1-4.7,1.5-7.1,2c-5.2,1.1-10.5,1.2-15.8,1c-2.3-0.1-4.6-0.7-6.7-1.9
		c-0.7-0.4-1.4-0.8-2.1-1.2c-0.8-0.5-1.8-0.2-2.3,0.5s-0.3,1.7,0.4,2.3c0.8,0.7,1.7,1.2,2.6,1.7c0.6,0.3,0.6,0.4,0.1,0.9
		c-1.6,1.5-3.5,2.2-5.7,2.5c-1.9,0.2-3.9,0.2-5.8,0.1c-1.6,0-3.2-0.2-4.8-0.5c-2.2-0.4-4.4-0.6-6.5-1.1c-5-1.2-9.7-2.9-13.8-6.1
		c-1.4-1-2.5-2.3-3.5-3.8c-0.2-0.3-0.4-0.7-0.5-1.1c-0.6-1.5-1.5-2-3-1.6c-1.4,0.4-2.6,1.2-3.9,2c-2.5,1.6-5.3,2.5-8.2,3.1
		c-2.3,0.4-4.7,0.6-7,0.6c-3.2,0.1-6.4-0.1-9.5-0.8c-3.8-0.8-7.4-2.2-10.8-4.1c-2.4-1.3-4.6-3.1-6.7-4.9c-0.8-0.7-1.5-1.4-2.1-2.2
		c-0.5-0.7-0.7-1.4-0.4-2.3c0.2-0.8,0.2-1.6-0.5-2.2c-0.8-0.6-1.6-0.5-2.5,0c-2.8,1.5-5.8,2.7-8.9,3.5c-3.6,0.9-7.1,1.7-10.8,2.1
		c-2.5,0.2-5,0.2-7.5,0.1c-3.1-0.2-6.2-0.5-9.3-0.9c-3.6-0.5-7.1-1.3-10.4-2.9c-3.1-1.5-6-3.3-8.5-5.8c-1.3-1.4-2.3-3-2.9-4.8
		c-0.2-0.6-0.2-1.2-0.1-1.8C5,88.3,5.9,86.1,7.3,84c1.5-2,3.3-3.4,5.5-4.5c1.1-0.6,2.3-1.2,3.4-1.7c0.6-0.3,1.2-0.5,1.9-0.6
		c2.3-0.7,4.6-1.1,7-1.2c0.9,0,1.7-0.2,2.6-0.2c2.9,0,5.7,0.2,8.6,0.4c2.4,0.1,4.8,0.3,7.1,0.7c3.2,0.6,6.4,1,9.6,1.8
		c0.9,0.2,1.8,0.6,2.7,0.8c1.3,0.3,1.4,0.4,1.3,1.7c0,0.8,0.1,1.5,0.2,2.2c0.3,1.4,1.5,2.1,2.9,1.7c0.9-0.4,1.3-1.1,1.3-2.1
		c0-1.4-0.2-2.8-0.1-4.2c0.2-2.4,1-4.7,2.1-6.8c1.1-2,2.7-3.5,4.6-4.7c0.9-0.6,2-0.8,3-0.9c1.5-0.2,3-0.1,4.6-0.1c0.3,0,0.7,0,1,0
		c0.9,0.1,1.6,0.3,2.2,1.2c2.2,3.1,4.8,5.9,8.1,8c2.2,1.4,4.6,2.5,7.3,3c1.3,0.2,2.7,0.5,4,0.4c1-0.4,1.5-1.3,1.4-2.1
		c-0.1-0.9-0.8-1.7-1.8-1.9c-0.8-0.2-1.7-0.3-2.5-0.5c-3.4-0.8-6.1-2.7-8.5-5.2c-2.5-2.6-4.5-5.6-6.1-8.8c-1.6-3.1-2.4-6.3-2.4-9.8
		c0-2.6,0-5.1,0.5-7.7c0.6-3.2,2-6,3.7-8.7c0.8-1.3,1.8-2.6,2.9-3.7c1.7-1.8,3.8-2.9,6.1-3.8c2.5-1,5.2-1.7,7.9-1.9
		c2.7-0.3,5.5-0.3,8.2-0.1s5.4,0.7,8.1,1.5c3.3,1,6.3,2.5,9,4.5c1.1,0.8,2,1.8,2.8,2.8c0.3,0.3,0.6,0.7,0.9,1.1
		c1.2,1.4,1.8,1.5,3.3,0.4c0.6-0.4,0.8-1,0.7-1.7c-0.1-1.6,0.3-3.2,0.7-4.8c0.7-2.7,2.5-4.3,5-5.1c3.5-1.2,7.1-1.5,10.8-0.7
		c0.7,0.2,1.4,0.4,2.1,0.6c0.6,0.2,0.8,0.5,0.6,1.2c-0.4,1.8-0.7,3.6-1,5.4c-0.2,1,0,2,0.9,2.7c1.9,1.3,3.8,0.5,4.3-1.7
		c0.4-1.9,0.8-3.7,1.3-5.6c0.4-1.7,1.3-3.3,2.2-4.8c1.2-1.9,2.5-3.8,4.1-5.4c2.9-2.9,6-5.5,10-6.8c2.6-0.8,5.1-1.6,7.8-2.1
		c5-0.9,9.9-0.6,14.8,0.9c2.2,0.7,4.1,2,5.9,3.5c2.5,2.1,4.6,4.6,5.9,7.6c1,2.2,1.7,4.4,2.1,6.8c0.1,1-0.6,15.5,0.2,15.5
		c1.3-0.1,2.9-14.8,2.7-16.1c-1.1-8.6-5.4-15.1-12.6-19.8c-3.7-2.4-7.7-3.6-11.9-4.1c-7.8-1-15.2,0.8-21.9,4.8
		c-4.5,2.7-8,6.5-10.8,10.9c-0.9,1.5-2,3-2.6,4.7c-0.2,0.4-0.4,0.3-0.6,0.2c-2.4-1.1-4.9-1.8-7.6-2.2c-3.4-0.5-6.3,0.6-9.2,2.4
		c-3.2,2-4.9,5-5.9,8.5c-0.1,0.3-0.2,0.6-0.3,1c-2.6-3.4-6.2-5.6-9.9-7.4c-4.1-2.1-8.5-3.5-13.2-4c-4.5-0.5-8.9-0.4-13.3,0.7
		c-4,1.1-7.9,2.6-11,5.6c-2.8,2.7-4.7,5.9-6.3,9.3c-1.9,4-2.6,8.3-2.7,12.7c-0.1,3.4,0.1,6.7,1,9.9c0.5,1.7,1.2,3.2,2,4.7
		c0.1,0.2,0.3,0.5,0.3,0.8c-1.4-0.1-2.7-0.2-4.1-0.3c-4.2-0.5-7.6,1.1-10.5,4c-2.6,2.6-3.8,5.9-4.5,9.4c-0.1,0.5-0.2,0.5-0.6,0.4
		c-2.8-1.1-5.6-2.1-8.5-2.7c-4.6-1-9.3-1.5-14-2c-3.4-0.3-6.8-0.5-10.1-0.4c-6.3,0.2-12,2.3-16.9,6.2c-3.6,2.8-5.6,6.7-6.5,11.2
		c0,0.1,0,0.3-0.1,0.4c0,1.1,0,2.1,0,3.2c0.2,2.5,1.7,4.4,3.2,6.3c1.9,2.4,4.4,3.9,6.9,5.3c5,2.8,10.4,4.4,16.1,4.9
		c2.9,0.3,5.7,0.7,8.6,0.8c2.6,0.1,5.2,0.1,7.8-0.1c4.8-0.3,9.5-1.4,14.1-2.4c1.6-0.4,3.2-0.9,4.7-1.5c0.8-0.3,0.8-0.3,1.1,0.5
		c0.6,1.6,1.6,3,2.8,4.3c1.8,2,3.8,3.8,6,5.3c2.6,1.7,5.4,3,8.2,4.1c3.5,1.4,7,2.1,10.7,2.5c3.4,0.3,6.8,0,10.3-0.5
		c3.2-0.5,6.2-1.3,9-2.8c1.2-0.6,2.2-1.4,3.3-2.2c0.3-0.2,0.7-0.5,1-0.7c0.4-0.3,0.7-0.3,1,0.1c2.8,3.6,6.3,6.1,10.3,8.2
		c3.8,2,7.6,3.7,11.8,4.7c2.9,0.7,5.7,1.2,8.7,1.2c0.6,0,1.2-0.1,1.8,0.1C149.6,130.8,151.2,130.8,152.8,130.8z"/>
	<path class="st1" d="M210.7,31.8c0.2-1.2,0.5-2,0.2-4.5c-0.1-1.3-0.1-2-0.2-2.8c-1-6.1-4.4-11.1-9.4-14.9c-2.9-2.2-6.3-3.4-9.9-3.9
		c-4.8-0.7-9.5-0.2-14.2,1.1c-2.5,0.7-5,1.4-7.3,2.8c-3.9,2.3-7,5.3-9.5,9.1c-0.6,0.9-1.2,1.8-1.8,2.7c-1.3,2.2-1.8,4.6-2.3,7.1
		c-0.2,0.8-0.3,1.6-0.5,2.3c-0.4,1.8-2,2.5-3.7,1.7c-0.1-0.1-0.2-0.1-0.3-0.2c-0.3-0.1-0.5,0.1-0.8,0.1c-1.2,0.1-1.9-0.3-2.1-1.5
		c-0.6-2.6-0.8-5.1,0.2-7.6c0.1-0.3,0.4-0.7,0-1c-1.7-0.5-3.5-0.5-5.3-0.4c-1.7,0.1-3.3,0.3-4.9,0.8c-3.3,1-5.5,3.1-6.1,6.6
		c-0.2,1.3-0.4,2.5-0.4,3.8c0.1,1-1.2,2.2-2.2,2.2c-0.5,0-0.8-0.2-1.1-0.6c-4.9-6.6-11.8-9.2-19.6-10.3c-3.5-0.5-7.1-0.5-10.6,0
		c-4.2,0.6-8.3,1.8-11.8,4.3c-1.4,1-2.6,2.3-3.6,3.8c-2.1,3-4.2,6.1-4.8,9.8c-0.9,5.2-1.5,10.4,0.4,15.4c3.4,7.7,3.7,7,6.2,10
		c1.9,2.3,4.1,4.2,6.8,5.6c1.7,0.9,3.6,1.4,5.4,1.7c1,0.2,1.5,0.3,1.8,1.4c0.2,0.9,0.2,1.5-0.8,2.1C97.8,78.9,97,79,96.2,79
		c-3.8,0.2-7.4-0.6-11-1.7c-2.4-0.8-4.6-2-6.5-3.9c-1.1-1.1-2.2-2.1-3-3.4c-0.6-1.1-0.7-2.1,0-3.2c0.1-0.2,0.4-0.5,0.2-0.8
		c-1.7-0.1-3.4-0.1-5.1,0.2c-2.9,0.5-5.1,2.2-6.7,4.6c-2.4,3.5-3.3,7.5-2.8,11.7c0.1,1.1-0.2,1.9-1.2,2.4c-0.2,0.2-0.2,0.5-0.4,0.8
		c-0.5,1-2,1.3-2.7,0.5c-1.2-1.2-2.2-2.6-2.4-4.4c-0.1-0.9,0.3-1.3,1-1.8c0.2-0.1,0.5-0.4,0.1-0.7c-3.7-1.3-7.6-1.9-11.4-2.5
		c-2.7-0.4-5.3-0.8-8-0.8c0,0.4,0.3,0.3,0.5,0.3c3.4,0.5,6.7,1.5,10,2.8c0.5,0.2,1,0.4,1.4,0.7c0.5,0.5,0.6,1.1,0.3,1.8
		c-0.4,0.6-1,0.9-1.7,0.7c-0.8-0.3-1.6-0.6-2.4-0.8c-1.8-0.5-3.6-0.6-5.5-0.8c-2.7-0.3-5.4,0-8,0.3c-1.8,0.2-3.5,0.7-5.2,1.2
		c-0.8,0.3-1.5,0.7-2,1.3c-2.1,2.4-5.4,1.7-6.9-0.5c-1-1.5-0.8-4,0.5-5.4c0.2-0.2,0.5-0.3,0.5-0.7c-1.1,0.1-1.9,0.7-2.9,1.1
		c-2.7,1.3-5.2,2.6-7.2,4.9c-0.2,0.2-0.4,0.5-0.6,0.8c0,0.9-0.1,1.7-0.5,2.4c-0.2,0.4-0.1,0.9,0.2,1.3c0.7,0.8,1.4,1.4,2.3,1.9
		c2.5,1.3,5,2.5,7.7,3.3c3.4,0.9,6.8,1.5,10.2,2c3.6,0.5,7.1,0.6,10.7,0.6c1.6,0,3.3,0.2,4.9,0.1c2.8-0.1,5.6-0.3,8.5-0.5
		s5.7,0.1,8.6-0.3c1.7-0.2,3.3-0.7,4.9-1c1.1-0.2,2.1-0.8,3.3-0.6c0.8,0.2,1.6,0.2,2.1,0.8c1.1,1.2,2.2,2.4,3.3,3.6
		c2,2.1,4.4,3.4,7,4.5c2.1,0.9,4.3,1.7,6.5,2.3c2.3,0.7,4.1,2.2,6.4,2.4c1.5,0.1,3.5,0.4,5,0.3c3.5-0.1,7.9-0.3,11.2-1.3
		c2.1-0.6,3.5-2,5.4-3c1.8-1,2.8-1.4,4,0.3c0.9,1.2,1.9,2.4,3.1,3.4c1.5,1.2,3.1,2.2,4.7,3.2c1.6,1,3,2.3,4.8,2.9
		c2.1,0.7,4.3,1,6.5,1.1c2.5,0.1,5.3,0.3,7.8,0c2.6-0.4,6.1-1.2,8.2-3c0.9-0.7,1.5-1.8,2.1-2.8c0.3-0.5,0.7-0.4,1.2-0.8
		c0.7-0.6,0.7-0.6,1.6-0.4c0.8,0.2,1.2-0.3,1.9,0c3.7,1.8,7.6,3.4,11.5,4.1c3,0.5,6.2,0.5,9.2,0.3c2.6-0.2,5.1-1.1,7.6-1.7
		c2.3-0.5,5.2-1.5,7.3-2.7c0.8-0.4,1.9-0.8,2.4-1.6c1-1.6,0.6-2,2.2-1c0.8,0.5,2,0.4,2.8,0.9c1.4,0.8,2.5,2.3,4,2.7
		c1.2,0.4,2.4,0.7,3.6,1c2.1,0.4,4.8,0.2,6.9,0c1.4-0.1,2.8-0.1,4.2-0.4c2.5-0.6,7.1-0.8,9.5-2c1.5-0.7,0.4-3.3,1.5-4.4
		c0.4-0.4,0.4-1,0.4-1.5c0-0.6,0.1-1.2,0.5-1.7c0.6-0.7,1.6-0.1,2.5,0c2.7,0.4,5,0.7,7.7,0.8c1.7,0.1,3.6,0.2,5.3,0.1
		c2.8-0.1,6.6,0.2,9.3-0.3c3.9-0.7,7.1-1.6,10.9-2.6c1.6-0.4,3-1,4.4-1.9c0.2-0.2,0.8-0.2,0.9-0.5c-0.7-1.2-2.3-2.4-3.3-3.3
		c-4.7-4.3-10.4-6.8-16.3-8.8c-3.4-1.2-6.9-2.3-10.5-2.7c-2.6-0.3-5.2-0.6-7.9-0.5c-1.1,0.1-1.8-0.3-2.4-1.2
		c-0.2,0.1-0.2,0.3-0.2,0.5c-0.1,0.6-0.5,0.9-1,1.1c-0.3,0.1-0.7,0.3-0.9,0.5c-1.3,1.1-3.2,1.4-4.7,0.6c-1.1-0.5-2.1-1.2-2.9-2.1
		c-2.8-2.7-5.3-5.5-7.7-8.6c-1.8-2.3-3.4-4.7-4.3-7.5c-0.6-1.7-1-3.5-0.5-5.3c0.5-2,2-3.1,4-3.3c1.4-0.1,2.8,0.2,4,0.8
		c2,1,3.9,2.1,5.5,3.7c2.1,2,3.7,4.3,5,6.9c1.4,2.8,2.1,5.8,2.8,8.8c0.2,0.8,0.4,1.6,0.5,2.4c0,0.2,0,0.5,0.3,0.6
		c0.1-2.2,0.3-4.3,0.1-6.5c-0.2-3.2-1-6.3-2.9-8.9c-2.5-3.3-5.6-5.9-9.3-7.7c-2.6-1.3-5.3-2.5-8.3-2.8c-3.9-0.3-7.9-0.3-11.6,1.3
		c-0.4,0.2-0.9,0.3-1.4,0.5c-0.9,0.3-1.4,0.1-2.1-1c-0.4-0.7,0-1.2,0.6-1.7c0.4-0.3,0.8-0.8,1.2-1.1c2.5-1.9,4.5-4.3,6.1-6.9
		c0.7-1.2,1-2.3,1.5-3.8c0.1-0.3,0.3-0.7,0.4-1c0.2-0.5,0.2-0.5,0.3-1.1"/>
	<path class="st2" d="M274.9,93.9c-1.3,0.9-2.7,1.5-4.2,2c-3.1,1-6.2,1.4-9.4,1.9c-1.7,0.3-3.3,0.7-5,0.8c-2.7,0.1-5.4,0.4-8.1,0.1
		c-1.3-0.1-2.6-0.1-3.9-0.2c-2.5-0.1-5-0.2-7.5-0.7c-1.8-0.3-3.4,1-3.2,2.7c0.1,1.1-0.5,1.6-1.1,2.3c-1.2,1.2-2.5,2.2-4.1,2.7
		c-2.2,0.8-4.5,1.5-6.8,1.9c-2,0.4-4,0.6-6,0.5c-2.3,0-4.6-0.5-6.8-1.1c-2.7-0.7-5-2-7.3-3.5c-1.6-1-3-0.8-3.9,0.8
		c-0.7,1.2-1.8,1.9-3,2.5c-3.2,1.5-6.7,2.3-10.2,2.8c-2.4,0.3-4.8,0.5-7.1,0.5c-2.6,0-5.1-0.4-7.6-1s-5-1.2-7.4-2.3
		c-1.1-0.5-2.2-1.1-3.4-1.3c-1.3-0.2-2.6,0.2-3.3,1.4c-0.8,1.3-1.7,2.5-2.9,3.4c-1.6,1.2-3.5,1.8-5.4,2.2c-1.5,0.3-3.1,0.4-4.7,0.5
		c-3.1,0.2-6.3,0.2-9.4-0.6c-2-0.5-3.9-1.2-5.7-2.3c-1.5-0.9-3-1.8-4.4-2.8c-1.5-1-2.7-2.4-3.8-3.9c-1.3-1.9-2.6-2.3-4.6-1.1
		c-1.1,0.7-2.4,1-3.6,1.5c-2.7,1.1-5.5,1.5-8.3,1.7c-2.5,0.2-5,0.4-7.5,0.2c-2.4-0.1-4.8-0.4-7.1-1c-2.9-0.8-5.7-1.8-8.4-2.9
		c-2.8-1.2-5.3-2.9-7.3-5.3c-0.9-1-1.7-2.2-2.8-3c-1.3-0.9-2.6-0.8-4-0.5c-3.2,0.6-6.3,1.2-9.5,1.5c-2.9,0.3-5.7,0.6-8.6,0.7
		c-2.7,0.2-5.4,0.4-8,0.2c-2.8-0.2-5.6,0-8.3-0.3c-2.1-0.2-4.3-0.5-6.4-0.8c-1.8-0.3-3.6-0.6-5.4-1c-2-0.5-4.1-1-6.1-1.9
		c-1.7-0.8-3.4-1.7-5-2.7c-0.6-0.4-1-0.9-1.4-1.4c-0.3-0.4-0.2-0.9,0-1.3c0.4-0.7,0.6-1.4,0.2-2.2c-1.2,1.6-2,3.5-2.5,5.5
		c-0.6,2.4,0,4.4,1.3,6.4c1.5,2.2,3.5,3.8,5.6,5.2c2.3,1.6,4.9,2.8,7.6,3.7c2.6,0.9,5.4,1.5,8.1,1.8c4.3,0.5,8.6,1,13,0.9
		s8.7-1,12.9-2c3.5-0.9,6.9-2,10-3.8c0.7-0.4,1.4-0.4,2.1,0.1c0.6,0.5,0.7,1.2,0.4,2c-0.5,1.5,0.3,2.6,1.2,3.5
		c2.6,2.4,5.3,4.7,8.4,6.3c3.4,1.8,6.9,3.1,10.6,3.9c1.6,0.3,3.2,0.6,4.8,0.7c2.4,0.1,4.7,0.2,7.1,0c3-0.2,6-0.6,8.9-1.6
		c2-0.7,3.7-1.8,5.5-2.9c0.9-0.5,1.7-1,2.7-1.2c1.1-0.2,1.9,0.2,2.3,1.2c1,2.7,3,4.6,5.3,6.2c3.8,2.6,8.1,4.3,12.6,5.2
		c5.2,1.1,10.4,1.9,15.8,1.7c3-0.1,5.7-0.8,7.9-2.9c0.5-0.5,0.2-0.5-0.1-0.7c-1-0.5-2-1.1-2.9-1.8c-0.7-0.5-1-1.5-0.5-2.2
		s1.4-0.9,2.1-0.3c2.5,1.6,5.1,2.6,8.1,3c1,0.1,2.1,0.1,3.1,0.1c3.7,0.1,7.3-0.1,10.9-0.6c3.2-0.5,6.4-1,9.4-2.4
		c2.7-1.2,5.5-2.4,7.7-4.5c0.4-0.3,0.7-0.7,1.1-1c0.7-0.6,1.7-0.6,2.4,0c2.3,2,5,3.1,7.8,4.1c4.6,1.6,9.4,2.3,14.3,2
		c4-0.2,7.8-0.8,11.6-2.2c2.8-1.1,4.7-3.1,6.2-5.7c1-1.8,1.2-3.7,0.9-5.7c-0.3-1.5,0.3-2.1,1.8-2.1c2.4,0.1,4.8,0.5,7.1,0.6
		c2.6,0.2,5.3,0.1,7.9-0.2c4-0.5,7.9-1.4,11.6-2.7c2-0.7,4-1.8,5.5-3.3c0.4-0.4,0.9-0.8,1.1-1.4C276.4,96,275.8,94.8,274.9,93.9z"/>
	<path class="st3" d="M234.9,76.8c-0.5-2.3-1.1-4.7-1.7-7c-1.3-4.5-3.3-8.6-6.7-11.9c-2.5-2.5-5.5-4.5-9-5.2c-3-0.6-5.6,0.6-6.3,3.3
		c-0.5,2-0.2,3.8,0.4,5.7c1.2,3.4,3.3,6.2,5.6,9c2.3,2.9,4.8,5.5,7.5,8.1c1.4,1.2,2.9,2.3,4.9,2.4c1,0,1.9,0,2.6-0.6
		c0.5-0.4,1.2-0.9,1.8-1.1c0.7-0.3,1-0.9,1-1.8C235,77.4,235,77.1,234.9,76.8z"/>
	<path class="st3" d="M17.8,77.1c-1.9,1.5-2.3,3.5-1.6,5.6c0.9,2.5,4.5,3.5,6.6,1.9c0.4-0.3,0.9-0.6,1.2-1c0.6-0.7,1.4-1,2.3-1.2
		c2.8-0.8,5.6-1.2,8.5-1.4c2.9-0.2,5.8,0.1,8.7,0.6c1,0.2,2,0.6,3,0.9c1.1,0.4,1.9,0,2.3-1c0.3-0.9-0.1-1.8-1.1-2.2
		c-2.6-1-5.2-1.9-7.9-2.5c-1.2-0.3-2.3-0.5-3.5-0.7c-4.5-0.4-9-0.6-13.5-0.1C21.1,76.1,19.4,76.3,17.8,77.1z"/>
	<path class="st4" d="M75.8,66.2c-0.2,0.7-0.8,1.3-0.9,2.1c-0.1,1.4,0.6,2.5,1.5,3.4c1.2,1.4,2.6,2.8,4.2,3.9c0.8,0.6,1.7,1,2.6,1.5
		c2.6,1.3,5.4,1.7,8.2,2.2c2,0.4,4,0.4,6.1,0.1c0.4-0.1,0.7-0.3,0.9-0.6c-4.4,0-8.3-1.4-11.9-3.9c-3-2.2-5.5-4.9-7.6-7.9
		c-0.5-0.8-1.3-0.7-2-0.8C76.5,66.1,76.2,66.2,75.8,66.2z"/>
	<path class="st2" d="M149,22.6c0.2,0.6-0.2,1.1-0.4,1.6c-0.8,2.4-0.5,4.9,0.1,7.3c0.4,1.5,1.5,1.9,3,1.2c-1.3-1.1-0.9-2.4-0.6-3.8
		c0.3-1.6,0.6-3.2,0.9-4.8c0.1-0.3-0.1-0.5-0.4-0.6C150.9,23.1,150,22.8,149,22.6z"/>
	<path class="st4" d="M55.8,79.4c0,0.1,0.1,0.2,0,0.3c-1.4,0.9-1.7,1.7-1.2,3.2c0.4,1.3,1.2,2.4,2.1,3.4c0.6,0.7,1.4,0.8,2.2,0.6
		c0.8-0.3,1.3-0.9,1.3-1.8c-1.6,0.3-2.5-0.3-2.8-1.9c-0.1-0.7-0.2-1.4-0.2-2.1C57.2,79.7,57.2,79.7,55.8,79.4z"/>
	<path class="st2" d="M187.4,74.5c0.1-0.5,0.4-0.8,0.8-1.1c0.9-0.5,0.5-1.4,0.5-2.1c-0.2-3.5-1.6-6.5-3.1-9.6
		c-1.6-3.4-4.2-5.8-7.5-7.4c-2-1-4.1-1.5-6.3-1.9c-1.3-0.2-2.5-0.5-3.8-0.4c-3.4,0.1-6.7,1-9.6,2.9c-0.5,0.3-1.1,0.7-1.6,1.1
		c-2.2,1.8-3.9,3.9-5.6,6.2c-1.4,1.9-2.6,3.9-3.6,6c-0.5,1.2-0.7,2.4-0.9,3.7c-0.1,0.6-0.3,0.6-0.8,0.6c-1.2,0-2.4-0.1-3.5,0.1
		c-1.9,0.4-3.5,1.2-4.9,2.5c-0.9,0.8-1.9,1.5-2.3,2.6c-0.1,0.3-0.4,0.3-0.7,0.3c-2.3-0.2-4.4,0.5-6.3,1.6c-0.6,0.3-1.2,0.8-1.7,1.2
		c-0.4,0.3-0.7,0.4-1.1-0.1c-1.3-1.5-2.8-2.7-4.6-3.4c-0.6-0.2-1.3-0.3-2-0.4c-0.5-0.1-0.6-0.3-0.6-0.7c-0.1-1.7-0.1-3.5-0.8-5.1
		c-1-2.6-3.1-4-5.6-4.6c-1.5-0.4-3.1-0.6-4.6-0.2c-1,0.3-1.9,0.6-2.4,1.6c-0.3,0.8-0.4,1.5-0.1,2.3c0.1,0.2,0.1,0.4,0.1,0.6
		c0.7-0.2,1.4-0.1,2.1,0.1c1.5,0.3,2.8,0.8,4.2,1.5c2.3,1.2,3,3.3,3.1,5.7c0,0.5,0,0.9,0,1.4s0.2,0.8,0.7,0.8c2,0,3.8,0.6,5.5,1.7
		c1.6,1,2.8,2.3,3.4,4.1c0,0.1,0,0.2,0.1,0.3c0.2,0.6,0.4,0.7,0.9,0.2c0.6-0.7,1.4-1.3,2.2-1.8c1.8-1.2,3.7-2,5.8-2.1
		c0.8-0.1,1.6,0.1,2.4,0.2c0.7,0.1,1.3,0.2,2,0.3c0.6,0.1,0.9-0.1,1.1-0.6c0.5-1.4,1.3-2.7,2.2-3.9c1.4-1.9,3.3-2.9,5.8-2.6
		c1.2,0.2,2.4,0.5,3.5,0.9c0.7,0.3,0.8,0.2,1-0.5c0.2-1.4,0.3-2.7,0.7-4.1c0.5-2.3,1.7-4.2,3.2-6c1.2-1.5,2.5-2.9,3.9-4.2
		c2.1-1.9,4.7-2.7,7.5-3.2c3.2-0.6,6.4-0.3,9.5,0.7c3.3,1.1,5.9,3,7.9,5.8c1,1.4,1.9,3,2.7,4.5c0.6,1.1,0.9,2.4,1,3.7
		C187.2,74,187.2,74.3,187.4,74.5z"/>
	<path class="st3" d="M200.3,28c2.1-0.2,4.3-0.7,6-2.6c0.2-0.2,0.4-0.2,0.6-0.2c0.7,0,1.1-0.3,0.9-1c-0.5-1.5-0.7-3.1-1.6-4.6
		c-1.4-2.4-3.2-4.3-5.4-6c-1.3-1-2.6-2.2-4.1-2.9c-2.4-1.2-4.8-1.9-7.5-2.2c-2-0.2-3.9-0.1-5.8,0.6c-1.9,0.7-3.3,1.9-4,3.9
		c-0.6,1.8-0.3,3.4,0.5,5c1.7,3.2,4.5,5.2,7.8,6.6c1.5,0.7,3,1.2,4.5,1.8C194.7,27.5,197.3,27.9,200.3,28z"/>
	<path class="st0" d="M187.4,74.5c0-2.4-1-4.4-2.1-6.4c-1.9-3.4-4.4-6.2-8-7.9c-1.8-0.8-3.7-1.3-5.6-1.5c-3.5-0.4-6.9,0.1-10.2,1.4
		c-1.2,0.5-2.3,1.2-3.3,2.1c-2.4,2.2-4.6,4.7-6.2,7.6c-0.8,1.5-1,3.1-1.3,4.7c-0.1,0.7-0.2,1.3-0.3,2c0,0.5-0.2,0.5-0.5,0.3
		c-1.2-0.5-2.4-0.8-3.6-1c-2.5-0.5-5.3,1.3-6.2,2.9c-0.8,1.3-1.6,2.5-2.1,3.9c-0.2,0.5-0.6,0.4-1,0.4c-1.1-0.1-2.1-0.3-3.2-0.4
		c-1.8-0.2-3.4,0.2-5,0.9c-1.7,0.8-3.3,1.8-4.6,3.4c-0.4-1.3-0.8-2.4-1.6-3.3c-1.9-2.1-4.3-3.3-7.2-3.5c-1-0.1-1,0-1-1.1
		c0-1.2-0.1-2.4-0.4-3.5c-0.6-2.1-2.3-3.2-4.2-3.9c-1.2-0.5-2.4-0.8-3.7-1c-0.5-0.1-0.9-0.1-1.3,0.3c-0.3,0.4-0.3,0.8-0.1,1.2
		c0.3,0.4,0.7,0.4,1.1,0.3c1.2-0.1,2.3-0.1,3.4,0.3c2.7,0.9,3.2,2.2,3,4.8c-0.1,1.4-0.5,2.8-1.1,4.1c-0.4,0.7-0.3,1.5,0.3,2.1
		s1.4,0.7,2.1,0.3c0.9-0.4,1.8-0.9,2.8-0.9c2,0.2,3.9,0.8,5.3,2.4c0.8,0.9,1,2.1,1.4,3.2c0.1,0.2-0.2,0.6-0.3,0.9
		c-0.4,1-0.1,1.9,0.8,2.2c0.9,0.4,1.8-0.1,2.1-1.2c0.1-0.4,0.3-0.8,0.2-1.3c0.1-0.2,0.2-0.4,0.3-0.6c0.2-1.2,1-2.1,1.9-2.8
		c0.8-0.6,1.6-1.2,2.4-1.7c1.3-0.8,2.7-1,4.1-0.6c1.1,0.3,2.3,0.6,3.4,1.1c1,0.3,1.5,0.1,2.1-0.9c0.3-0.5,0.6-0.9,0.8-1.4
		c0.6-0.4,0.9-1.2,1.4-1.7c0.9-1.2,2.1-1.8,3.6-1.9c1.4-0.1,2.7,0.1,4.1,0.4c0.4,0,0.6,0.4,0.8,0.6c0.9,1,2.1,0.9,2.7-0.3
		c0.2-0.4,0.3-0.8,0.4-1.2c0.3-1.2,0.6-2.5,0.9-3.7c0.6-2.7,2.3-4.8,4.1-6.9c0.8-0.8,1.6-1.6,2.4-2.4c1.5-1.4,3.3-2,5.3-2.3
		c2.6-0.4,5.3-0.4,7.9,0c3.7,0.7,6.4,3,8.6,5.9c0.4,0.5,0.7,1,1.1,1.5c0.9,1.3,1.4,2.7,1.5,4.3l0,0C186.5,75.4,187,75.3,187.4,74.5z
		"/>
	<path class="st3" d="M86.4,58.5c3.6,0.2,6.4-3.7,5.1-7.3c-1.6-4.4-1.7-8.8,0.1-13.1c0.9-2.2,2.1-4.5,4.1-6c1.4-1,2.7-2.1,4.4-2.5
		c0.9-0.2,1.5-0.8,1.7-1.7s-0.2-1.6-0.9-2.2c-0.6-0.5-1.4-0.4-2-0.2c-2.2,0.6-4.3,1.1-6.5,1.9c-1.4,0.5-2.6,1.4-3.7,2.3
		c-2,1.6-4,3.2-5.4,5.4c-1.7,2.7-3,5.6-3.4,8.8c-0.3,3-0.2,6,0.5,8.9c0.6,2.6,1.8,4.7,4.6,5.6C85.4,58.5,85.9,58.5,86.4,58.5z"/>
	<path class="st3" d="M185.5,74.7c-0.4-0.5-0.5-1-0.7-1.6c-0.8-1.7-1.9-3.2-3.3-4.4c-0.9-0.8-1.6-1.8-2.6-2.5
		c-2.6-1.8-5.3-2.7-8.5-1.7c-2.6,0.8-3.7,3.4-3.4,5.8c0.3,2,1.3,3.6,2.5,5c2,2.5,4.3,4.6,7.2,5.9c1.8,0.8,3.7,1.3,5.7,0.5
		c2.1-0.8,3-2.4,3.1-4.4C185.7,76.5,185.6,75.6,185.5,74.7L185.5,74.7z"/>
	<path class="st3" d="M166.2,31.5c3.2-0.2,5.5-1.7,6.9-4.6c0.6-1.3,1-2.6,1-4c0-1.5-0.7-2.4-1.9-3.1c-0.2-0.1-0.4-0.2-0.4-0.4
		c-0.5-1.3-1.2-1.8-2.5-1.5c-2.2,0.5-4.2,1.3-5.7,3c-1.4,1.6-2.6,3.3-2.6,5.6c0,3.1,2,4.7,4.8,4.9C165.8,31.5,166,31.5,166.2,31.5z"
		/>
	<path class="st3" d="M159.9,79.1c2.7,0.2,5.3-2.5,5.4-5.4c0-1.6-0.4-2.8-1.9-3.6c-1.9-1-3.6-1-5.3,0.4c-0.9,0.8-1.9,1.6-2.4,2.8
		c-1.3,2.8,0.5,5.8,3.7,5.9C159.6,79.1,159.8,79.1,159.9,79.1z"/>
	<path class="st3" d="M135.2,31c-0.2,1.7,1.3,3,2.4,3.1c1.7,0.2,3.1-0.7,3.5-2.4c0.3-1.4,1.1-2.6,1.8-3.8c0.2-0.4,0.6-0.6,1-0.8
		c1.1-0.6,1.5-1.8,1-2.9c-0.5-1-1.7-1.4-2.8-0.8c-1.8,0.9-3.6,1.7-5,3.3C135.9,27.8,135.2,29.2,135.2,31z"/>
	<path class="st3" d="M255.5,88.4c1-0.1,2.3-0.2,3.6,0c1.8,0.3,3.4,1.1,4.8,2.4c0.6,0.5,1.2,0.7,1.9,0.5c0.7-0.2,1.1-0.8,1.2-1.5
		s-0.2-1.2-0.7-1.7c-2.4-2.2-5.2-3.6-8.3-4.3c-0.8-0.2-1.6-0.4-2.4-0.5c-1.1-0.2-2.2,0.3-2.8,1.3c-0.6,1.1-0.4,2.1,0.4,3
		C253.8,88.1,254.4,88.4,255.5,88.4z"/>
	<path class="st5" d="M89.5,65.3c0,2.2,1.8,4,4,4s4-1.8,4-3.9c0-2.3-1.8-4-4-4.1C91.3,61.3,89.3,63.3,89.5,65.3z"/>
	<path class="st3" d="M65.2,74.9c-0.3,2.2,2,3.5,3.8,2.8c1.2-0.5,1.9-1.8,1.5-3.4c-0.3-1.1,0.2-1.9,1-2.5c0.3-0.2,0.6-0.4,0.8-0.7
		c0.7-0.7,0.8-1.6,0.2-2.3c-0.7-0.8-1.6-1-2.4-0.4c-1.3,0.9-2.5,1.8-3.6,2.9C65.6,72.3,65.2,73.4,65.2,74.9z"/>
	<path class="st3" d="M149.9,79.4c-2.1-0.8-4.2-1-6.3,0c-1.3,0.7-2,2-2.7,3.2c0.7,2.1,2.3,2.6,4.1,1.3c0.9-0.6,1.9-0.5,2.9-0.6
		c0.6,0,1.1,0,1.6-0.5C150.7,81.8,150.8,80.8,149.9,79.4z"/>
	<path class="st6" d="M102.8,90.6c1.1-1.3,0.5-2.5-0.6-3.4c-2.4-2-5-2-7.8-1.4c-1.8,0.4-3,1.6-3.7,3.2c-0.7,1.5,0.3,3.1,2,3.3
		c-0.3-1.4,0.3-2.4,1.3-3.2c1.3-1.1,2.7-1.3,4.3-1.2c1.2,0.1,2.3,0.5,3.3,1.1c0.5,0.3,1,0.6,1,1.3C102.7,90.4,102.7,90.5,102.8,90.6
		z"/>
	<path class="st0" d="M102.8,90.6c0.2-0.9-0.3-1.4-1-1.8c-2.1-1.2-4.3-1.5-6.6-0.6c-1.1,0.4-1.9,1.3-2.5,2.4
		c-0.3,0.6-0.2,1.2,0.1,1.7c1.1,1.1,2.5,0.7,3-0.6c0.2-0.6,0.7-0.9,1.3-1.1c1.2-0.4,2.4-0.5,3.6,0.3
		C101.7,91.5,102.2,91.4,102.8,90.6z"/>
	<path class="st3" d="M129.9,88.2c-0.1,1,0.5,1.6,1.4,2.1c0.8,0.4,1.6,0.2,2.1-0.4c0.7-0.7,1.5-1.1,2.3-1.4c1.1-0.5,1.2-1.4,1-2.6
		c-0.2-0.8-1.3-1.5-2.2-1.2c-1.2,0.3-2.4,0.7-3.4,1.5C130.3,86.6,129.8,87.2,129.9,88.2z"/>
	<path class="st3" d="M205.2,55.1c-1,0-1.9,0.4-2.6,1.1c-1,0.9-0.9,2.1,0,3.1c1,1,3,1.4,4.2,0.7c0.2-0.1,0.5-0.3,0.6-0.5
		c0.4-0.8,0.7-1.6,1.2-2.4c0.4-0.6-0.1-1.3-0.8-1.6C207,55.3,206.1,55.2,205.2,55.1z"/>
	<path class="st5" d="M122,87.7c0-1.7-1.1-2.8-2.8-2.8c-1.6,0-2.9,1.3-2.9,2.8c0,1.6,1.4,2.9,3,2.9C120.6,90.6,122.2,89.2,122,87.7z
		"/>
	<path class="st7" d="M138,84.9c-0.1-0.2-0.3-0.4-0.5-0.4c-1.6-0.5-3.1-1.2-4.8-1c-1.1,0.1-2,0.6-2.9,1.2c-1,0.7-2,1.4-2.8,2.3
		c-0.7,0.8-1,1.6-1,2.6c1.6-0.2,2.6-1.2,3.3-2.6c0.8-1.5,2.1-2.5,3.8-3c0.9-0.3,1.9,0.1,2.7,0.5C136.5,84.8,137.2,85.2,138,84.9z"/>
	<path class="st8" d="M110,78c0,0.5,0.5,1,1.1,0.9c0.5,0,1-0.5,1-1c0-0.6-0.6-1-1.1-1C110.4,77,110,77.5,110,78z"/>
	<path class="st8" d="M98.2,93c0,0.6,0.4,1,1,1s1-0.4,1-1.1c0-0.6-0.4-1-1-1C98.6,92,98.2,92.4,98.2,93z"/>
</g>
</svg>
