<?xml version="1.0" encoding="utf-8"?>
<!-- Generator: Adobe Illustrator 27.8.1, SVG Export Plug-In . SVG Version: 6.00 Build 0)  -->
<svg version="1.1" id="Layer_1" xmlns="http://www.w3.org/2000/svg" xmlns:xlink="http://www.w3.org/1999/xlink" x="0px" y="0px"
	 viewBox="0 0 250 250" style="enable-background:new 0 0 250 250;" xml:space="preserve">
<style type="text/css">
	.st0{fill:#4863AE;}
	.st1{fill:#78A1D5;}
</style>
<g>
	<path class="st0" d="M225,53.2c-1.1,8.6-3.7,18.5-5.8,28.5c-8,38.4-16.2,76.7-24.3,115.1c-2.8,13.3-9.4,15.9-20.3,7.8
		c-13.2-9.8-26.5-19.6-39.7-29.5c-2.4-1.8-4-2-6.3,0.3c-6.2,6.4-12.7,12.5-19.1,18.7c-1.3,1.2-2.5,2.5-4,3.4
		c-5.2,3.1-10,1.3-11.8-4.3c-5.4-16.8-11-33.5-16.3-50.3c-0.9-2.8-2.3-4.2-5.2-5.1c-13.1-3.9-26.2-8-39.2-12.2
		c-3.3-1.1-7.7-1.8-7.9-6.4c-0.2-4.6,3.8-6.4,7.2-7.8c21.7-8.6,43.5-17,65.2-25.4c37.8-14.6,75.6-29.1,113.5-43.7
		c2.8-1.1,5.5-1.9,8.5-0.9C223.3,42.7,225.1,46.1,225,53.2z"/>
	<path class="st1" d="M99.2,184.6c-1.4-4.1-2.8-8.1-4.1-12.2c-3.5-10.8-6.9-21.6-10.6-32.4c-1-2.9-0.8-4.7,2.1-6.5
		c31.8-20,63.6-40.1,95.4-60.1c2.2-1.4,5.4-3.5,7.1-1.3c1.9,2.5-1.9,4-3.5,5.5c-26,23.6-52.1,47.1-78.2,70.6
		c-2.7,2.5-4.4,4.9-4.6,8.9c-0.5,9.1-1.7,18.3-2.6,27.4C99.8,184.4,99.5,184.5,99.2,184.6z"/>
</g>
</svg>
