<?xml version="1.0" encoding="utf-8"?>
<!-- Generator: Adobe Illustrator 27.8.1, SVG Export Plug-In . SVG Version: 6.00 Build 0)  -->
<svg version="1.1" id="Layer_1" xmlns="http://www.w3.org/2000/svg" xmlns:xlink="http://www.w3.org/1999/xlink" x="0px" y="0px"
	 viewBox="0 0 206.2 12.6" style="enable-background:new 0 0 206.2 12.6;" xml:space="preserve">
<style type="text/css">
	.st0{fill:#1CB895;stroke:#000000;stroke-width:0.5;stroke-miterlimit:10;}
</style>
<g>
	<path class="st0" d="M6.7,2L6.7,4.5L4.9,4.6l-0.4,5.6L2,10.3l0-5.6L0.3,4.8l0.1-2.8L6.7,2z"/>
	<path class="st0" d="M14,10.2l-2.9,0.1l0-2.5H9.7l-0.1,2.6H7l0.2-8.2L10,2.3L9.8,6.5h1.3l0-4.4l2.7,0.1L14,10.2z"/>
	<path class="st0" d="M21.1,5.7c0,0.3,0,0.7-0.1,1c-0.7,0-1.3,0.1-2,0.2s-1.3,0.2-2,0.3c0.1,0.3,0.3,0.5,0.5,0.7s0.5,0.3,0.8,0.3
		c0.2,0,0.3,0,0.5-0.1s0.4-0.1,0.6-0.2s0.4-0.2,0.5-0.3s0.3-0.2,0.4-0.3l-0.3,2.7c-0.2,0.1-0.3,0.2-0.5,0.3s-0.4,0.1-0.6,0.2
		s-0.4,0.1-0.6,0.1s-0.4,0-0.6,0c-0.4,0-0.7-0.1-1.1-0.2s-0.6-0.3-0.9-0.4s-0.5-0.4-0.7-0.7s-0.4-0.5-0.5-0.8s-0.2-0.6-0.3-1
		s-0.1-0.7-0.1-1c0-0.4,0-0.7,0.1-1.1s0.2-0.7,0.3-1s0.3-0.6,0.5-0.9s0.4-0.5,0.7-0.8s0.6-0.4,0.9-0.5s0.7-0.2,1.1-0.2
		c0.3,0,0.7,0,1,0.1s0.5,0.2,0.8,0.4s0.4,0.4,0.6,0.6s0.3,0.5,0.4,0.8S21,4.4,21,4.7S21.1,5.4,21.1,5.7z M18.8,5.4
		c0-0.1,0-0.2,0-0.3s-0.1-0.2-0.1-0.3s-0.1-0.2-0.2-0.2s-0.2-0.1-0.3-0.1c-0.2,0-0.3,0-0.4,0.1s-0.2,0.2-0.3,0.3s-0.2,0.3-0.2,0.4
		S17.1,5.6,17,5.7l1.7-0.2V5.4z"/>
	<path class="st0" d="M30.9,9.2c-0.2,0.2-0.4,0.4-0.7,0.6s-0.6,0.3-0.9,0.4s-0.6,0.2-0.9,0.3s-0.6,0.1-0.9,0.1
		c-0.6,0-1.1-0.1-1.6-0.3S25,9.8,24.7,9.5s-0.6-0.8-0.8-1.3s-0.3-1-0.3-1.6c0-0.4,0-0.8,0.1-1.3s0.2-0.8,0.4-1.2s0.4-0.7,0.7-1
		s0.6-0.6,0.9-0.8s0.7-0.4,1.1-0.5s0.8-0.2,1.3-0.2c0.2,0,0.3,0,0.5,0s0.4,0,0.6,0.1s0.4,0.1,0.6,0.1s0.3,0.1,0.5,0.2l-0.2,2.2
		c-0.2-0.1-0.4-0.1-0.7-0.2s-0.5,0-0.7,0c-0.3,0-0.6,0-0.9,0.1s-0.5,0.2-0.7,0.4s-0.4,0.4-0.5,0.7S26.5,6,26.5,6.3
		c0,0.2,0,0.4,0.1,0.6s0.1,0.4,0.2,0.5s0.2,0.3,0.4,0.4s0.4,0.1,0.6,0.1c0.1,0,0.3,0,0.5-0.1s0.3-0.1,0.4-0.2l0-0.5l-1.4,0l0.1-1.8
		c0.6,0,1.2,0,1.7,0s1.2,0,1.8-0.1L30.9,9.2z"/>
	<path class="st0" d="M38.6,5.9c0,0.4,0,0.7-0.1,1s-0.2,0.6-0.4,0.9s-0.3,0.6-0.6,0.8s-0.5,0.4-0.7,0.6s-0.6,0.3-0.9,0.4
		s-0.7,0.1-1,0.1c-0.4,0-0.7,0-1-0.1S33.3,9.5,33,9.3S32.5,9,32.2,8.7S31.8,8.3,31.7,8s-0.3-0.6-0.4-0.9s-0.1-0.7-0.1-1
		c0-0.3,0-0.7,0.1-1s0.2-0.6,0.4-0.9s0.3-0.6,0.6-0.8s0.5-0.5,0.7-0.6s0.6-0.3,0.9-0.4s0.7-0.1,1-0.1c0.6,0,1.1,0.1,1.5,0.3
		s0.9,0.4,1.2,0.8s0.6,0.7,0.8,1.2S38.6,5.4,38.6,5.9z M36,6.1c0-0.2,0-0.3-0.1-0.5s-0.1-0.3-0.2-0.4S35.5,5,35.4,4.9
		s-0.3-0.1-0.5-0.1c-0.2,0-0.3,0-0.5,0.1S34.1,5,34,5.1s-0.2,0.2-0.2,0.4S33.7,5.9,33.7,6c0,0.2,0,0.3,0.1,0.5S33.9,6.8,34,7
		s0.2,0.2,0.3,0.3s0.3,0.1,0.5,0.1s0.3,0,0.5-0.1s0.3-0.2,0.4-0.3s0.2-0.3,0.2-0.4S36,6.3,36,6.1z"/>
	<path class="st0" d="M46.3,5.9c0,0.4,0,0.7-0.1,1s-0.2,0.6-0.4,0.9s-0.3,0.6-0.6,0.8s-0.5,0.4-0.7,0.6s-0.6,0.3-0.9,0.4
		s-0.7,0.1-1,0.1c-0.4,0-0.7,0-1-0.1s-0.6-0.2-0.9-0.4S40.1,9,39.9,8.7S39.5,8.3,39.3,8S39,7.4,38.9,7.1s-0.1-0.7-0.1-1
		c0-0.3,0-0.7,0.1-1s0.2-0.6,0.4-0.9s0.3-0.6,0.6-0.8s0.5-0.5,0.7-0.6s0.6-0.3,0.9-0.4s0.7-0.1,1-0.1c0.6,0,1.1,0.1,1.5,0.3
		s0.9,0.4,1.2,0.8s0.6,0.7,0.8,1.2S46.3,5.4,46.3,5.9z M43.7,6.1c0-0.2,0-0.3-0.1-0.5s-0.1-0.3-0.2-0.4S43.2,5,43,4.9
		s-0.3-0.1-0.5-0.1c-0.2,0-0.3,0-0.5,0.1S41.8,5,41.7,5.1s-0.2,0.2-0.2,0.4S41.4,5.9,41.4,6c0,0.2,0,0.3,0.1,0.5s0.1,0.3,0.2,0.4
		s0.2,0.2,0.3,0.3s0.3,0.1,0.5,0.1s0.3,0,0.5-0.1s0.3-0.2,0.4-0.3s0.2-0.3,0.2-0.4S43.7,6.3,43.7,6.1z"/>
	<path class="st0" d="M53.3,5.8c0,0.5-0.1,1-0.2,1.5s-0.3,0.8-0.6,1.2S51.9,9,51.6,9.2s-0.7,0.4-1.1,0.6s-0.9,0.3-1.3,0.3
		s-0.9,0.1-1.4,0.1c-0.2,0-0.4,0-0.5,0s-0.4,0-0.5,0l0.2-7.6c0.4-0.1,0.9-0.2,1.3-0.3s0.9-0.1,1.4-0.1c0.6,0,1.1,0.1,1.5,0.2
		s0.9,0.4,1.2,0.7s0.6,0.7,0.8,1.1S53.3,5.2,53.3,5.8z M49.3,8c0.2,0,0.4-0.1,0.6-0.2s0.4-0.2,0.5-0.4s0.2-0.3,0.3-0.5
		s0.1-0.4,0.1-0.6c0-0.2,0-0.4-0.1-0.6s-0.1-0.4-0.2-0.5s-0.2-0.3-0.4-0.3s-0.4-0.1-0.6-0.1L49.3,8z"/>
	<path class="st0" d="M60.2,5.7c0,0.3,0,0.7-0.1,1c-0.7,0-1.3,0.1-2,0.2s-1.3,0.2-2,0.3c0.1,0.3,0.3,0.5,0.5,0.7s0.5,0.3,0.8,0.3
		c0.2,0,0.3,0,0.5-0.1s0.4-0.1,0.6-0.2s0.4-0.2,0.5-0.3s0.3-0.2,0.4-0.3l-0.3,2.7c-0.2,0.1-0.3,0.2-0.5,0.3s-0.4,0.1-0.6,0.2
		s-0.4,0.1-0.6,0.1s-0.4,0-0.6,0c-0.4,0-0.7-0.1-1.1-0.2S55.3,10.2,55,10s-0.5-0.4-0.7-0.7S54,8.8,53.9,8.4s-0.2-0.6-0.3-1
		s-0.1-0.7-0.1-1c0-0.4,0-0.7,0.1-1.1s0.2-0.7,0.3-1s0.3-0.6,0.5-0.9s0.4-0.5,0.7-0.8s0.6-0.4,0.9-0.5s0.7-0.2,1.1-0.2
		c0.3,0,0.7,0,1,0.1s0.5,0.2,0.8,0.4s0.4,0.4,0.6,0.6s0.3,0.5,0.4,0.8s0.2,0.6,0.2,0.9S60.2,5.4,60.2,5.7z M57.9,5.4
		c0-0.1,0-0.2,0-0.3s-0.1-0.2-0.1-0.3s-0.1-0.2-0.2-0.2s-0.2-0.1-0.3-0.1c-0.2,0-0.3,0-0.4,0.1s-0.2,0.2-0.3,0.3s-0.2,0.3-0.2,0.4
		s-0.1,0.3-0.1,0.4l1.7-0.2V5.4z"/>
	<path class="st0" d="M66.6,7.4c0,0.5-0.1,1-0.3,1.4s-0.4,0.7-0.8,1s-0.7,0.4-1.1,0.6s-0.9,0.2-1.4,0.2c-0.2,0-0.4,0-0.6-0.1
		s-0.5-0.1-0.7-0.2S61.2,10.1,61,10s-0.4-0.2-0.6-0.2l0.3-2.3c0.3,0.2,0.7,0.4,1.1,0.5s0.8,0.2,1.2,0.2c0.1,0,0.2,0,0.3,0
		s0.2,0,0.3-0.1s0.2-0.1,0.2-0.1s0.1-0.1,0.1-0.3c0-0.1,0-0.1-0.1-0.2s-0.1-0.1-0.2-0.1s-0.2-0.1-0.3-0.1s-0.2,0-0.3,0s-0.2,0-0.3,0
		s-0.1,0-0.2,0c-0.3,0-0.6-0.1-0.9-0.2s-0.5-0.3-0.7-0.4s-0.4-0.4-0.5-0.7s-0.2-0.6-0.2-0.9c0-0.5,0.1-0.9,0.3-1.2s0.4-0.7,0.7-0.9
		s0.7-0.5,1.1-0.6S63.4,2,63.8,2c0.2,0,0.4,0,0.6,0s0.4,0,0.6,0.1s0.4,0.1,0.6,0.1s0.4,0.1,0.5,0.2l-0.2,2.4
		c-0.3-0.1-0.5-0.2-0.8-0.2s-0.6-0.1-0.9-0.1c-0.1,0-0.1,0-0.2,0s-0.2,0-0.3,0s-0.2,0-0.3,0s-0.2,0-0.2,0.1s-0.1,0.1-0.2,0.1
		S63,4.9,63,4.9c0,0.1,0,0.2,0.1,0.2s0.1,0.1,0.2,0.1s0.2,0,0.3,0s0.2,0,0.3,0s0.2,0,0.3,0s0.2,0,0.2,0c0.3,0,0.6,0.1,0.8,0.2
		s0.5,0.3,0.6,0.5s0.3,0.4,0.4,0.7S66.6,7.1,66.6,7.4z"/>
	<path class="st0" d="M73,2.2L73,4.6l-1.7,0.1L71,10.2l-2.5,0.1l-0.2-5.4l-1.7,0.1l0.1-2.8L73,2.2z"/>
	<path class="st0" d="M82.5,8.3c0,0.3-0.1,0.6-0.2,0.8s-0.3,0.4-0.5,0.6s-0.4,0.3-0.7,0.4s-0.5,0.2-0.8,0.2s-0.6,0.1-0.8,0.1
		s-0.5,0-0.8,0c-0.2,0-0.5,0-0.8,0s-0.5,0-0.8-0.1s-0.5-0.1-0.8-0.2S76,10.1,75.7,10l0-7.5c0.2-0.1,0.5-0.2,0.7-0.2s0.5-0.1,0.8-0.2
		s0.5-0.1,0.8-0.1s0.5,0,0.7,0c0.3,0,0.6,0,0.8,0.1s0.6,0.1,0.8,0.2s0.5,0.2,0.7,0.3s0.4,0.3,0.6,0.5s0.3,0.4,0.4,0.7
		s0.1,0.5,0.1,0.9c0,0.2,0,0.4-0.1,0.6S82,5.4,81.8,5.6S81.6,5.9,81.4,6s-0.4,0.2-0.6,0.2c0.3,0.1,0.5,0.2,0.7,0.3s0.4,0.3,0.5,0.5
		s0.3,0.4,0.3,0.6S82.5,8.1,82.5,8.3z M78.7,6.9c-0.1,0-0.2,0-0.3,0l0,1.3c0.1,0,0.1,0,0.2,0s0.1,0,0.2,0c0.1,0,0.2,0,0.3,0
		s0.2-0.1,0.3-0.1s0.2-0.1,0.2-0.2s0.1-0.2,0.1-0.4s0-0.3-0.1-0.4S79.3,7.1,79.3,7S79.1,7,79,6.9S78.8,6.9,78.7,6.9z M79.6,5
		c0-0.1,0-0.2-0.1-0.3s-0.1-0.1-0.2-0.2s-0.1-0.1-0.2-0.1s-0.2,0-0.2,0c-0.1,0-0.2,0-0.2,0s-0.1,0.1-0.2,0.1l0,1.3
		c0.1,0,0.2,0,0.3,0s0.3,0,0.4-0.1s0.2-0.1,0.3-0.2S79.6,5.2,79.6,5z"/>
	<path class="st0" d="M89.9,5.9c0,0.4,0,0.7-0.1,1s-0.2,0.6-0.4,0.9s-0.3,0.6-0.6,0.8s-0.5,0.4-0.7,0.6s-0.6,0.3-0.9,0.4
		s-0.7,0.1-1,0.1c-0.4,0-0.7,0-1-0.1s-0.6-0.2-0.9-0.4S83.8,9,83.6,8.7S83.2,8.3,83,8s-0.3-0.6-0.4-0.9s-0.1-0.7-0.1-1
		c0-0.3,0-0.7,0.1-1s0.2-0.6,0.4-0.9s0.3-0.6,0.6-0.8s0.5-0.5,0.7-0.6s0.6-0.3,0.9-0.4s0.7-0.1,1-0.1c0.6,0,1.1,0.1,1.5,0.3
		s0.9,0.4,1.2,0.8s0.6,0.7,0.8,1.2S89.9,5.4,89.9,5.9z M87.3,6.1c0-0.2,0-0.3-0.1-0.5s-0.1-0.3-0.2-0.4S86.8,5,86.7,4.9
		s-0.3-0.1-0.5-0.1c-0.2,0-0.3,0-0.5,0.1S85.5,5,85.4,5.1s-0.2,0.2-0.2,0.4S85,5.9,85,6c0,0.2,0,0.3,0.1,0.5s0.1,0.3,0.2,0.4
		s0.2,0.2,0.3,0.3s0.3,0.1,0.5,0.1s0.3,0,0.5-0.1S86.9,7.1,87,7s0.2-0.3,0.2-0.4S87.3,6.3,87.3,6.1z"/>
	<path class="st0" d="M97.2,2.5L94.5,7l0.1,3.3h-3L91.6,7l-2.1-4.3l3-0.4l0.9,2.5l1-2.5L97.2,2.5z"/>
	<path class="st0" d="M106.8,5.9c0,0.4,0,0.7-0.1,1s-0.2,0.6-0.4,0.9s-0.3,0.6-0.6,0.8s-0.5,0.4-0.7,0.6s-0.6,0.3-0.9,0.4
		s-0.7,0.1-1,0.1c-0.4,0-0.7,0-1-0.1s-0.6-0.2-0.9-0.4s-0.5-0.4-0.8-0.6s-0.4-0.5-0.6-0.8s-0.3-0.6-0.4-0.9s-0.1-0.7-0.1-1
		c0-0.3,0-0.7,0.1-1s0.2-0.6,0.4-0.9s0.3-0.6,0.6-0.8s0.5-0.5,0.7-0.6s0.6-0.3,0.9-0.4s0.7-0.1,1-0.1c0.6,0,1.1,0.1,1.5,0.3
		s0.9,0.4,1.2,0.8s0.6,0.7,0.8,1.2S106.8,5.4,106.8,5.9z M104.2,6.1c0-0.2,0-0.3-0.1-0.5S104,5.3,104,5.2s-0.2-0.2-0.3-0.3
		s-0.3-0.1-0.5-0.1c-0.2,0-0.3,0-0.5,0.1s-0.3,0.2-0.4,0.3s-0.2,0.2-0.2,0.4s-0.1,0.3-0.1,0.5c0,0.2,0,0.3,0.1,0.5s0.1,0.3,0.2,0.4
		s0.2,0.2,0.3,0.3s0.3,0.1,0.5,0.1s0.3,0,0.5-0.1s0.3-0.2,0.4-0.3s0.2-0.3,0.2-0.4S104.2,6.3,104.2,6.1z"/>
	<path class="st0" d="M114.5,7.5c0,0.4,0,0.9,0,1.3s0,0.9,0,1.3L111,10c0.1-0.7,0.2-1.4,0.3-2.1s0.1-1.4,0.1-2.1c0-0.1,0-0.1,0-0.2
		s0-0.2,0-0.4s0-0.3,0-0.4s-0.1-0.3-0.1-0.4s-0.1-0.2-0.1-0.3S111,3.9,111,3.9c-0.1,0-0.2,0-0.3,0.1s-0.2,0.2-0.2,0.3
		s-0.1,0.3-0.1,0.4s-0.1,0.3-0.1,0.5s0,0.3,0,0.4s0,0.2,0,0.3c0,0.7,0,1.4,0,2.1s0,1.4,0,2.1l-3,0.1c0.1-1.4,0.2-2.8,0.2-4.1
		s0.1-2.7,0.2-4.1l2.8-0.1l0,0.9c0.1-0.1,0.2-0.3,0.4-0.4s0.3-0.2,0.4-0.3s0.3-0.2,0.5-0.2s0.3-0.1,0.5-0.1c0.3,0,0.6,0.1,0.9,0.2
		s0.5,0.3,0.6,0.4s0.3,0.4,0.5,0.7s0.2,0.5,0.3,0.8s0.1,0.6,0.2,0.9s0.1,0.6,0.1,0.9s0,0.6,0,0.9S114.5,7.2,114.5,7.5z"/>
	<path class="st0" d="M123.6,2.2l-0.1,2.5l-1.7,0.1l-0.2,5.4l-2.5,0.1l-0.2-5.4l-1.7,0.1l0.1-2.8L123.6,2.2z"/>
	<path class="st0" d="M130.8,10.2l-2.9,0.1l0-2.5h-1.3l-0.1,2.6h-2.6l0.2-8.2l2.8,0.1l-0.2,4.2h1.3l0-4.4l2.7,0.1L130.8,10.2z"/>
	<path class="st0" d="M137.9,5.7c0,0.3,0,0.7-0.1,1c-0.7,0-1.3,0.1-2,0.2s-1.3,0.2-2,0.3c0.1,0.3,0.3,0.5,0.5,0.7s0.5,0.3,0.8,0.3
		c0.2,0,0.3,0,0.5-0.1s0.4-0.1,0.6-0.2s0.4-0.2,0.5-0.3s0.3-0.2,0.4-0.3l-0.3,2.7c-0.2,0.1-0.3,0.2-0.5,0.3s-0.4,0.1-0.6,0.2
		s-0.4,0.1-0.6,0.1s-0.4,0-0.6,0c-0.4,0-0.7-0.1-1.1-0.2s-0.6-0.3-0.9-0.4s-0.5-0.4-0.7-0.7s-0.4-0.5-0.5-0.8s-0.2-0.6-0.3-1
		s-0.1-0.7-0.1-1c0-0.4,0-0.7,0.1-1.1s0.2-0.7,0.3-1s0.3-0.6,0.5-0.9s0.4-0.5,0.7-0.8s0.6-0.4,0.9-0.5s0.7-0.2,1.1-0.2
		c0.3,0,0.7,0,1,0.1s0.5,0.2,0.8,0.4s0.4,0.4,0.6,0.6s0.3,0.5,0.4,0.8s0.2,0.6,0.2,0.9S137.9,5.4,137.9,5.7z M135.6,5.4
		c0-0.1,0-0.2,0-0.3s-0.1-0.2-0.1-0.3s-0.1-0.2-0.2-0.2s-0.2-0.1-0.3-0.1c-0.2,0-0.3,0-0.4,0.1s-0.2,0.2-0.3,0.3S134,5.1,134,5.3
		s-0.1,0.3-0.1,0.4l1.7-0.2V5.4z"/>
	<path class="st0" d="M147.5,8.3c0,0.3-0.1,0.6-0.2,0.8s-0.3,0.4-0.5,0.6s-0.4,0.3-0.7,0.4s-0.5,0.2-0.8,0.2s-0.6,0.1-0.8,0.1
		s-0.5,0-0.8,0c-0.2,0-0.5,0-0.8,0s-0.5,0-0.8-0.1s-0.5-0.1-0.8-0.2s-0.5-0.2-0.7-0.3l0-7.5c0.2-0.1,0.5-0.2,0.7-0.2
		s0.5-0.1,0.8-0.2s0.5-0.1,0.8-0.1s0.5,0,0.7,0c0.3,0,0.6,0,0.8,0.1s0.6,0.1,0.8,0.2s0.5,0.2,0.7,0.3s0.4,0.3,0.6,0.5
		s0.3,0.4,0.4,0.7s0.1,0.5,0.1,0.9c0,0.2,0,0.4-0.1,0.6s-0.2,0.4-0.3,0.5s-0.3,0.3-0.4,0.4s-0.4,0.2-0.6,0.2
		c0.3,0.1,0.5,0.2,0.7,0.3s0.4,0.3,0.5,0.5s0.3,0.4,0.3,0.6S147.5,8.1,147.5,8.3z M143.7,6.9c-0.1,0-0.2,0-0.3,0l0,1.3
		c0.1,0,0.1,0,0.2,0s0.1,0,0.2,0c0.1,0,0.2,0,0.3,0s0.2-0.1,0.3-0.1s0.2-0.1,0.2-0.2s0.1-0.2,0.1-0.4s0-0.3-0.1-0.4
		s-0.1-0.2-0.2-0.2S144,7,144,6.9S143.8,6.9,143.7,6.9z M144.5,5c0-0.1,0-0.2-0.1-0.3s-0.1-0.1-0.2-0.2s-0.1-0.1-0.2-0.1
		s-0.2,0-0.2,0c-0.1,0-0.2,0-0.2,0s-0.1,0.1-0.2,0.1l0,1.3c0.1,0,0.2,0,0.3,0s0.3,0,0.4-0.1s0.2-0.1,0.3-0.2S144.5,5.2,144.5,5z"/>
	<path class="st0" d="M152.9,7.3l-0.2,2.6l-4.9,0.4l0.2-8.4h3l-0.4,5.4H152.9z"/>
	<path class="st0" d="M160.5,5.9c0,0.4,0,0.7-0.1,1s-0.2,0.6-0.4,0.9s-0.3,0.6-0.6,0.8s-0.5,0.4-0.7,0.6s-0.6,0.3-0.9,0.4
		s-0.7,0.1-1,0.1c-0.4,0-0.7,0-1-0.1s-0.6-0.2-0.9-0.4s-0.5-0.4-0.8-0.6s-0.4-0.5-0.6-0.8s-0.3-0.6-0.4-0.9s-0.1-0.7-0.1-1
		c0-0.3,0-0.7,0.1-1s0.2-0.6,0.4-0.9s0.3-0.6,0.6-0.8s0.5-0.5,0.7-0.6s0.6-0.3,0.9-0.4s0.7-0.1,1-0.1c0.6,0,1.1,0.1,1.5,0.3
		s0.9,0.4,1.2,0.8s0.6,0.7,0.8,1.2S160.5,5.4,160.5,5.9z M157.9,6.1c0-0.2,0-0.3-0.1-0.5s-0.1-0.3-0.2-0.4s-0.2-0.2-0.3-0.3
		s-0.3-0.1-0.5-0.1c-0.2,0-0.3,0-0.5,0.1S156,5,155.9,5.1s-0.2,0.2-0.2,0.4s-0.1,0.3-0.1,0.5c0,0.2,0,0.3,0.1,0.5s0.1,0.3,0.2,0.4
		s0.2,0.2,0.3,0.3s0.3,0.1,0.5,0.1s0.3,0,0.5-0.1s0.3-0.2,0.4-0.3s0.2-0.3,0.2-0.4S157.9,6.3,157.9,6.1z"/>
	<path class="st0" d="M166.5,2.4l-0.2,2.5c-0.1,0-0.2-0.1-0.3-0.1s-0.2,0-0.3,0c-0.3,0-0.5,0-0.8,0.1s-0.5,0.2-0.7,0.3
		s-0.3,0.3-0.5,0.5s-0.2,0.5-0.2,0.8c0,0.2,0,0.4,0.1,0.6s0.2,0.3,0.3,0.4s0.3,0.2,0.4,0.2s0.4,0.1,0.6,0.1c0.1,0,0.3,0,0.4,0
		s0.3-0.1,0.5-0.1s0.3-0.1,0.4-0.2s0.3-0.1,0.4-0.2l-0.1,2.8c-0.2,0.1-0.3,0.1-0.5,0.2s-0.4,0.1-0.5,0.2s-0.4,0.1-0.6,0.1
		s-0.4,0-0.5,0c-0.6,0-1.1-0.1-1.5-0.3s-0.8-0.5-1.2-0.8s-0.6-0.8-0.8-1.2s-0.3-1-0.3-1.5c0-0.6,0.1-1.2,0.3-1.8s0.4-1,0.8-1.4
		s0.8-0.7,1.3-1s1.1-0.3,1.8-0.3c0.3,0,0.5,0,0.8,0.1S166.2,2.3,166.5,2.4z"/>
	<path class="st0" d="M174.2,2.9l-2.6,3.1l2.4,4l-2.7,0.5L169.5,8l-0.1,2.3l-2.4,0.1l0.2-8.4l2.7,0.2l-0.2,2.4l1.7-2.4L174.2,2.9z"
		/>
	<path class="st0" d="M179.3,2.4l-0.2,2.5c-0.1,0-0.2-0.1-0.3-0.1s-0.2,0-0.3,0c-0.3,0-0.5,0-0.8,0.1s-0.5,0.2-0.7,0.3
		s-0.3,0.3-0.5,0.5s-0.2,0.5-0.2,0.8c0,0.2,0,0.4,0.1,0.6s0.2,0.3,0.3,0.4s0.3,0.2,0.4,0.2s0.4,0.1,0.6,0.1c0.1,0,0.3,0,0.4,0
		s0.3-0.1,0.5-0.1s0.3-0.1,0.4-0.2s0.3-0.1,0.4-0.2l-0.1,2.8c-0.2,0.1-0.3,0.1-0.5,0.2s-0.4,0.1-0.5,0.2s-0.4,0.1-0.6,0.1
		s-0.4,0-0.5,0c-0.6,0-1.1-0.1-1.5-0.3s-0.8-0.5-1.2-0.8s-0.6-0.8-0.8-1.2s-0.3-1-0.3-1.5c0-0.6,0.1-1.2,0.3-1.8s0.4-1,0.8-1.4
		s0.8-0.7,1.3-1s1.1-0.3,1.8-0.3c0.3,0,0.5,0,0.8,0.1S179.1,2.3,179.3,2.4z"/>
	<path class="st0" d="M186.8,10.2l-2.9,0.1l0-2.5h-1.3l-0.1,2.6h-2.6l0.2-8.2l2.8,0.1l-0.2,4.2h1.3l0-4.4l2.7,0.1L186.8,10.2z"/>
	<path class="st0" d="M194.8,9.9l-2.9,0.4L191.5,9h-1.3l-0.3,1.3l-3-0.3l2.3-7.8l3.3-0.2L194.8,9.9z M191.3,7.2l-0.4-2l-0.4,2H191.3
		z"/>
	<path class="st0" d="M198,2.2l-0.4,8l-2.5,0.1l-0.2-7.9L198,2.2z"/>
	<path class="st0" d="M205.7,7.5c0,0.4,0,0.9,0,1.3s0,0.9,0,1.3l-3.4-0.1c0.1-0.7,0.2-1.4,0.3-2.1s0.1-1.4,0.1-2.1
		c0-0.1,0-0.1,0-0.2s0-0.2,0-0.4s0-0.3,0-0.4s-0.1-0.3-0.1-0.4s-0.1-0.2-0.1-0.3s-0.1-0.1-0.2-0.1c-0.1,0-0.2,0-0.3,0.1
		s-0.2,0.2-0.2,0.3s-0.1,0.3-0.1,0.4s-0.1,0.3-0.1,0.5s0,0.3,0,0.4s0,0.2,0,0.3c0,0.7,0,1.4,0,2.1s0,1.4,0,2.1l-3,0.1
		c0.1-1.4,0.2-2.8,0.2-4.1s0.1-2.7,0.2-4.1l2.8-0.1l0,0.9c0.1-0.1,0.2-0.3,0.4-0.4s0.3-0.2,0.4-0.3s0.3-0.2,0.5-0.2s0.3-0.1,0.5-0.1
		c0.3,0,0.6,0.1,0.9,0.2s0.5,0.3,0.6,0.4s0.3,0.4,0.5,0.7s0.2,0.5,0.3,0.8s0.1,0.6,0.2,0.9s0.1,0.6,0.1,0.9s0,0.6,0,0.9
		S205.7,7.2,205.7,7.5z"/>
</g>
</svg>
