<?xml version="1.0" encoding="utf-8"?>
<!-- Generator: Adobe Illustrator 27.8.1, SVG Export Plug-In . SVG Version: 6.00 Build 0)  -->
<svg version="1.1" id="Layer_1" xmlns="http://www.w3.org/2000/svg" xmlns:xlink="http://www.w3.org/1999/xlink" x="0px" y="0px"
	 viewBox="0 0 250 250" style="enable-background:new 0 0 250 250;" xml:space="preserve">
<style type="text/css">
	.st0{fill:#4863AE;}
</style>
<g>
	<path class="st0" d="M22.3,190.2c22.7,1.9,43.3-3.8,61.9-17.8c-9.4-0.5-17.5-3.2-24.6-8.6c-7.1-5.3-12.1-12.3-14.9-21
		c6.2,1,12.3,1,18.5-0.6c-21-6.3-32.1-20.1-33.6-42.4c6.2,3.3,12.3,5.1,19.3,5.4c-9.2-6.7-15.2-15.1-17.6-25.9s-0.8-21,4.6-30.7
		c1,1.2,1.9,2.3,2.8,3.3C57.1,72.7,80,85.9,107.3,91.1c4.7,0.9,9.5,1.4,14.3,1.8c1.6,0.1,1.6-0.4,1.4-1.6
		c-3.7-19.3,6.1-38.3,24-46.6c15.6-7.3,34.7-4,47.1,8.3c1,1,2,1.2,3.3,0.9c8.4-2,16.3-4.9,23.7-9.2c0.3-0.1,0.6-0.3,1.2-0.6
		c-3.4,10-9.4,17.5-18,23.1c2.9,0.1,13.8-2,23.2-6.1c0.3,0.5-0.1,0.8-0.3,1c-5.3,7.6-11.5,14.2-19,19.7c-1,0.7-1.2,1.4-1.2,2.5
		c0.6,28.8-7.8,54.9-25,77.9c-17.5,23.6-40.9,38.3-69.7,44.2c-12.2,2.5-24.4,3.2-36.8,2.1C56.4,206.8,38.6,200.7,22.3,190.2z"/>
</g>
</svg>
